<?xml version="1.0" encoding="iso-8859-1"?>
<!-- Generator: Adobe Illustrator 19.0.0, SVG Export Plug-In . SVG Version: 6.00 Build 0)  -->
<svg version="1.1" id="Layer_1" xmlns="http://www.w3.org/2000/svg" xmlns:xlink="http://www.w3.org/1999/xlink" x="0px" y="0px"
	 viewBox="0 0 512.001 512.001" style="enable-background:new 0 0 512.001 512.001;" xml:space="preserve">
<path style="fill:#808080;" d="M425.839,207.588c-4.175,0-7.9-2.954-8.725-7.206L392.939,75.628
	c-0.008-0.043-0.017-0.085-0.025-0.127c-5.975-33.438-34.962-57.708-68.926-57.708H233.35c-33.974,0-62.963,24.269-68.926,57.706
	L141.21,200.317c-0.898,4.83-5.53,8.02-10.373,7.12c-4.83-0.898-8.018-5.543-7.12-10.373l23.202-124.754
	C154.387,30.438,190.741,0,233.35,0h90.638c42.572,0,78.909,30.404,86.43,72.303l24.164,124.695
	c0.935,4.823-2.218,9.492-7.041,10.427C426.971,207.535,426.4,207.588,425.839,207.588z"/>
<path style="fill:#F76B4F;" d="M464.852,485.37c-3.604,0-6.524-2.92-6.524-6.524V439.7c0-3.604,2.92-6.524,6.524-6.524
	s6.524,2.92,6.524,6.524v39.145C471.376,482.449,468.456,485.37,464.852,485.37z"/>
<path style="fill:#808080;" d="M175.676,379.398c0,46.95-38.066,85.016-85.016,85.016c-15.753,0-30.509-4.282-43.166-11.755
	c-25.053-14.792-41.861-42.063-41.861-73.26c0-46.962,38.066-85.016,85.028-85.016c15.848,0,30.687,4.33,43.38,11.886
	C158.974,321.084,175.676,348.284,175.676,379.398z"/>
<path style="fill:#B3B3B3;" d="M175.676,379.398c0,46.95-38.066,85.016-85.016,85.016c-15.753,0-30.509-4.282-43.166-11.755
	l86.546-146.39C158.974,321.084,175.676,348.284,175.676,379.398z"/>
<path style="fill:#71C5F4;" d="M334.605,330.953h-111.87c-40.516,0-73.362,32.845-73.362,73.362v107.686h258.594V404.316
	C407.967,363.798,375.122,330.953,334.605,330.953z"/>
<path style="fill:#64B4D8;" d="M267.936,330.953h-45.202c-40.516,0-73.362,32.845-73.362,73.362v107.686h45.202V404.316
	C194.575,363.798,227.42,330.953,267.936,330.953z"/>
<path style="fill:#E0B394;" d="M331.011,305.45v66.831c0,28.896-23.44,52.336-52.336,52.336c-28.92,0-52.348-23.44-52.348-52.336
	V305.45H331.011z"/>
<path style="fill:#D1A88C;" d="M331.011,305.45v65.882l-2.882,2.1c-23.878,17.354-56.203,17.354-80.081,0l-21.72-15.777V305.45
	H331.011z"/>
<path style="fill:#F7CBA4;" d="M238.631,350.306l-48.693-35.378c-25.731-18.695-39.652-49.61-36.592-81.269l8.446-87.398
	c5.817-60.194,56.401-106.126,116.875-106.126l0,0c60.474,0,111.058,45.931,116.875,106.126l8.446,87.398
	c3.059,31.659-10.86,62.573-36.592,81.269l-48.693,35.378C294.829,367.65,262.503,367.65,238.631,350.306z"/>
<path style="fill:#E8BA97;" d="M183.648,250.884c-0.818,13.843,3.689,27.461,12.609,38.077l50.892,62.537
	c2.657,3.167,5.67,5.824,8.932,7.948c-6.121-2.135-12.004-5.196-17.449-9.146l-48.694-35.373
	c-25.729-18.695-39.643-49.607-36.583-81.267l8.434-87.4c5.765-59.607,55.42-105.229,115.122-106.095
	c-36.773,0.89-78.412,35.551-80.583,72.466L183.648,250.884z"/>
<g>
	<path style="fill:#F76B4F;" d="M154.519,144.205L154.519,144.205c-21.524-2.027-40.616,13.778-42.643,35.302l-2.002,21.258
		c-2.027,21.524,13.778,40.616,35.302,42.643l0,0L154.519,144.205z"/>
	<path style="fill:#F76B4F;" d="M402.814,144.205L402.814,144.205c21.524-2.027,40.616,13.778,42.643,35.302l2.002,21.258
		c2.027,21.524-13.778,40.616-35.302,42.643l0,0L402.814,144.205z"/>
</g>
<g>
	<path style="fill:#666666;" d="M145.424,249.769c-0.28,0-0.561-0.013-0.845-0.039c-4.892-0.46-8.484-4.799-8.024-9.691
		l9.105-96.666c0.46-4.892,4.804-8.481,9.691-8.024c4.892,0.46,8.484,4.799,8.024,9.691l-9.105,96.666
		C153.837,246.313,149.96,249.769,145.424,249.769z"/>
	<path style="fill:#666666;" d="M412.149,252.306c-4.537,0-8.413-3.454-8.847-8.063l-9.344-99.203
		c-0.461-4.892,3.132-9.231,8.024-9.691c4.887-0.457,9.231,3.132,9.691,8.024l9.344,99.203c0.461,4.892-3.132,9.231-8.024,9.691
		C412.71,252.293,412.428,252.306,412.149,252.306z"/>
	<path style="fill:#666666;" d="M383.797,105.241c-6.394,4.65-14.27,7.39-22.775,7.39c-8.244,0-15.883-2.586-22.158-6.975
		c-15.848,14.567-36.974,23.451-60.188,23.451s-44.341-8.885-60.188-23.451c-6.275,4.389-13.914,6.975-22.158,6.975
		c-8.505,0-16.393-2.752-22.787-7.402h-0.012c18.73-37.615,56.926-63.439,100.864-65.016c0.32-0.012,0.641-0.012,0.961-0.024
		c0.522-0.012,1.044-0.012,1.554-0.024c0.581-0.024,1.162-0.024,1.756-0.024c30.237,0,58.006,11.483,78.931,30.486
		C368.317,80.366,377.261,92.074,383.797,105.241z"/>
</g>
<path style="fill:#4D4D4D;" d="M276.908,40.165c-36.773,0.89-78.409,35.551-80.579,72.466c-8.505,0-16.393-2.752-22.787-7.402
	h-0.012c18.73-37.615,56.926-63.439,100.864-65.016c0.32-0.012,0.641-0.012,0.961-0.024
	C275.876,40.177,276.397,40.177,276.908,40.165z"/>
<path style="fill:#F7B239;" d="M111.301,379.398c0,11.399-9.241,20.64-20.64,20.64c-3.796,0-7.343-1.02-10.391-2.811
	c-6.133-3.571-10.249-10.225-10.249-17.829c0-11.399,9.241-20.64,20.64-20.64c3.891,0,7.521,1.079,10.617,2.942
	C107.279,365.306,111.301,371.877,111.301,379.398z"/>
<path style="fill:#F9C573;" d="M424.888,338.474h79.927c-2.503,8.92-7.924,16.631-15.16,22.028v73.569
	c0,6.844-2.776,13.048-7.26,17.544c-4.496,4.484-10.688,7.26-17.544,7.26c-13.689,0-24.792-11.103-24.792-24.804v-73.557
	C432.811,355.116,427.39,347.406,424.888,338.474z"/>
<path style="fill:#666666;" d="M506.368,327.205c0,3.903-0.534,7.687-1.554,11.269h-79.927c-1.02-3.582-1.554-7.366-1.554-11.269
	c0-22.929,18.588-41.517,41.517-41.517C487.78,285.687,506.368,304.275,506.368,327.205z"/>
<path style="fill:#E2AF66;" d="M464.851,458.874c-13.689,0-24.792-11.103-24.792-24.804v-73.557
	c-7.248-5.397-12.669-13.108-15.172-22.04h27.402c0.783,8.932,2.491,16.643,4.769,22.04v73.557
	C457.058,447.771,460.545,458.874,464.851,458.874z"/>
<path style="fill:#4D4D4D;" d="M464.851,285.687c-7.212,0-13.048,18.588-13.048,41.517c0,3.903,0.166,7.687,0.486,11.269h-27.402
	c-1.02-3.582-1.554-7.366-1.554-11.269C423.334,304.275,441.922,285.687,464.851,285.687z"/>
<polygon style="fill:#F76B4F;" points="71.083,37.682 83.657,63.161 111.775,67.246 91.429,87.079 96.232,115.083 71.083,101.861 
	45.934,115.083 50.737,87.079 30.391,67.246 58.508,63.161 "/>
<path style="fill:#F9C573;" d="M111.301,379.398c0,11.399-9.241,20.64-20.64,20.64c-3.796,0-7.343-1.02-10.391-2.811l21.008-35.527
	C107.279,365.306,111.301,371.877,111.301,379.398z"/>
<path style="fill:#F2F2F2;" d="M325.103,273.813c0,0-0.676,1.661-2.1,4.282c-0.344,0.676-0.747,1.388-1.198,2.159
	c-0.534,0.759-1.151,1.53-1.815,2.396c-0.664,0.866-1.423,1.744-2.23,2.716c-0.285,0.368-0.593,0.676-0.925,0.996
	c-0.119,0.119-0.249,0.237-0.38,0.356c-0.463,0.427-0.937,0.878-1.423,1.329c-0.973,0.913-2.028,1.815-3.132,2.764
	c-1.163,0.854-2.408,1.661-3.689,2.538c-0.641,0.439-1.305,0.866-1.981,1.293c-0.676,0.403-1.4,0.735-2.135,1.103
	c-1.447,0.735-2.954,1.447-4.508,2.159c-3.203,1.091-6.536,2.372-10.095,2.906c-3.511,0.818-7.177,0.949-10.83,1.127
	c-3.654-0.178-7.319-0.297-10.83-1.115c-3.559-0.534-6.892-1.815-10.095-2.906c-1.554-0.7-3.06-1.412-4.519-2.147
	c-0.724-0.368-1.447-0.7-2.135-1.103c-0.664-0.439-1.329-0.854-1.969-1.293c-1.281-0.878-2.538-1.696-3.701-2.538
	c-1.103-0.949-2.147-1.862-3.132-2.764c-0.486-0.463-0.949-0.901-1.412-1.34c-0.166-0.154-0.332-0.308-0.498-0.463
	c-0.285-0.285-0.558-0.558-0.795-0.878c-0.771-0.937-1.518-1.803-2.171-2.657c-0.641-0.866-1.269-1.625-1.791-2.384
	c-0.474-0.807-0.913-1.542-1.281-2.218c-1.483-2.705-2.1-4.318-2.1-4.318s1.756,0.534,4.46,1.625c0.688,0.261,1.4,0.581,2.194,0.902
	c0.842,0.249,1.708,0.569,2.633,0.878c0.937,0.308,1.874,0.688,2.871,1.044c0.985,0.38,2.1,0.629,3.203,0.961
	c1.103,0.32,2.206,0.712,3.357,1.056c1.198,0.261,2.396,0.569,3.63,0.866c0.617,0.142,1.222,0.32,1.839,0.486
	c0.629,0.142,1.281,0.225,1.922,0.356c1.293,0.225,2.586,0.486,3.879,0.783c2.693,0.249,5.35,0.842,8.126,0.949
	c2.74,0.356,5.54,0.261,8.315,0.427c2.788-0.166,5.587-0.059,8.327-0.415c2.776-0.095,5.433-0.7,8.126-0.949
	c1.293-0.285,2.586-0.546,3.879-0.771c0.641-0.13,1.293-0.214,1.922-0.356c0.617-0.178,1.234-0.344,1.839-0.486
	c1.234-0.297,2.432-0.617,3.63-0.866c1.162-0.344,2.266-0.735,3.369-1.056c1.091-0.332,2.23-0.593,3.179-0.961
	c0.973-0.332,1.886-0.7,2.811-0.985c0.913-0.308,1.767-0.617,2.61-0.866c0.83-0.356,1.566-0.7,2.266-0.973
	C323.383,274.312,325.103,273.813,325.103,273.813z"/>
<g>
	<path style="fill:#4D4D4D;" d="M316.835,286.363c-0.119,0.119-0.249,0.237-0.38,0.356c-0.463,0.427-0.937,0.878-1.423,1.329
		c-0.973,0.913-2.028,1.815-3.132,2.764c-1.163,0.854-2.408,1.661-3.689,2.538c-0.641,0.439-1.305,0.866-1.981,1.293
		c-0.676,0.403-1.4,0.735-2.135,1.103c-1.447,0.735-2.954,1.447-4.508,2.159c-3.203,1.091-6.536,2.372-10.095,2.906
		c-3.511,0.818-7.177,0.949-10.83,1.127c-3.654-0.178-7.319-0.297-10.83-1.115c-3.559-0.534-6.892-1.815-10.095-2.906
		c-1.554-0.7-3.06-1.412-4.519-2.147c-0.724-0.368-1.447-0.7-2.135-1.103c-0.664-0.439-1.329-0.854-1.969-1.293
		c-1.281-0.878-2.538-1.696-3.701-2.538c-1.103-0.949-2.147-1.862-3.132-2.764c-0.486-0.463-0.949-0.901-1.412-1.34
		c-0.166-0.154-0.332-0.308-0.498-0.463c0.38,0.13,0.759,0.261,1.151,0.391c0.937,0.308,1.874,0.676,2.871,1.032
		c0.985,0.391,2.1,0.641,3.203,0.973c1.103,0.32,2.206,0.7,3.357,1.056c1.198,0.249,2.396,0.569,3.63,0.866
		c0.617,0.142,1.222,0.308,1.839,0.474c0.629,0.142,1.281,0.225,1.922,0.356c1.293,0.225,2.586,0.498,3.879,0.783
		c2.693,0.261,5.35,0.854,8.126,0.949c2.74,0.368,5.54,0.261,8.315,0.439c2.788-0.166,5.587-0.059,8.327-0.427
		c2.776-0.095,5.433-0.688,8.126-0.937c1.293-0.285,2.586-0.558,3.879-0.783c0.641-0.13,1.293-0.214,1.922-0.356
		c0.617-0.166,1.234-0.332,1.839-0.474c1.234-0.297,2.432-0.617,3.63-0.866c1.162-0.356,2.266-0.747,3.369-1.056
		c1.091-0.332,2.23-0.605,3.179-0.961c0.973-0.344,1.886-0.7,2.811-0.996C316.112,286.613,316.48,286.482,316.835,286.363z"/>
	<path style="fill:#4D4D4D;" d="M225.86,234.078c-4.913,0-8.897-3.983-8.897-8.897v-14.23c0-4.913,3.983-8.897,8.897-8.897
		c4.913,0,8.897,3.983,8.897,8.897v14.23C234.757,230.094,230.773,234.078,225.86,234.078z"/>
</g>
<g>
	<path style="fill:#666666;" d="M311.132,176.551c0,0,0.024-0.236,0.103-0.642c0.091-0.393,0.184-1.013,0.383-1.715
		c0.089-0.363,0.204-0.741,0.336-1.158c0.172-0.422,0.403-0.847,0.649-1.329c0.243-0.484,0.55-0.962,0.873-1.499
		c0.325-0.546,0.713-0.96,1.11-1.486c0.403-0.507,0.858-0.996,1.332-1.523c0.502-0.476,1.046-0.944,1.625-1.415
		c1.133-0.998,2.517-1.719,3.96-2.521c1.492-0.631,3.076-1.315,4.772-1.632c1.68-0.437,3.441-0.54,5.198-0.622
		c1.757,0.081,3.52,0.174,5.2,0.609c1.697,0.313,3.282,1.001,4.776,1.627c1.444,0.801,2.829,1.521,3.963,2.52
		c0.578,0.472,1.123,0.942,1.626,1.415c0.474,0.528,0.926,1.023,1.332,1.525c0.391,0.524,0.798,0.955,1.096,1.479
		c0.299,0.522,0.588,0.989,0.823,1.463c0.234,0.474,0.46,0.892,0.631,1.313c0.155,0.439,0.293,0.836,0.395,1.212
		c0.225,0.727,0.319,1.352,0.406,1.744c0.076,0.404,0.093,0.635,0.093,0.635s-0.246-0.006-0.661-0.046
		c-0.403-0.052-1.03-0.078-1.721-0.179c-0.358-0.037-0.724-0.103-1.126-0.157c-0.428-0.02-0.851-0.079-1.31-0.115
		c-0.9-0.095-1.84-0.236-2.873-0.276c-0.508-0.033-1-0.107-1.515-0.149c-0.533-0.007-1.058-0.034-1.58-0.074
		c-1.023-0.133-2.134-0.055-3.166-0.184c-1.085,0.039-2.124-0.094-3.2-0.06c-1.058-0.079-2.128,0.005-3.19-0.07
		c-1.062,0.072-2.132-0.02-3.192,0.057c-1.077-0.038-2.116,0.1-3.204,0.056c-1.033,0.128-2.147,0.049-3.17,0.183
		c-0.522,0.039-1.047,0.068-1.581,0.074c-0.515,0.043-1.005,0.121-1.515,0.152c-1.053,0.057-1.929,0.157-2.808,0.232
		c-0.461,0.036-0.893,0.069-1.293,0.098c-0.426,0.077-0.815,0.163-1.185,0.211c-0.718,0.127-1.345,0.157-1.744,0.208
		C311.371,176.551,311.132,176.551,311.132,176.551z"/>
	<path style="fill:#666666;" d="M205.519,176.551c0,0,0.024-0.236,0.103-0.642c0.091-0.393,0.184-1.013,0.383-1.715
		c0.089-0.363,0.204-0.741,0.336-1.158c0.172-0.422,0.403-0.847,0.649-1.329c0.243-0.484,0.55-0.962,0.873-1.499
		c0.325-0.546,0.713-0.96,1.11-1.486c0.403-0.507,0.858-0.996,1.332-1.523c0.502-0.476,1.046-0.944,1.625-1.415
		c1.133-0.998,2.517-1.719,3.96-2.521c1.492-0.631,3.076-1.315,4.772-1.632c1.68-0.437,3.441-0.54,5.198-0.622
		c1.757,0.081,3.519,0.174,5.2,0.609c1.697,0.313,3.282,1.001,4.776,1.627c1.444,0.801,2.829,1.521,3.963,2.52
		c0.578,0.472,1.123,0.942,1.626,1.415c0.474,0.528,0.926,1.023,1.332,1.525c0.391,0.524,0.798,0.955,1.096,1.479
		c0.299,0.522,0.588,0.989,0.823,1.463c0.234,0.474,0.46,0.892,0.631,1.313c0.155,0.439,0.293,0.836,0.395,1.212
		c0.225,0.727,0.319,1.352,0.406,1.744c0.076,0.404,0.093,0.635,0.093,0.635s-0.246-0.006-0.661-0.046
		c-0.403-0.052-1.03-0.078-1.721-0.179c-0.358-0.037-0.724-0.103-1.126-0.157c-0.428-0.02-0.851-0.079-1.31-0.115
		c-0.9-0.095-1.84-0.236-2.873-0.276c-0.508-0.033-1-0.107-1.515-0.149c-0.533-0.007-1.058-0.034-1.58-0.074
		c-1.023-0.133-2.134-0.055-3.166-0.184c-1.085,0.039-2.125-0.094-3.2-0.06c-1.058-0.079-2.128,0.005-3.19-0.07
		c-1.062,0.072-2.132-0.02-3.192,0.057c-1.077-0.038-2.116,0.1-3.204,0.056c-1.033,0.128-2.147,0.049-3.17,0.183
		c-0.522,0.039-1.047,0.068-1.581,0.074c-0.515,0.043-1.005,0.121-1.515,0.152c-1.053,0.057-1.929,0.157-2.808,0.232
		c-0.461,0.036-0.893,0.069-1.293,0.098c-0.426,0.077-0.815,0.163-1.185,0.211c-0.718,0.127-1.345,0.157-1.744,0.208
		C205.757,176.551,205.519,176.551,205.519,176.551z"/>
</g>
<path style="fill:#4D4D4D;" d="M331.473,234.078c-4.913,0-8.897-3.983-8.897-8.897v-14.23c0-4.913,3.983-8.897,8.897-8.897
	c4.913,0,8.897,3.983,8.897,8.897v14.23C340.37,230.094,336.387,234.078,331.473,234.078z"/>
<g>
	<path style="fill:#E0B394;" d="M292.308,197.903v42.111c0,7.534-6.108,13.641-13.641,13.641l0,0
		c-7.534,0-13.641-6.108-13.641-13.641v-42.111"/>
	<circle style="fill:#E0B394;" cx="278.666" cy="325.022" r="8.897"/>
</g>
<g>
</g>
<g>
</g>
<g>
</g>
<g>
</g>
<g>
</g>
<g>
</g>
<g>
</g>
<g>
</g>
<g>
</g>
<g>
</g>
<g>
</g>
<g>
</g>
<g>
</g>
<g>
</g>
<g>
</g>
</svg>
