<?xml version="1.0" encoding="iso-8859-1"?>
<!-- Generator: Adobe Illustrator 19.0.0, SVG Export Plug-In . SVG Version: 6.00 Build 0)  -->
<svg version="1.1" id="Layer_1" xmlns="http://www.w3.org/2000/svg" xmlns:xlink="http://www.w3.org/1999/xlink" x="0px" y="0px"
	 viewBox="0 0 512.001 512.001" style="enable-background:new 0 0 512.001 512.001;" xml:space="preserve">
<rect x="411.667" y="129.851" style="fill:#666666;" width="13.479" height="38.536"/>
<path style="fill:#F9C573;" d="M444.853,138.583h-82.39c-4.825,0-8.734-3.911-8.734-8.734c0-4.824,3.909-8.734,8.734-8.734h82.39
	c4.825,0,8.734,3.911,8.734,8.734C453.588,134.672,449.677,138.583,444.853,138.583z"/>
<path style="fill:#C9628C;" d="M509.105,129.851c0,14.522-14.383,26.611-33.388,29.184c-2.446,0.338-4.984,0.512-7.57,0.512
	c-22.628,0-40.97-13.299-40.97-29.697c0-16.409,18.342-29.697,40.97-29.697c2.585,0,5.124,0.175,7.57,0.512
	C494.724,103.24,509.105,115.317,509.105,129.851z"/>
<path style="fill:#E0739B;" d="M509.105,129.851c0,14.522-14.383,26.611-33.388,29.184c-19.018-2.574-33.4-14.662-33.4-29.184
	c0-14.534,14.383-26.622,33.4-29.184C494.724,103.24,509.105,115.317,509.105,129.851z"/>
<path style="fill:#65BAE0;" d="M475.823,232.182c0,29.627-22.441,54.025-51.253,57.088c-2.76,0.291-5.578,0.396-8.443,0.28
	c-29.836-1.153-54.083-25.528-55.096-55.364c-0.85-25.05,14.359-46.653,36.125-55.329v-10.691c0-5.019,4.076-9.095,9.095-9.095
	h24.316c5.019,0,9.095,4.076,9.095,9.095v10.691C460.846,187.299,475.823,207.994,475.823,232.182z"/>
<path style="fill:#71C5F4;" d="M475.823,232.182c0,29.627-22.441,54.025-51.253,57.088c-28.078-2.958-50.345-26.517-51.311-55.085
	c-0.85-25.05,14.359-46.653,36.125-55.329v-10.691c0-5.019,4.076-9.095,9.095-9.095h12.088c5.019,0,9.095,4.076,9.095,9.095v10.691
	C460.846,187.299,475.823,207.994,475.823,232.182z"/>
<path style="fill:#F9C573;" d="M53.272,261.971h-5.54l0,0H2.896v12.81h35.713c5.038,0,9.122,4.084,9.122,9.122l0,0
	c0,5.038-4.084,9.122-9.122,9.122H6.389v12.81h32.219c5.038,0,9.122,4.084,9.122,9.122l0,0c0,5.038-4.084,9.122-9.122,9.122H6.389
	v12.81h32.219c5.038,0,9.122,4.084,9.122,9.122l0,0c0,5.038-4.084,9.122-9.122,9.122H6.389v12.81h32.219
	c5.038,0,9.122,4.084,9.122,9.122l0,0c0,5.038-4.084,9.122-9.122,9.122H6.389V399h32.219c5.038,0,9.122,4.084,9.122,9.122l0,0
	c0,5.038-4.084,9.122-9.122,9.122H6.389v12.81h32.219c5.038,0,9.122,4.084,9.122,9.122l0,0c0,5.038-4.084,9.122-9.122,9.122H2.896
	v12.81h44.836l0,0h5.54c17.844,0,32.308-14.465,32.308-32.308V294.28C85.58,276.436,71.116,261.971,53.272,261.971z"/>
<path style="fill:#E0739B;" d="M364.897,406.275v105.72H111.019v-105.72c0-39.77,32.247-72.018,72.029-72.018h109.831
	C332.648,334.257,364.897,366.505,364.897,406.275z"/>
<path style="fill:#C9628C;" d="M244.945,413.984v98.011H230.97v-98.011c0-3.855,3.133-6.987,6.987-6.987
	C241.823,406.997,244.945,410.13,244.945,413.984z"/>
<path style="fill:#E0B394;" d="M289.349,267.744v107.081c0,28.38-23.01,51.389-51.389,51.389c-28.388,0-51.389-23.01-51.389-51.389
	V253.77"/>
<g>
	<path style="fill:#C9628C;" d="M237.96,432.036c-31.547,0-57.213-25.665-57.213-57.212V253.77c0-3.215,2.606-5.823,5.823-5.823
		s5.823,2.607,5.823,5.823v121.054c0,25.126,20.442,45.566,45.568,45.566c25.125,0,45.566-20.441,45.566-45.566V267.744
		c0-3.215,2.606-5.823,5.823-5.823s5.823,2.607,5.823,5.823v107.081C295.172,406.372,269.507,432.036,237.96,432.036z"/>
	<path style="fill:#C9628C;" d="M227.422,334.255h-44.377c-39.777,0-72.025,32.246-72.025,72.025v105.722h44.377V406.28
		C155.398,366.501,187.644,334.255,227.422,334.255z"/>
</g>
<path style="fill:#F7CBA4;" d="M198.651,353.255l-47.805-34.732c-25.262-18.354-38.928-48.705-35.925-79.786l8.292-85.804
	c5.711-59.097,55.372-104.19,114.744-104.19l0,0c59.371,0,109.033,45.094,114.744,104.19l8.292,85.804
	c3.003,31.081-10.662,61.432-35.925,79.786l-47.805,34.732C253.824,370.282,222.088,370.282,198.651,353.255z"/>
<g>
	<path style="fill:#E8BA97;" d="M144.67,255.646c-0.804,13.591,3.622,26.96,12.379,37.383l49.964,61.397
		c2.609,3.109,5.567,5.718,8.769,7.803c-6.009-2.096-11.786-5.101-17.131-8.979l-47.806-34.728
		c-25.26-18.354-38.92-48.703-35.916-79.785l8.28-85.806c5.66-58.52,54.409-103.31,113.022-104.16
		c-36.102,0.873-76.982,34.902-79.113,71.144L144.67,255.646z"/>
	<polygon style="fill:#E8BA97;" points="253.866,152.932 271.626,152.932 287.93,90.942 247.17,68.815 	"/>
</g>
<g>
	<path style="fill:#4D4D4D;" d="M186.113,239.146c-4.825,0-8.734-3.911-8.734-8.734v-13.97c0-4.824,3.909-8.734,8.734-8.734
		s8.734,3.911,8.734,8.734v13.97C194.847,235.236,190.937,239.146,186.113,239.146z"/>
	<path style="fill:#4D4D4D;" d="M289.8,239.146c-4.825,0-8.734-3.911-8.734-8.734v-13.97c0-4.824,3.909-8.734,8.734-8.734
		c4.825,0,8.734,3.911,8.734,8.734v13.97C298.534,235.236,294.625,239.146,289.8,239.146z"/>
</g>
<g>
	<path style="fill:#71C5F4;" d="M67.716,75.695c-4.825,0-8.734-3.911-8.734-8.734V30.859c0-4.824,3.909-8.734,8.734-8.734
		s8.734,3.911,8.734,8.734v36.102C76.451,71.785,72.54,75.695,67.716,75.695z"/>
	<path style="fill:#71C5F4;" d="M85.767,57.644H49.665c-4.825,0-8.734-3.911-8.734-8.734s3.909-8.734,8.734-8.734h36.102
		c4.825,0,8.734,3.911,8.734,8.734S90.591,57.644,85.767,57.644z"/>
</g>
<path style="fill:#666666;" d="M394.594,156.636v145.98h-52.779c14.324-17.725,21.428-40.597,19.181-63.877l-8.292-85.806h-62.736
	l-16.304-64.424l-19.798,64.424H123.212l-8.293,85.806c-2.236,23.28,4.856,46.152,19.181,63.877H81.321v-145.98
	C81.321,70.131,151.452,0,237.957,0c0.978,0,1.956,0.012,2.935,0.023c0.687,0.012,1.374,0.035,2.05,0.058
	c0.361,0.012,0.722,0.023,1.071,0.035c1.665,0.07,3.319,0.151,4.961,0.268c1.733,0.12,3.454,0.279,5.171,0.455
	c0.183,0.019,0.366,0.038,0.55,0.058C333.332,9.248,394.594,75.786,394.594,156.636z"/>
<path style="fill:#4D4D4D;" d="M114.919,238.739c-2.236,23.28,4.856,46.152,19.181,63.877H81.321v-145.98
	C81.321,70.131,151.452,0,237.957,0c0.978,0,1.956,0.012,2.935,0.023c0.687,0.012,1.374,0.035,2.05,0.058
	c0.361,0.012,0.722,0.023,1.071,0.035c1.665,0.07,3.319,0.151,4.961,0.268c3.645,0.256,7.255,0.641,10.819,1.141
	c-74.987,10.458-132.96,73.986-134.753,151.407h-1.828L114.919,238.739z"/>
<path style="fill:#E0B394;" d="M247.086,240.483h-0.397v-18.051c0-4.824-3.909-8.734-8.734-8.734s-8.734,3.911-8.734,8.734v18.051
	h-0.397c-4.825,0-8.734,3.911-8.734,8.734s3.909,8.734,8.734,8.734h18.263c4.825,0,8.734-3.911,8.734-8.734
	S251.911,240.483,247.086,240.483z"/>
<path style="fill:#B3B3B3;" d="M426.376,438.925l-11.5-24.916l20.146-43.651c4.042-8.76,0.219-19.138-8.54-23.181l0,0
	l-21.226,45.989l-21.226-45.989l0,0c-8.76,4.042-12.583,14.421-8.54,23.181l20.146,43.651l-11.5,24.916
	c-6.518-8.922-2.419,46.659,3.156,35.203c0.964-1.98,17.962-39.277,17.962-39.277s16.768,36.661,17.536,38.367
	C428.179,485.163,432.894,430.003,426.376,438.925z"/>
<g>
	<circle style="fill:#71C5F4;" cx="212.268" cy="452.974" r="8.006"/>
	<circle style="fill:#71C5F4;" cx="212.268" cy="489.81" r="8.006"/>
	<circle style="fill:#71C5F4;" cx="263.65" cy="452.974" r="8.006"/>
	<circle style="fill:#71C5F4;" cx="263.65" cy="489.81" r="8.006"/>
	<path style="fill:#71C5F4;" d="M488.414,456.922c-1.095-17.376-15.442-31.385-32.829-32.107
		c-11.984-0.489-22.686,5.194-29.208,14.115l-4.018-8.723l-13.195,13.195c5.008,10.935,13.102,28.649,13.637,29.813
		c5.38,11.949,17.399,20.287,31.327,20.287C473.811,493.502,489.672,476.872,488.414,456.922z M454.129,476.033
		c-9.305,0-16.886-7.581-16.886-16.886c0-9.317,7.581-16.886,16.886-16.886c9.317,0,16.886,7.57,16.886,16.886
		C471.016,468.452,463.446,476.033,454.129,476.033z M388.167,430.207l-4.029,8.723c-6.51-8.921-17.224-14.604-29.196-14.115
		c-17.399,0.722-31.735,14.732-32.841,32.107c-1.258,19.949,14.604,36.579,34.285,36.579c13.579,0,25.33-7.919,30.908-19.379
		c0.664-1.363,8.991-19.588,14.068-30.722L388.167,430.207z M356.386,476.033c-9.305,0-16.886-7.581-16.886-16.886
		c0-9.317,7.581-16.886,16.886-16.886c9.317,0,16.886,7.57,16.886,16.886C373.272,468.452,365.703,476.033,356.386,476.033z"/>
</g>
<path style="fill:#F2F2F2;" d="M283.546,286.393c0,0-0.664,1.63-2.061,4.204c-0.338,0.664-0.734,1.363-1.176,2.12
	c-0.524,0.745-1.13,1.502-1.782,2.352s-1.397,1.712-2.189,2.667c-0.279,0.361-0.582,0.664-0.908,0.978
	c-0.116,0.116-0.245,0.233-0.373,0.349c-0.454,0.419-0.92,0.862-1.397,1.304c-0.955,0.897-1.991,1.782-3.074,2.713
	c-1.141,0.839-2.364,1.63-3.622,2.492c-0.629,0.431-1.281,0.85-1.945,1.269c-0.664,0.396-1.374,0.722-2.096,1.083
	c-1.421,0.722-2.9,1.421-4.425,2.12c-3.144,1.071-6.417,2.329-9.911,2.853c-3.447,0.804-7.046,0.932-10.633,1.106
	c-3.587-0.175-7.185-0.291-10.633-1.095c-3.494-0.524-6.766-1.782-9.911-2.853c-1.526-0.687-3.005-1.386-4.437-2.108
	c-0.71-0.361-1.421-0.687-2.096-1.083c-0.652-0.431-1.304-0.839-1.933-1.269c-1.258-0.862-2.492-1.665-3.633-2.492
	c-1.083-0.932-2.108-1.828-3.074-2.713c-0.477-0.454-0.932-0.885-1.386-1.316c-0.163-0.151-0.326-0.303-0.489-0.454
	c-0.28-0.279-0.547-0.547-0.78-0.862c-0.757-0.92-1.491-1.77-2.131-2.609c-0.629-0.85-1.246-1.595-1.758-2.341
	c-0.466-0.792-0.897-1.514-1.258-2.178c-1.456-2.655-2.061-4.239-2.061-4.239s1.724,0.524,4.379,1.595
	c0.675,0.256,1.374,0.571,2.154,0.885c0.827,0.245,1.677,0.559,2.585,0.862c0.92,0.303,1.84,0.675,2.818,1.025
	c0.967,0.373,2.061,0.617,3.144,0.943c1.083,0.314,2.166,0.699,3.296,1.036c1.176,0.256,2.352,0.559,3.564,0.85
	c0.606,0.14,1.2,0.314,1.805,0.477c0.617,0.14,1.258,0.221,1.887,0.349c1.269,0.221,2.539,0.477,3.808,0.769
	c2.644,0.245,5.252,0.827,7.977,0.932c2.69,0.349,5.439,0.256,8.164,0.419c2.737-0.163,5.485-0.058,8.175-0.408
	c2.725-0.093,5.334-0.687,7.977-0.932c1.269-0.28,2.539-0.536,3.808-0.757c0.629-0.128,1.269-0.21,1.887-0.349
	c0.606-0.175,1.211-0.338,1.805-0.477c1.211-0.291,2.387-0.606,3.564-0.85c1.141-0.338,2.224-0.722,3.307-1.036
	c1.071-0.326,2.189-0.582,3.121-0.943c0.955-0.326,1.852-0.687,2.76-0.967c0.897-0.303,1.735-0.606,2.562-0.85
	c0.815-0.349,1.537-0.687,2.224-0.955C281.858,286.882,283.546,286.393,283.546,286.393z"/>
<path style="fill:#4D4D4D;" d="M275.429,298.714c-0.116,0.116-0.245,0.233-0.373,0.349c-0.454,0.419-0.92,0.862-1.397,1.304
	c-0.955,0.897-1.991,1.782-3.074,2.713c-1.141,0.839-2.364,1.63-3.622,2.492c-0.629,0.431-1.281,0.85-1.945,1.269
	c-0.664,0.396-1.374,0.722-2.096,1.083c-1.421,0.722-2.9,1.421-4.425,2.12c-3.144,1.071-6.417,2.329-9.911,2.853
	c-3.447,0.804-7.046,0.932-10.633,1.106c-3.587-0.175-7.185-0.291-10.633-1.095c-3.494-0.524-6.766-1.782-9.911-2.853
	c-1.526-0.687-3.005-1.386-4.437-2.108c-0.71-0.361-1.421-0.687-2.096-1.083c-0.652-0.431-1.304-0.839-1.933-1.269
	c-1.258-0.862-2.492-1.665-3.633-2.492c-1.083-0.932-2.108-1.828-3.074-2.713c-0.477-0.454-0.932-0.885-1.386-1.316
	c-0.163-0.151-0.326-0.303-0.489-0.454c0.373,0.128,0.745,0.256,1.13,0.384c0.92,0.303,1.84,0.664,2.818,1.013
	c0.967,0.384,2.061,0.629,3.144,0.955c1.083,0.314,2.166,0.687,3.296,1.036c1.176,0.245,2.352,0.559,3.564,0.85
	c0.606,0.14,1.2,0.303,1.805,0.466c0.617,0.14,1.258,0.221,1.887,0.349c1.269,0.221,2.539,0.489,3.808,0.769
	c2.644,0.256,5.252,0.839,7.977,0.932c2.69,0.361,5.439,0.256,8.164,0.431c2.737-0.163,5.485-0.058,8.175-0.419
	c2.725-0.093,5.334-0.675,7.977-0.92c1.269-0.279,2.539-0.547,3.808-0.769c0.629-0.128,1.269-0.21,1.887-0.349
	c0.606-0.163,1.211-0.326,1.805-0.466c1.211-0.291,2.387-0.606,3.564-0.85c1.141-0.349,2.224-0.734,3.307-1.036
	c1.071-0.326,2.189-0.594,3.121-0.943c0.955-0.338,1.852-0.687,2.76-0.978C274.719,298.959,275.08,298.831,275.429,298.714z"/>
<g>
	<path style="fill:#666666;" d="M269.83,190.905c0,0,0.023-0.232,0.101-0.63c0.09-0.385,0.18-0.995,0.376-1.684
		c0.087-0.356,0.2-0.728,0.33-1.137c0.169-0.415,0.396-0.832,0.637-1.304c0.239-0.475,0.54-0.944,0.857-1.472
		c0.319-0.536,0.7-0.942,1.09-1.459c0.396-0.497,0.842-0.978,1.308-1.495c0.493-0.467,1.027-0.927,1.595-1.389
		c1.112-0.979,2.471-1.687,3.887-2.475c1.465-0.62,3.02-1.292,4.685-1.602c1.649-0.429,3.378-0.53,5.103-0.61
		c1.725,0.079,3.455,0.171,5.106,0.597c1.667,0.307,3.222,0.983,4.689,1.598c1.417,0.786,2.778,1.493,3.891,2.474
		c0.567,0.463,1.103,0.925,1.597,1.389c0.466,0.518,0.91,1.004,1.308,1.498c0.384,0.515,0.784,0.937,1.076,1.452
		c0.294,0.512,0.578,0.971,0.808,1.436c0.229,0.466,0.452,0.876,0.62,1.289c0.153,0.431,0.288,0.821,0.388,1.19
		c0.221,0.714,0.313,1.328,0.398,1.712c0.075,0.397,0.091,0.623,0.091,0.623s-0.241-0.006-0.649-0.045
		c-0.396-0.051-1.011-0.077-1.69-0.176c-0.352-0.036-0.71-0.101-1.105-0.154c-0.42-0.02-0.835-0.078-1.286-0.113
		c-0.884-0.093-1.806-0.232-2.821-0.271c-0.498-0.033-0.982-0.105-1.487-0.147c-0.523-0.007-1.039-0.034-1.551-0.072
		c-1.004-0.13-2.095-0.054-3.108-0.181c-1.066,0.038-2.086-0.092-3.142-0.059c-1.039-0.078-2.089,0.005-3.132-0.069
		c-1.042,0.071-2.093-0.02-3.134,0.056c-1.057-0.037-2.078,0.098-3.146,0.055c-1.014,0.126-2.108,0.048-3.112,0.179
		c-0.512,0.038-1.028,0.066-1.552,0.072c-0.505,0.042-0.986,0.119-1.487,0.149c-1.034,0.056-1.894,0.154-2.757,0.228
		c-0.453,0.035-0.877,0.068-1.269,0.097c-0.418,0.076-0.8,0.16-1.163,0.207c-0.705,0.125-1.321,0.154-1.712,0.204
		C270.064,190.905,269.83,190.905,269.83,190.905z"/>
	<path style="fill:#666666;" d="M166.143,190.905c0,0,0.023-0.232,0.101-0.63c0.09-0.385,0.181-0.995,0.376-1.684
		c0.087-0.356,0.2-0.728,0.33-1.137c0.169-0.415,0.396-0.832,0.637-1.304c0.239-0.475,0.54-0.944,0.857-1.472
		c0.319-0.536,0.7-0.942,1.09-1.459c0.396-0.497,0.842-0.978,1.308-1.495c0.493-0.467,1.027-0.927,1.595-1.389
		c1.112-0.979,2.471-1.687,3.887-2.475c1.465-0.62,3.02-1.292,4.685-1.602c1.649-0.429,3.378-0.53,5.103-0.61
		c1.725,0.079,3.455,0.171,5.106,0.597c1.667,0.307,3.222,0.983,4.689,1.598c1.417,0.786,2.778,1.493,3.891,2.474
		c0.567,0.463,1.103,0.925,1.597,1.389c0.466,0.518,0.91,1.004,1.308,1.498c0.384,0.515,0.784,0.937,1.076,1.452
		c0.293,0.512,0.578,0.971,0.808,1.436c0.229,0.466,0.452,0.876,0.62,1.289c0.153,0.431,0.288,0.821,0.388,1.19
		c0.221,0.714,0.313,1.328,0.398,1.712c0.075,0.397,0.091,0.623,0.091,0.623s-0.241-0.006-0.649-0.045
		c-0.396-0.051-1.011-0.077-1.69-0.176c-0.352-0.036-0.71-0.101-1.105-0.154c-0.42-0.02-0.835-0.078-1.286-0.113
		c-0.884-0.093-1.806-0.232-2.821-0.271c-0.498-0.033-0.982-0.105-1.487-0.147c-0.523-0.007-1.039-0.034-1.551-0.072
		c-1.004-0.13-2.095-0.054-3.108-0.181c-1.066,0.038-2.086-0.092-3.142-0.059c-1.039-0.078-2.089,0.005-3.132-0.069
		c-1.042,0.071-2.093-0.02-3.134,0.056c-1.057-0.037-2.078,0.098-3.146,0.055c-1.014,0.126-2.108,0.048-3.112,0.179
		c-0.512,0.038-1.028,0.066-1.552,0.072c-0.505,0.042-0.986,0.119-1.487,0.149c-1.034,0.056-1.894,0.154-2.757,0.228
		c-0.453,0.035-0.877,0.068-1.269,0.097c-0.418,0.076-0.8,0.16-1.163,0.207c-0.705,0.125-1.321,0.154-1.712,0.204
		C166.377,190.905,166.143,190.905,166.143,190.905z"/>
</g>
<g>
</g>
<g>
</g>
<g>
</g>
<g>
</g>
<g>
</g>
<g>
</g>
<g>
</g>
<g>
</g>
<g>
</g>
<g>
</g>
<g>
</g>
<g>
</g>
<g>
</g>
<g>
</g>
<g>
</g>
</svg>
