<?xml version="1.0" encoding="iso-8859-1"?>
<!-- Generator: Adobe Illustrator 19.0.0, SVG Export Plug-In . SVG Version: 6.00 Build 0)  -->
<svg version="1.1" id="Layer_1" xmlns="http://www.w3.org/2000/svg" xmlns:xlink="http://www.w3.org/1999/xlink" x="0px" y="0px"
	 viewBox="0 0 512 512" style="enable-background:new 0 0 512 512;" xml:space="preserve">
<g>
	<path style="fill:#808080;" d="M99.11,155.44L99.11,155.44c-15.274,0-27.657,12.383-27.657,27.657v53.043
		c0,15.274,12.383,27.657,27.657,27.657h7.866L99.11,155.44z"/>
	<path style="fill:#808080;" d="M405.641,155.44L405.641,155.44c15.274,0,27.657,12.383,27.657,27.657v53.043
		c0,15.274-12.383,27.657-27.657,27.657h-7.866L405.641,155.44z"/>
</g>
<g>
	<polygon style="fill:#5D9EBA;" points="448.215,362.062 384.427,343.418 434.042,293.344 	"/>
	<polygon style="fill:#5D9EBA;" points="497.154,311.794 512,380.702 448.213,362.057 	"/>
</g>
<path style="fill:#F76B4F;" d="M434.046,293.348c-7.233,24.746-1.097,50.224,14.167,68.71c22.818-7.356,41.709-25.518,48.942-50.264
	c7.233-24.746,1.097-50.224-14.167-68.71C460.17,250.438,441.279,268.602,434.046,293.348z"/>
<path style="fill:#CCCCCC;" d="M399.884,424.634v84.186H104.487v-84.186c0-18.77,5.229-36.303,14.299-51.243
	c2.993-4.919,6.398-9.563,10.171-13.863c7.258-8.279,15.869-15.342,25.501-20.834c14.425-8.221,31.108-12.911,48.881-12.911h97.694
	c17.899,0,34.674,4.747,49.145,13.06c9.609,5.515,18.197,12.602,25.421,20.892c3.761,4.323,7.155,8.978,10.136,13.909
	C394.712,388.526,399.884,405.978,399.884,424.634z"/>
<g>
	<path style="fill:#B3B3B3;" d="M262.968,325.779h-59.625c-54.594,0-98.85,44.257-98.85,98.85v84.19h59.625v-84.19
		C164.117,370.037,208.374,325.779,262.968,325.779z"/>
	<path style="fill:#B3B3B3;" d="M350.177,338.843c-27.015,20.938-60.932,33.402-97.762,33.402c-36.91,0-70.908-12.521-97.957-33.551
		c14.425-8.221,31.108-12.911,48.881-12.911h97.693C318.931,325.782,335.707,330.53,350.177,338.843z"/>
</g>
<path style="fill:#CCCCCC;" d="M412.142,197.795v0.952c0,88.222-71.504,159.738-159.727,159.738c-8.171,0-16.197-0.613-24.038-1.797
	c-23.522-3.551-39.056-16.818-58.038-29.454c-43.003-28.624-77.649-72.953-77.649-128.488c0-0.355,0-0.711,0.011-1.066
	c0.034-5.813,0.378-11.547,1.021-17.2c8.737-76.813,71.974-137.092,150.095-141.22c2.844-0.161,5.71-0.241,8.6-0.241
	c2.89,0,5.756,0.08,8.6,0.241c78.166,4.128,141.415,64.475,150.106,141.335C411.763,186.247,412.107,191.98,412.142,197.795z"/>
<path style="fill:#B3B3B3;" d="M152.286,198.751c0-88.215,44.973-159.729,100.451-159.729c-88.215,0-159.729,71.512-159.729,159.729
	S164.521,358.48,252.737,358.48C197.261,358.479,152.286,286.966,152.286,198.751z"/>
<path style="fill:#C0E7F9;" d="M324.661,136.087H180.175c-28.845,0-52.228,23.383-52.228,52.228v30.673
	c0,49.444,40.082,89.526,89.526,89.526h69.89c49.444,0,89.526-40.082,89.526-89.526v-30.673
	C376.888,159.471,353.505,136.087,324.661,136.087z"/>
<path style="fill:#A3CDD6;" d="M186.421,218.987v-30.673c0-28.845,23.383-52.228,52.228-52.228h-58.475
	c-28.845,0-52.227,23.383-52.227,52.228v30.673c0,49.444,40.082,89.526,89.526,89.526h58.475
	C226.504,308.513,186.421,268.431,186.421,218.987z"/>
<g>
	<path style="fill:#F9C573;" d="M73.884,325.383H62.417v-11.466c0-3.483-2.823-6.307-6.307-6.307c-3.483,0-6.307,2.823-6.307,6.307
		v11.466H38.338c-3.483,0-6.307,2.823-6.307,6.306c0,3.483,2.823,6.307,6.307,6.307h11.466v11.466c0,3.483,2.823,6.307,6.307,6.307
		c3.483,0,6.307-2.823,6.307-6.307v-11.466h11.466c3.483,0,6.307-2.823,6.307-6.307C80.19,328.206,77.367,325.383,73.884,325.383z"
		/>
	<path style="fill:#F9C573;" d="M405.262,22.179h-11.466V10.713c0-3.483-2.823-6.307-6.307-6.307s-6.307,2.823-6.307,6.307v11.466
		h-11.466c-3.483,0-6.306,2.823-6.306,6.307s2.823,6.307,6.306,6.307h11.466v11.466c0,3.483,2.823,6.307,6.307,6.307
		s6.307-2.823,6.307-6.307V34.792h11.466c3.483,0,6.306-2.823,6.306-6.307S408.745,22.179,405.262,22.179z"/>
	<path style="fill:#F9C573;" d="M480.94,61.657h-22.933V38.724c0-3.483-2.823-6.307-6.306-6.307c-3.483,0-6.307,2.823-6.307,6.307
		v22.933h-22.933c-3.483,0-6.307,2.823-6.307,6.307s2.823,6.307,6.307,6.307h22.933v22.933c0,3.483,2.823,6.307,6.307,6.307
		c3.483,0,6.306-2.823,6.306-6.307V74.27h22.933c3.483,0,6.306-2.823,6.306-6.307C487.246,64.48,484.423,61.657,480.94,61.657z"/>
</g>
<path style="fill:#808080;" d="M385.735,373.643c-36.291,27.726-79.198,43.114-124.72,44.845v19.011c0,4.759-3.853,8.6-8.6,8.6
	h-43.63v62.721h-17.2v-71.321c0-4.747,3.841-8.6,8.6-8.6h43.63v-10.411c-45.682-1.731-88.704-17.222-125.029-45.097
	c2.993-4.919,6.398-9.563,10.171-13.863c35.637,27.428,78.281,41.921,123.458,41.921c45.028,0,87.58-14.413,123.183-41.715
	C379.359,364.057,382.753,368.713,385.735,373.643z"/>
<g>
	<rect x="362.051" y="440.939" style="fill:#F76B4F;" width="37.837" height="37.837"/>
	<rect x="104.493" y="440.939" style="fill:#F76B4F;" width="37.837" height="37.837"/>
</g>
<path style="fill:#88B5BC;" d="M359.786,276.777h-52.149c-2.849,0-5.16-2.31-5.16-5.16s2.31-5.16,5.16-5.16h52.149
	c2.849,0,5.16,2.31,5.16,5.16S362.636,276.777,359.786,276.777z"/>
<g>
	<polygon style="fill:#F9C573;" points="43.182,35.705 56.526,62.743 86.365,67.078 64.774,88.125 69.87,117.842 43.182,103.811 
		16.494,117.842 21.591,88.125 0,67.078 29.838,62.743 	"/>
	<path style="fill:#F9C573;" d="M69.758,31.281c0,0,0.325-0.3,0.933-0.863c0.721-0.687,1.612-1.408,2.773-2.368
		c1.175-0.889,2.564-2.027,4.228-3.145c0.829-0.566,1.694-1.198,2.635-1.804c0.944-0.593,1.937-1.218,2.972-1.868
		c1.021-0.671,2.145-1.254,3.279-1.905c1.15-0.621,2.292-1.342,3.545-1.93c2.478-1.229,5.058-2.556,7.835-3.676
		c1.383-0.569,2.747-1.227,4.196-1.737c1.437-0.519,2.893-1.045,4.361-1.574c0.735-0.256,1.459-0.545,2.208-0.773
		c0.751-0.22,1.504-0.441,2.259-0.663c1.503-0.439,3.012-0.881,4.521-1.321c3.044-0.773,6.116-1.403,9.1-2.082
		c3.023-0.47,5.998-0.933,8.877-1.381c2.886-0.252,5.675-0.496,8.32-0.728c1.312-0.148,2.603-0.149,3.847-0.169
		c1.241-0.021,2.44-0.04,3.591-0.06c2.299-0.022,4.39-0.131,6.256,0.032c1.856,0.1,3.474,0.187,4.808,0.258
		c2.652,0.143,4.168,0.226,4.168,0.226s-1.508,0.187-4.147,0.513c-1.313,0.163-2.907,0.361-4.736,0.587
		c-1.829,0.164-3.864,0.639-6.081,1.057c-1.105,0.217-2.258,0.443-3.449,0.677c-1.19,0.232-2.419,0.451-3.66,0.822
		c-2.476,0.67-5.086,1.377-7.788,2.109c-2.63,0.905-5.348,1.84-8.11,2.791c-2.684,1.145-5.42,2.234-8.09,3.443
		c-1.312,0.654-2.624,1.307-3.93,1.958l-1.946,0.968c-0.643,0.328-1.257,0.714-1.88,1.065c-1.238,0.714-2.466,1.423-3.68,2.124
		c-1.215,0.686-2.336,1.507-3.475,2.231c-2.293,1.433-4.361,3.027-6.334,4.483c-1.004,0.705-1.882,1.52-2.781,2.234
		c-0.878,0.74-1.761,1.409-2.526,2.143c-0.78,0.711-1.527,1.391-2.238,2.039c-0.702,0.651-1.319,1.308-1.923,1.9
		c-1.223,1.178-2.144,2.283-2.953,3.148c-0.74,0.884-1.354,1.598-1.594,1.956c-0.358,0.475-0.549,0.728-0.549,0.728l-0.075,0.1
		c-2.873,3.809-8.29,4.568-12.099,1.696c-3.809-2.872-4.568-8.29-1.696-12.099C69.031,32.017,69.4,31.616,69.758,31.281z"/>
	<path style="fill:#F9C573;" d="M416.666,421.015c-0.558,0-1.126-0.075-1.691-0.232c-3.356-0.932-5.32-4.409-4.388-7.764
		l11.466-41.279c0.932-3.355,4.408-5.319,7.764-4.388c3.356,0.932,5.32,4.409,4.388,7.764l-11.466,41.279
		C421.964,419.186,419.429,421.015,416.666,421.015z"/>
	<path style="fill:#F9C573;" d="M444.73,429.831c-0.558,0-1.126-0.075-1.691-0.232c-3.356-0.932-5.32-4.409-4.388-7.764
		l11.466-41.279c0.932-3.355,4.407-5.32,7.764-4.388c3.356,0.932,5.32,4.409,4.388,7.764l-11.466,41.279
		C450.028,428.001,447.494,429.831,444.73,429.831z"/>
	<path style="fill:#F9C573;" d="M100.006,44.441c0.03-0.015,0.093-0.019,0.589-0.216c0.218-0.08,0.53-0.208,0.815-0.3
		c0.279-0.088,0.6-0.189,0.959-0.302c1.423-0.421,3.394-0.954,5.748-1.384c1.172-0.244,2.452-0.414,3.786-0.611
		c1.344-0.162,2.753-0.315,4.209-0.413c1.463-0.07,2.95-0.179,4.474-0.143c0.754,0.006,1.516,0.011,2.28,0.016
		c0.761,0.047,1.526,0.094,2.291,0.14c1.516,0.058,3.032,0.288,4.501,0.47c1.468,0.144,2.902,0.515,4.269,0.759
		c1.369,0.227,2.667,0.673,3.888,0.98c1.225,0.302,2.352,0.713,3.383,1.09c1.029,0.385,1.973,0.673,2.781,1.041
		c0.803,0.363,1.501,0.68,2.078,0.94c1.135,0.517,1.784,0.813,1.784,0.813s-0.713-0.036-1.963-0.096
		c-0.616-0.029-1.365-0.063-2.222-0.103c-0.852-0.041-1.83,0.04-2.872,0.061c-1.045,0.03-2.164,0.06-3.348,0.226
		c-1.182,0.159-2.408,0.208-3.672,0.488c-1.26,0.264-2.547,0.414-3.833,0.792c-1.287,0.341-2.578,0.635-3.841,1.089l-1.882,0.619
		c-0.612,0.241-1.222,0.482-1.828,0.72c-1.207,0.445-2.354,1.015-3.457,1.515c-1.096,0.529-2.13,1.082-3.094,1.61
		c-0.952,0.561-1.851,1.062-2.636,1.593c-1.6,1.009-2.815,1.947-3.606,2.582c-0.19,0.161-0.36,0.303-0.508,0.427
		c-0.14,0.12-0.181,0.193-0.255,0.264c-0.085,0.109-0.322,0.288-0.294,0.271c-4.124,2.354-9.377,0.92-11.732-3.205
		C94.446,52.049,95.882,46.796,100.006,44.441z"/>
</g>
<rect x="226.472" y="465.856" style="fill:#F76B4F;" width="20.066" height="20.066"/>
<circle style="fill:#6F9A9E;" cx="295.959" cy="271.615" r="15.115"/>
<path style="fill:#808080;" d="M412.142,197.795c-0.034-5.813-0.378-11.547-1.021-17.2l-26.151-0.091
	c-3.848-29.862-29.416-53.016-60.309-53.016h-63.646V39.261c-2.844-0.161-5.71-0.241-8.6-0.241s-5.756,0.08-8.6,0.241v88.227
	h-63.641c-30.916,0-56.499,23.188-60.318,53.084l-26.136-0.091c-0.642,5.653-0.986,11.386-1.021,17.2l26.647,0.091v21.217
	c0,54.108,44.019,98.126,98.126,98.126h69.89c54.108,0,98.126-44.019,98.126-98.126v-21.284L412.142,197.795z M368.288,218.987
	c0,44.624-36.304,80.926-80.926,80.926h-69.89c-44.624,0-80.926-36.304-80.926-80.926v-29.574l0.006-1.304
	c0.111-23.961,19.635-43.422,43.623-43.422h144.487c24.056,0,43.628,19.571,43.628,43.627v1.947l-0.03,7.383h0.03v21.342H368.288z"
	/>
<path style="fill:#6F9A9E;" d="M201.141,232.7c-4.749,0-8.6-3.85-8.6-8.6v-13.755c0-4.749,3.85-8.6,8.6-8.6
	c4.749,0,8.6,3.85,8.6,8.6V224.1C209.741,228.849,205.89,232.7,201.141,232.7z"/>
<g>
	<path style="fill:#88B5BC;" d="M283.569,188.559c0,0,0.023-0.228,0.1-0.62c0.088-0.38,0.178-0.979,0.37-1.658
		c0.086-0.351,0.197-0.717,0.325-1.119c0.166-0.408,0.39-0.819,0.627-1.284c0.235-0.468,0.532-0.93,0.844-1.449
		c0.314-0.527,0.689-0.928,1.073-1.437c0.39-0.49,0.829-0.963,1.288-1.472c0.485-0.46,1.011-0.913,1.571-1.368
		c1.095-0.964,2.433-1.661,3.828-2.437c1.442-0.61,2.973-1.272,4.613-1.578c1.624-0.422,3.326-0.522,5.025-0.601
		c1.698,0.078,3.402,0.169,5.027,0.588c1.641,0.303,3.173,0.968,4.616,1.573c1.395,0.774,2.735,1.47,3.831,2.435
		c0.558,0.456,1.086,0.91,1.572,1.368c0.459,0.51,0.896,0.988,1.288,1.475c0.378,0.507,0.772,0.923,1.06,1.43
		c0.289,0.505,0.569,0.956,0.796,1.414c0.226,0.459,0.445,0.862,0.61,1.269c0.15,0.424,0.283,0.808,0.382,1.172
		c0.218,0.703,0.308,1.307,0.392,1.686c0.073,0.391,0.089,0.613,0.089,0.613s-0.237-0.006-0.639-0.045
		c-0.39-0.05-0.995-0.076-1.664-0.173c-0.346-0.036-0.699-0.1-1.088-0.151c-0.414-0.02-0.822-0.077-1.266-0.111
		c-0.87-0.092-1.778-0.228-2.777-0.267c-0.491-0.032-0.967-0.103-1.464-0.144c-0.515-0.007-1.023-0.033-1.527-0.071
		c-0.988-0.128-2.063-0.053-3.06-0.178c-1.049,0.038-2.054-0.091-3.094-0.058c-1.023-0.077-2.057,0.005-3.083-0.068
		c-1.026,0.07-2.061-0.02-3.086,0.055c-1.041-0.037-2.046,0.096-3.097,0.054c-0.999,0.124-2.075,0.047-3.064,0.177
		c-0.505,0.038-1.012,0.065-1.528,0.071c-0.498,0.041-0.971,0.117-1.464,0.147c-1.018,0.055-1.864,0.151-2.714,0.225
		c-0.446,0.034-0.863,0.067-1.25,0.095c-0.412,0.075-0.788,0.157-1.145,0.204c-0.694,0.123-1.3,0.151-1.686,0.201
		C283.798,188.559,283.569,188.559,283.569,188.559z"/>
	<path style="fill:#88B5BC;" d="M181.479,188.559c0,0,0.023-0.228,0.1-0.62c0.088-0.38,0.178-0.979,0.37-1.658
		c0.086-0.351,0.197-0.717,0.325-1.119c0.166-0.408,0.39-0.819,0.627-1.284c0.235-0.468,0.532-0.93,0.844-1.449
		c0.314-0.527,0.689-0.928,1.073-1.437c0.39-0.49,0.829-0.963,1.288-1.472c0.485-0.46,1.011-0.913,1.571-1.368
		c1.095-0.964,2.433-1.661,3.827-2.437c1.442-0.61,2.973-1.272,4.613-1.578c1.624-0.422,3.326-0.522,5.025-0.601
		c1.698,0.078,3.402,0.169,5.027,0.588c1.641,0.303,3.173,0.968,4.616,1.573c1.395,0.774,2.735,1.47,3.831,2.435
		c0.558,0.456,1.086,0.91,1.572,1.368c0.459,0.51,0.896,0.988,1.288,1.475c0.378,0.507,0.772,0.923,1.059,1.43
		c0.289,0.505,0.569,0.956,0.796,1.414c0.226,0.459,0.445,0.862,0.61,1.269c0.15,0.424,0.283,0.808,0.382,1.172
		c0.218,0.703,0.308,1.307,0.392,1.686c0.073,0.391,0.089,0.613,0.089,0.613s-0.237-0.006-0.639-0.045
		c-0.39-0.05-0.995-0.076-1.664-0.173c-0.346-0.036-0.699-0.1-1.088-0.151c-0.414-0.02-0.822-0.077-1.266-0.111
		c-0.87-0.092-1.778-0.228-2.777-0.267c-0.491-0.032-0.967-0.103-1.464-0.144c-0.515-0.007-1.023-0.033-1.527-0.071
		c-0.988-0.128-2.063-0.053-3.06-0.178c-1.049,0.038-2.054-0.091-3.094-0.058c-1.023-0.077-2.057,0.005-3.083-0.068
		c-1.026,0.07-2.061-0.02-3.086,0.055c-1.041-0.037-2.046,0.096-3.097,0.054c-0.999,0.124-2.075,0.047-3.064,0.177
		c-0.505,0.038-1.012,0.065-1.528,0.071c-0.498,0.041-0.971,0.117-1.464,0.147c-1.018,0.055-1.864,0.151-2.714,0.225
		c-0.446,0.034-0.863,0.067-1.25,0.095c-0.412,0.075-0.788,0.157-1.145,0.204c-0.694,0.123-1.3,0.151-1.686,0.201
		C181.709,188.559,181.479,188.559,181.479,188.559z"/>
</g>
<path style="fill:#6F9A9E;" d="M303.231,232.7c-4.749,0-8.6-3.85-8.6-8.6v-13.755c0-4.749,3.85-8.6,8.6-8.6s8.6,3.85,8.6,8.6V224.1
	C311.83,228.849,307.98,232.7,303.231,232.7z"/>
<path style="fill:#A3CDD6;" d="M265.372,197.732v40.706c0,7.282-5.904,13.186-13.186,13.186l0,0
	c-7.282,0-13.186-5.904-13.186-13.186v-40.706H265.372z"/>
<g>
	<circle style="fill:#C0E7F9;" cx="468.894" cy="290.409" r="8.6"/>
	<circle style="fill:#C0E7F9;" cx="461.441" cy="317.928" r="8.6"/>
</g>
<g>
</g>
<g>
</g>
<g>
</g>
<g>
</g>
<g>
</g>
<g>
</g>
<g>
</g>
<g>
</g>
<g>
</g>
<g>
</g>
<g>
</g>
<g>
</g>
<g>
</g>
<g>
</g>
<g>
</g>
</svg>
