<?xml version="1.0" encoding="iso-8859-1"?>
<!-- Generator: Adobe Illustrator 19.0.0, SVG Export Plug-In . SVG Version: 6.00 Build 0)  -->
<svg version="1.1" id="Layer_1" xmlns="http://www.w3.org/2000/svg" xmlns:xlink="http://www.w3.org/1999/xlink" x="0px" y="0px"
	 viewBox="0 0 512.001 512.001" style="enable-background:new 0 0 512.001 512.001;" xml:space="preserve">
<path style="fill:#9B6A31;" d="M186.571,434.403l-9.608,27.537l-4.928,14.141L107.76,350.315l-44.542-87.167
	c-2.334-4.567-0.519-10.16,4.048-12.494l1.455-0.744l10.419-5.334c4.567-2.323,10.16-0.519,12.494,4.048l41.024,80.277
	L186.571,434.403z"/>
<path style="fill:#AF7C38;" d="M186.571,434.403l-9.608,27.537l-63.182-123.658l-44.553-87.167
	c-0.203-0.395-0.372-0.801-0.507-1.207l10.419-5.334c4.567-2.323,10.16-0.519,12.494,4.048l41.024,80.277L186.571,434.403z"/>
<path style="fill:#F76B4F;" d="M131.561,304.44c1.646,3.223-0.113,7.112-3.607,8.056c-1.071,0.289-2.139,0.599-3.205,0.927
	c-5.026,1.552-9.988,3.56-14.834,6.036c-4.847,2.476-9.381,5.321-13.582,8.486c-2.8,2.109-5.456,4.358-7.962,6.733
	c-12.944,12.271-21.85,27.906-26.036,44.77c-19.911-8.018-37.128-22.977-47.662-43.591c-10.532-20.61-12.571-43.331-7.403-64.164
	c16.122,6.494,34.011,8.436,51.539,5.134c3.394-0.639,6.773-1.474,10.122-2.507c5.026-1.552,9.988-3.56,14.834-6.036
	c4.847-2.476,9.381-5.321,13.583-8.486c0.891-0.671,1.767-1.355,2.63-2.055c2.811-2.279,6.995-1.426,8.641,1.796L131.561,304.44z"/>
<path style="fill:#F79889;" d="M27.828,329.091c-8.793-17.208-11.646-35.883-9.348-53.706c-3.81-0.996-7.557-2.221-11.211-3.693
	c-5.168,20.833-3.129,43.554,7.403,64.164c10.534,20.615,27.75,35.574,47.662,43.591c0.952-3.836,2.161-7.605,3.594-11.289
	C50.116,359.583,36.634,346.322,27.828,329.091z"/>
<path style="fill:#F76B4F;" d="M496.805,322.912H390.311c-4.396,0-7.959,3.563-7.959,7.959v31.797c0,3.602,2.919,6.521,6.521,6.521
	h107.932c3.739,0,6.769-3.031,6.769-6.769v-32.737C503.574,325.942,500.544,322.912,496.805,322.912z"/>
<path style="fill:#E5624C;" d="M409.146,322.912h-18.835c-4.396,0-7.959,3.563-7.959,7.959v31.797c0,3.602,2.919,6.521,6.521,6.521
	h20.273L409.146,322.912L409.146,322.912z"/>
<path style="fill:#F76B4F;" d="M419.825,295.743v-32.887c0-4.626,3.751-8.376,8.376-8.376h29.525c4.626,0,8.376,3.751,8.376,8.376
	v32.887H419.825z"/>
<path style="fill:#E5624C;" d="M419.825,295.743v-32.887c0-4.626,3.751-8.376,8.376-8.376h5.189v41.263"/>
<path style="fill:#F76B4F;" d="M417.242,452.88h70.889V324.396c0-24.946-20.223-45.169-45.169-45.169l0,0
	c-24.946,0-45.169,20.223-45.169,45.169v128.483"/>
<path style="fill:#E5624C;" d="M397.795,324.396v128.483h19.449h8.817V324.396c0-24.946,7.568-45.169,16.903-45.169l0,0
	C418.017,279.227,397.795,299.45,397.795,324.396z"/>
<g>
	<path style="fill:#F76B4F;" d="M293.619,23.703c27.233,8.672,50.361,30.074,61.175,57.544
		c-25.147,8.728-56.439,11.547-88.847,11.547c-33.254,0-70.268-8.153-90.877-10.882c10.465-27.796,33.412-49.459,61.851-58.209
		C236.921,10.611,247.532,0,260.624,0h9.292C283.007,0,293.619,10.611,293.619,23.703z"/>
	<path style="fill:#F76B4F;" d="M377.588,451.188h120.886c4.961,0,8.982,4.021,8.982,8.982v25.479H377.588"/>
</g>
<polyline style="fill:#E5624C;" points="373.641,451.188 409.146,451.188 409.146,485.649 373.641,485.649 "/>
<path style="fill:#F9C573;" d="M239.507,70.016c1.274-12.968,12.224-23.105,25.53-23.105c13.261,0,24.165,10.059,25.496,22.959"/>
<g>
	<path style="fill:#E5624C;" d="M252.736,23.703c0-13.092,4.62-23.703,10.319-23.703h-2.432c-13.092,0-23.703,10.611-23.703,23.703
		c-28.439,8.751-51.387,30.413-61.851,58.209c16.177-5.468,34.064-9.513,53.098-11.844
		C233.359,48.026,242.177,31.166,252.736,23.703z"/>
	<path style="fill:#E5624C;" d="M265.549,67.787c-0.059,0-0.117-0.003-0.177-0.003c-0.148,0-0.294,0.009-0.442,0.01
		C265.138,67.792,265.343,67.787,265.549,67.787z"/>
</g>
<path style="fill:#CCCCCC;" d="M389.423,409.629v102.368H143.597V409.629c0-38.509,31.225-69.734,69.745-69.734H319.69
	C358.199,339.895,389.423,371.12,389.423,409.629z"/>
<path style="fill:#B3B3B3;" d="M256.31,339.892h-42.97c-38.516,0-69.74,31.223-69.74,69.74v102.369h42.97V409.632
	C186.571,371.115,217.795,339.892,256.31,339.892z"/>
<polygon style="fill:#9B9B9B;" points="337.961,309.175 316.7,426.885 266.515,396.87 216.329,426.885 195.228,310.063 "/>
<path style="fill:#E0B394;" d="M323.416,263.719v72.651c0,31.426-25.48,56.907-56.907,56.907c-31.435,0-56.907-25.48-56.907-56.907
	v-72.651H323.416z"/>
<path style="fill:#F7CBA4;" d="M228.452,358.288l-46.289-33.631c-24.461-17.772-37.694-47.16-34.786-77.256l8.029-83.083
	c5.53-57.222,53.616-64.76,111.105-64.76l0,0c57.489,0,117.371-13.244,122.901,43.978l-0.282,81.672l-4.153,15.282l0.668,6.909
	c2.908,30.096-10.324,59.483-34.786,77.256l-46.289,33.631C281.875,374.777,251.146,374.777,228.452,358.288z"/>
<path style="fill:#E8BA97;" d="M176.183,263.776c-0.778,13.16,3.507,26.105,11.987,36.197l48.379,59.45
	c2.526,3.011,5.39,5.537,8.491,7.555c-5.819-2.03-11.412-4.939-16.588-8.694l-46.29-33.626
	c-24.459-17.772-37.686-47.158-34.777-77.255l0.666-6.907l-9.542-11.537l0.564-75.834c0-69.268,69.013-71.346,125.768-72.169
	c-34.957,0.846-74.541,16.302-76.604,51.395L176.183,263.776z"/>
<path style="fill:#F76B4F;" d="M374.358,148.331c-68.809-29.15-146.887-29.15-215.707,0.011l0,0c-0.828,1.911-1.43,3.91-1.819,5.956
	c-0.624,3.285-1.102,6.628-1.429,10.023l-7.273,75.248c-35.735-18.042-58.198-44.159-58.198-73.218
	c0-35.814,34.111-67.174,85.137-84.427v-0.011c26.522-8.965,57.623-14.129,90.877-14.129c32.409,0,62.776,4.905,88.847,13.464
	c52.154,17.106,87.167,48.816,87.167,85.103c0,28.766-22.012,54.657-57.138,72.677l-7.217-74.707
	c-0.327-3.393-0.805-6.729-1.428-10.014C375.788,152.255,375.185,150.249,374.358,148.331L374.358,148.331z"/>
<path style="fill:#E5624C;" d="M125.968,167.49c0-39.036,37.18-73.217,92.797-92.023v-0.012c7.581-2.562,15.513-4.832,23.732-6.797
	c-24.414,1.82-47.248,6.433-67.429,13.254v0.011c-51.026,17.253-85.137,48.613-85.137,84.427c0,29.059,22.463,55.176,58.198,73.218
	l1.927-19.936C134.713,204.192,125.968,186.415,125.968,167.49z"/>
<g>
	<path style="fill:#AF7C38;" d="M303.721,282.3h-37.212v1.393c0,13.078,10.602,23.681,23.681,23.681h37.212v-1.393
		C327.402,292.902,316.8,282.3,303.721,282.3z"/>
	<path style="fill:#AF7C38;" d="M229.297,282.3h37.212v1.393c0,13.078-10.602,23.681-23.681,23.681h-37.212v-1.393
		C205.616,292.902,216.218,282.3,229.297,282.3z"/>
</g>
<g>
	<path style="fill:#F76B4F;" d="M389.423,413.373v16.915h-15.787c-4.668,0-8.457-3.789-8.457-8.457c0-4.668,3.789-8.457,8.457-8.457
		H389.423z"/>
	<path style="fill:#F76B4F;" d="M389.423,442.691v16.915h-15.787c-4.668,0-8.457-3.789-8.457-8.457c0-4.668,3.789-8.457,8.457-8.457
		H389.423z"/>
</g>
<g>
	<path style="fill:#E5624C;" d="M167.841,421.83c0,4.668-3.778,8.457-8.457,8.457h-15.787v-16.915h15.787
		C164.063,413.373,167.841,417.162,167.841,421.83z"/>
	<path style="fill:#E5624C;" d="M167.841,451.149c0,4.668-3.778,8.457-8.457,8.457h-15.787v-16.915h15.787
		C164.063,442.691,167.841,446.48,167.841,451.149z"/>
</g>
<g>
	<rect x="259.743" y="395.172" style="fill:#9B9B9B;" width="13.532" height="116.824"/>
	<circle style="fill:#9B9B9B;" cx="330.401" cy="466.767" r="26.294"/>
</g>
<circle style="fill:#F76B4F;" cx="330.401" cy="466.767" r="15.143"/>
<circle style="fill:#E5624C;" cx="442.963" cy="345.15" r="29.025"/>
<circle style="fill:#F76B4F;" cx="442.963" cy="345.15" r="14.047"/>
<path style="fill:#F9C573;" d="M76.48,502.316c8.782-0.414,16.998-4.852,21.778-12.232c2.453-3.785,4.125-8.25,4.737-13.403
	c4.781-40.277-44.368-66.211-44.368-66.211c0,44.368-31.397,36.854-30.715,66.893c0.153,6.662,2.449,12.204,6.152,16.593
	c5.425,6.431,13.726,9.71,22.13,9.314L76.48,502.316z"/>
<path style="fill:#F76B4F;" d="M74.115,499.604c5.504-0.259,10.653-3.041,13.649-7.666c1.537-2.373,2.585-5.17,2.969-8.4
	c2.996-25.242-27.806-41.495-27.806-41.495c0,27.805-19.677,23.096-19.249,41.922c0.096,4.175,1.535,7.649,3.855,10.399
	c3.4,4.03,8.602,6.085,13.869,5.837L74.115,499.604z"/>
<g>
	<path style="fill:#E0B394;" d="M148.203,240.509c-13.983-0.62-25.113-12.156-25.113-26.285c0-14.524,11.773-26.308,26.308-26.308
		c1.308,0,2.594,0.09,3.857,0.282L148.203,240.509z"/>
	<path style="fill:#E0B394;" d="M384.806,240.509c13.983-0.62,25.124-12.156,25.124-26.285c0-14.524-11.784-26.308-26.319-26.308
		c-1.308,0-2.605,0.101-3.857,0.282L384.806,240.509z"/>
</g>
<path style="fill:#4D4D4D;" d="M216.312,252.727c-4.671,0-8.457-3.787-8.457-8.457v-13.527c0-4.671,3.787-8.457,8.457-8.457
	s8.457,3.787,8.457,8.457v13.527C224.769,248.94,220.982,252.727,216.312,252.727z"/>
<g>
	<path style="fill:#666666;" d="M297.374,200.296c0,0,0.023-0.224,0.098-0.61c0.087-0.373,0.175-0.963,0.364-1.631
		c0.085-0.345,0.194-0.705,0.319-1.101c0.164-0.401,0.383-0.805,0.617-1.263c0.231-0.46,0.523-0.915,0.83-1.425
		c0.309-0.519,0.678-0.912,1.055-1.413c0.383-0.482,0.815-0.947,1.266-1.448c0.477-0.452,0.995-0.898,1.545-1.345
		c1.077-0.948,2.393-1.634,3.764-2.396c1.419-0.6,2.924-1.251,4.537-1.552c1.597-0.415,3.271-0.513,4.941-0.591
		c1.67,0.077,3.346,0.166,4.944,0.578c1.614,0.298,3.12,0.952,4.54,1.547c1.372,0.761,2.689,1.446,3.767,2.395
		c0.549,0.449,1.068,0.895,1.546,1.345c0.451,0.502,0.881,0.972,1.266,1.45c0.372,0.498,0.759,0.908,1.042,1.406
		c0.284,0.496,0.559,0.94,0.783,1.39c0.222,0.451,0.438,0.848,0.6,1.248c0.148,0.417,0.279,0.795,0.376,1.152
		c0.214,0.691,0.303,1.286,0.386,1.658c0.072,0.385,0.088,0.603,0.088,0.603s-0.233-0.006-0.628-0.044
		c-0.383-0.05-0.979-0.074-1.636-0.17c-0.341-0.035-0.688-0.098-1.07-0.149c-0.407-0.019-0.809-0.076-1.245-0.109
		c-0.856-0.09-1.749-0.224-2.731-0.263c-0.483-0.032-0.951-0.101-1.44-0.142c-0.506-0.007-1.006-0.033-1.502-0.07
		c-0.972-0.126-2.029-0.052-3.01-0.175c-1.032,0.037-2.02-0.089-3.042-0.057c-1.006-0.076-2.023,0.005-3.032-0.067
		c-1.009,0.069-2.026-0.019-3.035,0.054c-1.024-0.036-2.012,0.095-3.046,0.053c-0.982,0.122-2.041,0.046-3.013,0.174
		c-0.496,0.037-0.996,0.064-1.503,0.07c-0.489,0.041-0.955,0.115-1.44,0.144c-1.001,0.054-1.834,0.149-2.669,0.221
		c-0.439,0.034-0.849,0.065-1.229,0.094c-0.405,0.073-0.775,0.154-1.127,0.201c-0.682,0.121-1.279,0.149-1.658,0.197
		C297.599,200.296,297.374,200.296,297.374,200.296z"/>
	<path style="fill:#666666;" d="M196.975,200.296c0,0,0.023-0.224,0.098-0.61c0.087-0.373,0.175-0.963,0.364-1.631
		c0.085-0.345,0.194-0.705,0.319-1.101c0.164-0.401,0.383-0.805,0.617-1.263c0.231-0.46,0.523-0.915,0.83-1.425
		c0.309-0.519,0.678-0.912,1.055-1.413c0.383-0.482,0.815-0.947,1.266-1.448c0.477-0.452,0.995-0.898,1.545-1.345
		c1.077-0.948,2.393-1.634,3.764-2.396c1.419-0.6,2.924-1.251,4.537-1.552c1.597-0.415,3.271-0.513,4.941-0.591
		c1.67,0.077,3.346,0.166,4.944,0.578c1.614,0.298,3.12,0.952,4.54,1.547c1.372,0.761,2.689,1.446,3.767,2.395
		c0.549,0.449,1.068,0.895,1.546,1.345c0.451,0.502,0.881,0.972,1.266,1.45c0.372,0.498,0.759,0.908,1.042,1.406
		c0.284,0.496,0.559,0.94,0.783,1.39c0.222,0.451,0.438,0.848,0.6,1.248c0.148,0.417,0.279,0.795,0.376,1.152
		c0.214,0.691,0.303,1.286,0.386,1.658c0.072,0.385,0.088,0.603,0.088,0.603s-0.233-0.006-0.628-0.044
		c-0.383-0.05-0.979-0.074-1.636-0.17c-0.341-0.035-0.688-0.098-1.07-0.149c-0.407-0.019-0.809-0.076-1.245-0.109
		c-0.856-0.09-1.749-0.224-2.731-0.263c-0.483-0.032-0.951-0.101-1.44-0.142c-0.506-0.007-1.006-0.033-1.502-0.07
		c-0.972-0.126-2.029-0.052-3.01-0.175c-1.032,0.037-2.02-0.089-3.042-0.057c-1.006-0.076-2.023,0.005-3.032-0.067
		c-1.009,0.069-2.026-0.019-3.034,0.054c-1.024-0.036-2.012,0.095-3.046,0.053c-0.982,0.122-2.041,0.046-3.013,0.174
		c-0.496,0.037-0.996,0.064-1.503,0.07c-0.489,0.041-0.955,0.115-1.44,0.144c-1.001,0.054-1.834,0.149-2.669,0.221
		c-0.439,0.034-0.849,0.065-1.229,0.094c-0.405,0.073-0.775,0.154-1.127,0.201c-0.682,0.121-1.279,0.149-1.658,0.197
		C197.2,200.296,196.975,200.296,196.975,200.296z"/>
</g>
<path style="fill:#4D4D4D;" d="M316.709,252.727c-4.671,0-8.457-3.787-8.457-8.457v-13.527c0-4.671,3.787-8.457,8.457-8.457
	c4.671,0,8.457,3.787,8.457,8.457v13.527C325.167,248.94,321.381,252.727,316.709,252.727z"/>
<path style="fill:#E0B394;" d="M279.479,211.009v40.031c0,7.162-5.806,12.968-12.968,12.968l0,0
	c-7.162,0-12.968-5.806-12.968-12.968v-40.031H279.479z"/>
<g>
</g>
<g>
</g>
<g>
</g>
<g>
</g>
<g>
</g>
<g>
</g>
<g>
</g>
<g>
</g>
<g>
</g>
<g>
</g>
<g>
</g>
<g>
</g>
<g>
</g>
<g>
</g>
<g>
</g>
</svg>
