<?xml version="1.0" encoding="iso-8859-1"?>
<!-- Generator: Adobe Illustrator 19.0.0, SVG Export Plug-In . SVG Version: 6.00 Build 0)  -->
<svg version="1.1" id="Layer_1" xmlns="http://www.w3.org/2000/svg" xmlns:xlink="http://www.w3.org/1999/xlink" x="0px" y="0px"
	 viewBox="0 0 512.001 512.001" style="enable-background:new 0 0 512.001 512.001;" xml:space="preserve">
<path style="fill:#90BC42;" d="M470.916,498.599h-10.521v-5.261c0-23.538-11.022-63.334-11.133-63.734l-1.412-5.067l10.133-2.827
	l1.415,5.067c0.47,1.686,11.52,41.578,11.52,66.561v5.261H470.916z"/>
<path style="fill:#E2AF66;" d="M159.734,117.584c-4.477,10.58,18.003,21.99,16.846,33.973l-8.768,17.664
	c28.829-6.628,27.075,36.825,25.719,36.825c-8.698,0-29.811-7.014-70.611-15.408l-0.012-0.012
	c-46.926-8.207-76.643-20.365-76.643-33.926c0-15.618,39.409-29.367,99.135-37.351C150.054,118.718,154.836,118.134,159.734,117.584
	z"/>
<path style="fill:#F9C573;" d="M486.39,156.7c0,13.561-29.729,25.719-76.655,33.926h-0.012
	c-25.608,9.269-42.773,19.192-47.247,26.637c-16.849,28.037-10.237-3.546-11.534-3.359l-17.586-7.777l9.814-63.795
	c-1.157-11.983,34.218-14.169,29.741-24.749c4.898,0.549,9.68,1.134,14.333,1.765C446.969,127.334,486.39,141.082,486.39,156.7z"/>
<path style="fill:#CCCCCC;" d="M498.612,354.294c5.037-8.493,4.813-19.531-1.438-27.959c-6.252-8.428-16.75-11.844-26.34-9.488
	c-2.444-9.567-10.407-17.214-20.787-18.753s-20.219,3.469-25.333,11.916c-8.493-5.037-19.531-4.813-27.959,1.438
	c-0.798,0.593-1.537,1.235-2.246,1.899c-0.693,0.65-1.356,1.321-1.96,2.032c-0.408,0.479-0.795,0.97-1.162,1.474
	c-3.672,5.033-5.311,11.221-4.732,17.307c0.116,1.217,0.32,2.429,0.615,3.629c-9.567,2.444-17.214,10.407-18.753,20.787
	c-1.538,10.38,3.47,20.219,11.916,25.333c-5.037,8.493-4.814,19.531,1.438,27.959c6.252,8.428,16.75,11.844,26.339,9.487l0,0
	c0.611,2.392,1.566,4.663,2.82,6.75c0.313,0.521,0.645,1.031,0.994,1.529c3.844,5.471,9.838,9.415,16.973,10.474
	c10.38,1.538,20.219-3.469,25.333-11.916c8.493,5.037,19.531,4.813,27.959-1.438c8.428-6.252,11.844-16.75,9.487-26.339
	c9.567-2.444,17.214-10.407,18.754-20.787C512.067,369.247,507.059,359.409,498.612,354.294z"/>
<path style="fill:#90BC42;" d="M321.459,333.573H211.207c-39.93,0-72.301,32.37-72.301,72.301v106.127h254.853V405.874
	C393.759,365.943,361.389,333.573,321.459,333.573z"/>
<path style="fill:#E0B394;" d="M317.205,310.064v64.948c0,28.093-22.779,50.872-50.872,50.872
	c-28.103,0-50.872-22.779-50.872-50.872v-64.948H317.205z"/>
<path style="fill:#83A538;" d="M266.333,432.314c-31.596,0-57.302-25.706-57.302-57.302v-64.948c0-3.552,2.879-6.43,6.43-6.43
	h101.745c3.55,0,6.43,2.878,6.43,6.43v64.948C323.636,406.609,297.93,432.314,266.333,432.314z M221.89,316.495v58.518
	c0,24.506,19.937,44.443,44.443,44.443c24.507,0,44.444-19.937,44.444-44.443v-58.518H221.89z"/>
<g>
	<path style="fill:#E0B394;" d="M144.263,234.753c-14.496-0.643-26.035-12.602-26.035-27.251c0-15.057,12.205-27.274,27.274-27.274
		c1.356,0,2.689,0.094,3.998,0.292L144.263,234.753z"/>
	<path style="fill:#E0B394;" d="M388.384,234.753c14.496-0.643,26.046-12.602,26.046-27.251c0-15.057-12.217-27.274-27.286-27.274
		c-1.356,0-2.7,0.105-3.998,0.292L388.384,234.753z"/>
</g>
<path style="fill:#83A538;" d="M255.755,333.573h-44.548c-39.93,0-72.301,32.37-72.301,72.301v106.127h44.548V405.874
	C183.454,365.943,215.824,333.573,255.755,333.573z"/>
<path style="fill:#F7CBA4;" d="M353.773,317.784l-47.989,34.861c-23.521,17.091-55.378,17.091-78.911,0l-47.989-34.861
	c-25.357-18.424-39.081-48.89-36.065-80.092l8.324-86.135c0.666-6.851,1.917-13.526,3.718-19.956
	c13.678-49.229,58.756-84.639,111.469-84.639c29.799,0,57.166,11.316,77.8,30.045c15.852,14.403,27.742,33.201,33.68,54.595
	c1.789,6.43,3.04,13.105,3.706,19.956l8.324,86.135C392.854,268.894,379.129,299.359,353.773,317.784z"/>
<g>
	<path style="fill:#E0B394;" d="M172.685,254.662c-0.807,13.643,3.636,27.063,12.427,37.526l50.156,61.632
		c2.619,3.121,5.588,5.74,8.803,7.833c-6.032-2.104-11.831-5.12-17.197-9.013l-47.989-34.861
		c-25.357-18.424-39.07-48.89-36.053-80.092l8.312-86.135c5.682-58.745,54.618-103.706,113.456-104.56
		c-36.241,0.877-77.278,35.036-79.417,71.417L172.685,254.662z"/>
	<path style="fill:#E0B394;" d="M377.808,131.601c-1.625-0.199-3.25-0.386-4.898-0.573c-31.576-3.566-67.91-5.588-106.582-5.588
		s-75.018,2.022-106.594,5.588c-1.637,0.187-3.262,0.374-4.875,0.573c13.678-49.229,58.756-84.639,111.469-84.639
		c29.799,0,57.166,11.316,77.8,30.045C359.98,91.408,371.87,110.207,377.808,131.601z"/>
</g>
<path style="fill:#F9C573;" d="M387.243,119.349c-4.653-0.631-9.434-1.216-14.333-1.765c-31.576-3.566-67.91-5.588-106.582-5.588
	s-75.018,2.022-106.594,5.588c-4.898,0.549-9.68,1.134-14.333,1.765c9.902-54.513,57.529-94.927,113.842-94.927h14.169
	C329.725,24.423,377.341,64.837,387.243,119.349z"/>
<path style="fill:#E2AF66;" d="M259.243,24.423h2.186c-37.912,0-70.131,38.415-78.057,90.858
	c-8.137,0.666-16.028,1.438-23.638,2.303c-4.898,0.549-9.68,1.134-14.333,1.765C155.303,64.837,202.93,24.423,259.243,24.423z"/>
<g>
	<rect x="83.459" y="392.543" style="fill:#F76B4F;" width="99.954" height="119.453"/>
	<path style="fill:#F76B4F;" d="M169.965,400.147h-15.198v-27.764c0-12.731-10.357-23.088-23.088-23.088
		c-12.73,0-23.086,10.357-23.086,23.088v27.764H93.396v-27.764c0-21.111,17.173-38.285,38.284-38.285s38.285,17.174,38.285,38.285
		V400.147z"/>
</g>
<rect x="-16.955" y="414.514" transform="matrix(-0.4173 -0.9088 0.9088 -0.4173 -292.4228 659.0607)" style="fill:#E5624C;" width="164.081" height="17.535"/>
<path style="fill:#F76B4F;" d="M8.937,379.397c-2.243,0-4.488-0.856-6.201-2.568c-3.424-3.424-3.424-8.976,0-12.399l40.33-40.331
	c3.425-3.424,8.976-3.424,12.4,0c3.424,3.424,3.424,8.976,0,12.399l-40.33,40.331C13.425,378.541,11.181,379.397,8.937,379.397z"/>
<circle style="fill:#FCEA81;" cx="439.517" cy="369.104" r="31.857"/>
<path style="fill:#E8D574;" d="M439.546,407.391c-1.862,0-3.743-0.137-5.638-0.417c-10.116-1.5-19.043-6.848-25.136-15.062
	c-6.093-8.214-8.623-18.309-7.123-28.424c3.096-20.883,22.615-35.35,43.486-32.258c10.116,1.5,19.043,6.848,25.136,15.062
	c6.093,8.214,8.623,18.309,7.123,28.424l0,0C474.579,393.703,458.193,407.391,439.546,407.391z M439.505,343.672
	c-12.385,0-23.265,9.089-25.136,21.701c-0.996,6.719,0.684,13.422,4.73,18.877c4.047,5.455,9.975,9.007,16.694,10.004
	c13.858,2.048,26.823-7.554,28.88-21.424c0.996-6.719-0.684-13.422-4.73-18.877c-4.047-5.455-9.975-9.008-16.694-10.004
	C441.991,343.762,440.742,343.672,439.505,343.672z M471.034,373.773h0.012H471.034z"/>
<g>
	<path style="fill:#90BC42;" d="M511.833,0h-17.214c-25.358,0-45.914,20.557-45.914,45.914v17.214h17.214
		c25.358,0,45.914-20.557,45.914-45.914V0z"/>
	<path style="fill:#90BC42;" d="M67.03,22.557L64.164,39.53c-4.221,25.004,12.626,48.697,37.629,52.918l16.973,2.865l2.865-16.973
		c4.221-25.004-12.626-48.697-37.629-52.918L67.03,22.557z"/>
	<path style="fill:#90BC42;" d="M55.976,282.501l9.855,7.213c14.517,10.625,34.901,7.47,45.526-7.048l7.213-9.855l-9.855-7.213
		c-14.517-10.625-34.901-7.47-45.526,7.048L55.976,282.501z"/>
</g>
<path style="fill:#B3B3B3;" d="M353.773,317.784l-47.989,34.861c-18.167,13.199-41.291,16.203-61.714,9.013
	c-0.047-0.023-0.105-0.035-0.152-0.047c-5.986-2.116-11.726-5.097-17.045-8.967l-47.989-34.861
	c-25.368-18.424-39.081-48.89-36.065-80.092l0.281-2.934l3.928-40.695l0.713,0.07c12.988,12.988,22.025,29.296,26.187,47.054
	c0.69,2.934,1.239,5.904,1.66,8.908l3.238,23.252c0.818,5.904,5.927,10.276,11.889,10.147c0.316-0.012,0.631-0.012,0.935-0.012
	c10.603,0,20.295,3.881,27.742,10.299c13.491-8.85,29.6-14.017,46.926-14.017c17.676,0,34.101,5.366,47.744,14.531
	c7.529-6.722,17.466-10.814,28.349-10.814h0.117c5.962,0.012,11.083-4.244,11.901-10.159l3.227-23.229
	c2.946-21.183,12.719-40.835,27.847-55.962l0.117-0.012l3.928,40.636l0.281,2.934C392.842,268.894,379.129,299.359,353.773,317.784z
	"/>
<circle style="fill:#FCEA81;" cx="290.849" cy="451.253" r="8.476"/>
<rect x="260.488" y="425.826" style="fill:#83A538;" width="11.69" height="43.255"/>
<rect x="83.459" y="392.543" style="fill:#E5624C;" width="35.836" height="119.453"/>
<path style="fill:#F2F2F2;" d="M298.251,302.951c0,0-0.465,1.637-1.444,4.22c-0.236,0.666-0.513,1.368-0.823,2.128
	c-0.367,0.748-0.791,1.508-1.247,2.361c-0.457,0.853-0.979,1.719-1.533,2.677c-0.195,0.362-0.408,0.666-0.636,0.982
	c-0.082,0.117-0.171,0.234-0.261,0.351c-0.318,0.421-0.644,0.865-0.978,1.309c-0.669,0.9-1.395,1.789-2.152,2.724
	c-0.8,0.842-1.655,1.637-2.536,2.502c-0.441,0.433-0.897,0.853-1.362,1.274c-0.465,0.397-0.962,0.725-1.468,1.087
	c-0.995,0.725-2.031,1.426-3.098,2.128c-2.201,1.076-4.493,2.338-6.939,2.864c-2.414,0.807-4.933,0.935-7.444,1.111
	c-2.511-0.175-5.032-0.292-7.444-1.099c-2.446-0.526-4.737-1.789-6.939-2.864c-1.069-0.69-2.104-1.391-3.106-2.116
	c-0.498-0.362-0.995-0.69-1.468-1.087c-0.457-0.433-0.913-0.842-1.354-1.274c-0.88-0.865-1.745-1.672-2.544-2.502
	c-0.759-0.935-1.475-1.835-2.152-2.724c-0.334-0.456-0.652-0.888-0.97-1.321c-0.115-0.152-0.228-0.304-0.343-0.456
	c-0.195-0.281-0.383-0.549-0.546-0.865c-0.53-0.924-1.044-1.777-1.492-2.619c-0.441-0.853-0.872-1.602-1.231-2.35
	c-0.326-0.795-0.628-1.52-0.88-2.186c-1.019-2.665-1.444-4.255-1.444-4.255s1.206,0.526,3.066,1.602
	c0.473,0.257,0.962,0.573,1.508,0.888c0.579,0.245,1.174,0.561,1.81,0.865c0.644,0.304,1.288,0.678,1.973,1.029
	c0.677,0.374,1.444,0.62,2.201,0.947c0.759,0.316,1.516,0.701,2.308,1.04c0.823,0.257,1.647,0.561,2.495,0.853
	c0.424,0.14,0.839,0.316,1.264,0.479c0.433,0.14,0.88,0.222,1.321,0.351c0.888,0.222,1.778,0.479,2.667,0.772
	c1.851,0.245,3.678,0.83,5.586,0.935c1.883,0.351,3.808,0.257,5.715,0.421c1.916-0.164,3.84-0.058,5.724-0.409
	c1.908-0.094,3.735-0.69,5.586-0.935c0.888-0.281,1.778-0.538,2.667-0.76c0.441-0.129,0.888-0.21,1.321-0.351
	c0.424-0.175,0.848-0.339,1.264-0.479c0.848-0.292,1.672-0.608,2.495-0.853c0.8-0.339,1.557-0.725,2.316-1.04
	c0.751-0.327,1.533-0.585,2.185-0.947c0.669-0.327,1.296-0.69,1.932-0.97c0.628-0.304,1.215-0.608,1.794-0.853
	c0.57-0.351,1.077-0.69,1.557-0.959C297.069,303.443,298.251,302.951,298.251,302.951z"/>
<g>
	<path style="fill:#4D4D4D;" d="M292.567,315.319c-0.082,0.117-0.171,0.234-0.261,0.351c-0.318,0.421-0.644,0.865-0.978,1.309
		c-0.669,0.9-1.395,1.789-2.152,2.724c-0.8,0.842-1.655,1.637-2.536,2.502c-0.441,0.433-0.897,0.853-1.362,1.274
		c-0.465,0.397-0.962,0.725-1.468,1.087c-0.995,0.725-2.031,1.426-3.098,2.128c-2.201,1.076-4.493,2.338-6.939,2.864
		c-2.414,0.807-4.933,0.935-7.444,1.111c-2.511-0.175-5.032-0.292-7.444-1.099c-2.446-0.526-4.737-1.789-6.939-2.864
		c-1.069-0.69-2.104-1.391-3.106-2.116c-0.498-0.362-0.995-0.69-1.468-1.087c-0.457-0.433-0.913-0.842-1.354-1.274
		c-0.88-0.865-1.745-1.672-2.544-2.502c-0.759-0.935-1.475-1.835-2.152-2.724c-0.334-0.456-0.652-0.888-0.97-1.321
		c-0.115-0.152-0.228-0.304-0.343-0.456c0.261,0.129,0.521,0.257,0.791,0.386c0.644,0.304,1.288,0.666,1.973,1.017
		c0.677,0.386,1.444,0.631,2.201,0.959c0.759,0.316,1.516,0.69,2.308,1.04c0.823,0.246,1.647,0.561,2.495,0.853
		c0.424,0.14,0.839,0.304,1.264,0.468c0.433,0.14,0.88,0.222,1.321,0.351c0.888,0.222,1.778,0.491,2.667,0.772
		c1.851,0.257,3.678,0.842,5.586,0.935c1.883,0.362,3.808,0.257,5.715,0.433c1.916-0.164,3.84-0.058,5.724-0.421
		c1.908-0.094,3.735-0.678,5.586-0.924c0.888-0.281,1.778-0.549,2.667-0.772c0.441-0.129,0.888-0.21,1.321-0.351
		c0.424-0.164,0.848-0.327,1.264-0.468c0.848-0.292,1.672-0.608,2.495-0.853c0.8-0.351,1.557-0.737,2.316-1.04
		c0.751-0.327,1.533-0.596,2.185-0.947c0.669-0.339,1.296-0.69,1.932-0.982C292.07,315.566,292.323,315.437,292.567,315.319z"/>
	<path style="fill:#4D4D4D;" d="M214.286,246.274c-4.842,0-8.768-3.926-8.768-8.768v-14.024c0-4.842,3.926-8.768,8.768-8.768
		c4.842,0,8.768,3.926,8.768,8.768v14.024C223.054,242.348,219.129,246.274,214.286,246.274z"/>
</g>
<g>
	<path style="fill:#666666;" d="M298.326,189.58c0,0,0.023-0.233,0.102-0.632c0.09-0.387,0.181-0.998,0.378-1.69
		c0.088-0.358,0.201-0.731,0.331-1.141c0.17-0.416,0.397-0.835,0.639-1.309c0.24-0.477,0.542-0.948,0.86-1.478
		c0.32-0.538,0.703-0.946,1.094-1.465c0.397-0.499,0.845-0.982,1.313-1.501c0.495-0.469,1.031-0.931,1.602-1.395
		c1.116-0.983,2.481-1.694,3.902-2.484c1.471-0.622,3.031-1.296,4.703-1.609c1.655-0.43,3.391-0.532,5.123-0.613
		c1.731,0.079,3.469,0.172,5.125,0.6c1.673,0.309,3.235,0.987,4.707,1.604c1.423,0.789,2.788,1.499,3.906,2.483
		c0.569,0.465,1.107,0.928,1.603,1.395c0.468,0.52,0.913,1.008,1.313,1.503c0.386,0.517,0.787,0.941,1.08,1.458
		c0.295,0.514,0.58,0.975,0.811,1.441c0.23,0.468,0.454,0.879,0.622,1.294c0.153,0.433,0.289,0.824,0.389,1.195
		c0.222,0.717,0.314,1.333,0.4,1.719c0.075,0.399,0.091,0.625,0.091,0.625s-0.242-0.006-0.651-0.046
		c-0.397-0.051-1.015-0.077-1.696-0.177c-0.353-0.036-0.713-0.102-1.109-0.154c-0.422-0.02-0.838-0.078-1.291-0.113
		c-0.887-0.094-1.813-0.233-2.831-0.272c-0.5-0.033-0.986-0.105-1.493-0.147c-0.525-0.007-1.043-0.034-1.557-0.072
		c-1.008-0.131-2.103-0.054-3.12-0.181c-1.07,0.039-2.094-0.092-3.154-0.06c-1.043-0.078-2.097,0.005-3.144-0.069
		c-1.046,0.071-2.101-0.02-3.146,0.056c-1.061-0.037-2.086,0.098-3.158,0.055c-1.018,0.126-2.116,0.048-3.124,0.18
		c-0.514,0.039-1.032,0.067-1.558,0.072c-0.507,0.042-0.99,0.119-1.493,0.15c-1.038,0.056-1.901,0.154-2.767,0.229
		c-0.455,0.035-0.88,0.068-1.274,0.097c-0.42,0.076-0.803,0.16-1.168,0.208c-0.707,0.125-1.326,0.154-1.72,0.205
		C298.56,189.58,298.326,189.58,298.326,189.58z"/>
	<path style="fill:#666666;" d="M194.241,189.58c0,0,0.023-0.233,0.102-0.632c0.09-0.387,0.181-0.998,0.378-1.69
		c0.088-0.358,0.201-0.731,0.331-1.141c0.17-0.416,0.397-0.835,0.639-1.309c0.24-0.477,0.542-0.948,0.86-1.478
		c0.32-0.538,0.703-0.946,1.094-1.465c0.397-0.499,0.845-0.982,1.313-1.501c0.495-0.469,1.031-0.931,1.602-1.395
		c1.116-0.983,2.481-1.694,3.902-2.484c1.471-0.622,3.031-1.296,4.703-1.609c1.655-0.43,3.391-0.532,5.123-0.613
		c1.731,0.079,3.469,0.172,5.125,0.6c1.673,0.309,3.235,0.987,4.707,1.604c1.423,0.789,2.788,1.499,3.906,2.483
		c0.569,0.465,1.107,0.928,1.603,1.395c0.468,0.52,0.913,1.008,1.313,1.503c0.386,0.517,0.787,0.941,1.08,1.458
		c0.295,0.514,0.58,0.975,0.811,1.441c0.23,0.468,0.454,0.879,0.622,1.294c0.153,0.433,0.289,0.824,0.389,1.195
		c0.222,0.717,0.314,1.333,0.4,1.719c0.075,0.399,0.091,0.625,0.091,0.625s-0.242-0.006-0.651-0.046
		c-0.397-0.051-1.015-0.077-1.696-0.177c-0.353-0.036-0.713-0.102-1.109-0.154c-0.422-0.02-0.838-0.078-1.291-0.113
		c-0.887-0.094-1.813-0.233-2.831-0.272c-0.5-0.033-0.986-0.105-1.493-0.147c-0.525-0.007-1.043-0.034-1.557-0.072
		c-1.008-0.131-2.103-0.054-3.12-0.181c-1.07,0.039-2.094-0.092-3.154-0.06c-1.043-0.078-2.097,0.005-3.144-0.069
		c-1.046,0.071-2.101-0.02-3.146,0.056c-1.061-0.037-2.086,0.098-3.158,0.055c-1.018,0.126-2.116,0.048-3.124,0.18
		c-0.514,0.039-1.032,0.067-1.558,0.072c-0.507,0.042-0.99,0.119-1.493,0.15c-1.038,0.056-1.901,0.154-2.767,0.229
		c-0.455,0.035-0.88,0.068-1.274,0.097c-0.42,0.076-0.803,0.16-1.168,0.208c-0.707,0.125-1.326,0.154-1.719,0.205
		C194.475,189.58,194.241,189.58,194.241,189.58z"/>
</g>
<path style="fill:#4D4D4D;" d="M318.372,246.274c-4.842,0-8.768-3.926-8.768-8.768v-14.024c0-4.842,3.926-8.768,8.768-8.768
	s8.768,3.926,8.768,8.768v14.024C327.139,242.348,323.214,246.274,318.372,246.274z"/>
<path style="fill:#E0B394;" d="M279.773,210.623v41.501c0,7.425-6.019,13.444-13.444,13.444l0,0
	c-7.425,0-13.444-6.019-13.444-13.444v-41.501H279.773z"/>
<path style="fill:#AAAAAA;" d="M244.069,361.658c-0.047-0.023-0.105-0.035-0.152-0.047c-5.986-2.116-11.726-5.097-17.045-8.967
	l-47.989-34.861c-25.368-18.424-39.081-48.89-36.065-80.092l0.281-2.934l3.928-40.695l0.713,0.07
	c12.988,12.988,22.025,29.296,26.187,47.054l-1.239,13.479c-0.807,13.643,3.636,27.063,12.427,37.526l50.152,61.632
	C237.885,356.947,240.854,359.565,244.069,361.658z"/>
<g>
</g>
<g>
</g>
<g>
</g>
<g>
</g>
<g>
</g>
<g>
</g>
<g>
</g>
<g>
</g>
<g>
</g>
<g>
</g>
<g>
</g>
<g>
</g>
<g>
</g>
<g>
</g>
<g>
</g>
</svg>
