<?xml version="1.0" encoding="iso-8859-1"?>
<!-- Generator: Adobe Illustrator 19.0.0, SVG Export Plug-In . SVG Version: 6.00 Build 0)  -->
<svg version="1.1" id="Layer_1" xmlns="http://www.w3.org/2000/svg" xmlns:xlink="http://www.w3.org/1999/xlink" x="0px" y="0px"
	 viewBox="0 0 512.001 512.001" style="enable-background:new 0 0 512.001 512.001;" xml:space="preserve">
<g>
	<path style="fill:#4D4D4D;" d="M418.026,417.876c-2.166,0-4.334-0.826-5.988-2.48c-3.307-3.307-3.307-8.668,0-11.974l20.768-20.768
		l-10.937-22.517c-2.043-4.206-0.29-9.272,3.917-11.315c4.206-2.046,9.272-0.289,11.314,3.916l13.571,27.94
		c1.576,3.246,0.922,7.135-1.628,9.686l-25.031,25.031C422.36,417.05,420.193,417.876,418.026,417.876z"/>
	
		<rect x="437.253" y="275.243" transform="matrix(-0.7071 -0.7071 0.7071 -0.7071 572.4339 804.529)" style="fill:#4D4D4D;" width="31.175" height="16.934"/>
</g>
<path style="fill:#F9C573;" d="M404.748,385.59l36.946,45.746c3.328,4.121,3.011,10.087-0.734,13.832l-18.392,18.392
	c-4.352,4.352-11.515,3.972-15.383-0.816l-35.561-44.031l6.834-34.463L404.748,385.59"/>
<path style="fill:#4D4D4D;" d="M371.624,418.714l120.391-120.39c2.944-2.944,2.944-7.717,0-10.662l-21.269-21.269
	c-2.944-2.944-7.717-2.944-10.662,0L341.149,385.327"/>
<polyline style="fill:#4A6F93;" points="106.453,207.975 84.913,156.077 130.647,45.44 240.121,0 350.758,45.734 396.198,155.208 
	374.454,207.817 "/>
<g>
	<path style="fill:#E0B394;" d="M121.545,254.982c-13.999-0.621-25.142-12.17-25.142-26.316c0-14.541,11.786-26.338,26.338-26.338
		c1.31,0,2.597,0.09,3.861,0.282"/>
	<path style="fill:#E0B394;" d="M359.55,254.982c13.999-0.621,25.153-12.17,25.153-26.316c0-14.541-11.798-26.338-26.35-26.338
		c-1.31,0-2.608,0.102-3.861,0.282"/>
</g>
<path style="fill:#4A6F93;" d="M363.609,420.238v91.761H117.498v-91.761c0-34.241,24.645-62.724,57.159-68.674
	c4.109-0.756,8.343-1.152,12.667-1.152h106.471c4.324,0,8.546,0.395,12.656,1.152C338.964,357.513,363.609,385.997,363.609,420.238z
	"/>
<g>
	<rect x="232.091" y="394.037" style="fill:#3D5F7A;" width="16.934" height="117.964"/>
	<path style="fill:#3D5F7A;" d="M306.45,351.564l-15.647,86.636l-50.25-30.053l-50.238,30.053l-15.659-86.636
		c4.109-0.756,8.343-1.152,12.667-1.152h106.471C298.118,350.412,302.341,350.807,306.45,351.564z"/>
</g>
<path style="fill:#E0B394;" d="M290.37,246.499v103.805c0,27.511-22.306,49.817-49.817,49.817
	c-27.519,0-49.817-22.306-49.817-49.817V232.953"/>
<path style="fill:#3D5F7A;" d="M230.336,350.412c-38.554,0-69.814,31.261-69.814,69.826v91.761h-43.024v-91.761
	c0-38.565,31.261-69.826,69.826-69.826H230.336z"/>
<path style="fill:#F7CBA4;" d="M202.45,368.831l-46.342-33.67c-24.489-17.792-37.737-47.215-34.826-77.345l8.038-83.179
	c5.536-57.289,53.678-83.913,111.233-83.913l0,0c57.555,0,105.697,26.625,111.233,83.913l8.038,83.179
	c2.912,30.131-10.337,59.552-34.826,77.345l-46.342,33.67C255.935,385.338,225.17,385.338,202.45,368.831z"/>
<path style="fill:#E8BA97;" d="M150.121,274.208c-0.779,13.175,3.511,26.135,12.001,36.239l48.435,59.518
	c2.529,3.014,5.396,5.543,8.501,7.564c-5.825-2.032-11.425-4.945-16.607-8.704l-46.343-33.665
	c-24.487-17.792-37.729-47.213-34.817-77.344l8.027-83.181c5.487-56.73,54.415-83.086,111.235-83.91
	c-34.997,0.847-76.298,16.772-78.364,51.905L150.121,274.208z"/>
<path style="fill:#E0B394;" d="M253.536,218.139v45.722c0,7.17-5.813,12.983-12.983,12.983l0,0c-7.17,0-12.983-5.813-12.983-12.983
	v-45.722"/>
<path style="fill:#C49270;" d="M221.501,311.167c-2.804,0-5.348-1.914-6.032-4.762c-0.8-3.335,1.253-6.687,4.587-7.487
	c13.41-3.219,27.582-3.22,40.992,0c3.334,0.8,5.387,4.152,4.587,7.487c-0.8,3.336-4.157,5.387-7.487,4.588
	c-11.512-2.765-23.683-2.764-35.193,0C222.469,311.11,221.982,311.167,221.501,311.167z"/>
<path style="fill:#E0B394;" d="M288.466,134.219c-5.216,16.754-30.922,29.477-61.833,29.477c-30.538,0-55.996-12.418-61.629-28.867
	c21.435-4.774,38.607-22.086,60.67-21.902C245.141,113.089,269.505,130.197,288.466,134.219z"/>
<path style="fill:#4D4D4D;" d="M300.884,134.219c-5.216,16.754-30.922,29.477-61.833,29.477c-30.538,0-55.996-12.418-61.629-28.867
	c21.435-4.774,38.607-22.086,60.67-21.902C257.56,113.089,281.923,130.197,300.884,134.219z"/>
<path style="fill:#3D5F7A;" d="M345.805,147.8c-14.496-5.803-29.545-10.319-44.921-13.581c-40.45-8.58-83.113-8.377-123.462,0.61
	c-14.405,3.206-28.517,7.53-42.121,12.972c1.998-5.622,4.437-11.03,7.27-16.178c2.664-4.866,5.69-9.506,9.032-13.886
	c20.502-26.925,52.88-44.108,88.95-44.108c28.777,0,55.206,10.928,75.12,29.025c5.058,4.595,9.698,9.641,13.841,15.094
	c3.342,4.38,6.356,9.02,9.02,13.875C341.368,136.77,343.796,142.178,345.805,147.8z"/>
<path style="fill:#F9C573;" d="M338.535,131.622c-12.418-4.651-25.401-8.422-38.7-11.244c-39.75-8.433-81.702-8.23-121.306,0.598
	c-12.317,2.732-24.385,6.311-35.957,10.646c2.664-4.866,5.69-9.506,9.032-13.886c8.083-2.585,16.347-4.821,24.713-6.683
	c41.026-9.133,84.468-9.348,125.618-0.621c9.37,1.987,18.594,4.437,27.58,7.316C332.856,122.127,335.87,126.767,338.535,131.622z"/>
<g>
	<path style="fill:#3D5F7A;" d="M227.57,216.196c0,25.317-20.282,45.897-45.483,46.38c-26.006,0.498-47.293-21.285-47.293-47.295
		v-12.952h78.908C221.361,202.327,227.57,208.536,227.57,216.196L227.57,216.196z"/>
	<path style="fill:#3D5F7A;" d="M253.536,216.196c0,25.317,20.282,45.897,45.483,46.38c26.007,0.498,47.293-21.285,47.293-47.295
		v-12.952h-78.908C259.745,202.327,253.536,208.536,253.536,216.196L253.536,216.196z"/>
</g>
<g>
	<path style="fill:#FFFFFF;" d="M275.408,260.102c-0.575,0-1.157-0.111-1.722-0.343c-2.305-0.952-3.402-3.592-2.45-5.898
		l21.767-52.693c0.953-2.304,3.592-3.403,5.899-2.449c2.305,0.952,3.402,3.592,2.45,5.898l-21.767,52.693
		C278.864,259.05,277.182,260.102,275.408,260.102z"/>
	<path style="fill:#FFFFFF;" d="M300.175,262.739c-0.575,0-1.157-0.111-1.722-0.343c-2.305-0.952-3.402-3.592-2.45-5.898
		l23.09-55.894c0.954-2.305,3.592-3.403,5.899-2.449c2.305,0.952,3.402,3.592,2.45,5.898l-23.09,55.894
		C303.632,261.687,301.95,262.739,300.175,262.739z"/>
	<path style="fill:#FFFFFF;" d="M155.651,259.174c-0.575,0-1.157-0.111-1.722-0.343c-2.305-0.952-3.402-3.592-2.45-5.898
		l21.385-51.766c0.954-2.304,3.592-3.403,5.899-2.449c2.305,0.952,3.402,3.592,2.45,5.898l-21.385,51.766
		C159.106,258.122,157.424,259.174,155.651,259.174z"/>
	<path style="fill:#FFFFFF;" d="M180.034,262.739c-0.575,0-1.157-0.111-1.722-0.343c-2.305-0.952-3.402-3.592-2.45-5.898
		l11.289-27.328c0.954-2.305,3.592-3.402,5.899-2.449c2.305,0.952,3.402,3.592,2.45,5.898l-11.289,27.328
		C183.49,261.687,181.808,262.739,180.034,262.739z"/>
</g>
<path style="fill:#999999;" d="M267.404,197.811c-8.577,0-15.779,5.912-17.8,13.869h-18.103c-2.021-7.957-9.222-13.869-17.8-13.869
	h-83.424v17.468c0,13.893,5.72,27.472,15.695,37.258c9.595,9.413,22.073,14.562,35.232,14.562c0.322,0,0.645-0.002,0.966-0.009
	c26.002-0.498,47.411-20.905,49.7-46.378h17.361c2.288,25.474,23.698,45.882,49.7,46.378c0.323,0.007,0.643,0.009,0.966,0.009
	c13.158,0,25.637-5.15,35.232-14.562c9.974-9.786,15.695-23.365,15.695-37.258v-17.468L267.404,197.811L267.404,197.811z
	 M182,258.06c-11.07,0.212-21.617-4.041-29.703-11.971c-8.255-8.098-12.989-19.328-12.989-30.81v-8.437h74.392
	c5.157,0,9.352,4.195,9.352,9.353C223.054,238.847,204.637,257.627,182,258.06z M341.795,215.279
	c0,11.483-4.734,22.712-12.989,30.81c-8.083,7.931-18.608,12.171-29.703,11.971c-22.637-0.434-41.053-19.214-41.053-41.865
	c0-5.157,4.195-9.353,9.352-9.353h74.392V215.279z"/>
<path style="fill:#F9C573;" d="M248.538,39.992l4.79-4.789c2.205-2.205,2.205-5.778,0-7.983c-2.203-2.205-5.779-2.204-7.982,0
	l-4.79,4.79l-4.79-4.79c-2.203-2.205-5.779-2.204-7.982,0c-2.205,2.205-2.205,5.778,0,7.983l4.79,4.789l-4.79,4.789
	c-2.205,2.205-2.205,5.778,0,7.983c1.102,1.103,2.547,1.654,3.991,1.654c1.444,0,2.89-0.551,3.991-1.653l4.79-4.79l4.79,4.79
	c1.102,1.102,2.547,1.653,3.991,1.653c1.444,0,2.89-0.551,3.991-1.654c2.205-2.205,2.205-5.778,0-7.983L248.538,39.992z"/>
<g>
	<path style="fill:#666666;" d="M326.239,173.106c0,0-0.182,0.167-0.532,0.44c-0.352,0.26-0.859,0.688-1.524,1.14
		c-1.324,0.93-3.241,2.134-5.592,3.338c-2.349,1.214-5.134,2.41-8.163,3.483c-3.029,1.068-6.312,1.961-9.634,2.664
		c-3.325,0.69-6.691,1.184-9.894,1.418c-3.204,0.231-6.236,0.245-8.875,0.069c-2.636-0.168-4.876-0.509-6.461-0.837
		c-0.79-0.151-1.426-0.342-1.854-0.441c-0.43-0.112-0.664-0.193-0.664-0.193s0.182-0.168,0.531-0.443
		c0.352-0.262,0.859-0.691,1.523-1.145c1.323-0.934,3.24-2.14,5.589-3.347c2.348-1.215,5.134-2.414,8.163-3.481
		c3.03-1.065,6.313-1.955,9.637-2.651c3.327-0.682,6.694-1.174,9.897-1.404c3.205-0.227,6.236-0.242,8.875-0.067
		c2.636,0.166,4.875,0.504,6.46,0.829c0.79,0.149,1.426,0.339,1.853,0.437C326.006,173.026,326.239,173.106,326.239,173.106z"/>
	<path style="fill:#666666;" d="M154.866,173.106c0,0,0.234-0.08,0.663-0.192c0.427-0.097,1.062-0.288,1.853-0.437
		c1.585-0.324,3.824-0.662,6.46-0.829c2.638-0.174,5.67-0.159,8.875,0.067c3.204,0.23,6.57,0.723,9.896,1.404
		c3.324,0.694,6.608,1.586,9.638,2.651c3.03,1.067,5.815,2.266,8.163,3.481c2.35,1.207,4.266,2.414,5.589,3.347
		c0.664,0.454,1.171,0.883,1.523,1.145c0.349,0.274,0.531,0.443,0.531,0.443s-0.234,0.081-0.664,0.193
		c-0.427,0.099-1.063,0.29-1.854,0.441c-1.586,0.327-3.825,0.669-6.462,0.837c-2.638,0.176-5.671,0.163-8.875-0.069
		c-3.203-0.234-6.569-0.728-9.894-1.418c-3.322-0.703-6.605-1.596-9.634-2.664c-3.029-1.073-5.814-2.269-8.163-3.483
		c-2.35-1.205-4.267-2.408-5.592-3.338c-0.665-0.452-1.172-0.881-1.524-1.14C155.049,173.273,154.866,173.106,154.866,173.106z"/>
</g>
<g>
	<circle style="fill:#F9C573;" cx="313.838" cy="472.115" r="22.377"/>
	<polygon style="fill:#F9C573;" points="120.06,431.674 140.517,467.112 99.604,467.112 79.147,502.538 60.486,470.216 
		58.691,467.112 17.778,467.112 38.234,431.674 17.778,396.248 58.691,396.248 79.147,360.821 97.165,392.025 99.604,396.248 
		140.517,396.248 	"/>
</g>
<polygon style="fill:#F9E5CA;" points="97.165,392.025 60.486,470.216 58.691,467.112 17.778,467.112 38.234,431.674 
	17.778,396.248 58.691,396.248 79.147,360.821 "/>
<path style="fill:#E2AF66;" d="M79.148,383.396l10.679,18.498l3.259,5.645h6.517h21.359l-10.68,18.498l-3.259,5.645l3.259,5.645
	l10.68,18.498H99.605h-6.517l-3.259,5.645l-10.68,18.498l-10.68-18.498l-3.259-5.645h-6.517H37.333l10.68-18.498l3.259-5.645
	l-3.259-5.645l-10.68-18.498h21.359h6.517l3.259-5.645L79.148,383.396 M79.148,360.817l-20.457,35.432H17.779l20.457,35.432
	l-20.457,35.432h40.913l20.457,35.432l20.457-35.432h40.913l-20.457-35.432l20.457-35.432H99.605L79.148,360.817L79.148,360.817z"/>
<g>
	<circle style="fill:#E0B394;" cx="302.368" cy="308.519" r="6.491"/>
	<circle style="fill:#E0B394;" cx="178.748" cy="308.519" r="6.491"/>
</g>
<g>
	<circle style="fill:#F9C573;" cx="218.904" cy="450.485" r="7.903"/>
	<circle style="fill:#F9C573;" cx="218.904" cy="483.224" r="7.903"/>
</g>
<g>
</g>
<g>
</g>
<g>
</g>
<g>
</g>
<g>
</g>
<g>
</g>
<g>
</g>
<g>
</g>
<g>
</g>
<g>
</g>
<g>
</g>
<g>
</g>
<g>
</g>
<g>
</g>
<g>
</g>
</svg>
