<?xml version="1.0" encoding="iso-8859-1"?>
<!-- Generator: Adobe Illustrator 19.0.0, SVG Export Plug-In . SVG Version: 6.00 Build 0)  -->
<svg version="1.1" id="Layer_1" xmlns="http://www.w3.org/2000/svg" xmlns:xlink="http://www.w3.org/1999/xlink" x="0px" y="0px"
	 viewBox="0 0 512 512" style="enable-background:new 0 0 512 512;" xml:space="preserve">
<polygon style="fill:#CCCCCC;" points="262.615,165.295 0,165.295 0,375.015 171.014,375.015 "/>
<g>
	<rect x="30.462" y="196.34" style="fill:#666666;" width="107.602" height="12.888"/>
	<rect x="30.462" y="262.537" style="fill:#666666;" width="107.602" height="12.888"/>
	<rect x="30.462" y="328.734" style="fill:#666666;" width="107.602" height="12.888"/>
	<rect x="30.462" y="229.439" style="fill:#666666;" width="107.602" height="12.888"/>
	<rect x="30.462" y="295.635" style="fill:#666666;" width="107.602" height="12.888"/>
</g>
<polygon style="fill:#B3B3B3;" points="469.822,350.467 455.762,350.467 455.762,322.832 399.524,322.832 399.524,350.467 
	385.465,350.467 385.465,308.773 469.822,308.773 "/>
<polygon style="fill:#5E86B7;" points="344.801,343.438 512,343.438 512,466.402 351.487,466.402 "/>
<g>
	<path style="fill:#E0B394;" d="M126.049,231.705c-14.528-0.644-26.092-12.63-26.092-27.311c0-15.091,12.232-27.334,27.334-27.334
		c1.359,0,2.695,0.094,4.007,0.293L126.049,231.705z"/>
	<path style="fill:#E0B394;" d="M370.708,231.705c14.528-0.644,26.104-12.63,26.104-27.311c0-15.091-12.243-27.334-27.346-27.334
		c-1.359,0-2.706,0.105-4.007,0.293L370.708,231.705z"/>
</g>
<path style="fill:#C0E7F9;" d="M376.095,403.202v106.36H120.681v-106.36c0-35.699,25.811-65.377,59.8-71.352
	c4.112-0.738,8.342-1.113,12.665-1.113H303.63c4.71,0,9.314,0.445,13.767,1.312C350.835,338.482,376.095,367.89,376.095,403.202z"/>
<polygon style="fill:#F76B4F;" points="271.188,398.526 270.414,399.604 248.388,429.879 226.361,399.604 225.588,398.526 
	248.388,382.335 "/>
<path style="fill:#A3CDD6;" d="M317.397,332.05l-16.86,93.378l-29.349-20.843l-22.8-16.192l-22.8,16.192l-29.349,20.843
	l-15.758-93.578c4.112-0.738,8.342-1.113,12.665-1.113H303.63C308.34,330.737,312.944,331.183,317.397,332.05z"/>
<path style="fill:#E0B394;" d="M300.088,226.34v107.729c0,28.551-23.149,51.7-51.7,51.7c-28.56,0-51.7-23.149-51.7-51.7V212.28"/>
<path style="fill:#A3CDD6;" d="M237.787,330.742h-44.646c-40.018,0-72.46,32.441-72.46,72.46v106.361h44.646V403.202
	C165.327,363.183,197.768,330.742,237.787,330.742z"/>
<path style="fill:#F7CBA4;" d="M208.841,349.857l-48.094-34.943c-25.415-18.465-39.164-49-36.142-80.269l8.342-86.323
	c5.744-59.454,55.707-104.821,115.438-104.821l0,0c59.731,0,109.692,45.366,115.438,104.821l8.342,86.323
	c3.022,31.269-10.726,61.803-36.142,80.269l-48.094,34.943C264.349,366.987,232.42,366.987,208.841,349.857z"/>
<path style="fill:#E8BA97;" d="M154.534,251.657c-0.808,13.673,3.644,27.123,12.454,37.609l50.266,61.768
	c2.624,3.128,5.6,5.753,8.822,7.85c-6.046-2.109-11.857-5.132-17.235-9.033l-48.095-34.938
	c-25.413-18.465-39.156-48.997-36.133-80.268l8.33-86.325c5.694-58.874,54.738-103.935,113.706-104.79
	c-36.32,0.879-77.448,35.114-79.592,71.575L154.534,251.657z"/>
<polygon style="fill:#F76B4F;" points="269.161,509.562 227.627,509.562 248.388,402.382 "/>
<rect x="301.693" y="443.553" style="fill:#A3CDD6;" width="58.581" height="17.574"/>
<polygon style="fill:#87AA3C;" points="320.076,111.622 489.962,111.622 489.962,31.952 320.076,31.952 320.076,49.526 "/>
<rect x="290.563" y="2.436" style="fill:#90BC42;" width="169.886" height="79.67"/>
<ellipse style="fill:#87AA3C;" cx="375.506" cy="42.272" rx="16.769" ry="22.677"/>
<path style="fill:#AF7C38;" d="M365.222,162.867c-21.769-34.856-44.194-13.977-92.23-13.977c-32.149,0-60.104-15.747-75.078-26.162
	c-11.236,11.236-23.21,19.144-33.825,24.663c-17.82,9.232-31.845,11.716-32.185,11.775l1.043-10.838
	c5.636-58.417,53.953-103.22,112.3-104.778c0.469-0.012,0.937-0.012,1.406-0.023c0.574-0.023,1.148-0.023,1.734-0.023
	c29.865,0,57.292,11.341,77.96,30.111c20.667,18.781,34.598,44.99,37.469,74.715L365.222,162.867z"/>
<path style="fill:#9B6A31;" d="M246.654,43.525c-36.32,0.879-77.456,35.114-79.6,71.575l-2.964,32.29
	c-17.82,9.232-31.845,11.716-32.185,11.775l1.043-10.838c5.636-58.417,53.953-103.22,112.3-104.778
	C245.717,43.537,246.185,43.537,246.654,43.525z"/>
<g>
	<path style="fill:#87AA3C;" d="M460.452,60.151v21.956h-21.956C438.496,69.981,448.326,60.151,460.452,60.151z"/>
	<path style="fill:#87AA3C;" d="M312.523,2.436c0,12.126-9.83,21.956-21.956,21.956V2.436H312.523z"/>
	<path style="fill:#87AA3C;" d="M460.452,2.436v21.956c-12.126,0-21.956-9.83-21.956-21.956H460.452z"/>
</g>
<path style="fill:#F2F2F2;" d="M294.25,280.749c0,0-0.668,1.64-2.074,4.23c-0.34,0.668-0.738,1.371-1.183,2.132
	c-0.527,0.75-1.137,1.511-1.793,2.367s-1.406,1.722-2.203,2.683c-0.281,0.363-0.586,0.668-0.914,0.984
	c-0.117,0.117-0.246,0.234-0.375,0.352c-0.457,0.422-0.926,0.867-1.406,1.312c-0.961,0.902-2.003,1.793-3.093,2.73
	c-1.148,0.844-2.378,1.64-3.644,2.507c-0.633,0.434-1.289,0.855-1.957,1.277c-0.668,0.398-1.383,0.726-2.109,1.09
	c-1.429,0.726-2.917,1.429-4.452,2.132c-3.163,1.078-6.456,2.343-9.971,2.871c-3.468,0.808-7.088,0.937-10.697,1.113
	c-3.609-0.176-7.229-0.293-10.697-1.101c-3.515-0.527-6.807-1.793-9.971-2.87c-1.535-0.691-3.023-1.394-4.464-2.121
	c-0.715-0.363-1.429-0.691-2.109-1.09c-0.656-0.434-1.312-0.844-1.945-1.277c-1.265-0.867-2.507-1.675-3.655-2.507
	c-1.09-0.937-2.121-1.839-3.093-2.73c-0.48-0.457-0.937-0.89-1.394-1.324c-0.164-0.152-0.328-0.305-0.492-0.457
	c-0.281-0.281-0.551-0.551-0.785-0.867c-0.762-0.926-1.5-1.781-2.144-2.624c-0.633-0.855-1.254-1.605-1.769-2.355
	c-0.469-0.797-0.902-1.523-1.265-2.191c-1.465-2.671-2.074-4.265-2.074-4.265s1.734,0.527,4.405,1.605
	c0.68,0.258,1.383,0.574,2.168,0.89c0.832,0.246,1.687,0.562,2.601,0.867c0.926,0.305,1.851,0.68,2.835,1.031
	c0.972,0.375,2.074,0.621,3.163,0.949c1.09,0.316,2.179,0.703,3.316,1.043c1.183,0.258,2.367,0.562,3.585,0.855
	c0.609,0.141,1.207,0.316,1.816,0.48c0.621,0.141,1.265,0.223,1.898,0.352c1.277,0.223,2.554,0.48,3.831,0.773
	c2.66,0.246,5.284,0.832,8.026,0.937c2.706,0.352,5.471,0.258,8.213,0.422c2.753-0.164,5.518-0.059,8.225-0.41
	c2.742-0.094,5.366-0.691,8.026-0.937c1.277-0.281,2.554-0.539,3.831-0.762c0.633-0.129,1.277-0.211,1.898-0.352
	c0.609-0.176,1.218-0.34,1.816-0.48c1.219-0.293,2.402-0.609,3.585-0.855c1.148-0.34,2.238-0.726,3.327-1.043
	c1.078-0.328,2.203-0.586,3.14-0.949c0.961-0.328,1.863-0.691,2.777-0.972c0.902-0.305,1.746-0.609,2.578-0.855
	c0.82-0.352,1.547-0.691,2.238-0.961C292.551,281.241,294.25,280.749,294.25,280.749z"/>
<g>
	<path style="fill:#4D4D4D;" d="M286.084,293.145c-0.117,0.117-0.246,0.234-0.375,0.352c-0.457,0.422-0.926,0.867-1.406,1.312
		c-0.961,0.902-2.003,1.793-3.093,2.73c-1.148,0.844-2.378,1.64-3.644,2.507c-0.633,0.434-1.289,0.855-1.957,1.277
		c-0.668,0.398-1.383,0.726-2.109,1.09c-1.429,0.726-2.917,1.429-4.452,2.132c-3.163,1.078-6.456,2.343-9.971,2.871
		c-3.468,0.808-7.088,0.937-10.697,1.113c-3.609-0.176-7.229-0.293-10.697-1.101c-3.515-0.527-6.807-1.793-9.971-2.87
		c-1.535-0.691-3.023-1.394-4.464-2.121c-0.715-0.363-1.429-0.691-2.109-1.09c-0.656-0.434-1.312-0.844-1.945-1.277
		c-1.265-0.867-2.507-1.675-3.655-2.507c-1.09-0.937-2.121-1.839-3.093-2.73c-0.48-0.457-0.937-0.89-1.394-1.324
		c-0.164-0.152-0.328-0.305-0.492-0.457c0.375,0.129,0.75,0.258,1.136,0.387c0.926,0.305,1.851,0.668,2.835,1.019
		c0.972,0.387,2.074,0.633,3.163,0.961c1.09,0.316,2.179,0.691,3.316,1.043c1.183,0.246,2.367,0.562,3.585,0.855
		c0.609,0.141,1.207,0.305,1.816,0.469c0.621,0.141,1.265,0.223,1.898,0.352c1.277,0.223,2.554,0.492,3.831,0.773
		c2.66,0.258,5.284,0.844,8.026,0.937c2.706,0.363,5.471,0.258,8.213,0.434c2.753-0.164,5.518-0.059,8.225-0.422
		c2.742-0.094,5.366-0.68,8.026-0.926c1.277-0.281,2.554-0.551,3.831-0.773c0.633-0.129,1.277-0.211,1.898-0.352
		c0.609-0.164,1.218-0.328,1.816-0.469c1.219-0.293,2.402-0.609,3.585-0.855c1.148-0.352,2.238-0.738,3.327-1.043
		c1.078-0.328,2.203-0.598,3.14-0.949c0.961-0.34,1.863-0.691,2.777-0.984C285.369,293.391,285.732,293.262,286.084,293.145z"/>
	<path style="fill:#4D4D4D;" d="M196.227,241.502c-4.853,0-8.787-3.934-8.787-8.787V218.66c0-4.853,3.934-8.787,8.787-8.787
		c4.853,0,8.787,3.934,8.787,8.787v14.055C205.014,237.567,201.08,241.502,196.227,241.502z"/>
</g>
<g>
	<path style="fill:#666666;" d="M280.452,184.683c0,0,0.023-0.233,0.102-0.634c0.09-0.388,0.182-1.001,0.378-1.694
		c0.088-0.359,0.202-0.732,0.332-1.144c0.17-0.417,0.398-0.837,0.641-1.312c0.24-0.478,0.544-0.95,0.862-1.481
		c0.321-0.539,0.704-0.948,1.097-1.468c0.398-0.5,0.847-0.984,1.316-1.504c0.496-0.47,1.033-0.933,1.605-1.398
		c1.119-0.985,2.486-1.698,3.911-2.49c1.474-0.623,3.038-1.299,4.713-1.612c1.659-0.431,3.399-0.533,5.134-0.614
		c1.735,0.08,3.476,0.172,5.136,0.601c1.677,0.309,3.242,0.989,4.717,1.607c1.426,0.791,2.794,1.502,3.914,2.489
		c0.571,0.466,1.11,0.93,1.606,1.398c0.469,0.521,0.915,1.01,1.316,1.507c0.387,0.518,0.789,0.943,1.083,1.461
		c0.295,0.516,0.581,0.977,0.813,1.445c0.231,0.469,0.455,0.881,0.623,1.297c0.154,0.434,0.289,0.826,0.39,1.197
		c0.223,0.718,0.315,1.336,0.401,1.722c0.075,0.4,0.091,0.627,0.091,0.627s-0.243-0.006-0.653-0.046
		c-0.398-0.052-1.017-0.077-1.7-0.177c-0.354-0.036-0.715-0.102-1.112-0.155c-0.423-0.02-0.84-0.079-1.293-0.114
		c-0.889-0.094-1.817-0.233-2.838-0.273c-0.501-0.033-0.988-0.105-1.496-0.148c-0.526-0.007-1.045-0.034-1.561-0.073
		c-1.01-0.131-2.108-0.054-3.127-0.182c-1.072,0.039-2.098-0.093-3.161-0.06c-1.045-0.079-2.102,0.005-3.151-0.069
		c-1.049,0.071-2.105-0.02-3.153,0.056c-1.064-0.037-2.09,0.098-3.165,0.055c-1.021,0.127-2.121,0.048-3.131,0.18
		c-0.516,0.039-1.035,0.067-1.562,0.073c-0.508,0.042-0.992,0.12-1.496,0.15c-1.04,0.056-1.905,0.155-2.773,0.23
		c-0.456,0.035-0.882,0.068-1.277,0.097c-0.421,0.076-0.805,0.161-1.17,0.209c-0.709,0.125-1.329,0.155-1.722,0.205
		C280.686,184.683,280.452,184.683,280.452,184.683z"/>
	<path style="fill:#666666;" d="M176.137,184.683c0,0,0.023-0.233,0.102-0.634c0.09-0.388,0.182-1.001,0.378-1.694
		c0.088-0.359,0.202-0.732,0.332-1.144c0.17-0.417,0.398-0.837,0.641-1.312c0.24-0.478,0.544-0.95,0.862-1.481
		c0.321-0.539,0.704-0.948,1.097-1.468c0.398-0.5,0.847-0.984,1.316-1.504c0.496-0.47,1.033-0.933,1.605-1.398
		c1.119-0.985,2.486-1.698,3.911-2.49c1.474-0.623,3.038-1.299,4.713-1.612c1.659-0.431,3.399-0.533,5.134-0.614
		c1.735,0.08,3.476,0.172,5.136,0.601c1.677,0.309,3.242,0.989,4.717,1.607c1.426,0.791,2.794,1.502,3.914,2.489
		c0.571,0.466,1.11,0.93,1.606,1.398c0.469,0.521,0.915,1.01,1.316,1.507c0.387,0.518,0.789,0.943,1.083,1.461
		c0.295,0.516,0.581,0.977,0.813,1.445c0.231,0.469,0.455,0.881,0.623,1.297c0.153,0.434,0.289,0.826,0.39,1.197
		c0.223,0.718,0.315,1.336,0.401,1.722c0.075,0.4,0.091,0.627,0.091,0.627s-0.243-0.006-0.653-0.046
		c-0.398-0.052-1.017-0.077-1.7-0.177c-0.354-0.036-0.715-0.102-1.112-0.155c-0.423-0.02-0.84-0.079-1.293-0.114
		c-0.889-0.094-1.817-0.233-2.838-0.273c-0.501-0.033-0.988-0.105-1.496-0.148c-0.526-0.007-1.045-0.034-1.561-0.073
		c-1.01-0.131-2.108-0.054-3.127-0.182c-1.072,0.039-2.098-0.093-3.161-0.06c-1.045-0.079-2.102,0.005-3.15-0.069
		c-1.049,0.071-2.105-0.02-3.153,0.056c-1.064-0.037-2.09,0.098-3.165,0.055c-1.02,0.127-2.121,0.048-3.131,0.18
		c-0.516,0.039-1.035,0.067-1.562,0.073c-0.508,0.042-0.992,0.12-1.496,0.15c-1.04,0.056-1.905,0.155-2.773,0.23
		c-0.456,0.035-0.882,0.068-1.277,0.097c-0.421,0.076-0.805,0.161-1.17,0.209c-0.709,0.125-1.329,0.155-1.722,0.205
		C176.372,184.683,176.137,184.683,176.137,184.683z"/>
</g>
<path style="fill:#4D4D4D;" d="M300.542,241.502c-4.853,0-8.787-3.934-8.787-8.787V218.66c0-4.853,3.934-8.787,8.787-8.787
	c4.853,0,8.787,3.934,8.787,8.787v14.055C309.329,237.567,305.395,241.502,300.542,241.502z"/>
<path style="fill:#E0B394;" d="M261.858,205.772v41.593c0,7.441-6.033,13.474-13.474,13.474l0,0
	c-7.441,0-13.474-6.033-13.474-13.474v-41.593H261.858z"/>
<g>
</g>
<g>
</g>
<g>
</g>
<g>
</g>
<g>
</g>
<g>
</g>
<g>
</g>
<g>
</g>
<g>
</g>
<g>
</g>
<g>
</g>
<g>
</g>
<g>
</g>
<g>
</g>
<g>
</g>
</svg>
