<?xml version="1.0" encoding="iso-8859-1"?>
<!-- Generator: Adobe Illustrator 19.0.0, SVG Export Plug-In . SVG Version: 6.00 Build 0)  -->
<svg version="1.1" id="Layer_1" xmlns="http://www.w3.org/2000/svg" xmlns:xlink="http://www.w3.org/1999/xlink" x="0px" y="0px"
	 viewBox="0 0 512 512" style="enable-background:new 0 0 512 512;" xml:space="preserve">
<g>
	<path style="fill:#CCCCCC;" d="M480.944,497.282h-23.012v-86.872c0-2.859-2.318-5.178-5.178-5.178
		c-2.859,0-5.178,2.319-5.178,5.178v86.872h-23.012c-2.859,0-5.178,2.319-5.178,5.178s2.319,5.178,5.178,5.178h56.38
		c2.859,0,5.178-2.319,5.178-5.178S483.803,497.282,480.944,497.282z"/>
	<polygon style="fill:#CCCCCC;" points="444.124,372.824 452.754,253.241 461.383,372.824 	"/>
	<path style="fill:#CCCCCC;" d="M44.863,384.462c-13.958,0-25.314-11.355-25.314-25.314v-24.163c0-3.177,2.575-5.753,5.753-5.753
		s5.753,2.576,5.753,5.753v24.163c0,7.614,6.194,13.807,13.807,13.807s13.807-6.194,13.807-13.807V149.686
		c0-3.177,2.575-5.753,5.753-5.753c3.178,0,5.753,2.576,5.753,5.753v209.463C70.176,373.107,58.819,384.462,44.863,384.462z"/>
</g>
<polygon style="fill:#F76B4F;" points="117.35,74.946 117.35,40.429 19.548,40.429 19.548,162.394 117.35,162.394 "/>
<path style="fill:#E6E6E6;" d="M372.79,407.547V512H121.956V407.547c0-27.925,16.086-52.1,39.489-63.744
	c9.539-4.752,20.285-7.422,31.665-7.422h108.515c11.38,0,22.126,2.669,31.665,7.422C356.705,355.447,372.79,379.622,372.79,407.547z
	"/>
<path style="fill:#CCCCCC;" d="M256.003,398.986V512h-17.259V398.986c0-4.764,3.866-8.63,8.63-8.63S256.003,394.223,256.003,398.986
	z"/>
<path style="fill:#F7CBA4;" d="M333.29,343.803l-76.958,75.586c-4.974,4.886-12.944,4.886-17.919,0l-57.155-56.13l-19.814-19.457
	c2.761-1.369,5.627-2.577,8.584-3.578c7.237-2.497,15.004-3.843,23.081-3.843h108.515c8.077,0,15.832,1.346,23.07,3.832
	C327.652,341.225,330.517,342.422,333.29,343.803z"/>
<path style="fill:#CCCCCC;" d="M236.959,336.381h-43.845c-39.3,0-71.161,31.859-71.161,71.161v104.454h43.845V407.542
	C165.798,368.241,197.657,336.381,236.959,336.381z"/>
<g>
	<path style="fill:#E0B394;" d="M236.96,336.381c-22.564,0-42.676,10.505-55.701,26.878l-19.814-19.457
		c9.539-4.752,20.285-7.421,31.665-7.421L236.96,336.381L236.96,336.381z"/>
	<path style="fill:#E0B394;" d="M324.695,340.213l-38.488,27.983c-23.162,16.822-54.516,16.822-77.678,0l-38.5-27.971
		c7.237-2.497,15.004-3.843,23.081-3.843h108.515C309.702,336.381,317.457,337.728,324.695,340.213z"/>
</g>
<path style="fill:#F7CBA4;" d="M208.533,355.154l-47.232-34.316c-24.959-18.134-38.462-48.121-35.494-78.83L134,157.233
	c5.643-58.388,54.708-102.941,113.368-102.941l0,0c58.66,0,107.725,44.553,113.368,102.941l8.192,84.775
	c2.967,30.709-10.534,60.695-35.494,78.83l-47.232,34.316C263.045,371.977,231.689,371.977,208.533,355.154z"/>
<path style="fill:#E8BA97;" d="M155.2,258.715c-0.794,13.428,3.578,26.637,12.231,36.935l49.365,60.66
	c2.577,3.072,5.5,5.65,8.664,7.709c-5.937-2.071-11.644-5.04-16.926-8.871l-47.233-34.311
	c-24.957-18.134-38.454-48.119-35.485-78.829l8.181-84.777c5.592-57.818,53.757-102.071,111.667-102.911
	c-35.669,0.863-76.059,34.484-78.165,70.291L155.2,258.715z"/>
<g>
	<path style="fill:#4D4D4D;" d="M196.144,236.085c-4.767,0-8.63-3.864-8.63-8.63v-13.803c0-4.766,3.863-8.63,8.63-8.63
		c4.767,0,8.63,3.864,8.63,8.63v13.803C204.774,232.221,200.911,236.085,196.144,236.085z"/>
	<path style="fill:#4D4D4D;" d="M298.588,236.085c-4.767,0-8.63-3.864-8.63-8.63v-13.803c0-4.766,3.863-8.63,8.63-8.63
		c4.767,0,8.63,3.864,8.63,8.63v13.803C307.218,232.221,303.355,236.085,298.588,236.085z"/>
</g>
<path style="fill:#666666;" d="M434.164,255.735c0,0-8.446,97.664-100.725,65.102c24.957-18.134,38.454-48.119,35.485-78.829
	l-8.192-84.777c-45.415,20.159-78.84-22.449-78.84-22.449s-38.327,55.506-119.871,63.249c-10.01,0.955-20.677,1.185-32.01,0.506
	l-4.2,43.47c-2.969,30.71,10.528,60.695,35.497,78.829c-92.279,32.562-100.725-65.102-100.725-65.102
	c1.128,4.361,3.67,8.066,7.042,10.678c3.383,2.623,7.606,4.142,12.116,4.142c10.229,0,18.767-7.801,19.699-17.984l8.549-93.315
	c3.302-36.026,20.067-67.829,45.035-90.623c0.299-0.276,0.598-0.541,0.897-0.794c0.828,2.106,6.973,3.832,16.557,5.201
	c45.093,6.42,166.425,4.683,170.349-5.201c25.475,22.828,42.596,54.965,45.933,91.416l8.549,93.315
	c0.472,5.097,2.831,9.585,6.363,12.806c3.532,3.222,8.215,5.178,13.336,5.178C424.027,270.555,431.898,264.456,434.164,255.735z"/>
<path style="fill:#4D4D4D;" d="M162.021,198.031c-10.01,0.955-20.677,1.185-32.01,0.506l-4.2,43.47
	c-2.969,30.71,10.528,60.695,35.497,78.829c-92.279,32.562-100.725-65.102-100.725-65.102c1.128,4.361,3.67,8.066,7.042,10.678
	c3.383,2.623,7.606,4.142,12.116,4.142c10.229,0,18.767-7.801,19.699-17.984l8.549-93.315c3.302-36.026,20.067-67.829,45.035-90.623
	c0.299-0.276,0.598-0.541,0.897-0.794c0.828,2.106,6.973,3.832,16.557,5.201l23.185,22.483
	C193.662,95.523,141.666,130.559,162.021,198.031z"/>
<path style="fill:#E6E6E6;" d="M359.225,21.343c-6.133,15.499-12.266,30.998-18.398,46.496
	c-4.752,11.989-9.493,23.979-14.245,35.968c-40.801-16.155-85.307-19.353-127.569-9.596c-10.448,2.393-20.757,5.604-30.848,9.596
	c-4.752-11.989-9.493-23.979-14.245-35.968c-6.133-15.499-12.277-30.998-18.41-46.496c17.041-6.754,34.542-11.897,52.284-15.453
	C244.865-5.513,304.409-0.358,359.225,21.343z"/>
<path style="fill:#CCCCCC;" d="M199.013,94.211c-10.448,2.393-20.757,5.604-30.848,9.596c-4.752-11.989-9.493-23.979-14.245-35.968
	c-6.133-15.499-12.277-30.998-18.41-46.496c17.041-6.754,34.542-11.897,52.284-15.453L199.013,94.211z"/>
<polygon style="fill:#F95428;" points="271.534,38.127 253.699,38.127 253.699,20.292 241.043,20.292 241.043,38.127 
	223.208,38.127 223.208,50.784 241.043,50.784 241.043,68.618 253.699,68.618 253.699,50.784 271.534,50.784 "/>
<polygon style="fill:#FFFFFF;" points="92.613,87.028 74.779,87.028 74.779,69.193 62.122,69.193 62.122,87.028 44.287,87.028 
	44.287,99.685 62.122,99.685 62.122,117.519 74.779,117.519 74.779,99.685 92.613,99.685 "/>
<rect x="299.528" y="441.756" style="fill:#F76B4F;" width="44.874" height="17.259"/>
<rect x="424.566" y="348.28" style="fill:#C0E7F9;" width="56.38" height="124.267"/>
<rect x="424.566" y="348.28" style="fill:#ABCCD8;" width="11.506" height="124.267"/>
<rect x="457.358" y="348.28" style="fill:#D2F1FC;" width="11.506" height="124.267"/>
<path style="fill:#5E86B7;" d="M76.311,459.509l-11.598,14.302c-6.213,7.64-17.443,8.814-25.083,2.6
	c-7.652-6.202-8.825-17.432-2.612-25.083l11.598-14.291l19.047,3.349L76.311,459.509z"/>
<g>
	<path style="fill:#F76B4F;" d="M472.468,129.075c3.452,9.228-1.22,19.503-10.448,22.955c-9.216,3.463-19.503-1.208-22.955-10.436
		l-6.466-17.236l6.708-21.052l26.694,8.533L472.468,129.075z"/>
	<path style="fill:#F76B4F;" d="M91.902,433.988c0,3.947-1.312,7.928-3.993,11.23l-11.598,14.291l-27.695-22.472l11.598-14.302
		c6.213-7.64,17.443-8.814,25.095-2.6C89.647,423.656,91.902,428.799,91.902,433.988z"/>
</g>
<path style="fill:#F9C573;" d="M459.547,94.602l6.455,17.236l-33.402,12.519l-6.455-17.236c-3.463-9.228,1.22-19.503,10.436-22.966
	c2.06-0.771,4.177-1.139,6.259-1.139C450.054,83.016,456.854,87.434,459.547,94.602z"/>
<rect x="413.06" y="462.847" style="fill:#ABCCD8;" width="79.393" height="9.699"/>
<path style="fill:#E0B394;" d="M256.388,246.505h-0.392V228.67c0-4.766-3.863-8.63-8.63-8.63c-4.767,0-8.63,3.864-8.63,8.63v17.835
	h-0.392c-4.767,0-8.63,3.864-8.63,8.63c0,4.766,3.863,8.63,8.63,8.63h18.044c4.767,0,8.63-3.864,8.63-8.63
	C265.018,250.368,261.155,246.505,256.388,246.505z"/>
<path style="fill:#F2F2F2;" d="M292.411,291.231c0,0-0.656,1.611-2.037,4.154c-0.334,0.656-0.725,1.346-1.162,2.094
	c-0.518,0.736-1.116,1.484-1.76,2.324c-0.644,0.84-1.381,1.691-2.163,2.635c-0.276,0.357-0.575,0.656-0.897,0.967
	c-0.115,0.115-0.242,0.23-0.368,0.345c-0.449,0.414-0.909,0.851-1.381,1.289c-0.944,0.886-1.968,1.76-3.038,2.681
	c-1.128,0.828-2.336,1.611-3.578,2.462c-0.621,0.426-1.266,0.84-1.922,1.254c-0.656,0.391-1.358,0.713-2.071,1.07
	c-1.404,0.713-2.865,1.404-4.372,2.094c-3.107,1.059-6.34,2.301-9.792,2.819c-3.406,0.794-6.961,0.92-10.505,1.093
	c-3.544-0.173-7.099-0.288-10.505-1.082c-3.452-0.518-6.685-1.76-9.792-2.819c-1.507-0.679-2.969-1.369-4.384-2.083
	c-0.702-0.357-1.404-0.679-2.071-1.07c-0.644-0.426-1.289-0.828-1.91-1.254c-1.243-0.851-2.462-1.645-3.59-2.462
	c-1.07-0.92-2.083-1.806-3.038-2.681c-0.472-0.449-0.921-0.874-1.369-1.3c-0.161-0.15-0.322-0.299-0.483-0.449
	c-0.276-0.276-0.541-0.541-0.771-0.851c-0.748-0.909-1.473-1.749-2.106-2.577c-0.621-0.84-1.231-1.576-1.737-2.313
	c-0.46-0.782-0.886-1.496-1.243-2.152c-1.438-2.623-2.037-4.188-2.037-4.188s1.703,0.518,4.326,1.576
	c0.667,0.253,1.358,0.564,2.129,0.874c0.817,0.242,1.657,0.552,2.554,0.851c0.909,0.299,1.818,0.667,2.784,1.013
	c0.955,0.368,2.037,0.61,3.107,0.932c1.07,0.311,2.14,0.69,3.256,1.024c1.162,0.253,2.324,0.552,3.521,0.84
	c0.598,0.138,1.185,0.311,1.783,0.472c0.61,0.138,1.243,0.219,1.864,0.345c1.254,0.219,2.508,0.472,3.763,0.759
	c2.612,0.242,5.189,0.817,7.882,0.92c2.658,0.345,5.373,0.253,8.066,0.414c2.704-0.161,5.419-0.058,8.077-0.403
	c2.692-0.092,5.27-0.679,7.882-0.92c1.254-0.276,2.508-0.529,3.763-0.748c0.621-0.127,1.254-0.207,1.864-0.345
	c0.598-0.173,1.197-0.334,1.783-0.472c1.197-0.288,2.359-0.598,3.521-0.84c1.128-0.334,2.198-0.713,3.268-1.024
	c1.059-0.322,2.163-0.575,3.084-0.932c0.944-0.322,1.829-0.679,2.727-0.955c0.886-0.299,1.714-0.598,2.531-0.84
	c0.805-0.345,1.519-0.679,2.198-0.944C290.742,291.715,292.411,291.231,292.411,291.231z"/>
<path style="fill:#4D4D4D;" d="M284.391,303.405c-0.115,0.115-0.242,0.23-0.368,0.345c-0.449,0.414-0.909,0.851-1.381,1.289
	c-0.944,0.886-1.968,1.76-3.038,2.681c-1.128,0.828-2.336,1.611-3.578,2.462c-0.621,0.426-1.266,0.84-1.922,1.254
	c-0.656,0.391-1.358,0.713-2.071,1.07c-1.404,0.713-2.865,1.404-4.372,2.094c-3.107,1.059-6.34,2.301-9.792,2.819
	c-3.406,0.794-6.961,0.92-10.505,1.093c-3.544-0.173-7.099-0.288-10.505-1.082c-3.452-0.518-6.685-1.76-9.792-2.819
	c-1.507-0.679-2.969-1.369-4.384-2.083c-0.702-0.357-1.404-0.679-2.071-1.07c-0.644-0.426-1.289-0.828-1.91-1.254
	c-1.243-0.851-2.462-1.645-3.59-2.462c-1.07-0.92-2.083-1.806-3.038-2.681c-0.472-0.449-0.921-0.874-1.369-1.3
	c-0.161-0.15-0.322-0.299-0.483-0.449c0.368,0.127,0.736,0.253,1.116,0.38c0.909,0.299,1.818,0.656,2.784,1.001
	c0.955,0.38,2.037,0.621,3.107,0.944c1.07,0.311,2.14,0.679,3.256,1.024c1.162,0.242,2.324,0.552,3.521,0.84
	c0.598,0.138,1.185,0.299,1.783,0.46c0.61,0.138,1.243,0.219,1.864,0.345c1.254,0.219,2.508,0.483,3.763,0.759
	c2.612,0.253,5.189,0.828,7.882,0.92c2.658,0.357,5.373,0.253,8.066,0.426c2.704-0.161,5.419-0.057,8.077-0.414
	c2.692-0.092,5.27-0.667,7.882-0.909c1.254-0.276,2.508-0.541,3.763-0.759c0.621-0.127,1.254-0.207,1.864-0.345
	c0.598-0.161,1.197-0.322,1.783-0.46c1.197-0.288,2.359-0.598,3.521-0.84c1.128-0.345,2.198-0.725,3.268-1.024
	c1.059-0.322,2.163-0.587,3.084-0.932c0.944-0.334,1.829-0.679,2.727-0.967C283.688,303.646,284.045,303.52,284.391,303.405z"/>
<path style="fill:#666666;" d="M278.859,189.466c0,0,0.023-0.229,0.1-0.622c0.089-0.381,0.178-0.983,0.372-1.664
	c0.086-0.352,0.198-0.719,0.326-1.123c0.167-0.41,0.391-0.822,0.629-1.289c0.236-0.469,0.534-0.933,0.847-1.454
	c0.315-0.529,0.691-0.931,1.077-1.442c0.391-0.491,0.832-0.967,1.292-1.477c0.487-0.461,1.015-0.916,1.576-1.373
	c1.099-0.968,2.442-1.667,3.841-2.445c1.447-0.612,2.984-1.276,4.629-1.583c1.629-0.423,3.338-0.524,5.042-0.603
	c1.704,0.078,3.414,0.169,5.044,0.59c1.647,0.304,3.184,0.971,4.632,1.579c1.4,0.777,2.744,1.475,3.844,2.444
	c0.56,0.458,1.09,0.914,1.577,1.373c0.46,0.512,0.899,0.992,1.292,1.48c0.38,0.509,0.774,0.926,1.063,1.435
	c0.29,0.506,0.571,0.96,0.799,1.419c0.227,0.46,0.446,0.865,0.612,1.274c0.151,0.426,0.284,0.811,0.383,1.176
	c0.219,0.705,0.31,1.312,0.394,1.691c0.074,0.392,0.09,0.616,0.09,0.616s-0.238-0.006-0.641-0.045
	c-0.391-0.051-0.999-0.076-1.67-0.174c-0.347-0.036-0.702-0.1-1.092-0.152c-0.415-0.02-0.825-0.077-1.27-0.112
	c-0.873-0.092-1.785-0.229-2.787-0.268c-0.492-0.032-0.97-0.104-1.469-0.145c-0.517-0.007-1.026-0.033-1.533-0.071
	c-0.992-0.129-2.07-0.053-3.071-0.178c-1.053,0.038-2.061-0.091-3.104-0.059c-1.026-0.077-2.064,0.005-3.094-0.068
	c-1.03,0.07-2.068-0.02-3.096,0.055c-1.045-0.037-2.053,0.097-3.108,0.054c-1.002,0.124-2.083,0.047-3.074,0.177
	c-0.506,0.038-1.016,0.066-1.534,0.071c-0.499,0.041-0.975,0.117-1.469,0.147c-1.022,0.055-1.871,0.152-2.724,0.226
	c-0.448,0.035-0.866,0.067-1.254,0.095c-0.413,0.075-0.79,0.158-1.149,0.205c-0.696,0.123-1.305,0.152-1.691,0.201
	C279.089,189.466,278.859,189.466,278.859,189.466z"/>
<g>
</g>
<g>
</g>
<g>
</g>
<g>
</g>
<g>
</g>
<g>
</g>
<g>
</g>
<g>
</g>
<g>
</g>
<g>
</g>
<g>
</g>
<g>
</g>
<g>
</g>
<g>
</g>
<g>
</g>
</svg>
