<?xml version="1.0" encoding="iso-8859-1"?>
<!-- Generator: Adobe Illustrator 19.0.0, SVG Export Plug-In . SVG Version: 6.00 Build 0)  -->
<svg version="1.1" id="Layer_1" xmlns="http://www.w3.org/2000/svg" xmlns:xlink="http://www.w3.org/1999/xlink" x="0px" y="0px"
	 viewBox="0 0 512 512" style="enable-background:new 0 0 512 512;" xml:space="preserve">
<path style="fill:#F76B4F;" d="M110.932,166.272c-29.098,0-52.771-23.673-52.771-52.771s23.673-52.77,52.771-52.77
	s52.771,23.673,52.771,52.771S140.03,166.272,110.932,166.272z M110.932,71.998c-22.885,0-41.505,18.619-41.505,41.505
	s18.619,41.505,41.505,41.505s41.505-18.619,41.505-41.505S133.817,71.998,110.932,71.998z"/>
<path style="fill:#666666;" d="M216.231,107.869h-99.666V8.204c0-3.11-2.521-5.633-5.633-5.633s-5.633,2.522-5.633,5.633v99.665
	H5.633c-3.112,0-5.633,2.522-5.633,5.633s2.521,5.633,5.633,5.633h99.666v99.666c0,3.11,2.521,5.633,5.633,5.633
	s5.633-2.522,5.633-5.633v-99.666h99.666c3.112,0,5.633-2.522,5.633-5.633S219.342,107.869,216.231,107.869z"/>
<path style="fill:#F76B4F;" d="M110.932,207.715c-51.948,0-94.213-42.264-94.213-94.213S58.984,19.29,110.932,19.29
	s94.213,42.263,94.213,94.213S162.88,207.715,110.932,207.715z M110.932,30.556c-45.738,0-82.947,37.209-82.947,82.947
	s37.209,82.947,82.947,82.947s82.947-37.211,82.947-82.947S156.668,30.556,110.932,30.556z"/>
<path style="fill:#666666;" d="M482.664,387.741c-12.544,0-22.749-10.206-22.749-22.749c0-12.543,10.206-22.75,22.749-22.75
	c12.543,0,22.749,10.206,22.749,22.75S495.207,387.741,482.664,387.741z M482.664,354.634c-5.711,0-10.357,4.647-10.357,10.358
	s4.646,10.357,10.357,10.357s10.357-4.646,10.357-10.357S488.375,354.634,482.664,354.634z"/>
<path style="fill:#999999;" d="M140.069,358.539l7.168-7.169l-44.807-44.807c-1.244-1.244-3.039-1.753-4.754-1.348l-12.24,2.901
	l-35.668-35.667l12.515-12.515l-7.169-7.169l-12.515,12.515l-16.905-16.905l-7.169,7.169l111.982,111.981l7.168-7.169L93.86,316.539
	l3.401-0.805L140.069,358.539z"/>
<path style="fill:#EA8249;" d="M172.601,398.21l-17.329,16.084c-22.131,20.541-52.966,29.441-82.408,22.742
	c-1.682-0.383-3.355-0.813-5.017-1.291l-6.905,39.858c29.232,7.338,60.509,4.557,88.199-8.342c2.635-1.228,5.195-2.613,7.691-4.103
	l53.852-32.16L172.601,398.21z"/>
<polygon style="fill:#4D4D4D;" points="221.042,418.388 146.791,344.137 124.161,366.766 209.677,452.283 "/>
<path style="fill:#90BC42;" d="M419.213,407.159v102.27H173.621v-102.27c0-38.484,31.195-69.678,69.667-69.678h106.247
	C388.018,337.481,419.213,368.676,419.213,407.159z"/>
<path style="fill:#83A538;" d="M286.219,337.485H243.29c-38.479,0-69.674,31.194-69.674,69.674v102.271h42.929V407.158
	C216.545,368.678,247.74,337.485,286.219,337.485z"/>
<path style="fill:#666666;" d="M345.437,314.83v62.588c0,27.073-21.951,49.024-49.024,49.024c-27.082,0-49.024-21.951-49.024-49.024
	V314.83H345.437z"/>
<path style="fill:#F7CBA4;" d="M380.673,322.261l-46.246,33.605c-22.667,16.47-53.365,16.47-76.043,0l-46.246-33.605
	c-24.435-17.755-37.65-47.113-34.743-77.181l2.524-26.069l5.498-56.925c5.52-57.173,53.557-100.794,110.989-100.794
	c28.716,0,55.089,10.905,74.973,28.953c19.873,18.059,33.268,43.249,36.028,71.841l5.498,56.925l2.523,26.069
	C418.334,275.148,405.119,304.507,380.673,322.261z"/>
<path style="fill:#E8BA97;" d="M206.169,261.441c-0.777,13.147,3.504,26.08,11.975,36.163l48.333,59.393
	c2.524,3.008,5.385,5.531,8.483,7.548c-5.813-2.028-11.401-4.934-16.572-8.686l-46.246-33.594
	c-24.435-17.755-37.65-47.113-34.743-77.181l8.01-83.005c5.475-56.61,52.633-99.938,109.333-100.76
	c-34.924,0.845-74.469,33.763-76.531,68.822L206.169,261.441z"/>
<path style="fill:#E0B394;" d="M412.904,219.011H179.918l5.498-56.925c5.52-57.173,53.557-100.794,110.989-100.794
	c28.716,0,55.089,10.905,74.973,28.953c19.873,18.059,33.268,43.249,36.028,71.841L412.904,219.011z"/>
<g>
	<path style="fill:#4D4D4D;" d="M246.259,245.48c-4.667,0-8.449-3.783-8.449-8.449v-13.514c0-4.666,3.782-8.449,8.449-8.449
		s8.449,3.783,8.449,8.449v13.514C254.708,241.697,250.925,245.48,246.259,245.48z"/>
	<path style="fill:#4D4D4D;" d="M346.56,245.48c-4.667,0-8.449-3.783-8.449-8.449v-13.514c0-4.666,3.782-8.449,8.449-8.449
		c4.667,0,8.449,3.783,8.449,8.449v13.514C355.009,241.697,351.228,245.48,346.56,245.48z"/>
</g>
<path style="fill:#E0B394;" d="M309.364,211.124v39.993c0,7.155-5.801,12.956-12.956,12.956l0,0
	c-7.155,0-12.956-5.801-12.956-12.956v-39.993H309.364z"/>
<path style="fill:#90BC42;" d="M296.41,43.662L296.41,43.662c-63.439,0-116.181,45.803-126.959,106.143
	c-3.523,19.725-8.858,39.082-16.634,57.548l-1.588,3.772h290.36l-1.588-3.772c-7.776-18.467-13.11-37.824-16.634-57.548
	C412.589,89.464,359.848,43.662,296.41,43.662z"/>
<path style="fill:#83A538;" d="M227.576,149.804c5.844-60.34,34.438-106.143,68.833-106.143
	c-63.439,0-116.181,45.803-126.958,106.143c-3.523,19.725-8.858,39.082-16.634,57.548l-1.588,3.772h66.467l0.861-3.772
	C222.774,188.887,225.666,169.529,227.576,149.804z"/>
<path style="fill:#C49270;" d="M319.502,304.011h-46.189c-3.112,0-5.633-2.522-5.633-5.633c0-3.11,2.521-5.633,5.633-5.633h46.189
	c3.112,0,5.633,2.522,5.633,5.633C325.135,301.488,322.614,304.011,319.502,304.011z"/>
<g>
	<path style="fill:#666666;" d="M194.845,356.205c12.178,10.916,19.839,26.756,19.839,44.387c0,26.429-17.214,48.848-41.063,56.633
		v-54.132C173.621,384.414,181.834,367.639,194.845,356.205z"/>
	<path style="fill:#666666;" d="M397.988,356.205c-12.178,10.916-19.839,26.756-19.839,44.387c0,26.429,17.214,48.848,41.063,56.633
		v-54.132C419.213,384.414,411,367.639,397.988,356.205z"/>
</g>
<g>
	<path style="fill:#418912;" d="M319.32,462.136v47.293h-13.519v-47.293c0-3.74,3.03-6.759,6.759-6.759
		S319.32,458.396,319.32,462.136z"/>
	<path style="fill:#418912;" d="M351.619,443.153v66.276H338.1v-66.276c0-3.74,3.019-6.759,6.759-6.759
		C348.588,436.394,351.619,439.413,351.619,443.153z"/>
	<path style="fill:#418912;" d="M287.021,462.136v47.293h-13.519v-47.293c0-3.74,3.03-6.759,6.759-6.759
		C284.002,455.376,287.021,458.396,287.021,462.136z"/>
	<path style="fill:#418912;" d="M254.734,443.153v66.276h-13.519v-66.276c0-3.74,3.019-6.759,6.759-6.759
		C251.703,436.394,254.734,439.413,254.734,443.153z"/>
</g>
<circle style="fill:#666666;" cx="294.901" cy="163.758" r="24.54"/>
<path style="fill:#4EA018;" d="M460.231,503.07L460.231,503.07c-23.924,0-43.319-19.394-43.319-43.319v-28.492
	c0-23.924,19.394-43.319,43.319-43.319l0,0c23.924,0,43.319,19.394,43.319,43.319v28.492
	C503.55,483.675,484.156,503.07,460.231,503.07z"/>
<path style="fill:#418912;" d="M441.068,459.751v-28.492c0-23.924,8.58-43.319,19.164-43.319l0,0
	c-23.924,0-43.319,19.394-43.319,43.319v28.492c0,23.925,19.395,43.319,43.319,43.319l0,0
	C449.648,503.07,441.068,483.675,441.068,459.751z"/>
<path style="fill:#CCCCCC;" d="M393.42,465.384c-3.112,0-5.633-2.522-5.633-5.633v-28.492c0-26.991,21.959-48.952,48.952-48.952
	h17.861v-37.375c0-3.11,2.521-5.633,5.633-5.633s5.633,2.522,5.633,5.633v43.008c0,3.11-2.521,5.633-5.633,5.633h-23.493
	c-20.78,0-37.686,16.905-37.686,37.686v28.492C399.053,462.861,396.53,465.384,393.42,465.384z"/>
<path style="fill:#418912;" d="M503.551,453.955h-86.638c-4.667,0-8.449-3.783-8.449-8.449s3.782-8.449,8.449-8.449h86.638
	c4.667,0,8.449,3.783,8.449,8.449S508.217,453.955,503.551,453.955z"/>
<g>
	<path style="fill:#90BC42;" d="M389.069,270.214h-31.544c-3.421,0-6.196-2.774-6.196-6.196c0-3.423,2.775-6.196,6.196-6.196h31.544
		c3.421,0,6.196,2.774,6.196,6.196C395.265,267.44,392.492,270.214,389.069,270.214z"/>
	<path style="fill:#90BC42;" d="M377.803,295.494h-20.278c-3.421,0-6.196-2.774-6.196-6.196s2.775-6.196,6.196-6.196h20.278
		c3.421,0,6.196,2.774,6.196,6.196S381.226,295.494,377.803,295.494z"/>
	<path style="fill:#90BC42;" d="M235.293,270.214h-31.544c-3.421,0-6.196-2.774-6.196-6.196c0-3.423,2.775-6.196,6.196-6.196h31.544
		c3.421,0,6.196,2.774,6.196,6.196C241.489,267.44,238.715,270.214,235.293,270.214z"/>
	<path style="fill:#90BC42;" d="M235.293,295.494h-20.278c-3.421,0-6.196-2.774-6.196-6.196s2.775-6.196,6.196-6.196h20.278
		c3.421,0,6.196,2.774,6.196,6.196S238.715,295.494,235.293,295.494z"/>
</g>
<path style="fill:#E0B394;" d="M304.294,321.721h-15.772c-3.112,0-5.633-2.522-5.633-5.633s2.521-5.633,5.633-5.633h15.772
	c3.112,0,5.633,2.522,5.633,5.633S307.405,321.721,304.294,321.721z"/>
<g>
</g>
<g>
</g>
<g>
</g>
<g>
</g>
<g>
</g>
<g>
</g>
<g>
</g>
<g>
</g>
<g>
</g>
<g>
</g>
<g>
</g>
<g>
</g>
<g>
</g>
<g>
</g>
<g>
</g>
</svg>
