<?xml version="1.0" encoding="iso-8859-1"?>
<!-- Generator: Adobe Illustrator 19.0.0, SVG Export Plug-In . SVG Version: 6.00 Build 0)  -->
<svg version="1.1" id="Layer_1" xmlns="http://www.w3.org/2000/svg" xmlns:xlink="http://www.w3.org/1999/xlink" x="0px" y="0px"
	 viewBox="0 0 512 512" style="enable-background:new 0 0 512 512;" xml:space="preserve">
<path style="fill:#508DA3;" d="M174.463,470.589H6.123c-3.383,0-6.123-2.742-6.123-6.123V341.492h174.463V470.589z"/>
<path style="fill:#5D9EBA;" d="M174.463,463.319H6.123c-3.383,0-6.123-2.742-6.123-6.123V334.222h174.463V463.319z"/>
<rect x="7.721" y="400.575" style="fill:#E0C8A2;" width="171.903" height="54.29"/>
<path style="fill:#FCE8CA;" d="M139.131,309.986c-12.568,0-22.749,10.192-22.749,22.749c0-9.022-5.257-16.826-12.89-20.499
	c-2.984-1.446-6.324-2.25-9.859-2.25H7.721v114.904h78.692c6.347,0,12.235,1.974,17.079,5.349c7.793,5.406,12.89,14.416,12.89,24.62
	c0-16.551,13.418-29.969,29.969-29.969h78.692v-11.237V309.987L139.131,309.986L139.131,309.986z"/>
<g>
	<rect x="149.544" y="334.222" style="fill:#4D4D4D;" width="57.584" height="12.626"/>
	<rect x="149.544" y="390.44" style="fill:#4D4D4D;" width="57.584" height="12.626"/>
	<rect x="149.544" y="362.331" style="fill:#4D4D4D;" width="57.584" height="12.626"/>
	<rect x="30.175" y="334.222" style="fill:#4D4D4D;" width="57.584" height="12.626"/>
	<rect x="30.175" y="390.44" style="fill:#4D4D4D;" width="57.584" height="12.626"/>
	<rect x="30.175" y="362.331" style="fill:#4D4D4D;" width="57.584" height="12.626"/>
</g>
<g>
	<path style="fill:#EDD9BE;" d="M116.382,332.735v122.124c0-10.204-5.096-19.214-12.89-24.62V312.236
		C111.125,315.909,116.382,323.714,116.382,332.735z"/>
	<path style="fill:#EDD9BE;" d="M116.382,332.735v122.124c0-10.204,5.096-19.214,12.89-24.62V312.236
		C121.638,315.909,116.382,323.714,116.382,332.735z"/>
</g>
<path style="fill:#F9C573;" d="M336.543,328.37H228.297c-39.204,0-70.986,31.781-70.986,70.986v104.197h250.216V399.356
	C407.528,360.151,375.747,328.37,336.543,328.37z"/>
<path style="fill:#E0B394;" d="M332.366,293.047v63.766c0,27.582-22.365,49.947-49.947,49.947
	c-27.592,0-49.947-22.365-49.947-49.947v-63.766H332.366L332.366,293.047z"/>
<path style="fill:#E2AF66;" d="M282.42,412.499c-30.705,0-55.686-24.981-55.686-55.687v-63.766c0-3.169,2.57-5.739,5.739-5.739
	h99.894c3.169,0,5.739,2.57,5.739,5.739v63.766C338.105,387.518,313.125,412.499,282.42,412.499z M238.212,298.785v58.027
	c0,24.377,19.831,44.209,44.208,44.209s44.208-19.831,44.208-44.209v-58.027H238.212z"/>
<g>
	<path style="fill:#E0B394;" d="M161.423,231.349c-14.232-0.631-25.561-12.373-25.561-26.755c0-14.783,11.983-26.778,26.778-26.778
		c1.331,0,2.64,0.092,3.925,0.287L161.423,231.349z"/>
	<path style="fill:#E0B394;" d="M403.398,231.349c14.232-0.631,25.573-12.373,25.573-26.755c0-14.783-11.994-26.778-26.789-26.778
		c-1.331,0-2.651,0.103-3.925,0.287L403.398,231.349z"/>
</g>
<path style="fill:#E2AF66;" d="M272.035,328.37h-43.737c-39.204,0-70.986,31.781-70.986,70.986v104.197h43.737V399.356
	C201.049,360.151,232.83,328.37,272.035,328.37z"/>
<path style="fill:#F7CBA4;" d="M392.57,285.785c-2.261,3.96-4.844,7.748-7.725,11.317c-4.752,5.888-10.296,11.202-16.574,15.759
	l-5.314,3.857l-9.63,7.001l-23.392,16.999l-8.781,6.382c-0.459,0.333-0.918,0.654-1.389,0.976
	c-10.25,7.059-22.014,10.892-33.905,11.512c-3.834,0.207-7.667,0.069-11.478-0.402c-10.847-1.32-21.441-5.349-30.703-12.086
	l-2.594-1.882l-10.158-7.38l-23.024-16.735l-9.63-7.001l-1.71-1.24c-7.61-5.532-14.152-12.167-19.489-19.593
	c-2.835-3.948-5.337-8.126-7.461-12.488c-6.967-14.21-10.032-30.278-8.459-46.554l8.172-84.569
	c5.624-58.238,54.577-102.681,113.091-102.681c29.257,0,56.115,11.111,76.373,29.498c20.258,18.387,33.894,44.063,36.718,73.183
	l8.172,84.569C405.437,252.442,401.385,270.417,392.57,285.785z"/>
<path style="fill:#E8BA97;" d="M190.477,250.895c-0.792,13.395,3.57,26.571,12.201,36.844l49.243,60.511
	c2.571,3.065,5.486,5.636,8.643,7.69c-5.923-2.066-11.616-5.027-16.884-8.849l-47.116-34.227
	c-24.895-18.089-38.359-48-35.398-78.635l8.161-84.569c5.578-57.676,53.624-101.82,111.392-102.658
	c-35.581,0.861-75.872,34.399-77.972,70.118L190.477,250.895z"/>
<path style="fill:#E0B394;" d="M295.616,213.328v40.746c0,7.29-5.91,13.199-13.199,13.199l0,0c-7.29,0-13.199-5.91-13.199-13.199
	v-40.746H295.616z"/>
<g>
	<circle style="fill:#C0E7F9;" cx="230.176" cy="209.309" r="32.768"/>
	<circle style="fill:#C0E7F9;" cx="332.73" cy="209.309" r="32.768"/>
</g>
<g>
	<path style="fill:#9DC4D1;" d="M341.235,214.477h-17.015c-2.852,0-5.165-2.313-5.165-5.165c0-2.852,2.313-5.165,5.165-5.165h17.015
		c2.852,0,5.165,2.313,5.165,5.165C346.4,212.165,344.088,214.477,341.235,214.477z"/>
	<path style="fill:#9DC4D1;" d="M238.686,214.477h-17.015c-2.852,0-5.165-2.313-5.165-5.165c0-2.852,2.313-5.165,5.165-5.165h17.015
		c2.852,0,5.165,2.313,5.165,5.165C243.851,212.165,241.539,214.477,238.686,214.477z"/>
</g>
<path style="fill:#808080;" d="M404.634,189.273c-1.502-2.79-4.981-3.834-7.774-2.332l-26.491,14.266
	c-3.734-17.352-19.189-30.401-37.64-30.401c-19.283,0-35.298,14.247-38.078,32.768h-26.394
	c-2.78-18.521-18.795-32.768-38.078-32.768c-18.123,0-33.353,12.589-37.428,29.48l-24.778-13.343
	c-2.791-1.504-6.271-0.458-7.774,2.332c-1.502,2.79-0.458,6.27,2.332,7.774l29.309,15.783c1.784,19.589,18.293,34.989,38.339,34.989
	c19.283,0,35.298-14.247,38.078-32.768h26.394c2.78,18.521,18.795,32.768,38.078,32.768c19.668,0,35.929-14.826,38.22-33.887
	l31.354-16.884C405.092,195.545,406.137,192.065,404.634,189.273z M230.18,236.341c-14.904,0-27.029-12.125-27.029-27.029
	c0-14.904,12.125-27.029,27.029-27.029s27.029,12.125,27.029,27.029C257.209,224.216,245.082,236.341,230.18,236.341z
	 M332.728,236.341c-14.904,0-27.029-12.125-27.029-27.029c0-14.904,12.125-27.029,27.029-27.029
	c14.904,0,27.029,12.125,27.029,27.029C359.757,224.216,347.632,236.341,332.728,236.341z"/>
<path style="fill:#EA8249;" d="M447.698,158.806c0,0-40.172-4.591-49.538,19.007c-24.276,0-29.659-53.441-29.659-53.441
	c-19.512,19.512-11.478,35.581-11.478,35.581c-40.677,0-75.788-43.375-76.878-44.729c-0.011-0.011-0.011-0.023-0.023-0.034
	c0,28.695,14.921,45.911,14.921,45.911c-42.468,0-71.162-39.025-71.162-39.025l-10.778,11.352l-11.03,11.604
	c-10.33,24.103-34.078,25.86-34.078,25.86c-18.502,5.28-49.71-23.564-49.71-23.564c63.702-9.756,71.507-52.545,71.507-52.545
	c-20.052-8.815-45.613,8.482-46.244,8.918c30.99-52.786,86.084-43.73,86.084-43.73c0-23.082-34.445-37.751-34.445-37.751
	c57.389-9.182,87.231,24.758,87.231,24.758s-2.296-23.61,24.103-38.531c0,0-2.433,21.085,10.261,43.834
	c0,0,17.286-25.676,67.788-12.844c0,0-24.413,8.895-24.413,38.301c0,0,38.187,1.871,70.325,34.009c0,0-30.336,3.214-37.268,23.702
	C393.213,135.449,425.89,136.999,447.698,158.806z"/>
<path style="fill:#D36F3D;" d="M223.88,122.077l-14.519,22.956c-21.426,29.403-41.366,25.86-41.366,25.86
	c-18.502,5.28-49.71-23.564-49.71-23.564c63.702-9.756,62-52.545,62-52.545c-20.052-8.815-36.106,8.482-36.737,8.918
	c30.99-52.786,86.084-43.73,86.084-43.73s25.068,5.234,37.119,17.286c0,0-0.274,0.013-0.78,0.05
	c-21.387,1.6-38.661,18.106-41.396,39.377L223.88,122.077z"/>
<path style="fill:#C49270;" d="M290.448,299.987h-16.069c-3.169,0-5.739-2.57-5.739-5.739s2.57-5.739,5.739-5.739h16.069
	c3.169,0,5.739,2.57,5.739,5.739C296.187,297.417,293.619,299.987,290.448,299.987z"/>
<g>
	<path style="fill:#D36F3D;" d="M186.876,268.006l-9.802,25.263c-2.835-3.948-5.337-8.126-7.461-12.488l6.554-16.93
		c1.148-2.95,4.476-4.419,7.426-3.271C186.555,261.717,188.012,265.045,186.876,268.006z"/>
	<path style="fill:#D36F3D;" d="M223.513,279.622l-15.61,41.481l-9.63-7.001l14.496-38.52c1.113-2.961,4.43-4.465,7.392-3.352
		C223.134,273.355,224.627,276.661,223.513,279.622z"/>
	<path style="fill:#D36F3D;" d="M249.005,308.075l-7.92,37.142l-10.158-7.38l6.852-32.161c0.666-3.099,3.707-5.073,6.806-4.419
		C247.685,301.923,249.671,304.965,249.005,308.075z"/>
	<path style="fill:#D36F3D;" d="M285.861,334.417v25.171c-3.834,0.207-7.667,0.069-11.478-0.402v-24.769
		c0-3.168,2.571-5.739,5.739-5.739C283.29,328.678,285.861,331.249,285.861,334.417z"/>
	<path style="fill:#D36F3D;" d="M362.957,316.718l-9.63,7.001l-16.597-44.098c-1.113-2.961,0.39-6.267,3.352-7.392
		c2.973-1.113,6.278,0.39,7.392,3.352L362.957,316.718z"/>
	<path style="fill:#D36F3D;" d="M329.935,340.718l-8.781,6.382c-0.459,0.333-0.918,0.654-1.389,0.976l-8.528-40
		c-0.654-3.099,1.32-6.152,4.419-6.818c3.099-0.654,6.152,1.32,6.806,4.419L329.935,340.718z"/>
	<path style="fill:#D36F3D;" d="M384.845,297.103c-0.264-0.367-0.494-0.78-0.666-1.228l-10.801-27.868
		c-1.148-2.961,0.321-6.29,3.271-7.426c2.961-1.148,6.278,0.321,7.426,3.271l8.494,21.934L384.845,297.103z"/>
</g>
<path style="fill:#F9C573;" d="M435.468,401.939c0,0-15.102-54.979,9.868-108.17c24.97-53.192,66.179-53.289,66.179-53.289
	s4.468,37.49-13.707,71.036S449.294,363.666,435.468,401.939z"/>
<path style="fill:#999999;" d="M479.929,281.291c0,0-0.228,0.637-0.655,1.833c-0.448,1.182-1.103,2.917-1.937,5.124
	c-1.669,4.349-4.052,10.562-6.912,18.018c-1.47,3.684-2.897,7.742-4.542,11.954c-1.506,4.273-3.254,8.7-4.839,13.358
	c-0.784,2.331-1.698,4.654-2.498,7.051c-0.789,2.4-1.598,4.823-2.455,7.249c-0.894,2.414-1.54,4.93-2.39,7.388
	c-0.795,2.476-1.662,4.94-2.343,7.459c-0.756,2.496-1.512,4.993-2.266,7.48c-0.727,2.494-1.382,4.994-2.081,7.464
	c-0.659,2.479-1.427,4.916-1.995,7.364c-0.607,2.44-1.191,4.857-1.831,7.224c-0.685,2.36-1.075,4.73-1.642,7.022
	c-0.537,2.298-1.032,4.554-1.572,6.746c-0.883,4.407-1.706,8.593-2.553,12.466c-0.681,3.885-1.286,7.466-1.904,10.651
	c-0.155,0.798-0.305,1.569-0.45,2.314c-0.111,0.748-0.218,1.469-0.321,2.161c-0.215,1.39-0.412,2.666-0.591,3.82
	c-0.36,2.312-0.727,4.14-0.94,5.388c-0.244,1.251-0.375,1.918-0.375,1.918s-0.122-0.663-0.35-1.908
	c-0.197-1.246-0.541-3.077-0.871-5.422c-0.163-1.175-0.344-2.476-0.542-3.892c-0.094-0.709-0.203-1.45-0.275-2.217
	c-0.051-0.767-0.103-1.562-0.158-2.383c-0.197-3.287-0.405-7.014-0.51-11.091c0.082-4.056,0.18-8.471,0.428-13.139
	c0.2-2.322,0.465-4.701,0.704-7.143c0.251-2.439,0.494-4.941,0.935-7.445c0.388-2.516,0.847-5.064,1.297-7.648
	c0.393-2.599,1.039-5.168,1.64-7.774c0.631-2.596,1.15-5.249,1.903-7.845c0.75-2.597,1.501-5.205,2.253-7.812
	c0.747-2.611,1.679-5.158,2.542-7.718c0.432-1.28,0.88-2.55,1.337-3.814c0.441-1.269,0.909-2.524,1.414-3.759
	c1.94-4.97,3.946-9.818,6.131-14.399c1.064-2.302,2.097-4.569,3.255-6.721c1.131-2.164,2.189-4.3,3.303-6.337
	c2.294-4.044,4.436-7.867,6.639-11.273c1.101-1.702,2.104-3.357,3.148-4.882c1.054-1.519,2.028-2.97,2.985-4.309
	c1.875-2.696,3.671-4.965,5.108-6.834c1.446-1.862,2.696-3.242,3.496-4.222C479.484,281.8,479.929,281.291,479.929,281.291z"/>
<rect x="400.702" y="411.732" style="fill:#5D9EBA;" width="63.128" height="43.53"/>
<rect x="400.702" y="411.732" style="fill:#508DA3;" width="23.298" height="40.241"/>
<path style="fill:#5D9EBA;" d="M457.059,440.424h-49.592c-17.045,0-30.863,13.817-30.863,30.863v1.404
	c0,17.045,13.817,30.863,30.863,30.863h49.592c17.045,0,30.863-13.817,30.863-30.863v-1.404
	C487.921,454.241,474.104,440.424,457.059,440.424z"/>
<path style="fill:#508DA3;" d="M406.447,471.988L406.447,471.988c0-17.432,14.132-31.564,31.564-31.564h-29.842
	c-17.432,0-31.564,14.132-31.564,31.564l0,0c0,17.432,14.132,31.564,31.564,31.564h29.842
	C420.578,503.552,406.447,489.42,406.447,471.988z"/>
<g>
	<circle style="fill:#5D9EBA;" cx="198.268" cy="467.881" r="8.034"/>
	<circle style="fill:#5D9EBA;" cx="225.815" cy="484.34" r="8.034"/>
	<circle style="fill:#5D9EBA;" cx="230.819" cy="455.221" r="8.034"/>
	<circle style="fill:#5D9EBA;" cx="356.214" cy="413.855" r="8.034"/>
</g>
<g>
	<path style="fill:#D36F3D;" d="M357.023,159.954c-40.677,0-75.788-43.375-76.878-44.729c-7.265-17.894,14.152-15.013,14.152-15.013
		C301.953,136.172,357.023,159.954,357.023,159.954z"/>
	<path style="fill:#D36F3D;" d="M295.043,161.102c-42.468,0-71.162-39.025-71.162-39.025l-10.778,11.352l-10.353-16.31
		c0,0,4.304-56.792,21.911-16.907C242.279,140.098,295.043,161.102,295.043,161.102z"/>
</g>
<g>
</g>
<g>
</g>
<g>
</g>
<g>
</g>
<g>
</g>
<g>
</g>
<g>
</g>
<g>
</g>
<g>
</g>
<g>
</g>
<g>
</g>
<g>
</g>
<g>
</g>
<g>
</g>
<g>
</g>
</svg>
