<?xml version="1.0" encoding="iso-8859-1"?>
<!-- Generator: Adobe Illustrator 19.0.0, SVG Export Plug-In . SVG Version: 6.00 Build 0)  -->
<svg version="1.1" id="Layer_1" xmlns="http://www.w3.org/2000/svg" xmlns:xlink="http://www.w3.org/1999/xlink" x="0px" y="0px"
	 viewBox="0 0 512 512" style="enable-background:new 0 0 512 512;" xml:space="preserve">
<path style="fill:#EA8249;" d="M374.834,96.854c14.691,4.978,66.906,27.916,56.147,100.057
	c-7.607,50.994-37.466,108.176,3.571,134.929c0,0-17.541,15.145-63.196,15.145l-0.395,0.314
	c-11.294-14.319-27.905-24.229-46.853-26.765l2.946-29.076c25.229-18.332,13.082-49.602,10.081-80.647l3.877-46.527
	c-0.593-6.095-7.805-52.401-9.305-58.159c0.233,0.023,9.221-15.691,9.453-15.656c0.884-6.967,32.371,15.203,33.255,6.339
	L374.834,96.854z"/>
<path style="fill:#D36F3D;" d="M144.693,96.563c-14.691,4.978-66.906,27.916-56.147,100.057
	c7.607,50.994,37.466,108.176-3.571,134.929c0,0,17.541,15.145,63.196,15.145l0.395,0.314
	c11.294-14.319,27.905-24.229,46.853-26.765l-11.478-27.395c-25.229-18.332-3.906-25.692-0.905-56.738l6.203-83.749
	c0.593-6.095-10.87-41.081-9.369-46.839c-0.233,0.023-31.886,15.235-32.119,15.27c-0.884-6.967-1.756-15.412-2.64-24.276
	L144.693,96.563z"/>
<path style="fill:#F9C573;" d="M386.408,391.837v105.594H132.834V391.837c0-36.466,27.125-66.592,62.3-71.291l25.229,18.32
	c23.403,17.006,55.1,17.006,78.515,0l25.229-18.332c18.948,2.536,35.558,12.446,46.853,26.765
	C380.638,359.547,386.408,375.017,386.408,391.837z"/>
<g>
	<rect x="250.898" y="377.122" style="fill:#E2AF66;" width="17.448" height="120.296"/>
	<polyline style="fill:#E2AF66;" points="334.201,287.611 311.39,413.905 259.622,377.126 207.855,413.905 187.212,299.615 	"/>
</g>
<path style="fill:#E0B394;" d="M310.949,221.568V328.52c0,28.346-22.982,51.328-51.328,51.328
	c-28.354,0-51.328-22.982-51.328-51.328V207.611"/>
<path style="fill:#E2AF66;" d="M249.097,319.897h-44.324c-39.73,0-71.938,32.207-71.938,71.938v105.595h44.324V391.835
	C177.16,352.104,209.367,319.897,249.097,319.897z"/>
<path style="fill:#F7CBA4;" d="M220.36,338.874l-47.747-34.691c-25.232-18.332-38.882-48.647-35.882-79.691l8.282-85.701
	c5.704-59.026,55.306-104.065,114.606-104.065l0,0c59.3,0,108.902,45.04,114.606,104.065l8.282,85.701
	c3,31.044-10.649,61.358-35.882,79.691l-47.747,34.691C275.467,355.882,243.769,355.882,220.36,338.874z"/>
<path style="fill:#E8BA97;" d="M166.444,241.382c-0.803,13.574,3.617,26.928,12.365,37.338l49.904,61.323
	c2.606,3.106,5.56,5.711,8.759,7.793c-6.002-2.094-11.771-5.095-17.11-8.968l-47.749-34.686
	c-25.229-18.332-38.874-48.644-35.873-79.69l8.27-85.703c5.653-58.45,54.344-103.186,112.887-104.035
	c-36.059,0.872-76.89,34.861-79.018,71.059L166.444,241.382z"/>
<g>
	<path style="fill:#4D4D4D;" d="M207.837,231.687c-4.819,0-8.724-3.906-8.724-8.724v-13.954c0-4.818,3.905-8.724,8.724-8.724
		c4.819,0,8.724,3.906,8.724,8.724v13.954C216.561,227.781,212.655,231.687,207.837,231.687z"/>
	<path style="fill:#4D4D4D;" d="M311.4,231.687c-4.819,0-8.724-3.906-8.724-8.724v-13.954c0-4.818,3.905-8.724,8.724-8.724
		c4.819,0,8.724,3.906,8.724,8.724v13.954C320.124,227.781,316.218,231.687,311.4,231.687z"/>
</g>
<path style="fill:#E2AF66;" d="M167.927,108.673c0,23.066,41.051,41.764,91.69,41.764s91.69-18.698,91.69-41.764
	C351.308,108.673,167.927,108.673,167.927,108.673z"/>
<path style="fill:#EA8249;" d="M161.751,49.838c9.957-19.006,49.994-33.22,97.87-33.22s87.913,14.214,97.858,33.22"/>
<path style="fill:#D36F3D;" d="M194.32,49.838c8.803-16.804,41.127-29.854,81.587-32.654c-5.302-0.366-10.737-0.565-16.285-0.565
	c-47.877,0-87.913,14.214-97.87,33.22h195.729l0,0H194.32V49.838z"/>
<path style="fill:#F9C573;" d="M379.045,52.316c-1.547,12.202-3.094,28.975-4.629,44.492c-0.884,8.863-1.756,17.308-2.64,24.276
	c-0.233-0.035-0.465-0.058-0.698-0.081c-54.483-6.84-109.432-8.642-164.16-5.409c-19.623,1.152-39.222,2.954-58.764,5.409
	c-0.233,0.023-0.465,0.047-0.698,0.081c-2.419-19.158-4.839-49.61-7.258-68.767c7.177-0.907,14.365-1.733,21.554-2.478
	c13.726-1.419,27.486-2.536,41.258-3.35c51.471-3.071,103.128-1.954,154.471,3.35C364.68,50.583,371.868,51.409,379.045,52.316z"/>
<path style="fill:#E2AF66;" d="M206.917,115.593c-19.623,1.152-39.222,2.954-58.764,5.409c-0.233,0.023-0.465,0.047-0.698,0.081
	c-2.419-19.158-4.839-49.61-7.258-68.767c7.177-0.907,14.365-1.733,21.554-2.478c13.726-1.419,27.486-2.536,41.258-3.35
	L206.917,115.593z"/>
<rect x="296.262" y="435.955" style="fill:#F76B4F;" width="62.812" height="17.448"/>
<rect x="13.028" y="331.269" style="fill:#C0E7F9;" width="143.071" height="62.812"/>
<g>
	<rect x="49.086" y="394.081" style="fill:#F76B4F;" width="27.335" height="103.36"/>
	<path style="fill:#F76B4F;" d="M162.496,400.472H6.63v-75.607h155.866V400.472z M19.425,387.677h130.276v-50.017H19.425
		C19.425,337.661,19.425,387.677,19.425,387.677z"/>
</g>
<path style="fill:#666666;" d="M131.672,375.464h-26.753c-2.569,0-4.653-2.083-4.653-4.653c0-2.569,2.083-4.653,4.653-4.653h26.753
	c2.569,0,4.653,2.083,4.653,4.653C136.325,373.381,134.242,375.464,131.672,375.464z"/>
<path style="fill:#90BC42;" d="M512,125.587v-5.816c0-15.295-11.415-27.965-26.172-29.961V69.172h-11.632v20.895
	c-14.869,2.744-26.172,15.797-26.172,31.448s11.303,28.704,26.172,31.448v40.788c-8.309-1.863-14.54-9.286-14.54-18.149v-5.816
	h-11.632v5.816c0,15.295,11.414,27.966,26.172,29.961V226.2h11.632v-20.895C500.697,202.561,512,189.507,512,173.857
	s-11.303-28.704-26.172-31.448v-40.787c8.309,1.863,14.54,9.286,14.54,18.149v5.816H512z M459.657,121.515
	c0-9.203,6.143-16.988,14.54-19.498v38.997C465.8,138.504,459.657,130.718,459.657,121.515z M500.368,173.858
	c0,9.203-6.143,16.988-14.54,19.498v-38.997C494.225,156.87,500.368,164.656,500.368,173.858z"/>
<path style="fill:#C0E7F9;" d="M100.928,67.647c0,26.427-21.414,47.842-47.842,47.842c-8.642,0-16.738-2.291-23.741-6.293
	c-14.4-8.247-24.113-23.764-24.113-41.549c0-26.427,21.426-47.853,47.853-47.853c9.968,0,19.216,3.048,26.881,8.259
	C92.623,36.659,100.928,51.188,100.928,67.647z"/>
<path style="fill:#D2F1FC;" d="M100.928,67.647c0,26.427-21.414,47.842-47.842,47.842c-8.642,0-16.738-2.291-23.741-6.293
	l50.622-81.144C92.623,36.659,100.928,51.188,100.928,67.647z"/>
<path style="fill:#E0B394;" d="M268.737,242.885h-0.397v-18.029c0-4.818-3.905-8.724-8.724-8.724c-4.819,0-8.724,3.906-8.724,8.724
	v18.029h-0.397c-4.819,0-8.724,3.906-8.724,8.724s3.905,8.724,8.724,8.724h18.241c4.819,0,8.724-3.906,8.724-8.724
	S273.556,242.885,268.737,242.885z"/>
<path style="fill:#F2F2F2;" d="M305.154,276.507c0,0-0.663,1.628-2.059,4.199c-0.337,0.663-0.733,1.361-1.175,2.117
	c-0.523,0.744-1.128,1.5-1.78,2.35s-1.396,1.71-2.187,2.664c-0.279,0.361-0.582,0.663-0.907,0.977
	c-0.116,0.116-0.244,0.233-0.372,0.349c-0.454,0.419-0.919,0.861-1.396,1.303c-0.954,0.896-1.989,1.78-3.071,2.71
	c-1.14,0.837-2.361,1.628-3.618,2.489c-0.628,0.43-1.279,0.849-1.943,1.268c-0.663,0.395-1.373,0.721-2.094,1.082
	c-1.419,0.721-2.896,1.419-4.42,2.117c-3.141,1.07-6.409,2.326-9.899,2.85c-3.443,0.803-7.037,0.931-10.62,1.105
	c-3.583-0.174-7.177-0.291-10.62-1.093c-3.49-0.523-6.758-1.78-9.899-2.85c-1.524-0.686-3.001-1.384-4.432-2.105
	c-0.71-0.361-1.419-0.686-2.094-1.082c-0.651-0.43-1.303-0.837-1.931-1.268c-1.256-0.861-2.489-1.663-3.629-2.489
	c-1.082-0.931-2.105-1.826-3.071-2.71c-0.477-0.454-0.931-0.884-1.384-1.314c-0.163-0.151-0.326-0.302-0.489-0.454
	c-0.279-0.279-0.547-0.547-0.779-0.861c-0.756-0.919-1.489-1.768-2.129-2.606c-0.628-0.849-1.245-1.594-1.756-2.338
	c-0.465-0.791-0.896-1.512-1.256-2.175c-1.454-2.652-2.059-4.234-2.059-4.234s1.721,0.523,4.374,1.594
	c0.675,0.256,1.373,0.57,2.152,0.884c0.826,0.244,1.675,0.558,2.582,0.861c0.919,0.302,1.838,0.675,2.815,1.024
	c0.965,0.372,2.059,0.616,3.141,0.942c1.082,0.314,2.164,0.698,3.292,1.035c1.175,0.256,2.35,0.558,3.559,0.849
	c0.605,0.14,1.198,0.314,1.803,0.477c0.616,0.14,1.256,0.221,1.884,0.349c1.268,0.221,2.536,0.477,3.804,0.768
	c2.64,0.244,5.246,0.826,7.968,0.931c2.687,0.349,5.432,0.256,8.154,0.419c2.733-0.163,5.479-0.058,8.166-0.407
	c2.722-0.093,5.327-0.686,7.968-0.931c1.268-0.279,2.536-0.535,3.804-0.756c0.628-0.128,1.268-0.209,1.884-0.349
	c0.605-0.174,1.21-0.337,1.803-0.477c1.21-0.291,2.385-0.605,3.559-0.849c1.14-0.337,2.222-0.721,3.303-1.035
	c1.07-0.326,2.187-0.582,3.117-0.942c0.954-0.326,1.849-0.686,2.757-0.965c0.896-0.302,1.733-0.605,2.559-0.849
	c0.814-0.349,1.535-0.686,2.222-0.954C303.467,276.996,305.154,276.507,305.154,276.507z"/>
<path style="fill:#4D4D4D;" d="M297.046,288.814c-0.116,0.116-0.244,0.233-0.372,0.349c-0.454,0.419-0.919,0.861-1.396,1.303
	c-0.954,0.896-1.989,1.78-3.071,2.71c-1.14,0.837-2.361,1.628-3.618,2.489c-0.628,0.43-1.279,0.849-1.943,1.268
	c-0.663,0.395-1.373,0.721-2.094,1.082c-1.419,0.721-2.896,1.419-4.42,2.117c-3.141,1.07-6.409,2.326-9.899,2.85
	c-3.443,0.803-7.037,0.931-10.62,1.105c-3.583-0.174-7.177-0.291-10.62-1.093c-3.49-0.523-6.758-1.78-9.899-2.85
	c-1.524-0.686-3.001-1.384-4.432-2.105c-0.71-0.361-1.419-0.686-2.094-1.082c-0.651-0.43-1.303-0.837-1.931-1.268
	c-1.256-0.861-2.489-1.663-3.629-2.489c-1.082-0.931-2.105-1.826-3.071-2.71c-0.477-0.454-0.931-0.884-1.384-1.314
	c-0.163-0.151-0.326-0.302-0.489-0.454c0.372,0.128,0.744,0.256,1.128,0.384c0.919,0.302,1.838,0.663,2.815,1.012
	c0.965,0.384,2.059,0.628,3.141,0.954c1.082,0.314,2.164,0.686,3.292,1.035c1.175,0.244,2.35,0.558,3.559,0.849
	c0.605,0.14,1.198,0.302,1.803,0.465c0.616,0.14,1.256,0.221,1.884,0.349c1.268,0.221,2.536,0.489,3.804,0.768
	c2.64,0.256,5.246,0.837,7.968,0.931c2.687,0.361,5.432,0.256,8.154,0.43c2.733-0.163,5.479-0.058,8.166-0.419
	c2.722-0.093,5.327-0.675,7.968-0.919c1.268-0.279,2.536-0.547,3.804-0.768c0.628-0.128,1.268-0.209,1.884-0.349
	c0.605-0.163,1.21-0.326,1.803-0.465c1.21-0.291,2.385-0.605,3.559-0.849c1.14-0.349,2.222-0.733,3.303-1.035
	c1.07-0.326,2.187-0.593,3.117-0.942c0.954-0.337,1.849-0.686,2.757-0.977C296.337,289.058,296.697,288.93,297.046,288.814z"/>
<g>
	<path style="fill:#666666;" d="M291.454,188.131c0,0,0.023-0.231,0.101-0.629c0.09-0.385,0.18-0.993,0.376-1.682
		c0.087-0.356,0.2-0.727,0.329-1.135c0.169-0.414,0.395-0.831,0.636-1.303c0.238-0.475,0.54-0.943,0.856-1.47
		c0.319-0.535,0.699-0.941,1.089-1.457c0.395-0.497,0.841-0.977,1.306-1.494c0.492-0.466,1.026-0.926,1.594-1.388
		c1.111-0.978,2.468-1.685,3.883-2.472c1.463-0.619,3.016-1.29,4.679-1.601c1.647-0.428,3.374-0.529,5.097-0.61
		c1.723,0.079,3.451,0.171,5.099,0.597c1.665,0.307,3.219,0.982,4.683,1.596c1.416,0.785,2.774,1.491,3.886,2.471
		c0.566,0.463,1.102,0.924,1.595,1.388c0.465,0.518,0.908,1.003,1.306,1.496c0.384,0.514,0.783,0.936,1.075,1.45
		c0.293,0.512,0.577,0.97,0.807,1.434c0.229,0.465,0.451,0.875,0.619,1.288c0.152,0.43,0.287,0.82,0.387,1.189
		c0.221,0.713,0.313,1.326,0.398,1.71c0.074,0.397,0.091,0.622,0.091,0.622s-0.241-0.006-0.648-0.045
		c-0.395-0.051-1.01-0.077-1.688-0.176c-0.351-0.036-0.71-0.101-1.104-0.154c-0.42-0.02-0.834-0.078-1.284-0.113
		c-0.883-0.093-1.804-0.231-2.817-0.271c-0.498-0.033-0.981-0.105-1.485-0.147c-0.522-0.007-1.038-0.034-1.549-0.072
		c-1.003-0.13-2.093-0.054-3.105-0.18c-1.064,0.038-2.083-0.092-3.138-0.059c-1.038-0.078-2.087,0.005-3.128-0.069
		c-1.041,0.071-2.09-0.02-3.13,0.056c-1.056-0.037-2.075,0.098-3.142,0.055c-1.013,0.126-2.105,0.048-3.108,0.179
		c-0.512,0.038-1.027,0.066-1.551,0.072c-0.505,0.042-0.985,0.119-1.485,0.149c-1.033,0.056-1.891,0.154-2.753,0.228
		c-0.452,0.035-0.876,0.067-1.268,0.097c-0.418,0.076-0.799,0.159-1.162,0.207c-0.704,0.124-1.319,0.154-1.71,0.204
		C291.688,188.131,291.454,188.131,291.454,188.131z"/>
	<path style="fill:#666666;" d="M187.892,188.131c0,0,0.023-0.231,0.101-0.629c0.09-0.385,0.18-0.993,0.376-1.682
		c0.087-0.356,0.2-0.727,0.329-1.135c0.169-0.414,0.395-0.831,0.636-1.303c0.238-0.475,0.54-0.943,0.856-1.47
		c0.319-0.535,0.699-0.941,1.089-1.457c0.395-0.497,0.841-0.977,1.306-1.494c0.492-0.466,1.026-0.926,1.594-1.388
		c1.111-0.978,2.468-1.685,3.883-2.472c1.463-0.619,3.016-1.29,4.679-1.601c1.647-0.428,3.374-0.529,5.097-0.61
		c1.723,0.079,3.451,0.171,5.099,0.597c1.665,0.307,3.219,0.982,4.683,1.596c1.416,0.785,2.774,1.491,3.886,2.471
		c0.566,0.463,1.102,0.924,1.595,1.388c0.465,0.518,0.908,1.003,1.306,1.496c0.384,0.514,0.783,0.936,1.075,1.45
		c0.293,0.512,0.577,0.97,0.807,1.434c0.229,0.465,0.451,0.875,0.619,1.288c0.152,0.43,0.287,0.82,0.387,1.189
		c0.221,0.713,0.313,1.326,0.398,1.71c0.074,0.397,0.091,0.622,0.091,0.622s-0.241-0.006-0.648-0.045
		c-0.395-0.051-1.01-0.077-1.688-0.176c-0.351-0.036-0.71-0.101-1.104-0.154c-0.42-0.02-0.834-0.078-1.284-0.113
		c-0.883-0.093-1.804-0.231-2.817-0.271c-0.498-0.033-0.981-0.105-1.485-0.147c-0.522-0.007-1.038-0.034-1.549-0.072
		c-1.003-0.13-2.093-0.054-3.105-0.18c-1.064,0.038-2.083-0.092-3.138-0.059c-1.038-0.078-2.087,0.005-3.128-0.069
		c-1.041,0.071-2.09-0.02-3.13,0.056c-1.056-0.037-2.075,0.098-3.142,0.055c-1.013,0.126-2.105,0.048-3.108,0.179
		c-0.512,0.038-1.027,0.066-1.551,0.072c-0.505,0.042-0.985,0.119-1.485,0.149c-1.033,0.056-1.891,0.154-2.753,0.228
		c-0.452,0.035-0.876,0.067-1.268,0.097c-0.418,0.076-0.799,0.159-1.162,0.207c-0.704,0.124-1.319,0.154-1.71,0.204
		C188.125,188.131,187.892,188.131,187.892,188.131z"/>
</g>
<path style="fill:#EA8249;" d="M53.084,120.727C23.814,120.727,0,96.913,0,67.643s23.814-53.084,53.084-53.084
	s53.084,23.814,53.084,53.084S82.354,120.727,53.084,120.727z M53.084,25.028c-23.497,0-42.615,19.117-42.615,42.615
	s19.118,42.615,42.615,42.615S95.7,91.142,95.7,67.643S76.582,25.028,53.084,25.028z"/>
<polygon style="fill:#666666;" points="70.024,72.296 48.431,72.296 48.431,42.212 57.737,42.212 57.737,62.99 70.024,62.99 "/>
<g>
</g>
<g>
</g>
<g>
</g>
<g>
</g>
<g>
</g>
<g>
</g>
<g>
</g>
<g>
</g>
<g>
</g>
<g>
</g>
<g>
</g>
<g>
</g>
<g>
</g>
<g>
</g>
<g>
</g>
</svg>
