<?xml version="1.0" encoding="iso-8859-1"?>
<!-- Generator: Adobe Illustrator 19.0.0, SVG Export Plug-In . SVG Version: 6.00 Build 0)  -->
<svg version="1.1" id="Layer_1" xmlns="http://www.w3.org/2000/svg" xmlns:xlink="http://www.w3.org/1999/xlink" x="0px" y="0px"
	 viewBox="0 0 512.005 512.005" style="enable-background:new 0 0 512.005 512.005;" xml:space="preserve">
<g>
	<path style="fill:#C0E7F9;" d="M445.089,392.309c0.246,0.537,0.481,1.08,0.706,1.629c1.332-0.186,2.69-0.289,4.072-0.289
		c16.09,0,29.135,13.044,29.135,29.135c0,3.654-0.679,7.148-1.906,10.37H338.678l25.203-27.034l20.825-22.734
		c17.134-18.705,48.085-15.181,59.643,7.398C444.606,391.284,444.852,391.793,445.089,392.309z"/>
	<path style="fill:#C0E7F9;" d="M149.776,170.931c-1.607,0-3.184,0.12-4.73,0.337c-5.611-13.751-17.298-24.372-31.725-28.531
		l0.001-0.009c-0.071-0.021-0.143-0.034-0.214-0.053c-0.923-0.261-1.858-0.495-2.802-0.703c-0.175-0.038-0.349-0.075-0.525-0.112
		c-0.958-0.199-1.924-0.372-2.9-0.516c-0.156-0.023-0.314-0.042-0.47-0.064c-1.008-0.138-2.023-0.249-3.048-0.324
		c-0.109-0.008-0.217-0.012-0.326-0.019c-1.084-0.072-2.175-0.116-3.276-0.116c-20.476,0-38.002,12.59-45.287,30.446
		c-1.547-0.216-3.125-0.337-4.73-0.337c-18.693,0-33.847,15.153-33.847,33.847c0,4.244,0.789,8.304,2.215,12.047h71.928h9.719
		h81.648c1.426-3.744,2.215-7.803,2.215-12.047C183.622,186.084,168.469,170.931,149.776,170.931z"/>
</g>
<path style="fill:#666666;" d="M449.533,285.959c-3.748,22.581-22.697,40.003-45.51,41.935c-7.554,0.636-14.808-0.393-21.413-2.776
	c-37.239-16.022-45.198-29.222-47.072-48.564c0,0,11.8-94.467-12.193-94.467c-22.142,0-78.457,0-100.599,0
	c-23.993,0-49.166,88.625-49.166,88.625c-1.863,19.308,24.872,30.714-10.134,54.348c-6.444,2.36-13.5,3.413-20.881,2.892
	c-27.232-1.955-47.581-24.849-46.678-52.127c0.416-12.598,5.24-24.016,13.246-32.623c13.72-14.761,21.841-33.837,21.841-53.978
	v-1.261c0-32.391,10.828-62.273,29.071-86.184l1.654,9.486l20.962-5.483c12.899-3.378,25.335-8.214,37.053-14.391
	c11.707-6.178,22.72-13.709,32.785-22.454l13.685-11.881l-10.238-10.261c5.622-0.683,11.337-1.03,17.133-1.03
	c78.526,0.023,142.291,63.684,142.291,142.198v2.001c0,19.909,7.878,38.847,21.378,53.492
	C446.745,254.308,452.263,269.543,449.533,285.959z"/>
<path style="fill:#E288A9;" d="M148.065,421.083l-36.96,7.702l-42.953-42.954l-14.165,41.554L39.68,413.079V357.36L4.404,322.084
	c-4.752-4.752-0.48-12.787,6.117-11.504l0,0c12.597,2.449,24.176,8.606,33.25,17.68l19.267,19.267h65.234l14.305,14.305
	l-50.356,17.167l21.745,21.745h18.313"/>
<path style="fill:#9691C6;" d="M327.602,361.419h-109.1c-39.513,0-71.546,32.032-71.546,71.546V512h252.191v-79.035
	C399.148,393.451,367.115,361.419,327.602,361.419z"/>
<g>
	<path style="fill:#7F7DAD;" d="M262.585,361.419h-44.082c-39.513,0-71.546,32.032-71.546,71.546V512h44.082v-79.035
		C191.039,393.451,223.072,361.419,262.585,361.419z"/>
	<rect x="264.374" y="372.571" style="fill:#7F7DAD;" width="17.353" height="139.434"/>
</g>
<g>
	<path style="fill:#E288A9;" d="M180.751,426.841l10.666,2.503c24.257,5.694,48.536-9.354,54.23-33.611l2.503-10.666l-10.666-2.503
		c-24.257-5.694-48.536,9.354-54.23,33.611L180.751,426.841z"/>
	<path style="fill:#E288A9;" d="M289.907,452.546l-10.666-2.503c-24.257-5.694-39.305-29.974-33.611-54.23l2.503-10.666
		l10.666,2.503c24.257,5.694,39.305,29.974,33.611,54.23L289.907,452.546z"/>
</g>
<g>
	<path style="fill:#F7CBA4;" d="M219.716,91.39c-2.059,1.087-4.13,2.129-6.235,3.123c4.026-2.452,8.202-4.662,12.529-6.617
		C223.938,89.111,221.833,90.268,219.716,91.39z"/>
	<path style="fill:#F7CBA4;" d="M395.647,276.958v0.104c-0.648,27.082-13.847,52.578-36.07,68.728l-47.488,34.497
		c-23.276,16.925-54.799,16.925-78.087,0l-47.488-34.497c-22.234-16.149-35.422-41.669-36.07-68.762v-0.093
		c0.058-2.071,0.185-4.141,0.382-6.224l8.237-85.224c1.377-14.229,5.31-27.637,11.337-39.795
		c7.89,21.251,28.354,36.394,52.347,36.394c22.142,0,41.276-12.899,50.299-31.593c9.023,18.694,28.157,31.593,50.299,31.593
		c23.993,0,44.457-15.143,52.347-36.394c6.027,12.158,9.96,25.566,11.337,39.795l8.237,85.224
		C395.474,272.794,395.59,274.876,395.647,276.958z"/>
</g>
<path style="fill:#E8BA97;" d="M180.383,283.333c-0.798,13.5,3.598,26.781,12.297,37.134l49.632,60.988
	c2.591,3.089,5.53,5.68,8.711,7.751c-5.969-2.082-11.707-5.067-17.017-8.919l-47.488-34.497
	c-25.092-18.232-38.661-48.379-35.677-79.255l8.225-85.236c5.622-58.131,35.801-68.797,33.684-32.796L180.383,283.333z"/>
<polygon style="fill:#9691C6;" points="206.852,21.436 189.985,41.993 166.663,42.861 170.249,0 "/>
<path style="fill:#E288A9;" d="M266.186,57.055L252.5,68.936c-16.462,14.31-35.445,25.346-55.945,32.577
	c-4.558,1.62-9.197,3.042-13.894,4.269l-20.962,5.483l-1.654-9.486l-10.377-59.473l16.416-0.602l11.684-0.44l11.638-0.428
	l16.867-20.557l10.469-12.771l39.205,39.286L266.186,57.055z"/>
<path style="fill:#4D4D4D;" d="M222.747,182.086c-23.993,0-44.457-15.143-52.347-36.394c-6.027,12.158-9.96,25.566-11.337,39.795
	l-8.237,85.224c-1.863,19.308,2.753,38.338,12.621,54.348c-6.444,2.36-13.5,3.413-20.881,2.892
	c-27.232-1.955-47.581-24.849-46.678-52.127c0.416-12.598,5.24-24.016,13.246-32.623c13.72-14.761,21.841-33.837,21.841-53.978
	v-1.261c0-32.391,10.828-62.273,29.071-86.184l1.654,9.486l20.962-5.483c12.899-3.378,25.335-8.214,37.053-14.391
	C183.472,135.986,222.747,182.086,222.747,182.086z"/>
<path style="fill:#CC7C9D;" d="M196.556,101.512c-4.558,1.62-9.197,3.042-13.894,4.269l-20.962,5.483l-1.654-9.486l-10.377-59.473
	l16.416-0.602l11.684-0.44L196.556,101.512z"/>
<g>
	<path style="fill:#F9C573;" d="M367.91,460.339h-46.852c-3.514,0-6.363-2.848-6.363-6.363s2.848-6.363,6.363-6.363h46.852
		c3.514,0,6.363,2.848,6.363,6.363S371.423,460.339,367.91,460.339z"/>
	<path style="fill:#F9C573;" d="M367.91,484.054h-46.852c-3.514,0-6.363-2.848-6.363-6.363s2.848-6.363,6.363-6.363h46.852
		c3.514,0,6.363,2.848,6.363,6.363S371.423,484.054,367.91,484.054z"/>
	<path style="fill:#F9C573;" d="M503.838,197.159h-12.147v-12.147c0-3.194-2.59-5.784-5.784-5.784s-5.784,2.59-5.784,5.784v12.147
		h-12.147c-3.194,0-5.784,2.59-5.784,5.784s2.59,5.784,5.784,5.784h12.147v12.147c0,3.194,2.59,5.784,5.784,5.784
		s5.784-2.59,5.784-5.784v-12.147h12.147c3.194,0,5.784-2.59,5.784-5.784S507.032,197.159,503.838,197.159z"/>
	<path style="fill:#F9C573;" d="M463.349,80.896h18.509c3.194,0,5.784-2.59,5.784-5.784c0-3.194-2.59-5.784-5.784-5.784h-18.509
		V50.819c0-3.194-2.59-5.784-5.784-5.784c-3.194,0-5.784,2.59-5.784,5.784v18.509h-18.509c-3.194,0-5.784,2.59-5.784,5.784
		c0,3.194,2.59,5.784,5.784,5.784h18.509v18.509c0,3.194,2.59,5.784,5.784,5.784c3.194,0,5.784-2.59,5.784-5.784V80.896z"/>
	<circle style="fill:#F9C573;" cx="344.485" cy="426.942" r="6.941"/>
</g>
<g>
	<path style="fill:#4D4D4D;" d="M221.547,269.987c-4.793,0-8.676-3.885-8.676-8.676v-13.877c0-4.792,3.883-8.676,8.676-8.676
		s8.676,3.885,8.676,8.676v13.877C230.223,266.103,226.34,269.987,221.547,269.987z"/>
	<path style="fill:#4D4D4D;" d="M324.545,269.987c-4.793,0-8.676-3.885-8.676-8.676v-13.877c0-4.792,3.883-8.676,8.676-8.676
		s8.676,3.885,8.676,8.676v13.877C333.221,266.103,329.337,269.987,324.545,269.987z"/>
</g>
<path style="fill:#E0B394;" d="M282.115,277.462h-0.395v-17.931c0-4.792-3.883-8.676-8.676-8.676s-8.676,3.885-8.676,8.676v17.931
	h-0.395c-4.793,0-8.676,3.885-8.676,8.676s3.883,8.676,8.676,8.676h18.142c4.793,0,8.676-3.885,8.676-8.676
	S286.907,277.462,282.115,277.462z"/>
<path style="fill:#F2F2F2;" d="M308.682,317.983c0,0-0.519,1.62-1.611,4.176c-0.264,0.659-0.574,1.354-0.92,2.105
	c-0.41,0.74-0.883,1.492-1.393,2.337c-0.51,0.845-1.092,1.701-1.711,2.649c-0.219,0.359-0.455,0.659-0.71,0.972
	c-0.091,0.116-0.191,0.231-0.292,0.347c-0.355,0.416-0.72,0.856-1.092,1.296c-0.746,0.891-1.557,1.77-2.403,2.695
	c-0.892,0.833-1.847,1.62-2.831,2.476c-0.492,0.428-1.002,0.845-1.52,1.261c-0.519,0.393-1.075,0.717-1.638,1.076
	c-1.111,0.717-2.266,1.411-3.459,2.105c-2.458,1.064-5.016,2.314-7.746,2.834c-2.694,0.798-5.508,0.925-8.311,1.099
	c-2.804-0.173-5.616-0.289-8.311-1.087c-2.731-0.521-5.289-1.77-7.746-2.834c-1.193-0.683-2.348-1.377-3.468-2.094
	c-0.555-0.359-1.111-0.683-1.638-1.076c-0.51-0.428-1.019-0.833-1.511-1.261c-0.983-0.856-1.948-1.654-2.84-2.476
	c-0.847-0.925-1.647-1.816-2.403-2.695c-0.374-0.451-0.729-0.879-1.083-1.307c-0.127-0.15-0.255-0.301-0.382-0.451
	c-0.219-0.278-0.428-0.544-0.61-0.856c-0.591-0.914-1.165-1.758-1.666-2.591c-0.492-0.845-0.974-1.585-1.374-2.325
	c-0.364-0.787-0.701-1.504-0.983-2.163c-1.138-2.638-1.611-4.211-1.611-4.211s1.348,0.521,3.423,1.585
	c0.528,0.254,1.075,0.567,1.684,0.879c0.647,0.243,1.311,0.555,2.021,0.856c0.72,0.301,1.438,0.671,2.203,1.018
	c0.755,0.37,1.611,0.613,2.458,0.937c0.847,0.312,1.694,0.694,2.576,1.03c0.92,0.254,1.839,0.555,2.786,0.844
	c0.473,0.139,0.938,0.312,1.411,0.474c0.482,0.139,0.983,0.22,1.475,0.347c0.993,0.22,1.984,0.474,2.977,0.764
	c2.066,0.243,4.106,0.821,6.235,0.925c2.103,0.347,4.251,0.255,6.381,0.416c2.139-0.162,4.287-0.058,6.39-0.405
	c2.13-0.093,4.169-0.683,6.235-0.925c0.993-0.278,1.984-0.532,2.977-0.752c0.492-0.127,0.993-0.208,1.475-0.347
	c0.473-0.174,0.946-0.335,1.411-0.474c0.946-0.289,1.866-0.602,2.786-0.845c0.892-0.335,1.739-0.717,2.586-1.03
	c0.838-0.324,1.711-0.578,2.44-0.937c0.746-0.324,1.447-0.683,2.158-0.96c0.701-0.301,1.356-0.602,2.002-0.845
	c0.637-0.347,1.202-0.683,1.739-0.949C307.362,318.469,308.682,317.983,308.682,317.983z"/>
<path style="fill:#4D4D4D;" d="M302.337,330.223c-0.091,0.116-0.191,0.231-0.292,0.347c-0.355,0.416-0.72,0.856-1.092,1.296
	c-0.746,0.891-1.557,1.77-2.403,2.695c-0.892,0.833-1.847,1.62-2.831,2.476c-0.492,0.428-1.002,0.845-1.52,1.261
	c-0.519,0.393-1.075,0.717-1.638,1.076c-1.111,0.717-2.266,1.411-3.459,2.105c-2.458,1.064-5.016,2.314-7.746,2.834
	c-2.694,0.798-5.508,0.925-8.311,1.099c-2.804-0.174-5.616-0.289-8.311-1.087c-2.731-0.521-5.289-1.77-7.746-2.834
	c-1.193-0.683-2.348-1.377-3.468-2.094c-0.555-0.359-1.111-0.683-1.638-1.076c-0.51-0.428-1.019-0.833-1.511-1.261
	c-0.983-0.856-1.948-1.654-2.84-2.476c-0.847-0.925-1.647-1.816-2.403-2.695c-0.374-0.451-0.729-0.879-1.083-1.307
	c-0.127-0.15-0.255-0.301-0.382-0.451c0.292,0.127,0.583,0.255,0.883,0.382c0.72,0.301,1.438,0.659,2.203,1.006
	c0.755,0.382,1.611,0.625,2.458,0.949c0.847,0.312,1.694,0.683,2.576,1.03c0.92,0.243,1.839,0.555,2.786,0.845
	c0.473,0.139,0.938,0.301,1.411,0.463c0.482,0.139,0.983,0.22,1.475,0.347c0.993,0.22,1.984,0.486,2.977,0.764
	c2.066,0.255,4.106,0.833,6.235,0.925c2.103,0.359,4.251,0.254,6.381,0.428c2.139-0.162,4.287-0.058,6.39-0.416
	c2.13-0.093,4.169-0.671,6.235-0.914c0.993-0.278,1.984-0.544,2.977-0.764c0.492-0.127,0.993-0.208,1.475-0.347
	c0.473-0.162,0.946-0.324,1.411-0.463c0.946-0.289,1.866-0.602,2.786-0.845c0.892-0.347,1.739-0.729,2.586-1.03
	c0.838-0.324,1.711-0.59,2.44-0.937c0.746-0.335,1.447-0.683,2.158-0.972C301.782,330.466,302.064,330.338,302.337,330.223z"/>
<g>
	<path style="fill:#666666;" d="M304.708,226.67c0,0,0.023-0.23,0.101-0.626c0.089-0.383,0.179-0.988,0.374-1.673
		c0.087-0.354,0.199-0.723,0.327-1.129c0.168-0.412,0.393-0.826,0.633-1.296c0.237-0.472,0.537-0.938,0.851-1.462
		c0.317-0.532,0.695-0.936,1.083-1.45c0.393-0.494,0.836-0.972,1.299-1.485c0.489-0.464,1.02-0.921,1.585-1.38
		c1.105-0.973,2.455-1.676,3.862-2.458c1.455-0.615,3-1.283,4.654-1.592c1.638-0.426,3.356-0.526,5.069-0.606
		c1.713,0.079,3.432,0.17,5.072,0.593c1.655,0.305,3.201,0.976,4.657,1.587c1.408,0.781,2.759,1.483,3.865,2.457
		c0.563,0.46,1.096,0.919,1.586,1.38c0.463,0.515,0.904,0.997,1.299,1.488c0.382,0.511,0.779,0.931,1.069,1.443
		c0.292,0.509,0.574,0.965,0.803,1.426c0.228,0.463,0.449,0.87,0.615,1.281c0.152,0.428,0.286,0.816,0.385,1.182
		c0.22,0.709,0.311,1.319,0.396,1.701c0.074,0.394,0.09,0.619,0.09,0.619s-0.239-0.006-0.644-0.045
		c-0.393-0.051-1.004-0.076-1.679-0.175c-0.349-0.036-0.706-0.101-1.098-0.153c-0.418-0.02-0.829-0.077-1.277-0.112
		c-0.878-0.093-1.794-0.23-2.802-0.27c-0.495-0.032-0.975-0.104-1.477-0.146c-0.519-0.007-1.032-0.034-1.541-0.072
		c-0.997-0.13-2.081-0.053-3.088-0.179c-1.059,0.038-2.072-0.091-3.121-0.059c-1.032-0.078-2.075,0.005-3.111-0.068
		c-1.035,0.071-2.079-0.02-3.113,0.056c-1.05-0.037-2.064,0.097-3.125,0.054c-1.008,0.125-2.094,0.047-3.091,0.178
		c-0.509,0.038-1.021,0.066-1.542,0.072c-0.502,0.042-0.98,0.118-1.477,0.148c-1.027,0.056-1.881,0.153-2.738,0.227
		c-0.45,0.035-0.871,0.067-1.261,0.096c-0.415,0.075-0.795,0.158-1.156,0.206c-0.7,0.124-1.312,0.153-1.701,0.202
		C304.94,226.67,304.708,226.67,304.708,226.67z"/>
	<path style="fill:#666666;" d="M201.711,226.67c0,0,0.023-0.23,0.101-0.626c0.089-0.383,0.179-0.988,0.374-1.673
		c0.087-0.354,0.199-0.723,0.327-1.129c0.168-0.412,0.393-0.826,0.633-1.296c0.237-0.472,0.537-0.938,0.851-1.462
		c0.317-0.532,0.695-0.936,1.083-1.45c0.393-0.494,0.836-0.972,1.299-1.485c0.489-0.464,1.02-0.921,1.585-1.38
		c1.105-0.973,2.455-1.676,3.862-2.458c1.455-0.615,3-1.283,4.654-1.592c1.638-0.426,3.356-0.526,5.069-0.606
		c1.713,0.079,3.432,0.17,5.072,0.593c1.655,0.305,3.201,0.976,4.657,1.587c1.408,0.781,2.759,1.483,3.865,2.457
		c0.563,0.46,1.096,0.919,1.586,1.38c0.463,0.515,0.903,0.997,1.299,1.488c0.382,0.511,0.779,0.931,1.069,1.443
		c0.292,0.509,0.574,0.965,0.803,1.426c0.228,0.463,0.449,0.87,0.615,1.281c0.152,0.428,0.286,0.816,0.385,1.182
		c0.22,0.709,0.311,1.319,0.396,1.701c0.074,0.394,0.09,0.619,0.09,0.619s-0.239-0.006-0.644-0.045
		c-0.393-0.051-1.004-0.076-1.679-0.175c-0.349-0.036-0.706-0.101-1.098-0.153c-0.418-0.02-0.829-0.077-1.277-0.112
		c-0.878-0.093-1.794-0.23-2.802-0.27c-0.495-0.032-0.975-0.104-1.477-0.146c-0.519-0.007-1.032-0.034-1.541-0.072
		c-0.997-0.13-2.081-0.053-3.088-0.179c-1.059,0.038-2.072-0.091-3.121-0.059c-1.032-0.078-2.075,0.005-3.111-0.068
		c-1.035,0.071-2.079-0.02-3.113,0.056c-1.05-0.037-2.064,0.097-3.125,0.054c-1.008,0.125-2.094,0.047-3.091,0.178
		c-0.509,0.038-1.021,0.066-1.542,0.072c-0.502,0.042-0.98,0.118-1.477,0.148c-1.027,0.056-1.881,0.153-2.738,0.227
		c-0.45,0.035-0.871,0.067-1.261,0.096c-0.415,0.075-0.795,0.158-1.156,0.206c-0.7,0.124-1.312,0.153-1.701,0.202
		C201.942,226.67,201.711,226.67,201.711,226.67z"/>
</g>
<g>
</g>
<g>
</g>
<g>
</g>
<g>
</g>
<g>
</g>
<g>
</g>
<g>
</g>
<g>
</g>
<g>
</g>
<g>
</g>
<g>
</g>
<g>
</g>
<g>
</g>
<g>
</g>
<g>
</g>
</svg>
