<?xml version="1.0" encoding="iso-8859-1"?>
<!-- Generator: Adobe Illustrator 19.0.0, SVG Export Plug-In . SVG Version: 6.00 Build 0)  -->
<svg version="1.1" id="Layer_1" xmlns="http://www.w3.org/2000/svg" xmlns:xlink="http://www.w3.org/1999/xlink" x="0px" y="0px"
	 viewBox="0 0 512.001 512.001" style="enable-background:new 0 0 512.001 512.001;" xml:space="preserve">
<circle style="fill:#E2AF66;" cx="99.38" cy="334.349" r="99.38"/>
<circle style="fill:#F9C573;" cx="99.38" cy="334.349" r="81.902"/>
<polygon style="fill:#E2AF66;" points="189.959,327.916 114.913,327.916 167.979,274.85 158.878,265.749 105.813,318.814 
	105.813,243.771 92.942,243.771 92.942,318.814 39.882,265.753 30.781,274.854 83.843,327.916 8.797,327.916 8.797,340.787 
	83.84,340.787 30.779,393.848 39.88,402.949 92.942,349.887 92.942,424.933 105.813,424.933 105.813,349.886 158.88,402.954 
	167.981,393.853 114.916,340.787 189.959,340.787 "/>
<g>
	<circle style="fill:#EA8249;" cx="46.871" cy="300.469" r="11.702"/>
	<circle style="fill:#EA8249;" cx="77.45" cy="371.439" r="11.702"/>
	<circle style="fill:#EA8249;" cx="140.87" cy="339.349" r="11.702"/>
</g>
<g>
	<circle style="fill:#4EA018;" cx="36.49" cy="349.359" r="5.852"/>
	<circle style="fill:#4EA018;" cx="113.69" cy="369.739" r="5.852"/>
	<circle style="fill:#4EA018;" cx="105.57" cy="399.749" r="5.852"/>
	<circle style="fill:#4EA018;" cx="155.4" cy="306.679" r="5.852"/>
	<circle style="fill:#4EA018;" cx="127.42" cy="270.059" r="5.852"/>
	<circle style="fill:#4EA018;" cx="87.74" cy="298.949" r="5.852"/>
</g>
<circle style="fill:#EA8249;" cx="114.44" cy="286.119" r="11.702"/>
<g>
	<path style="fill:#E0B394;" d="M141.978,222.32c-14.043-0.623-25.221-12.208-25.221-26.398c0-14.586,11.823-26.421,26.421-26.421
		c1.314,0,2.605,0.091,3.873,0.283"/>
	<path style="fill:#E0B394;" d="M380.729,222.32c14.043-0.623,25.232-12.208,25.232-26.398c0-14.586-11.835-26.421-26.432-26.421
		c-1.314,0-2.616,0.102-3.873,0.283"/>
</g>
<path style="fill:#7E9CE8;" d="M384.802,388.09v102.807H137.92V388.09c0-22.593,10.702-42.695,27.304-55.492
	c4.168-3.216,8.709-5.98,13.556-8.199c4.315-1.993,8.879-3.545,13.624-4.621c5.006-1.132,10.215-1.733,15.56-1.733h106.805
	c10.408,0,20.294,2.276,29.173,6.353C368.052,335.463,384.802,359.823,384.802,388.09z"/>
<path style="fill:#6D8DCC;" d="M343.942,324.399l-52.004,75.639l-30.577-27.18l-30.577,27.18l-52.004-75.639
	c4.315-1.993,8.879-3.545,13.624-4.621c5.006-1.132,10.215-1.733,15.56-1.733h106.805
	C325.177,318.046,335.063,320.322,343.942,324.399z"/>
<path style="fill:#E0B394;" d="M310.643,253.537v62.916c0,27.215-22.067,49.281-49.281,49.281
	c-27.224,0-49.281-22.066-49.281-49.281v-62.917L310.643,253.537L310.643,253.537z"/>
<path style="fill:#6D8DCC;" d="M251.116,318.049h-43.155c-38.681,0-70.04,31.357-70.04,70.04v102.808h43.155V388.089
	C181.076,349.407,212.434,318.049,251.116,318.049z"/>
<path style="fill:#EA8249;" d="M192.404,319.778v171.119h-27.18V332.598C173.118,326.505,182.346,322.055,192.404,319.778z"/>
<path style="fill:#F7CBA4;" d="M223.137,336.526l-46.487-33.775c-24.566-17.848-37.856-47.363-34.935-77.588l8.063-83.439
	c5.554-57.468,53.846-101.319,111.582-101.319l0,0c57.735,0,106.028,43.851,111.582,101.319l8.063,83.439
	c2.921,30.225-10.368,59.739-34.935,77.588l-46.487,33.775C276.79,353.084,245.929,353.084,223.137,336.526z"/>
<path style="fill:#E8BA97;" d="M170.644,241.606c-0.781,13.216,3.522,26.217,12.038,36.353l48.587,59.705
	c2.537,3.024,5.413,5.561,8.528,7.588c-5.844-2.038-11.461-4.96-16.659-8.731l-46.488-33.772
	c-24.564-17.848-37.848-47.361-34.926-77.587l8.052-83.442c5.504-56.908,52.91-100.463,109.908-101.29
	c-35.107,0.849-74.861,33.941-76.933,69.184L170.644,241.606z"/>
<path style="fill:#7E9CE8;" d="M376.592,151.026c-47.598-47.587-117.314-59.592-176.057-35.99
	c-19.807,7.95-38.357,19.943-54.405,35.99l4.949-83.249c0-9.751,6.444-18.312,15.81-21.008l49.535-14.292l34.212-9.864
	c7.01-2.016,14.451-2.016,21.461,0l83.736,24.156c9.366,2.695,15.81,11.257,15.81,21.008L376.592,151.026z"/>
<path style="fill:#6D8DCC;" d="M200.535,115.036c-19.807,7.95-38.357,19.943-54.405,35.99l4.949-83.249
	c0-9.751,6.444-18.312,15.81-21.008l49.535-14.292C207.93,51.526,199.176,80.065,200.535,115.036z"/>
<path style="fill:#EA8249;" d="M261.359,74.446c-4.692,0-8.494-3.803-8.494-8.494V50.098c0-4.691,3.802-8.494,8.494-8.494
	c4.692,0,8.494,3.803,8.494,8.494v15.855C269.853,70.644,266.051,74.446,261.359,74.446z"/>
<g>
	<path style="fill:#6D8DCC;" d="M376.592,151.026l0.43,7.214l-0.272,0.011c-73.634-31.857-157.155-31.857-230.778,0l-0.272-0.011
		l0.43-7.214C209.765,87.392,312.946,87.392,376.592,151.026z"/>
	<rect x="252.87" y="372.859" style="fill:#6D8DCC;" width="16.987" height="118.04"/>
</g>
<path style="fill:#C0E7F9;" d="M505.208,90.427c0,28.856-23.397,52.253-52.253,52.253c-9.32,0-18.074-2.446-25.651-6.727
	c-15.877-8.958-26.602-25.991-26.602-45.526c0-28.856,23.397-52.253,52.253-52.253c13.624,0,26.036,5.221,35.345,13.76
	C498.697,61.492,505.208,75.195,505.208,90.427z"/>
<path style="fill:#E6F6FC;" d="M505.208,90.427c0,28.856-23.397,52.253-52.253,52.253c-9.32,0-18.074-2.446-25.651-6.727
	L488.3,51.934C498.697,61.492,505.208,75.195,505.208,90.427z"/>
<path style="fill:#EA8249;" d="M452.957,149.473c-32.557,0-59.044-26.488-59.044-59.045s26.488-59.045,59.044-59.045
	s59.044,26.488,59.044,59.045S485.513,149.473,452.957,149.473z M452.957,44.973c-25.064,0-45.455,20.39-45.455,45.455
	s20.39,45.455,45.455,45.455s45.455-20.39,45.455-45.455S478.021,44.973,452.957,44.973z"/>
<polygon style="fill:#666666;" points="471.469,95.524 447.86,95.524 447.86,62.643 458.053,62.643 458.053,85.332 471.469,85.332 
	"/>
<rect x="363.82" y="370.789" style="fill:#EA8249;" width="120.11" height="120.11"/>
<rect x="363.82" y="370.789" style="fill:#D36F3D;" width="120.11" height="43.44"/>
<g>
	<circle style="fill:#666666;" cx="237.31" cy="421.649" r="8.123"/>
	<circle style="fill:#666666;" cx="237.31" cy="463.169" r="8.123"/>
</g>
<rect x="357.81" y="365.019" style="fill:#EA8249;" width="132.12" height="38.505"/>
<path style="fill:#F2F2F2;" d="M305.694,269.726c0,0-0.646,1.585-2.004,4.088c-0.328,0.646-0.713,1.325-1.144,2.061
	c-0.51,0.725-1.099,1.461-1.733,2.288s-1.359,1.665-2.129,2.593c-0.272,0.351-0.566,0.646-0.883,0.951
	c-0.113,0.113-0.238,0.227-0.362,0.34c-0.442,0.408-0.895,0.838-1.359,1.268c-0.929,0.872-1.937,1.733-2.99,2.639
	c-1.11,0.815-2.299,1.585-3.522,2.424c-0.612,0.419-1.246,0.827-1.891,1.234c-0.646,0.385-1.336,0.702-2.038,1.053
	c-1.382,0.702-2.82,1.382-4.303,2.061c-3.058,1.042-6.24,2.265-9.637,2.775c-3.352,0.781-6.852,0.906-10.34,1.076
	c-3.488-0.17-6.987-0.283-10.34-1.065c-3.397-0.51-6.58-1.733-9.637-2.775c-1.484-0.668-2.922-1.348-4.315-2.05
	c-0.691-0.351-1.382-0.668-2.038-1.053c-0.634-0.419-1.268-0.815-1.88-1.234c-1.223-0.838-2.424-1.619-3.533-2.424
	c-1.053-0.906-2.05-1.778-2.99-2.639c-0.464-0.442-0.906-0.861-1.348-1.28c-0.159-0.147-0.317-0.294-0.476-0.442
	c-0.272-0.272-0.532-0.532-0.759-0.838c-0.736-0.895-1.45-1.721-2.072-2.537c-0.612-0.827-1.212-1.551-1.71-2.276
	c-0.453-0.77-0.872-1.472-1.223-2.118c-1.416-2.582-2.005-4.122-2.005-4.122s1.676,0.51,4.258,1.552
	c0.657,0.249,1.336,0.555,2.095,0.861c0.804,0.238,1.631,0.544,2.514,0.838c0.895,0.294,1.789,0.657,2.741,0.997
	c0.94,0.362,2.005,0.6,3.058,0.917c1.053,0.306,2.106,0.68,3.205,1.008c1.144,0.249,2.288,0.544,3.465,0.827
	c0.589,0.136,1.166,0.306,1.755,0.464c0.6,0.136,1.223,0.215,1.835,0.34c1.234,0.215,2.469,0.464,3.703,0.747
	c2.571,0.238,5.108,0.804,7.758,0.906c2.616,0.34,5.289,0.249,7.939,0.408c2.661-0.159,5.334-0.057,7.95-0.396
	c2.65-0.091,5.187-0.668,7.758-0.906c1.234-0.272,2.469-0.521,3.703-0.736c0.612-0.125,1.234-0.204,1.835-0.34
	c0.589-0.17,1.178-0.328,1.755-0.464c1.178-0.283,2.322-0.589,3.465-0.827c1.11-0.328,2.163-0.702,3.216-1.008
	c1.042-0.317,2.129-0.566,3.035-0.917c0.929-0.317,1.801-0.668,2.684-0.94c0.872-0.294,1.687-0.589,2.491-0.827
	c0.793-0.34,1.495-0.668,2.163-0.929C304.051,270.202,305.694,269.726,305.694,269.726z"/>
<g>
	<path style="fill:#4D4D4D;" d="M297.8,281.708c-0.113,0.113-0.238,0.227-0.362,0.34c-0.442,0.408-0.895,0.838-1.359,1.268
		c-0.929,0.872-1.937,1.733-2.99,2.639c-1.11,0.815-2.299,1.585-3.522,2.424c-0.612,0.419-1.246,0.827-1.891,1.234
		c-0.646,0.385-1.336,0.702-2.038,1.053c-1.382,0.702-2.82,1.382-4.303,2.061c-3.058,1.042-6.24,2.265-9.637,2.775
		c-3.352,0.781-6.852,0.906-10.34,1.076c-3.488-0.17-6.987-0.283-10.34-1.065c-3.397-0.51-6.58-1.733-9.637-2.775
		c-1.484-0.668-2.922-1.348-4.315-2.05c-0.691-0.351-1.382-0.668-2.038-1.053c-0.634-0.419-1.268-0.815-1.88-1.234
		c-1.223-0.838-2.424-1.619-3.533-2.424c-1.053-0.906-2.05-1.778-2.99-2.639c-0.464-0.442-0.906-0.861-1.348-1.28
		c-0.159-0.147-0.317-0.294-0.476-0.442c0.362,0.125,0.725,0.249,1.099,0.374c0.895,0.294,1.789,0.646,2.741,0.985
		c0.94,0.374,2.005,0.612,3.058,0.929c1.053,0.306,2.106,0.668,3.205,1.008c1.144,0.238,2.288,0.544,3.465,0.827
		c0.589,0.136,1.166,0.294,1.755,0.453c0.6,0.136,1.223,0.215,1.835,0.34c1.234,0.215,2.469,0.476,3.703,0.747
		c2.571,0.249,5.108,0.815,7.758,0.906c2.616,0.351,5.289,0.249,7.939,0.419c2.661-0.159,5.334-0.057,7.95-0.408
		c2.65-0.091,5.187-0.657,7.758-0.895c1.234-0.272,2.469-0.532,3.703-0.747c0.612-0.125,1.234-0.204,1.835-0.34
		c0.589-0.159,1.178-0.317,1.755-0.453c1.178-0.283,2.322-0.589,3.465-0.827c1.11-0.34,2.163-0.713,3.216-1.008
		c1.042-0.317,2.129-0.578,3.035-0.917c0.929-0.328,1.801-0.668,2.684-0.951C297.109,281.945,297.46,281.821,297.8,281.708z"/>
	<path style="fill:#4D4D4D;" d="M210.945,231.79c-4.691,0-8.494-3.803-8.494-8.494v-13.585c0-4.691,3.803-8.494,8.494-8.494
		s8.494,3.803,8.494,8.494v13.585C219.439,227.987,215.636,231.79,210.945,231.79z"/>
</g>
<g>
	<path style="fill:#666666;" d="M292.355,176.869c0,0,0.023-0.225,0.099-0.613c0.087-0.375,0.176-0.967,0.366-1.638
		c0.085-0.347,0.195-0.708,0.32-1.105c0.164-0.403,0.385-0.809,0.619-1.268c0.232-0.462,0.525-0.918,0.833-1.431
		c0.31-0.521,0.681-0.916,1.06-1.419c0.385-0.484,0.819-0.951,1.272-1.454c0.479-0.454,0.999-0.901,1.552-1.351
		c1.082-0.952,2.403-1.641,3.78-2.407c1.425-0.602,2.937-1.256,4.556-1.558c1.604-0.417,3.285-0.515,4.963-0.593
		c1.677,0.077,3.36,0.166,4.965,0.581c1.621,0.299,3.134,0.956,4.559,1.554c1.378,0.764,2.701,1.452,3.784,2.405
		c0.552,0.451,1.072,0.899,1.553,1.351c0.453,0.504,0.884,0.976,1.272,1.456c0.374,0.501,0.762,0.912,1.046,1.412
		c0.285,0.498,0.562,0.945,0.786,1.396c0.223,0.453,0.439,0.852,0.602,1.254c0.148,0.419,0.28,0.798,0.377,1.157
		c0.215,0.694,0.305,1.291,0.387,1.665c0.072,0.386,0.088,0.606,0.088,0.606s-0.234-0.006-0.631-0.044
		c-0.385-0.05-0.983-0.075-1.643-0.171c-0.342-0.035-0.691-0.099-1.075-0.149c-0.409-0.019-0.812-0.076-1.25-0.11
		c-0.86-0.091-1.756-0.225-2.743-0.264c-0.485-0.032-0.955-0.102-1.446-0.143c-0.508-0.007-1.01-0.033-1.508-0.07
		c-0.976-0.127-2.037-0.052-3.023-0.176c-1.036,0.037-2.028-0.089-3.055-0.058c-1.01-0.076-2.032,0.005-3.045-0.067
		c-1.014,0.069-2.035-0.019-3.048,0.054c-1.028-0.036-2.02,0.095-3.059,0.053c-0.986,0.122-2.05,0.046-3.026,0.174
		c-0.498,0.037-1,0.065-1.51,0.07c-0.491,0.041-0.959,0.116-1.446,0.145c-1.006,0.054-1.841,0.149-2.681,0.222
		c-0.441,0.034-0.853,0.066-1.234,0.094c-0.407,0.074-0.778,0.155-1.131,0.202c-0.685,0.121-1.284,0.149-1.665,0.198
		C292.582,176.869,292.355,176.869,292.355,176.869z"/>
	<path style="fill:#666666;" d="M191.525,176.869c0,0,0.023-0.225,0.099-0.613c0.087-0.375,0.176-0.967,0.366-1.638
		c0.085-0.347,0.195-0.708,0.32-1.105c0.164-0.403,0.385-0.809,0.619-1.268c0.232-0.462,0.525-0.918,0.834-1.431
		c0.31-0.521,0.681-0.916,1.06-1.419c0.385-0.484,0.819-0.951,1.272-1.454c0.479-0.454,0.999-0.901,1.551-1.351
		c1.082-0.952,2.403-1.641,3.78-2.407c1.425-0.602,2.937-1.256,4.556-1.558c1.604-0.417,3.285-0.515,4.963-0.593
		c1.677,0.077,3.36,0.166,4.965,0.581c1.621,0.299,3.134,0.956,4.559,1.554c1.378,0.764,2.701,1.452,3.784,2.405
		c0.552,0.451,1.072,0.899,1.553,1.351c0.453,0.504,0.884,0.976,1.272,1.456c0.374,0.501,0.762,0.912,1.046,1.412
		c0.285,0.498,0.562,0.945,0.786,1.396c0.223,0.453,0.439,0.852,0.602,1.254c0.148,0.419,0.28,0.798,0.377,1.157
		c0.215,0.694,0.305,1.291,0.387,1.665c0.072,0.386,0.088,0.606,0.088,0.606s-0.234-0.006-0.631-0.044
		c-0.385-0.05-0.983-0.075-1.643-0.171c-0.342-0.035-0.691-0.099-1.075-0.149c-0.409-0.019-0.812-0.076-1.25-0.11
		c-0.86-0.091-1.756-0.225-2.743-0.264c-0.485-0.032-0.955-0.102-1.446-0.143c-0.508-0.007-1.01-0.033-1.508-0.07
		c-0.976-0.127-2.037-0.052-3.023-0.176c-1.036,0.037-2.028-0.089-3.055-0.058c-1.01-0.076-2.032,0.005-3.045-0.067
		c-1.014,0.069-2.035-0.019-3.048,0.054c-1.028-0.036-2.02,0.095-3.059,0.053c-0.986,0.122-2.05,0.046-3.026,0.174
		c-0.498,0.037-1,0.065-1.51,0.07c-0.492,0.041-0.959,0.116-1.446,0.145c-1.006,0.054-1.841,0.149-2.681,0.222
		c-0.441,0.034-0.853,0.066-1.234,0.094c-0.407,0.074-0.778,0.155-1.131,0.202c-0.685,0.121-1.284,0.149-1.665,0.198
		C191.752,176.869,191.525,176.869,191.525,176.869z"/>
</g>
<path style="fill:#4D4D4D;" d="M311.774,231.79c-4.691,0-8.494-3.803-8.494-8.494v-13.585c0-4.691,3.803-8.494,8.494-8.494
	s8.494,3.803,8.494,8.494v13.585C320.268,227.987,316.465,231.79,311.774,231.79z"/>
<path style="fill:#E0B394;" d="M274.383,197.253v40.203c0,7.192-5.831,13.024-13.024,13.024l0,0
	c-7.192,0-13.024-5.831-13.024-13.024v-40.203"/>
<g>
</g>
<g>
</g>
<g>
</g>
<g>
</g>
<g>
</g>
<g>
</g>
<g>
</g>
<g>
</g>
<g>
</g>
<g>
</g>
<g>
</g>
<g>
</g>
<g>
</g>
<g>
</g>
<g>
</g>
</svg>
