<?xml version="1.0" encoding="iso-8859-1"?>
<!-- Generator: Adobe Illustrator 19.0.0, SVG Export Plug-In . SVG Version: 6.00 Build 0)  -->
<svg version="1.1" id="Layer_1" xmlns="http://www.w3.org/2000/svg" xmlns:xlink="http://www.w3.org/1999/xlink" x="0px" y="0px"
	 viewBox="0 0 512 512" style="enable-background:new 0 0 512 512;" xml:space="preserve">
<path style="fill:#4EA018;" d="M71.811,266.558V226.06c0-7.792-6.316-14.108-14.108-14.108H44.391
	c-7.792,0-14.108,6.316-14.108,14.108v40.498c0,19.423-5.229,38.489-15.139,55.194l0,0c-9.909,16.706-15.139,35.772-15.139,55.196
	v115.144h102.084V376.948c0-19.423-5.229-38.489-15.139-55.194l0,0C77.041,305.047,71.811,285.983,71.811,266.558z"/>
<path style="fill:#428C13;" d="M40.72,321.754L40.72,321.754c2.851-16.705,4.355-35.771,4.355-55.194v-40.498
	c0-7.792,1.817-14.108,4.058-14.108h-4.741c-7.792,0-14.108,6.316-14.108,14.108v40.498c0,19.423-5.23,38.489-15.139,55.194l0,0
	c-9.911,16.705-15.141,35.771-15.141,55.194v115.144h36.36V376.948C36.365,357.525,37.869,338.459,40.72,321.754z"/>
<g>
	<path style="fill:#E0B394;" d="M134.425,210.581c-14.719-0.653-26.435-12.796-26.435-27.67c0-15.289,12.393-27.693,27.693-27.693
		c1.377,0,2.73,0.095,4.06,0.297"/>
	<path style="fill:#E0B394;" d="M382.3,210.581c14.719-0.653,26.447-12.796,26.447-27.67c0-15.289-12.404-27.693-27.705-27.693
		c-1.377,0-2.742,0.107-4.06,0.297"/>
</g>
<path style="fill:#666666;" d="M387.755,384.339v107.758H128.983V384.339c0-25.201,12.689-47.434,32.038-60.645
	c11.787-8.06,26.032-12.772,41.38-12.772h111.949c15.586,0,30.032,4.855,41.926,13.152
	C375.303,337.332,387.755,359.387,387.755,384.339z"/>
<path style="fill:#4D4D4D;" d="M247.631,310.921h-45.233c-40.544,0-73.413,32.868-73.413,73.413v107.76h45.233v-107.76
	C174.219,343.788,207.087,310.921,247.631,310.921z"/>
<path style="fill:#E6E6E6;" d="M356.275,324.073L258.76,492.097l-78.914-135.974l-18.826-32.43
	c11.787-8.06,26.032-12.772,41.38-12.772h111.949C329.935,310.921,344.381,315.775,356.275,324.073z"/>
<path style="fill:#E0B394;" d="M310.302,234.658v65.947c0,28.525-23.129,51.655-51.655,51.655
	c-28.535,0-51.655-23.129-51.655-51.655v-65.947H310.302z"/>
<path style="fill:#CCCCCC;" d="M247.626,310.921c-30.542,0-56.728,18.66-67.779,45.202l-18.826-32.43
	c11.787-8.06,26.032-12.772,41.38-12.772H247.626z"/>
<path style="fill:#F7CBA4;" d="M218.305,330.286l-48.726-35.402c-25.749-18.708-39.679-49.644-36.617-81.325l8.452-87.458
	c5.821-60.236,56.44-106.199,116.956-106.199l0,0c60.516,0,111.134,45.963,116.956,106.199l8.452,87.458
	c3.061,31.681-10.867,62.616-36.617,81.325l-48.726,35.402C274.542,347.643,242.194,347.643,218.305,330.286z"/>
<path style="fill:#E8BA97;" d="M163.284,230.796c-0.819,13.853,3.692,27.48,12.618,38.104l50.927,62.58
	c2.659,3.169,5.674,5.828,8.938,7.953c-6.125-2.137-12.013-5.199-17.461-9.152l-48.728-35.397
	c-25.747-18.708-39.671-49.642-36.608-81.323l8.44-87.46c5.769-59.648,55.458-105.301,115.201-106.168
	c-36.798,0.89-78.466,35.575-80.638,72.516L163.284,230.796z"/>
<path style="fill:#E2AF66;" d="M412.686,423.495c-3.605,0-6.529-2.922-6.529-6.529v-27.228c0-3.606,2.924-6.529,6.529-6.529
	c3.605,0,6.529,2.922,6.529,6.529v27.228C419.215,420.573,416.291,423.495,412.686,423.495z"/>
<path style="fill:#F9C573;" d="M494.591,484.975c0-45.235-36.67-81.905-81.905-81.905s-81.905,36.67-81.905,81.905H494.591z"/>
<g>
	<path style="fill:#E2AF66;" d="M330.781,484.974h40.359c0-45.235,18.601-81.905,41.546-81.905
		C367.451,403.069,330.781,439.74,330.781,484.974z"/>
	<path style="fill:#E2AF66;" d="M504.878,492.096H320.493c-3.933,0-7.122-3.19-7.122-7.122s3.19-7.122,7.122-7.122h184.385
		c3.933,0,7.122,3.19,7.122,7.122S508.812,492.096,504.878,492.096z"/>
</g>
<path style="fill:#AD683A;" d="M337.354,50.415c18.399,16.701,31.516,39.219,36.418,64.859
	c-101.835,48.407-156.949-16.357-156.949-16.357c-23.741,23.741-75.412,27.183-75.412,27.183
	c5.828-60.23,56.443-106.192,116.958-106.192C288.626,19.909,316.403,31.399,337.354,50.415z"/>
<g>
	<path style="fill:#F9C573;" d="M78.344,422.655c0,17.212-18.114,31.539-41.985,34.459c-2.944,0.368-5.971,0.558-9.057,0.558
		c-10.042,0-19.408-1.982-27.302-5.437v-59.162c7.894-3.454,17.259-5.437,27.302-5.437c3.086,0,6.113,0.19,9.057,0.558
		C60.23,391.117,78.344,405.443,78.344,422.655z"/>
	<path style="fill:#F9C573;" d="M72.136,274.847l-0.32,0.024H30.281l-0.32-0.024c0.214-2.754,0.32-5.52,0.32-8.285V226.06
		c0-7.787,6.315-14.102,14.114-14.102h13.307c7.799,0,14.114,6.315,14.114,14.102v40.501
		C71.815,269.327,71.922,272.093,72.136,274.847z"/>
</g>
<path style="fill:#8E502E;" d="M206.021,32.206c-14.363,36.549,10.802,66.711,10.802,66.711
	c-23.741,23.741-75.412,27.183-75.412,27.183C145.435,84.531,170.79,49.751,206.021,32.206z"/>
<path style="fill:#E2AF66;" d="M36.359,388.196v68.919c-2.944,0.368-5.971,0.558-9.057,0.558c-10.042,0-19.408-1.982-27.302-5.437
	v-59.162c7.894-3.454,17.259-5.437,27.302-5.437C30.388,387.637,33.415,387.828,36.359,388.196z"/>
<polygon style="fill:#7E9CE8;" points="147.582,435.237 191.899,435.237 169.74,391.317 "/>
<path style="fill:#F2F2F2;" d="M304.837,262.396c0,0-0.677,1.662-2.101,4.285c-0.344,0.677-0.748,1.389-1.199,2.16
	c-0.534,0.76-1.151,1.531-1.816,2.398c-0.665,0.867-1.424,1.745-2.232,2.718c-0.285,0.368-0.594,0.677-0.926,0.997
	c-0.119,0.119-0.249,0.237-0.38,0.356c-0.463,0.427-0.938,0.878-1.424,1.329c-0.973,0.914-2.03,1.816-3.134,2.766
	c-1.163,0.855-2.41,1.662-3.692,2.54c-0.641,0.439-1.306,0.867-1.982,1.294c-0.677,0.404-1.401,0.736-2.137,1.104
	c-1.448,0.736-2.956,1.448-4.511,2.16c-3.205,1.092-6.54,2.374-10.102,2.908c-3.514,0.819-7.182,0.95-10.838,1.128
	c-3.656-0.178-7.324-0.297-10.838-1.116c-3.561-0.534-6.897-1.816-10.102-2.908c-1.555-0.7-3.063-1.413-4.523-2.149
	c-0.724-0.368-1.448-0.7-2.137-1.104c-0.665-0.439-1.329-0.855-1.97-1.294c-1.282-0.878-2.54-1.697-3.704-2.54
	c-1.104-0.95-2.149-1.864-3.134-2.766c-0.487-0.463-0.95-0.902-1.413-1.341c-0.166-0.154-0.332-0.309-0.499-0.463
	c-0.285-0.285-0.558-0.558-0.795-0.878c-0.772-0.938-1.519-1.804-2.172-2.659c-0.641-0.867-1.27-1.626-1.792-2.386
	c-0.475-0.807-0.914-1.543-1.282-2.22c-1.484-2.706-2.101-4.321-2.101-4.321s1.757,0.534,4.463,1.626
	c0.688,0.261,1.401,0.582,2.196,0.902c0.843,0.249,1.709,0.57,2.635,0.878c0.938,0.309,1.876,0.688,2.873,1.045
	c0.985,0.38,2.101,0.629,3.205,0.961c1.104,0.321,2.208,0.712,3.359,1.056c1.199,0.261,2.398,0.57,3.632,0.867
	c0.617,0.142,1.223,0.32,1.84,0.487c0.629,0.142,1.282,0.226,1.923,0.356c1.294,0.226,2.588,0.487,3.882,0.783
	c2.695,0.249,5.354,0.843,8.131,0.95c2.742,0.356,5.543,0.261,8.321,0.427c2.79-0.166,5.591-0.059,8.333-0.415
	c2.778-0.095,5.437-0.7,8.131-0.95c1.294-0.285,2.588-0.546,3.882-0.772c0.641-0.131,1.294-0.214,1.923-0.356
	c0.617-0.178,1.234-0.344,1.84-0.487c1.234-0.297,2.433-0.617,3.632-0.867c1.163-0.344,2.267-0.736,3.371-1.056
	c1.092-0.332,2.232-0.594,3.181-0.961c0.973-0.332,1.887-0.7,2.813-0.985c0.914-0.309,1.769-0.617,2.611-0.867
	c0.831-0.356,1.567-0.7,2.267-0.973C303.116,262.895,304.837,262.396,304.837,262.396z"/>
<g>
	<path style="fill:#4D4D4D;" d="M296.564,274.955c-0.119,0.119-0.249,0.237-0.38,0.356c-0.463,0.427-0.938,0.878-1.424,1.329
		c-0.973,0.914-2.03,1.816-3.134,2.766c-1.163,0.855-2.41,1.662-3.692,2.54c-0.641,0.439-1.306,0.867-1.982,1.294
		c-0.677,0.404-1.401,0.736-2.137,1.104c-1.448,0.736-2.956,1.448-4.511,2.16c-3.205,1.092-6.54,2.374-10.102,2.908
		c-3.514,0.819-7.182,0.95-10.838,1.128c-3.656-0.178-7.324-0.297-10.838-1.116c-3.561-0.534-6.897-1.816-10.102-2.908
		c-1.555-0.7-3.063-1.413-4.523-2.149c-0.724-0.368-1.448-0.7-2.137-1.104c-0.665-0.439-1.329-0.855-1.97-1.294
		c-1.282-0.878-2.54-1.697-3.704-2.54c-1.104-0.95-2.149-1.864-3.134-2.766c-0.487-0.463-0.95-0.902-1.413-1.341
		c-0.166-0.154-0.332-0.309-0.499-0.463c0.38,0.131,0.76,0.261,1.151,0.392c0.938,0.309,1.876,0.677,2.873,1.033
		c0.985,0.392,2.101,0.641,3.205,0.973c1.104,0.321,2.208,0.7,3.359,1.056c1.199,0.249,2.398,0.57,3.632,0.867
		c0.617,0.142,1.223,0.309,1.84,0.475c0.629,0.142,1.282,0.226,1.923,0.356c1.294,0.226,2.588,0.499,3.882,0.783
		c2.695,0.261,5.354,0.855,8.131,0.95c2.742,0.368,5.543,0.261,8.321,0.439c2.79-0.166,5.591-0.059,8.333-0.427
		c2.778-0.095,5.437-0.688,8.131-0.938c1.294-0.285,2.588-0.558,3.882-0.783c0.641-0.131,1.294-0.214,1.923-0.356
		c0.617-0.166,1.234-0.332,1.84-0.475c1.234-0.297,2.433-0.617,3.632-0.867c1.163-0.356,2.267-0.748,3.371-1.056
		c1.092-0.332,2.232-0.605,3.181-0.961c0.973-0.344,1.887-0.7,2.813-0.997C295.84,275.204,296.208,275.074,296.564,274.955z"/>
	<path style="fill:#4D4D4D;" d="M205.526,225.6c-4.917,0-8.903-3.986-8.903-8.903v-14.24c0-4.917,3.986-8.903,8.903-8.903
		s8.903,3.986,8.903,8.903v14.24C214.428,221.615,210.442,225.6,205.526,225.6z"/>
</g>
<g>
	<path style="fill:#666666;" d="M290.857,178.769c0,0,0.024-0.236,0.103-0.642c0.091-0.393,0.184-1.014,0.383-1.716
		c0.089-0.363,0.204-0.742,0.336-1.159c0.172-0.423,0.404-0.848,0.649-1.329c0.243-0.484,0.551-0.963,0.874-1.5
		c0.325-0.546,0.713-0.96,1.111-1.487c0.404-0.507,0.858-0.997,1.333-1.524c0.502-0.476,1.047-0.945,1.626-1.416
		c1.134-0.998,2.519-1.72,3.962-2.522c1.493-0.631,3.078-1.316,4.775-1.633c1.681-0.437,3.444-0.54,5.202-0.622
		c1.758,0.081,3.522,0.174,5.204,0.609c1.699,0.313,3.284,1.002,4.779,1.629c1.445,0.801,2.831,1.522,3.966,2.521
		c0.578,0.472,1.124,0.943,1.627,1.416c0.475,0.528,0.927,1.023,1.333,1.527c0.392,0.525,0.799,0.956,1.097,1.48
		c0.299,0.522,0.589,0.99,0.824,1.464c0.234,0.475,0.461,0.893,0.632,1.314c0.156,0.439,0.293,0.837,0.395,1.213
		c0.226,0.728,0.319,1.353,0.406,1.745c0.076,0.405,0.093,0.635,0.093,0.635s-0.246-0.006-0.661-0.046
		c-0.404-0.052-1.03-0.078-1.722-0.179c-0.358-0.037-0.724-0.103-1.126-0.157c-0.429-0.02-0.851-0.08-1.31-0.115
		c-0.901-0.095-1.841-0.236-2.875-0.277c-0.508-0.033-1.001-0.107-1.516-0.15c-0.533-0.007-1.059-0.034-1.581-0.074
		c-1.023-0.133-2.135-0.055-3.168-0.184c-1.086,0.039-2.126-0.094-3.203-0.061c-1.059-0.08-2.13,0.005-3.192-0.07
		c-1.062,0.072-2.133-0.02-3.194,0.057c-1.078-0.038-2.118,0.1-3.206,0.056c-1.034,0.128-2.149,0.049-3.172,0.183
		c-0.522,0.039-1.048,0.068-1.582,0.074c-0.515,0.043-1.005,0.121-1.516,0.152c-1.054,0.057-1.93,0.157-2.81,0.233
		c-0.462,0.036-0.894,0.069-1.294,0.099c-0.426,0.077-0.815,0.163-1.186,0.211c-0.718,0.127-1.346,0.157-1.745,0.208
		C291.095,178.769,290.857,178.769,290.857,178.769z"/>
	<path style="fill:#666666;" d="M185.171,178.769c0,0,0.024-0.236,0.103-0.642c0.091-0.393,0.184-1.014,0.383-1.716
		c0.089-0.363,0.204-0.742,0.336-1.159c0.172-0.423,0.404-0.848,0.649-1.329c0.243-0.484,0.551-0.963,0.874-1.5
		c0.325-0.546,0.713-0.96,1.111-1.487c0.404-0.507,0.858-0.997,1.333-1.524c0.502-0.476,1.047-0.945,1.626-1.416
		c1.134-0.998,2.519-1.72,3.962-2.522c1.493-0.631,3.078-1.316,4.775-1.633c1.681-0.437,3.444-0.54,5.202-0.622
		c1.758,0.081,3.522,0.174,5.204,0.609c1.699,0.313,3.285,1.002,4.779,1.629c1.445,0.801,2.831,1.522,3.966,2.521
		c0.578,0.472,1.124,0.943,1.627,1.416c0.475,0.528,0.927,1.023,1.333,1.527c0.392,0.525,0.799,0.956,1.097,1.48
		c0.299,0.522,0.589,0.99,0.824,1.464c0.234,0.475,0.461,0.893,0.632,1.314c0.156,0.439,0.293,0.837,0.395,1.213
		c0.226,0.728,0.319,1.353,0.406,1.745c0.076,0.405,0.093,0.635,0.093,0.635s-0.246-0.006-0.661-0.046
		c-0.404-0.052-1.03-0.078-1.722-0.179c-0.358-0.037-0.724-0.103-1.126-0.157c-0.429-0.02-0.851-0.08-1.31-0.115
		c-0.901-0.095-1.841-0.236-2.875-0.277c-0.508-0.033-1.001-0.107-1.516-0.15c-0.533-0.007-1.059-0.034-1.581-0.074
		c-1.023-0.133-2.135-0.055-3.168-0.184c-1.086,0.039-2.126-0.094-3.203-0.061c-1.059-0.08-2.13,0.005-3.192-0.07
		c-1.062,0.072-2.133-0.02-3.194,0.057c-1.078-0.038-2.118,0.1-3.206,0.056c-1.034,0.128-2.149,0.049-3.172,0.183
		c-0.522,0.039-1.048,0.068-1.582,0.074c-0.515,0.043-1.005,0.121-1.516,0.152c-1.054,0.057-1.93,0.157-2.81,0.233
		c-0.462,0.036-0.894,0.069-1.294,0.099c-0.426,0.077-0.815,0.163-1.186,0.211c-0.718,0.127-1.346,0.157-1.745,0.208
		C185.409,178.769,185.171,178.769,185.171,178.769z"/>
</g>
<path style="fill:#4D4D4D;" d="M311.212,225.6c-4.917,0-8.903-3.986-8.903-8.903v-14.24c0-4.917,3.986-8.903,8.903-8.903
	c4.917,0,8.903,3.986,8.903,8.903v14.24C320.114,221.615,316.128,225.6,311.212,225.6z"/>
<path style="fill:#E0B394;" d="M272.02,186.434v42.14c0,7.539-6.112,13.651-13.651,13.651l0,0c-7.539,0-13.651-6.112-13.651-13.651
	v-42.14"/>
<g>
	<rect x="144.224" y="433.455" style="fill:#4D4D4D;" width="51.034" height="18.918"/>
	<circle style="fill:#4D4D4D;" cx="258.654" cy="402.711" r="8.903"/>
	<circle style="fill:#4D4D4D;" cx="258.654" cy="440.696" r="8.903"/>
</g>
<path style="fill:#7E9CE8;" d="M297.024,347.316l-28.827,16.643v-0.407c0-2.915-2.363-5.279-5.279-5.279h-9.1
	c-2.915,0-5.279,2.363-5.279,5.279v0.407l-28.827-16.643c-5.93-3.423-13.343,0.856-13.343,7.704v29.228
	c0,6.848,7.413,11.127,13.343,7.704l28.827-16.643v1.554c0,2.915,2.363,5.279,5.279,5.279h9.1c2.915,0,5.279-2.363,5.279-5.279
	v-1.554l28.827,16.643c5.93,3.423,13.342-0.856,13.342-7.704V355.02C310.367,348.172,302.954,343.893,297.024,347.316z"/>
<g>
</g>
<g>
</g>
<g>
</g>
<g>
</g>
<g>
</g>
<g>
</g>
<g>
</g>
<g>
</g>
<g>
</g>
<g>
</g>
<g>
</g>
<g>
</g>
<g>
</g>
<g>
</g>
<g>
</g>
</svg>
