<?xml version="1.0" encoding="iso-8859-1"?>
<!-- Generator: Adobe Illustrator 19.0.0, SVG Export Plug-In . SVG Version: 6.00 Build 0)  -->
<svg version="1.1" id="Layer_1" xmlns="http://www.w3.org/2000/svg" xmlns:xlink="http://www.w3.org/1999/xlink" x="0px" y="0px"
	 viewBox="0 0 512 512" style="enable-background:new 0 0 512 512;" xml:space="preserve">
<path style="fill:#B27214;" d="M242.551,15.745c1.005-0.241,1.979-0.474,3.005-0.619c1.03-0.112,2.11-0.24,3.157-0.2
	c1.067-0.039,2.123,0.094,3.202,0.214c0.545,0.045,1.064,0.196,1.602,0.299c0.537,0.111,1.077,0.226,1.599,0.403
	c0.528,0.161,1.06,0.329,1.583,0.522l1.547,0.656c0.527,0.211,1.001,0.51,1.502,0.775c0.505,0.263,0.985,0.561,1.453,0.881
	c0.973,0.599,1.85,1.321,2.726,2.054c0.84,0.763,1.683,1.54,2.422,2.403c0.744,0.853,1.468,1.735,2.109,2.658
	c0.676,0.909,1.235,1.88,1.797,2.848c0.547,0.976,1.061,1.963,1.515,2.976c0.441,1.014,0.852,2.039,1.226,3.073
	c0.374,1.034,0.696,2.08,0.978,3.136c0.275,1.056,0.531,2.116,0.745,3.184c0.228,1.066,0.37,2.149,0.512,3.235l0.17,1.651
	c0.047,0.588,0.088,1.057,0.11,1.804l-10.209-0.727c0.118-0.762,0.231-1.228,0.366-1.813c0.13-0.556,0.272-1.099,0.418-1.639
	c0.292-1.08,0.631-2.135,0.983-3.186c0.379-1.042,0.788-2.071,1.234-3.087c0.448-1.014,0.906-2.027,1.439-3.006
	c0.524-0.982,1.09-1.947,1.685-2.894c0.586-0.953,1.243-1.868,1.923-2.764c0.696-0.889,1.411-1.759,2.176-2.596
	c0.787-0.817,1.579-1.626,2.444-2.367c0.829-0.771,1.756-1.447,2.672-2.11c0.943-0.639,1.885-1.265,2.898-1.781
	c0.488-0.282,1.006-0.515,1.519-0.751c0.515-0.23,1.01-0.49,1.549-0.664l1.58-0.562l1.609-0.441
	c0.531-0.151,1.081-0.238,1.621-0.334c0.545-0.082,1.07-0.219,1.62-0.249c1.092-0.088,2.159-0.202,3.238-0.146
	c1.067-0.021,2.133,0.114,3.175,0.238c1.044,0.153,2.072,0.39,3.075,0.64c-1.002,0.353-1.988,0.554-2.941,0.922
	c-0.955,0.336-1.893,0.642-2.793,1.041c-0.91,0.354-1.779,0.781-2.631,1.202c-0.84,0.45-1.67,0.88-2.444,1.397l-1.161,0.745
	l-1.096,0.823c-0.716,0.554-1.417,1.116-2.062,1.735l-0.964,0.922l-0.916,0.962c-0.58,0.674-1.158,1.333-1.693,2.038
	c-0.554,0.681-1.045,1.423-1.531,2.158c-0.495,0.73-0.953,1.489-1.394,2.257c-0.848,1.562-1.668,3.145-2.341,4.811
	c-0.7,1.651-1.328,3.345-1.843,5.071c-0.266,0.859-0.526,1.723-0.739,2.586l-0.3,1.286l-0.228,1.14l-0.059,0.296
	c-0.556,2.775-3.257,4.573-6.033,4.017c-2.441-0.49-4.125-2.641-4.117-5.039c0.001-0.24-0.025-0.759-0.05-1.154l-0.107-1.3
	c-0.087-0.875-0.217-1.75-0.332-2.63c-0.23-1.762-0.62-3.491-1.025-5.202c-0.214-0.852-0.455-1.693-0.716-2.525
	c-0.282-0.82-0.537-1.653-0.857-2.454c-0.313-0.802-0.659-1.591-1.027-2.359c-0.348-0.786-0.763-1.525-1.192-2.259l-0.665-1.086
	l-0.717-1.052c-0.519-0.663-1.033-1.35-1.612-1.975c-0.548-0.669-1.203-1.217-1.834-1.826l-1.005-0.851l-1.077-0.781
	c-0.719-0.545-1.517-0.973-2.315-1.447c-0.818-0.428-1.654-0.871-2.542-1.226c-0.882-0.409-1.773-0.705-2.704-1.046
	C244.528,16.293,243.519,16.093,242.551,15.745z"/>
<g>
	<rect x="448.211" y="220.978" style="fill:#808080;" width="12.567" height="28.941"/>
	
		<rect x="420.881" y="237.878" transform="matrix(-0.5145 -0.8575 0.8575 -0.5145 443.8774 739.6425)" style="fill:#808080;" width="20.894" height="12.567"/>
	<rect y="332.936" style="fill:#808080;" width="256.008" height="17.137"/>
</g>
<g>
	<path style="fill:#E0B394;" d="M151.089,226.141c-14.166-0.628-25.442-12.315-25.442-26.63c0-14.715,11.927-26.653,26.653-26.653
		c1.325,0,2.628,0.091,3.907,0.286L151.089,226.141z"/>
	<path style="fill:#E0B394;" d="M389.652,226.141c14.166-0.628,25.453-12.315,25.453-26.63c0-14.715-11.938-26.653-26.664-26.653
		c-1.325,0-2.639,0.103-3.907,0.286L389.652,226.141z"/>
</g>
<path style="fill:#F76B4F;" d="M324.25,322.71H216.508c-39.021,0-70.655,31.633-70.655,70.655v103.711h243.91l5.141-103.711
	C394.905,354.343,363.272,322.71,324.25,322.71z"/>
<path style="fill:#E0B394;" d="M320.091,284.884v63.469c0,27.454-22.26,49.714-49.714,49.714c-27.463,0-49.714-22.26-49.714-49.714
	v-63.469L320.091,284.884L320.091,284.884z"/>
<path style="fill:#E5624C;" d="M260.042,322.71h-43.534c-39.021,0-70.655,31.633-70.655,70.655v103.711h43.534V393.365
	C189.388,354.343,221.021,322.71,260.042,322.71z"/>
<path style="fill:#F7CBA4;" d="M231.818,341.349l-46.896-34.072c-24.782-18.005-38.188-47.779-35.242-78.269l8.134-84.172
	c5.603-57.973,54.319-84.902,112.562-84.902l0,0c58.242,0,106.959,26.929,112.562,84.902l8.134,84.172
	c2.946,30.49-10.459,60.263-35.242,78.269l-46.896,34.072C285.942,358.054,254.81,358.054,231.818,341.349z"/>
<path style="fill:#E8BA97;" d="M178.864,245.596c-0.788,13.332,3.553,26.447,12.144,36.672l49.014,60.229
	c2.559,3.05,5.461,5.609,8.603,7.654c-5.895-2.056-11.561-5.004-16.805-8.808l-46.897-34.067
	c-24.779-18.005-38.18-47.777-35.233-78.268l8.123-84.175c5.552-57.407,53.375-101.345,110.873-102.179
	c-35.415,0.857-75.518,34.239-77.609,69.791L178.864,245.596z"/>
<path style="fill:#E0B394;" d="M193.832,409.027v88.047H145.85V389.24c0-15.4,6.638-29.509,15.8-40.476
	C182.385,361.787,193.832,384.545,193.832,409.027z"/>
<path style="fill:#F7CBA4;" d="M346.147,409.027v88.047h49.125V389.24c0-15.4-6.638-29.509-15.8-40.476
	C358.737,361.787,346.147,384.545,346.147,409.027z"/>
<rect x="221.826" y="427.941" style="fill:#E6E6E6;" width="97.107" height="69.129"/>
<g>
	<rect x="242.961" y="448.528" style="fill:#808080;" width="17.137" height="48.553"/>
	<rect x="280.662" y="448.528" style="fill:#808080;" width="17.136" height="48.553"/>
</g>
<path style="fill:#B27214;" d="M370.704,103.495H170.047c18.964-36.398,57.007-60.869,100.329-60.869
	c29.121,0,55.865,11.059,76.018,29.372C356.218,80.92,364.489,91.568,370.704,103.495z"/>
<path style="fill:#9B6012;" d="M170.047,103.495h50.267c9.463-36.398,28.445-60.869,50.061-60.869
	C227.054,42.627,189.011,67.097,170.047,103.495z"/>
<polygon style="fill:#F76B4F;" points="381.785,103.495 391.85,151.854 148.9,151.854 158.965,103.495 170.047,103.495 
	370.704,103.495 "/>
<polygon style="fill:#E5624C;" points="170.047,103.495 158.965,103.495 148.9,151.854 217.446,151.854 227.511,103.495 "/>
<path style="fill:#EA8249;" d="M512,430.814c0,16.577-6.078,31.725-16.131,43.344c-1.999,2.296-4.158,4.467-6.443,6.478
	c-10.59,9.299-24.174,15.263-39.117,16.28c-1.508,0.103-3.027,0.16-4.57,0.16s-3.062-0.057-4.57-0.16
	c-14.943-1.017-28.527-6.98-39.117-16.28c-2.285-2.011-4.444-4.181-6.443-6.478c-10.053-11.619-16.131-26.767-16.131-43.344
	c0-16.565,6.078-31.714,16.12-43.332c2.011-2.308,4.158-4.478,6.455-6.489c10.59-9.299,24.174-15.263,39.117-16.28
	c1.508-0.103,3.027-0.16,4.57-0.16s3.062,0.057,4.57,0.16c14.943,1.017,28.527,6.98,39.117,16.28
	c2.296,2.011,4.444,4.181,6.455,6.489C505.922,399.099,512,414.249,512,430.814z"/>
<path style="fill:#D36F3D;" d="M410.803,430.814c0-36.594,19.602-66.261,34.936-66.261c-36.594,0-66.261,29.667-66.261,66.261
	s29.667,66.261,66.261,66.261C430.406,497.076,410.803,467.41,410.803,430.814z"/>
<path style="fill:#C16238;" d="M450.309,453.513c17.239,1.097,33.279,8.317,45.56,20.644c-1.999,2.296-4.158,4.467-6.443,6.478
	c-10.568-10.613-24.311-16.885-39.117-17.959v34.239c-1.508,0.103-3.027,0.16-4.57,0.16s-3.062-0.057-4.57-0.16v-34.239
	c-14.806,1.074-28.549,7.346-39.117,17.959c-2.285-2.011-4.444-4.181-6.443-6.478c12.281-12.327,28.321-19.547,45.56-20.644v-45.389
	c-17.239-1.097-33.279-8.317-45.572-20.644c2.011-2.308,4.158-4.478,6.455-6.489c10.579,10.625,24.322,16.885,39.117,17.97v-34.25
	c1.508-0.103,3.027-0.16,4.57-0.16s3.062,0.057,4.57,0.16v34.25c14.795-1.085,28.538-7.346,39.117-17.97
	c2.296,2.011,4.444,4.181,6.455,6.489c-12.293,12.327-28.332,19.547-45.572,20.644L450.309,453.513L450.309,453.513z"/>
<rect x="19.231" y="301.028" style="fill:#CCCCCC;" width="35.035" height="80.952"/>
<g>
	<rect x="19.231" y="371.516" style="fill:#B3B3B3;" width="35.035" height="10.46"/>
	<rect x="43.951" y="301.028" style="fill:#B3B3B3;" width="10.316" height="80.952"/>
</g>
<path style="fill:#C0E7F9;" d="M498.097,287.232c0,24.083-19.513,43.607-43.595,43.607c-9.139,0-17.616-2.81-24.619-7.62
	c-11.47-7.849-18.987-21.044-18.987-35.987c0-24.082,19.524-43.607,43.607-43.607c12.578,0,23.9,5.324,31.851,13.835
	C493.641,265.252,498.097,275.729,498.097,287.232z"/>
<path style="fill:#E6F6FC;" d="M498.097,287.232c0,24.083-19.513,43.607-43.595,43.607c-9.139,0-17.616-2.81-24.619-7.62
	l56.47-65.759C493.641,265.252,498.097,275.729,498.097,287.232z"/>
<path style="fill:#F76B4F;" d="M454.498,337.119c-27.508,0-49.887-22.379-49.887-49.887c0-27.508,22.379-49.887,49.887-49.887
	c27.508,0,49.887,22.379,49.887,49.887S482.005,337.119,454.498,337.119z M454.498,249.913c-20.579,0-37.32,16.741-37.32,37.32
	c0,20.579,16.741,37.32,37.32,37.32c20.578,0,37.32-16.741,37.32-37.32C491.818,266.655,475.077,249.913,454.498,249.913z"/>
<path style="fill:#666666;" d="M448.786,284.948l5.712-15.803l5.712,15.803c1.14,3.154-0.492,6.636-3.648,7.777
	c-3.154,1.14-6.636-0.492-7.777-3.648C448.285,287.691,448.322,286.235,448.786,284.948z"/>
<path style="fill:#F2F2F2;" d="M315.099,274.534c0,0-0.651,1.599-2.022,4.124c-0.331,0.651-0.72,1.337-1.154,2.079
	c-0.514,0.731-1.108,1.474-1.748,2.308c-0.64,0.834-1.371,1.679-2.148,2.616c-0.274,0.354-0.571,0.651-0.891,0.96
	c-0.114,0.114-0.24,0.228-0.366,0.343c-0.446,0.411-0.903,0.845-1.371,1.28c-0.937,0.88-1.954,1.748-3.016,2.662
	c-1.12,0.823-2.319,1.599-3.553,2.445c-0.617,0.423-1.257,0.834-1.908,1.245c-0.651,0.388-1.348,0.708-2.056,1.062
	c-1.394,0.708-2.845,1.394-4.341,2.079c-3.085,1.051-6.295,2.285-9.722,2.799c-3.382,0.788-6.912,0.914-10.43,1.085
	c-3.519-0.171-7.049-0.286-10.43-1.074c-3.427-0.514-6.638-1.748-9.722-2.799c-1.497-0.674-2.947-1.359-4.353-2.068
	c-0.697-0.354-1.394-0.674-2.056-1.062c-0.64-0.423-1.28-0.823-1.896-1.245c-1.234-0.845-2.445-1.634-3.564-2.445
	c-1.062-0.914-2.068-1.794-3.016-2.662c-0.468-0.446-0.914-0.868-1.359-1.291c-0.16-0.149-0.32-0.297-0.48-0.446
	c-0.274-0.274-0.537-0.537-0.765-0.845c-0.743-0.903-1.462-1.737-2.091-2.559c-0.617-0.834-1.222-1.565-1.725-2.296
	c-0.457-0.777-0.88-1.485-1.234-2.136c-1.428-2.605-2.022-4.158-2.022-4.158s1.691,0.514,4.296,1.565
	c0.663,0.251,1.348,0.56,2.114,0.868c0.811,0.24,1.645,0.548,2.536,0.845c0.903,0.297,1.805,0.663,2.765,1.005
	c0.948,0.366,2.022,0.605,3.085,0.925c1.062,0.308,2.125,0.685,3.233,1.017c1.154,0.251,2.308,0.548,3.496,0.834
	c0.594,0.137,1.177,0.308,1.771,0.468c0.605,0.137,1.234,0.217,1.851,0.343c1.245,0.217,2.49,0.468,3.736,0.754
	c2.593,0.24,5.152,0.811,7.826,0.914c2.639,0.343,5.335,0.251,8.008,0.411c2.685-0.16,5.381-0.057,8.02-0.4
	c2.673-0.091,5.232-0.674,7.826-0.914c1.245-0.274,2.491-0.526,3.736-0.743c0.617-0.126,1.245-0.206,1.851-0.343
	c0.594-0.171,1.188-0.331,1.771-0.468c1.188-0.286,2.342-0.594,3.496-0.834c1.12-0.331,2.182-0.708,3.245-1.017
	c1.051-0.32,2.148-0.571,3.062-0.925c0.937-0.32,1.816-0.674,2.708-0.948c0.88-0.297,1.702-0.594,2.513-0.834
	c0.8-0.343,1.508-0.674,2.182-0.937C313.443,275.014,315.099,274.534,315.099,274.534z"/>
<g>
	<path style="fill:#4D4D4D;" d="M307.136,286.621c-0.114,0.114-0.24,0.228-0.366,0.343c-0.446,0.411-0.903,0.845-1.371,1.28
		c-0.937,0.88-1.954,1.748-3.016,2.662c-1.12,0.823-2.319,1.599-3.553,2.445c-0.617,0.423-1.257,0.834-1.908,1.245
		c-0.651,0.388-1.348,0.708-2.056,1.062c-1.394,0.708-2.845,1.394-4.341,2.079c-3.085,1.051-6.295,2.285-9.722,2.799
		c-3.382,0.788-6.912,0.914-10.43,1.085c-3.519-0.171-7.049-0.286-10.43-1.074c-3.427-0.514-6.638-1.748-9.722-2.799
		c-1.497-0.674-2.947-1.359-4.353-2.068c-0.697-0.354-1.394-0.674-2.056-1.062c-0.64-0.423-1.28-0.823-1.896-1.245
		c-1.234-0.845-2.445-1.634-3.564-2.445c-1.062-0.914-2.068-1.794-3.016-2.662c-0.468-0.446-0.914-0.868-1.359-1.291
		c-0.16-0.149-0.32-0.297-0.48-0.446c0.366,0.126,0.731,0.251,1.108,0.377c0.903,0.297,1.805,0.651,2.765,0.994
		c0.948,0.377,2.022,0.617,3.085,0.937c1.062,0.308,2.125,0.674,3.233,1.017c1.154,0.24,2.308,0.548,3.496,0.834
		c0.594,0.137,1.177,0.297,1.771,0.457c0.605,0.137,1.234,0.217,1.851,0.343c1.245,0.217,2.49,0.48,3.736,0.754
		c2.593,0.251,5.152,0.823,7.826,0.914c2.639,0.354,5.335,0.251,8.008,0.423c2.685-0.16,5.381-0.057,8.02-0.411
		c2.673-0.091,5.232-0.663,7.826-0.902c1.245-0.274,2.491-0.537,3.736-0.754c0.617-0.126,1.245-0.206,1.851-0.343
		c0.594-0.16,1.188-0.32,1.771-0.457c1.188-0.286,2.342-0.594,3.496-0.834c1.12-0.343,2.182-0.72,3.245-1.017
		c1.051-0.32,2.148-0.583,3.062-0.925c0.937-0.331,1.816-0.674,2.708-0.96C306.44,286.861,306.794,286.735,307.136,286.621z"/>
	<path style="fill:#4D4D4D;" d="M218.445,229.345c-4.348-0.528-7.496-4.448-7.496-8.828v-13.055c0-4.38,3.146-8.3,7.496-8.828
		c5.212-0.633,9.641,3.418,9.641,8.503v13.705C228.087,225.927,223.657,229.978,218.445,229.345z"/>
</g>
<g>
	<path style="fill:#666666;" d="M301.644,181.433c0,0,0.023-0.227,0.099-0.618c0.088-0.378,0.177-0.976,0.369-1.652
		c0.086-0.35,0.197-0.714,0.323-1.115c0.166-0.407,0.388-0.816,0.625-1.28c0.234-0.466,0.53-0.927,0.841-1.444
		c0.313-0.526,0.687-0.924,1.069-1.431c0.388-0.488,0.826-0.96,1.283-1.467c0.483-0.458,1.008-0.909,1.565-1.363
		c1.091-0.961,2.424-1.655,3.813-2.428c1.437-0.608,2.962-1.267,4.596-1.572c1.618-0.42,3.314-0.52,5.006-0.599
		c1.692,0.078,3.39,0.168,5.008,0.586c1.635,0.302,3.161,0.964,4.599,1.567c1.39,0.771,2.725,1.465,3.817,2.427
		c0.556,0.455,1.082,0.907,1.566,1.363c0.457,0.508,0.892,0.985,1.283,1.469c0.377,0.505,0.769,0.92,1.056,1.425
		c0.288,0.503,0.567,0.953,0.793,1.409c0.225,0.457,0.443,0.859,0.608,1.265c0.15,0.423,0.282,0.805,0.38,1.168
		c0.217,0.7,0.307,1.302,0.391,1.679c0.073,0.39,0.089,0.611,0.089,0.611s-0.236-0.006-0.636-0.045
		c-0.388-0.05-0.992-0.075-1.658-0.173c-0.345-0.035-0.697-0.099-1.084-0.151c-0.412-0.019-0.819-0.077-1.261-0.111
		c-0.867-0.091-1.772-0.227-2.767-0.266c-0.489-0.032-0.963-0.103-1.459-0.144c-0.513-0.007-1.019-0.033-1.522-0.071
		c-0.985-0.128-2.055-0.053-3.049-0.177c-1.045,0.038-2.046-0.09-3.082-0.058c-1.019-0.077-2.05,0.005-3.072-0.067
		c-1.022,0.07-2.053-0.019-3.074,0.055c-1.037-0.037-2.038,0.096-3.086,0.054c-0.995,0.123-2.068,0.047-3.053,0.176
		c-0.503,0.038-1.009,0.065-1.523,0.071c-0.496,0.041-0.968,0.117-1.459,0.146c-1.014,0.055-1.858,0.151-2.704,0.224
		c-0.444,0.034-0.86,0.066-1.245,0.095c-0.41,0.074-0.785,0.157-1.141,0.203c-0.691,0.122-1.296,0.151-1.679,0.2
		C301.872,181.433,301.644,181.433,301.644,181.433z"/>
	<path style="fill:#666666;" d="M199.928,181.433c0,0,0.023-0.227,0.099-0.618c0.088-0.378,0.177-0.976,0.369-1.652
		c0.086-0.35,0.196-0.714,0.323-1.115c0.166-0.407,0.388-0.816,0.625-1.28c0.234-0.466,0.53-0.927,0.841-1.444
		c0.313-0.526,0.687-0.924,1.069-1.431c0.388-0.488,0.826-0.96,1.283-1.467c0.483-0.458,1.008-0.909,1.565-1.363
		c1.091-0.961,2.424-1.655,3.813-2.428c1.437-0.608,2.962-1.267,4.596-1.572c1.618-0.42,3.314-0.52,5.006-0.599
		c1.692,0.078,3.39,0.168,5.008,0.586c1.635,0.302,3.161,0.964,4.599,1.567c1.39,0.771,2.725,1.465,3.817,2.427
		c0.556,0.455,1.082,0.907,1.566,1.363c0.457,0.508,0.892,0.985,1.283,1.469c0.377,0.505,0.769,0.92,1.056,1.425
		c0.288,0.503,0.567,0.953,0.793,1.409c0.225,0.457,0.443,0.859,0.608,1.265c0.15,0.423,0.282,0.805,0.38,1.168
		c0.217,0.7,0.307,1.302,0.391,1.679c0.073,0.39,0.089,0.611,0.089,0.611s-0.236-0.006-0.636-0.045
		c-0.388-0.05-0.992-0.075-1.658-0.173c-0.345-0.035-0.697-0.099-1.084-0.151c-0.412-0.019-0.819-0.077-1.261-0.111
		c-0.867-0.091-1.772-0.227-2.767-0.266c-0.489-0.032-0.963-0.103-1.459-0.144c-0.513-0.007-1.019-0.033-1.522-0.071
		c-0.985-0.128-2.055-0.053-3.049-0.177c-1.045,0.038-2.046-0.09-3.082-0.058c-1.019-0.077-2.05,0.005-3.072-0.067
		c-1.022,0.07-2.053-0.019-3.074,0.055c-1.037-0.037-2.038,0.096-3.086,0.054c-0.995,0.123-2.068,0.047-3.053,0.176
		c-0.503,0.038-1.009,0.065-1.523,0.071c-0.496,0.041-0.968,0.117-1.459,0.146c-1.014,0.055-1.858,0.151-2.704,0.224
		c-0.444,0.034-0.86,0.066-1.245,0.095c-0.41,0.074-0.785,0.157-1.141,0.203c-0.691,0.122-1.296,0.151-1.679,0.2
		C200.157,181.433,199.928,181.433,199.928,181.433z"/>
</g>
<path style="fill:#4D4D4D;" d="M320.16,229.345c-4.348-0.528-7.496-4.448-7.496-8.828v-13.055c0-4.38,3.146-8.3,7.496-8.828
	c5.212-0.633,9.641,3.418,9.641,8.503v13.705C329.802,225.927,325.372,229.978,320.16,229.345z"/>
<path style="fill:#E0B394;" d="M283.514,194.571v40.556c0,7.256-5.882,13.138-13.138,13.138l0,0
	c-7.256,0-13.138-5.882-13.138-13.138v-40.556"/>
<rect x="52.552" y="283.618" style="fill:#CCCCCC;" width="35.035" height="115.763"/>
<rect x="52.552" y="386.151" style="fill:#B3B3B3;" width="35.035" height="13.225"/>
<g>
</g>
<g>
</g>
<g>
</g>
<g>
</g>
<g>
</g>
<g>
</g>
<g>
</g>
<g>
</g>
<g>
</g>
<g>
</g>
<g>
</g>
<g>
</g>
<g>
</g>
<g>
</g>
<g>
</g>
</svg>
