<?xml version="1.0" encoding="iso-8859-1"?>
<!-- Generator: Adobe Illustrator 19.0.0, SVG Export Plug-In . SVG Version: 6.00 Build 0)  -->
<svg version="1.1" id="Layer_1" xmlns="http://www.w3.org/2000/svg" xmlns:xlink="http://www.w3.org/1999/xlink" x="0px" y="0px"
	 viewBox="0 0 511.999 511.999" style="enable-background:new 0 0 511.999 511.999;" xml:space="preserve">
<path style="fill:#4D4D4D;" d="M228.713,327.742c0,61.184-48.044,111.157-108.474,114.215c-1.941,0.106-3.906,0.153-5.882,0.153
	C51.208,442.11,0,390.902,0,327.742c0-63.148,51.208-114.356,114.356-114.356c1.976,0,3.941,0.047,5.882,0.153
	C180.669,216.597,228.713,266.57,228.713,327.742z"/>
<path style="fill:#666666;" d="M228.713,327.742c0,61.184-48.044,111.157-108.474,114.215
	c-60.419-3.059-108.474-53.031-108.474-114.215c0-61.172,48.055-111.145,108.474-114.203
	C180.669,216.597,228.713,266.57,228.713,327.742z"/>
<circle style="fill:#CCCCCC;" cx="114.356" cy="327.751" r="59.396"/>
<path style="fill:#B3B3B3;" d="M72.218,327.748c0-29.872,22.055-54.585,50.769-58.764c-2.817-0.411-5.696-0.632-8.626-0.632
	c-32.803,0-59.396,26.592-59.396,59.396s26.592,59.396,59.396,59.396c2.93,0,5.809-0.221,8.626-0.631
	C94.274,382.333,72.218,357.62,72.218,327.748z"/>
<path style="fill:#CCCCCC;" d="M446.326,462.451l2.815,27.358c6.737-4.284,12.366-10.411,15.985-18.007
	c6.357-13.341,5.41-28.053-1.023-39.909c-9.197-16.945-10.939-36.938-3.781-54.839l19.217-48.053
	c3.764-9.413,9.93-17.593,17.55-24.278c5.022-4.407,9.109-10.028,11.76-16.656c9.177-22.948-2.387-49.041-25.789-57.555
	l2.848,27.674c1.098,10.662-6.656,20.194-17.318,21.291l0,0c-10.662,1.098-20.194-6.656-21.291-17.318l-2.815-27.358
	c-6.737,4.284-12.366,10.411-15.985,18.007c-6.357,13.341-5.41,28.053,1.023,39.909c9.197,16.945,10.939,36.938,3.781,54.84
	l-12.139,30.354l-7.078,17.699c-3.764,9.413-9.93,17.593-17.549,24.278c-5.022,4.406-9.109,10.027-11.76,16.656
	c-4.893,12.233-3.89,25.361,1.658,36.242c5.665,11.113,22.56,6.045,21.282-6.363l0,0c-1.098-10.662,6.656-20.194,17.318-21.291
	C425.035,445.133,442.097,443.79,446.326,462.451"/>
<g>
	<path style="fill:#E0B394;" d="M146.759,221.013c-14.587-0.647-26.198-12.681-26.198-27.422c0-15.152,12.281-27.445,27.445-27.445
		c1.365,0,2.706,0.094,4.023,0.294L146.759,221.013z"/>
	<path style="fill:#E0B394;" d="M394.764,221.013c14.587-0.647,26.21-12.681,26.21-27.422c0-15.152-12.293-27.445-27.457-27.445
		c-1.365,0-2.717,0.106-4.023,0.294L394.764,221.013z"/>
</g>
<path style="fill:#8DA558;" d="M326.243,320.453H215.299c-40.181,0-72.755,32.573-72.755,72.755v106.793h256.452V393.208
	C398.998,353.026,366.424,320.453,326.243,320.453z"/>
<rect x="224.889" y="298.659" style="fill:#5D9EBA;" width="91.758" height="114.274"/>
<path style="fill:#798C46;" d="M260.127,320.453h-44.827c-40.181,0-72.755,32.573-72.755,72.755v106.793h44.827V393.208
	C187.372,353.026,219.946,320.453,260.127,320.453z"/>
<path style="fill:#F7CBA4;" d="M231.064,339.646l-48.289-35.084c-25.518-18.54-39.323-49.199-36.289-80.595l8.376-86.674
	c5.769-59.696,55.934-105.246,115.907-105.246l0,0c59.973,0,110.138,45.551,115.907,105.246l8.376,86.674
	c3.034,31.396-10.77,62.054-36.289,80.595l-48.289,35.084C286.797,356.847,254.739,356.847,231.064,339.646z"/>
<path style="fill:#E8BA97;" d="M176.536,241.047c-0.812,13.728,3.659,27.233,12.505,37.762l50.47,62.019
	c2.635,3.141,5.623,5.776,8.858,7.882c-6.07-2.117-11.905-5.153-17.305-9.07l-48.291-35.08
	c-25.516-18.54-39.315-49.196-36.28-80.594l8.364-86.676c5.717-59.113,54.961-104.357,114.168-105.216
	c-36.468,0.882-77.763,35.256-79.915,71.865L176.536,241.047z"/>
<path style="fill:#8DA558;" d="M390.462,146.958c-49.443-49.432-222.725-16.669-239.394,0l5.141-86.476
	c0-10.129,6.694-19.022,16.422-21.822l51.455-14.846l35.539-10.246c7.282-2.094,15.011-2.094,22.292,0l86.982,25.092
	c9.729,2.8,16.422,11.693,16.422,21.822L390.462,146.958z"/>
<g>
	<path style="fill:#798C46;" d="M207.581,109.572c-20.575,8.258-39.844,20.716-56.514,37.385l5.141-86.476
		c0-10.129,6.694-19.022,16.422-21.822l51.455-14.846C215.263,43.6,206.17,73.245,207.581,109.572z"/>
	<path style="fill:#798C46;" d="M390.462,146.958l0.447,7.494l-0.282,0.012c-76.488-33.092-163.247-33.092-239.724,0l-0.282-0.012
		l0.447-7.494C217.169,80.857,324.349,80.857,390.462,146.958z"/>
</g>
<g>
	<path style="fill:#5D9EBA;" d="M270.765,67.407c-4.874,0-8.823-3.95-8.823-8.823V42.115c0-4.873,3.949-8.823,8.823-8.823
		c4.874,0,8.823,3.95,8.823,8.823v16.469C279.588,63.457,275.637,67.407,270.765,67.407z"/>
	<path style="fill:#5D9EBA;" d="M398.602,389.836v110.165h-49.416v-89.95c0-25.011,12.873-48.272,34.056-61.578l0.222-0.187
		C392.918,359.525,398.602,374.021,398.602,389.836z"/>
</g>
<path style="fill:#508DA3;" d="M192.354,410.05V500h-49.416V389.835c0-15.814,5.684-30.311,15.138-41.55l0.222,0.187
	C179.492,361.778,192.354,385.039,192.354,410.05z"/>
<rect x="224.889" y="464.106" style="fill:#798C46;" width="91.758" height="35.896"/>
<g>
	<path style="fill:#E6E6E6;" d="M473.137,75.589h-33.546l-16.773,29.051l16.773,29.051h33.546l16.773-29.051L473.137,75.589z
		 M456.364,116.403c-6.497,0-11.764-5.267-11.764-11.764c0-6.497,5.267-11.764,11.764-11.764s11.764,5.267,11.764,11.764
		C468.128,111.137,462.861,116.403,456.364,116.403z"/>
	<path style="fill:#E6E6E6;" d="M81.036,131.548H47.491l-16.773,29.051l16.773,29.051h33.546l16.773-29.051L81.036,131.548z
		 M64.264,172.363c-6.497,0-11.764-5.267-11.764-11.764c0-6.497,5.267-11.764,11.764-11.764c6.497,0,11.764,5.267,11.764,11.764
		C76.027,167.096,70.761,172.363,64.264,172.363z"/>
</g>
<g>
	<circle style="fill:#4D4D4D;" cx="114.356" cy="291.013" r="9.558"/>
	<circle style="fill:#4D4D4D;" cx="114.356" cy="364.49" r="9.558"/>
	<circle style="fill:#4D4D4D;" cx="151.095" cy="327.751" r="9.558"/>
	<circle style="fill:#4D4D4D;" cx="77.623" cy="327.751" r="9.558"/>
</g>
<path style="fill:#F2F2F2;" d="M316.817,273.196c0,0-0.671,1.647-2.082,4.247c-0.341,0.671-0.741,1.376-1.188,2.141
	c-0.529,0.753-1.141,1.518-1.8,2.376c-0.659,0.859-1.412,1.729-2.212,2.694c-0.282,0.365-0.588,0.671-0.918,0.988
	c-0.118,0.118-0.247,0.235-0.376,0.353c-0.459,0.423-0.929,0.871-1.412,1.318c-0.965,0.906-2.012,1.8-3.106,2.741
	c-1.153,0.847-2.388,1.647-3.659,2.517c-0.635,0.435-1.294,0.859-1.965,1.282c-0.671,0.4-1.388,0.729-2.118,1.094
	c-1.435,0.729-2.929,1.435-4.47,2.141c-3.176,1.082-6.482,2.353-10.011,2.882c-3.482,0.812-7.117,0.941-10.74,1.118
	c-3.623-0.176-7.258-0.294-10.74-1.106c-3.529-0.529-6.835-1.8-10.011-2.882c-1.541-0.694-3.035-1.4-4.482-2.129
	c-0.718-0.365-1.435-0.694-2.118-1.094c-0.659-0.435-1.318-0.847-1.953-1.282c-1.271-0.871-2.517-1.682-3.67-2.517
	c-1.094-0.941-2.129-1.847-3.106-2.741c-0.482-0.459-0.941-0.894-1.4-1.329c-0.165-0.153-0.329-0.306-0.494-0.459
	c-0.282-0.282-0.553-0.553-0.788-0.871c-0.765-0.929-1.506-1.788-2.153-2.635c-0.635-0.859-1.259-1.612-1.776-2.365
	c-0.471-0.8-0.906-1.529-1.271-2.2c-1.47-2.682-2.082-4.282-2.082-4.282s1.741,0.529,4.423,1.612
	c0.682,0.259,1.388,0.576,2.176,0.894c0.835,0.247,1.694,0.565,2.612,0.871c0.929,0.306,1.859,0.682,2.847,1.035
	c0.976,0.376,2.082,0.624,3.176,0.953c1.094,0.318,2.188,0.706,3.329,1.047c1.188,0.259,2.376,0.565,3.6,0.859
	c0.612,0.141,1.212,0.318,1.823,0.482c0.623,0.141,1.271,0.224,1.906,0.353c1.282,0.224,2.564,0.482,3.847,0.776
	c2.67,0.247,5.305,0.835,8.058,0.941c2.717,0.353,5.494,0.259,8.246,0.424c2.764-0.165,5.541-0.059,8.258-0.412
	c2.753-0.094,5.388-0.694,8.058-0.941c1.282-0.282,2.565-0.541,3.847-0.765c0.635-0.129,1.282-0.212,1.906-0.353
	c0.612-0.176,1.223-0.341,1.823-0.482c1.223-0.294,2.412-0.612,3.6-0.859c1.153-0.341,2.247-0.729,3.341-1.047
	c1.082-0.329,2.212-0.588,3.153-0.953c0.965-0.329,1.87-0.694,2.788-0.976c0.906-0.306,1.753-0.612,2.588-0.859
	c0.823-0.353,1.553-0.694,2.247-0.965C315.111,273.691,316.817,273.196,316.817,273.196z"/>
<g>
	<path style="fill:#4D4D4D;" d="M308.617,285.643c-0.118,0.118-0.247,0.235-0.376,0.353c-0.459,0.423-0.929,0.871-1.412,1.318
		c-0.965,0.906-2.012,1.8-3.106,2.741c-1.153,0.847-2.388,1.647-3.659,2.517c-0.635,0.435-1.294,0.859-1.965,1.282
		c-0.671,0.4-1.388,0.729-2.118,1.094c-1.435,0.729-2.929,1.435-4.47,2.141c-3.176,1.082-6.482,2.353-10.011,2.882
		c-3.482,0.812-7.117,0.941-10.74,1.118c-3.623-0.176-7.258-0.294-10.74-1.106c-3.529-0.529-6.835-1.8-10.011-2.882
		c-1.541-0.694-3.035-1.4-4.482-2.129c-0.718-0.365-1.435-0.694-2.118-1.094c-0.659-0.435-1.318-0.847-1.953-1.282
		c-1.271-0.871-2.517-1.682-3.67-2.517c-1.094-0.941-2.129-1.847-3.106-2.741c-0.482-0.459-0.941-0.894-1.4-1.329
		c-0.165-0.153-0.329-0.306-0.494-0.459c0.376,0.129,0.753,0.259,1.141,0.388c0.929,0.306,1.859,0.671,2.847,1.023
		c0.976,0.388,2.082,0.635,3.176,0.965c1.094,0.318,2.188,0.694,3.329,1.047c1.188,0.247,2.376,0.565,3.6,0.859
		c0.612,0.141,1.212,0.306,1.823,0.471c0.623,0.141,1.271,0.224,1.906,0.353c1.282,0.224,2.564,0.494,3.847,0.776
		c2.67,0.259,5.305,0.847,8.058,0.941c2.717,0.365,5.494,0.259,8.246,0.435c2.764-0.165,5.541-0.059,8.258-0.423
		c2.753-0.094,5.388-0.682,8.058-0.929c1.282-0.282,2.565-0.553,3.847-0.776c0.635-0.129,1.282-0.212,1.906-0.353
		c0.612-0.165,1.223-0.329,1.823-0.471c1.223-0.294,2.412-0.612,3.6-0.859c1.153-0.353,2.247-0.741,3.341-1.047
		c1.082-0.329,2.212-0.6,3.153-0.953c0.965-0.341,1.87-0.694,2.788-0.988C307.9,285.89,308.264,285.76,308.617,285.643z"/>
	<path style="fill:#4D4D4D;" d="M218.396,233.79c-4.873,0-8.823-3.95-8.823-8.823v-14.112c0-4.873,3.95-8.823,8.823-8.823
		c4.873,0,8.823,3.95,8.823,8.823v14.112C227.219,229.84,223.268,233.79,218.396,233.79z"/>
</g>
<g>
	<path style="fill:#666666;" d="M302.962,176.74c0,0,0.024-0.234,0.102-0.636c0.091-0.389,0.182-1.005,0.38-1.701
		c0.088-0.36,0.202-0.735,0.333-1.148c0.171-0.419,0.4-0.84,0.643-1.318c0.241-0.48,0.546-0.954,0.866-1.487
		c0.322-0.541,0.707-0.952,1.101-1.474c0.4-0.502,0.851-0.988,1.321-1.51c0.498-0.472,1.038-0.936,1.612-1.403
		c1.123-0.989,2.496-1.705,3.927-2.5c1.48-0.626,3.05-1.305,4.733-1.619c1.666-0.433,3.413-0.535,5.155-0.616
		c1.742,0.08,3.49,0.173,5.157,0.603c1.683,0.311,3.255,0.993,4.736,1.614c1.432,0.794,2.806,1.508,3.93,2.499
		c0.573,0.468,1.114,0.934,1.613,1.403c0.471,0.523,0.919,1.014,1.321,1.513c0.388,0.52,0.792,0.947,1.087,1.467
		c0.296,0.518,0.583,0.981,0.816,1.45c0.232,0.471,0.456,0.885,0.626,1.302c0.154,0.435,0.291,0.829,0.392,1.202
		c0.224,0.721,0.316,1.341,0.402,1.729c0.075,0.401,0.092,0.629,0.092,0.629s-0.243-0.006-0.655-0.046
		c-0.4-0.052-1.021-0.078-1.707-0.178c-0.355-0.036-0.718-0.102-1.116-0.155c-0.425-0.02-0.843-0.079-1.299-0.114
		c-0.893-0.094-1.825-0.234-2.849-0.274c-0.504-0.033-0.992-0.106-1.502-0.148c-0.528-0.007-1.049-0.034-1.567-0.073
		c-1.014-0.132-2.116-0.054-3.14-0.182c-1.076,0.039-2.107-0.093-3.174-0.06c-1.049-0.079-2.11,0.005-3.163-0.069
		c-1.053,0.072-2.114-0.02-3.166,0.056c-1.068-0.038-2.099,0.099-3.177,0.055c-1.025,0.127-2.129,0.048-3.143,0.181
		c-0.518,0.039-1.039,0.067-1.568,0.073c-0.511,0.042-0.996,0.12-1.502,0.151c-1.045,0.056-1.913,0.155-2.785,0.231
		c-0.458,0.035-0.886,0.068-1.282,0.098c-0.422,0.076-0.808,0.161-1.175,0.209c-0.712,0.126-1.334,0.155-1.729,0.206
		C303.198,176.74,302.962,176.74,302.962,176.74z"/>
	<path style="fill:#666666;" d="M198.224,176.74c0,0,0.024-0.234,0.102-0.636c0.091-0.389,0.182-1.005,0.38-1.701
		c0.088-0.36,0.202-0.735,0.333-1.148c0.171-0.419,0.4-0.84,0.643-1.318c0.241-0.48,0.546-0.954,0.866-1.487
		c0.322-0.541,0.707-0.952,1.101-1.474c0.4-0.502,0.851-0.988,1.321-1.51c0.498-0.472,1.038-0.936,1.612-1.403
		c1.123-0.989,2.496-1.705,3.927-2.5c1.48-0.626,3.05-1.305,4.733-1.619c1.666-0.433,3.413-0.535,5.155-0.616
		c1.742,0.08,3.49,0.173,5.157,0.603c1.683,0.311,3.255,0.993,4.736,1.614c1.432,0.794,2.806,1.508,3.93,2.499
		c0.573,0.468,1.114,0.934,1.613,1.403c0.471,0.523,0.919,1.014,1.321,1.513c0.388,0.52,0.792,0.947,1.087,1.467
		c0.296,0.518,0.583,0.981,0.816,1.45c0.232,0.471,0.456,0.885,0.626,1.302c0.154,0.435,0.291,0.829,0.392,1.202
		c0.224,0.721,0.316,1.341,0.402,1.729c0.075,0.401,0.092,0.629,0.092,0.629s-0.244-0.006-0.655-0.046
		c-0.4-0.052-1.021-0.078-1.707-0.178c-0.355-0.036-0.718-0.102-1.116-0.155c-0.425-0.02-0.843-0.079-1.299-0.114
		c-0.893-0.094-1.825-0.234-2.849-0.274c-0.503-0.033-0.992-0.106-1.502-0.148c-0.528-0.007-1.049-0.034-1.567-0.073
		c-1.014-0.132-2.116-0.054-3.14-0.182c-1.076,0.039-2.107-0.093-3.174-0.06c-1.049-0.079-2.11,0.005-3.163-0.069
		c-1.053,0.072-2.114-0.02-3.166,0.056c-1.068-0.038-2.099,0.099-3.177,0.055c-1.025,0.127-2.129,0.048-3.143,0.181
		c-0.518,0.039-1.039,0.067-1.568,0.073c-0.511,0.042-0.996,0.12-1.502,0.151c-1.045,0.056-1.913,0.155-2.785,0.231
		c-0.458,0.035-0.886,0.068-1.282,0.098c-0.422,0.076-0.808,0.161-1.175,0.209c-0.712,0.126-1.334,0.155-1.729,0.206
		C198.46,176.74,198.224,176.74,198.224,176.74z"/>
</g>
<path style="fill:#4D4D4D;" d="M323.134,233.79c-4.873,0-8.823-3.95-8.823-8.823v-14.112c0-4.873,3.95-8.823,8.823-8.823
	s8.823,3.95,8.823,8.823v14.112C331.957,229.84,328.006,233.79,323.134,233.79z"/>
<path style="fill:#E0B394;" d="M284.293,197.915v41.762c0,7.471-6.057,13.528-13.528,13.528l0,0
	c-7.471,0-13.528-6.057-13.528-13.528v-41.762"/>
<g>
</g>
<g>
</g>
<g>
</g>
<g>
</g>
<g>
</g>
<g>
</g>
<g>
</g>
<g>
</g>
<g>
</g>
<g>
</g>
<g>
</g>
<g>
</g>
<g>
</g>
<g>
</g>
<g>
</g>
</svg>
