<?xml version="1.0" encoding="iso-8859-1"?>
<!-- Generator: Adobe Illustrator 19.0.0, SVG Export Plug-In . SVG Version: 6.00 Build 0)  -->
<svg version="1.1" id="Layer_1" xmlns="http://www.w3.org/2000/svg" xmlns:xlink="http://www.w3.org/1999/xlink" x="0px" y="0px"
	 viewBox="0 0 512 512" style="enable-background:new 0 0 512 512;" xml:space="preserve">
<path style="fill:#999999;" d="M50.815,512c-3.598,0-6.517-2.917-6.517-6.517v-52.672c0-3.6,2.918-6.517,6.517-6.517
	c3.598,0,6.517,2.917,6.517,6.517v52.672C57.332,509.083,54.415,512,50.815,512z"/>
<path style="fill:#F9C573;" d="M485.059,355.634c12.365-4.288,18.914-17.787,14.626-30.153
	c-4.288-12.366-17.787-18.914-30.153-14.626l-9.727,29.11L485.059,355.634z"/>
<polygon style="fill:#999999;" points="448.704,449.603 421.838,458.919 385.502,397.531 412.368,388.214 "/>
<polygon style="fill:#EDDD83;" points="299.508,351.904 425.572,307.975 462.225,342.227 451.968,384.097 337.423,424.376 "/>
<path style="fill:#CCCCCC;" d="M92.282,334.867c0-22.903-18.566-41.469-41.469-41.469S9.344,311.964,9.344,334.867
	c0,13.623,6.57,25.711,16.713,33.27h-0.009v73.477c0,13.679,11.089,24.769,24.769,24.769l0,0c13.68,0,24.769-11.089,24.769-24.769
	v-73.488C85.719,360.566,92.282,348.483,92.282,334.867z"/>
<path style="fill:#B3B3B3;" d="M50.813,466.386c-13.673,0-24.763-11.09-24.763-24.775V368.14
	c-10.142-7.559-16.706-19.645-16.706-33.27c0-22.903,18.566-41.469,41.469-41.469c-9.028,0-16.351,18.566-16.351,41.469
	c0,13.626,2.583,25.711,6.588,33.27v73.472C41.05,455.296,45.422,466.386,50.813,466.386z"/>
<g>
	<path style="fill:#E0B394;" d="M115.373,227.472c-14.692-0.652-26.386-12.773-26.386-27.618c0-15.261,12.37-27.642,27.642-27.642
		c1.374,0,2.725,0.095,4.052,0.296L115.373,227.472z"/>
	<path style="fill:#E0B394;" d="M362.79,227.472c14.692-0.652,26.398-12.773,26.398-27.618c0-15.261-12.382-27.642-27.654-27.642
		c-1.374,0-2.737,0.107-4.052,0.296L362.79,227.472z"/>
</g>
<path style="fill:#9691C6;" d="M294.962,327.626H183.222c-40.469,0-73.277,32.807-73.277,73.277v107.56h258.294v-107.56
	C368.239,360.432,335.431,327.626,294.962,327.626z"/>
<path style="fill:#8C8ABC;" d="M228.371,327.626h-45.149c-40.469,0-73.277,32.807-73.277,73.277v107.56h45.149v-107.56
	C155.094,360.432,187.902,327.626,228.371,327.626z"/>
<rect x="230.201" y="327.63" style="fill:#7F7DAD;" width="17.773" height="180.841"/>
<path style="fill:#E0739B;" d="M290.991,334.687l-38.648,22.314c-2.648-4.577-7.586-7.665-13.255-7.665s-10.605,3.088-13.255,7.665
	l-38.648-22.314v59.931l38.648-22.313c2.648,4.577,7.585,7.665,13.255,7.665c5.668,0,10.605-3.087,13.255-7.665l38.648,22.313
	V334.687z"/>
<path style="fill:#F7CBA4;" d="M199.1,346.955l-48.636-35.336c-25.701-18.673-39.605-49.552-36.55-81.174l8.436-87.296
	c5.81-60.124,56.335-106.002,116.739-106.002l0,0c60.404,0,110.929,45.878,116.739,106.002l8.436,87.296
	c3.056,31.622-10.847,62.5-36.55,81.174l-48.636,35.336C255.232,364.28,222.944,364.28,199.1,346.955z"/>
<path style="fill:#E8BA97;" d="M144.18,247.649c-0.818,13.827,3.685,27.429,12.595,38.033l50.833,62.464
	c2.654,3.164,5.664,5.818,8.922,7.938c-6.114-2.133-11.991-5.19-17.429-9.135l-48.637-35.332
	c-25.699-18.673-39.597-49.55-36.54-81.173l8.424-87.299c5.758-59.538,55.355-105.107,114.988-105.972
	c-36.73,0.889-78.321,35.509-80.489,72.382L144.18,247.649z"/>
<path style="fill:#E0B394;" d="M239.089,327.421c-6.186,0-12.37-0.592-18.513-1.78c-2.57-0.496-4.251-2.982-3.755-5.552
	c0.498-2.57,2.988-4.252,5.553-3.754c11.103,2.145,22.36,2.145,33.463-0.006c2.565-0.492,5.056,1.182,5.553,3.752
	s-1.182,5.057-3.752,5.555C251.485,326.826,245.286,327.421,239.089,327.421z"/>
<path style="fill:#E2AF66;" d="M330.555,81.019c13.886,17.263,22.998,38.614,25.272,62.133c-36.114,0-58.886-51.517-58.886-51.517
	C305.306,84.23,319.429,85.806,330.555,81.019z"/>
<path style="fill:#F9C573;" d="M365.874,74.052c-61.611,0-78.199,53.318-114.929,67.536s-73.46-31.991-73.46-31.991
	c-60.427,0-58.507,68.46-58.507,68.46c-14.182-19.751-22.749-64.491-13.306-94.988C130.092,4.147,232.427,25.9,232.427,25.9
	c3.744-3.874,8.009-7.666,12.855-11.102C257.225,6.315,272.581,0,291.822,0c0.012,0,0.012,0,0.012,0
	C350.472,0.012,365.874,74.052,365.874,74.052z"/>
<g>
	<path style="fill:#E2AF66;" d="M291.822,0c-1.031,0.201-66.611,13.46-72.358,90.652c0,0-28.993-20.047,8.886-60.296
		c0.012-0.012,0.024-0.024,0.047-0.047c1.09-1.149,2.227-2.322,3.436-3.519c3.863-3.827,8.318-7.82,13.448-11.991
		C257.225,6.315,272.581,0,291.822,0z"/>
	<path style="fill:#E2AF66;" d="M118.991,178.055c-14.182-19.751-22.749-64.502-13.318-94.988
		c9.799-31.647,32.121-47.109,55.344-54.265c-20.735,15.9-20.45,43.863,16.481,80.794
		C117.071,109.595,118.991,178.055,118.991,178.055z"/>
</g>
<path style="fill:#E0739B;" d="M90.732,346.126c-2.5,8.91-7.915,16.611-15.142,22.002v73.483c0,6.848-2.773,13.033-7.251,17.524
	c-4.491,4.479-10.687,7.251-17.524,7.251c-13.673,0-24.763-11.09-24.763-24.775V368.14c-7.239-5.391-12.654-13.092-15.154-22.014
	H90.732z"/>
<polygon style="fill:#D8C671;" points="502.656,400.071 451.968,384.097 425.572,307.975 455.491,264.05 "/>
<path style="fill:#E0739B;" d="M421.549,141.148c-1.759,0-3.537-0.521-5.088-1.607l-11.848-8.294
	c-4.021-2.814-4.999-8.355-2.185-12.376c2.814-4.021,8.357-4.999,12.376-2.184l11.848,8.294c4.021,2.814,4.999,8.355,2.185,12.376
	C427.108,139.826,424.351,141.148,421.549,141.148z"/>
<path style="fill:#EDDD83;" d="M43.586,235.935c-1.759,0-3.537-0.521-5.088-1.607l-11.848-8.294
	c-4.021-2.814-4.999-8.355-2.185-12.376c2.814-4.021,8.357-4.999,12.376-2.184l11.848,8.294c4.021,2.814,4.999,8.355,2.185,12.376
	C49.146,234.613,46.389,235.935,43.586,235.935z"/>
<g>
	<path style="fill:#9691C6;" d="M439.981,210.345c-3.938,0-7.536-2.637-8.586-6.624l-3.685-13.985
		c-1.251-4.745,1.582-9.607,6.328-10.858c4.749-1.249,9.607,1.583,10.857,6.328l3.685,13.985c1.251,4.745-1.582,9.607-6.328,10.858
		C441.492,210.249,440.729,210.345,439.981,210.345z"/>
	<path style="fill:#9691C6;" d="M33.967,153.16c-2.459,0-4.906-1.014-6.662-3.002c-3.25-3.678-2.903-9.293,0.775-12.543
		l10.838-9.577c3.677-3.25,9.291-2.903,12.543,0.776c3.25,3.678,2.903,9.294-0.775,12.543l-10.838,9.577
		C38.158,152.427,36.057,153.16,33.967,153.16z"/>
</g>
<path style="fill:#EDDD83;" d="M466.494,105.602c-2.459,0-4.906-1.014-6.662-3.002c-3.25-3.678-2.903-9.294,0.774-12.543
	l10.836-9.577c3.678-3.25,9.294-2.904,12.544,0.775c3.25,3.678,2.903,9.294-0.774,12.543l-10.836,9.577
	C470.686,104.868,468.585,105.602,466.494,105.602z"/>
<path style="fill:#E0739B;" d="M92.919,36.534c-3.647,0-7.066-2.263-8.367-5.895l-4.873-13.616
	c-1.654-4.621,0.751-9.707,5.372-11.361c4.62-1.654,9.706,0.751,11.361,5.372l4.873,13.616c1.654,4.621-0.751,9.707-5.372,11.361
	C94.924,36.366,93.912,36.534,92.919,36.534z"/>
<path style="fill:#F2F2F2;" d="M301.351,270.552c0,0-0.906,2.226-2.815,5.742c-0.461,0.906-1.002,1.861-1.607,2.895
	c-0.716,1.018-1.543,2.052-2.434,3.213c-0.891,1.161-1.909,2.338-2.991,3.642c-0.382,0.493-0.795,0.906-1.241,1.337
	c-0.159,0.159-0.334,0.318-0.509,0.477c-0.621,0.572-1.257,1.177-1.909,1.781c-1.305,1.225-2.719,2.434-4.199,3.706
	c-1.559,1.146-3.229,2.226-4.947,3.404c-0.859,0.589-1.75,1.161-2.656,1.733c-0.906,0.54-1.877,0.986-2.863,1.479
	c-1.941,0.986-3.96,1.941-6.044,2.895c-4.294,1.463-8.763,3.181-13.536,3.897c-4.707,1.097-9.622,1.273-14.521,1.511
	c-4.898-0.238-9.813-0.398-14.521-1.495c-4.771-0.716-9.241-2.434-13.536-3.897c-2.084-0.938-4.103-1.892-6.059-2.879
	c-0.97-0.493-1.941-0.938-2.863-1.479c-0.891-0.589-1.781-1.145-2.64-1.733c-1.718-1.177-3.404-2.275-4.962-3.404
	c-1.479-1.273-2.879-2.498-4.199-3.706c-0.652-0.621-1.273-1.209-1.892-1.797c-0.223-0.207-0.445-0.414-0.668-0.621
	c-0.382-0.382-0.748-0.748-1.065-1.177c-1.034-1.256-2.036-2.417-2.911-3.563c-0.859-1.161-1.701-2.179-2.402-3.197
	c-0.636-1.082-1.225-2.068-1.718-2.974c-1.988-3.627-2.815-5.789-2.815-5.789s2.354,0.716,5.98,2.179
	c0.923,0.35,1.877,0.78,2.942,1.209c1.129,0.334,2.29,0.763,3.531,1.177c1.257,0.413,2.513,0.923,3.85,1.399
	c1.32,0.509,2.815,0.844,4.294,1.288c1.479,0.429,2.959,0.954,4.501,1.416c1.607,0.35,3.213,0.763,4.867,1.161
	c0.827,0.191,1.639,0.429,2.466,0.652c0.842,0.191,1.718,0.302,2.577,0.477c1.733,0.302,3.467,0.652,5.201,1.05
	c3.61,0.334,7.173,1.129,10.895,1.273c3.674,0.477,7.428,0.35,11.149,0.572c3.738-0.223,7.492-0.079,11.166-0.557
	c3.722-0.127,7.284-0.938,10.895-1.273c1.733-0.382,3.467-0.732,5.201-1.034c0.859-0.175,1.733-0.287,2.577-0.477
	c0.827-0.238,1.654-0.461,2.466-0.652c1.654-0.398,3.261-0.827,4.867-1.161c1.559-0.461,3.038-0.986,4.517-1.416
	c1.463-0.446,2.991-0.795,4.263-1.288c1.305-0.445,2.528-0.938,3.769-1.32c1.225-0.414,2.37-0.827,3.499-1.161
	c1.114-0.478,2.1-0.938,3.038-1.305C299.045,271.22,301.351,270.552,301.351,270.552z"/>
<g>
	<path style="fill:#4D4D4D;" d="M290.265,287.379c-0.159,0.159-0.334,0.318-0.509,0.477c-0.621,0.572-1.257,1.177-1.909,1.781
		c-1.305,1.225-2.719,2.434-4.199,3.706c-1.559,1.146-3.229,2.226-4.947,3.404c-0.859,0.589-1.75,1.161-2.656,1.733
		c-0.906,0.54-1.877,0.986-2.863,1.479c-1.941,0.986-3.96,1.941-6.044,2.895c-4.294,1.463-8.763,3.181-13.536,3.897
		c-4.707,1.097-9.622,1.273-14.521,1.511c-4.898-0.238-9.813-0.398-14.521-1.495c-4.771-0.716-9.241-2.434-13.536-3.897
		c-2.084-0.938-4.103-1.892-6.059-2.879c-0.97-0.493-1.941-0.938-2.863-1.479c-0.891-0.589-1.781-1.145-2.64-1.733
		c-1.718-1.177-3.404-2.275-4.962-3.404c-1.479-1.273-2.879-2.498-4.199-3.706c-0.652-0.621-1.273-1.209-1.892-1.797
		c-0.223-0.207-0.445-0.414-0.668-0.621c0.509,0.175,1.018,0.35,1.543,0.525c1.257,0.414,2.513,0.906,3.85,1.384
		c1.32,0.525,2.815,0.859,4.294,1.304c1.479,0.429,2.959,0.938,4.501,1.416c1.607,0.334,3.213,0.763,4.867,1.161
		c0.827,0.191,1.639,0.414,2.466,0.636c0.842,0.191,1.718,0.302,2.577,0.477c1.733,0.302,3.467,0.668,5.201,1.05
		c3.61,0.35,7.173,1.146,10.895,1.273c3.674,0.493,7.428,0.35,11.149,0.589c3.738-0.223,7.492-0.079,11.166-0.572
		c3.722-0.127,7.284-0.923,10.895-1.257c1.733-0.382,3.467-0.748,5.201-1.05c0.859-0.175,1.733-0.287,2.577-0.477
		c0.827-0.223,1.654-0.445,2.466-0.636c1.654-0.398,3.261-0.827,4.867-1.161c1.559-0.477,3.038-1.002,4.517-1.416
		c1.463-0.445,2.991-0.812,4.263-1.288c1.304-0.461,2.528-0.938,3.769-1.337C289.295,287.713,289.788,287.538,290.265,287.379z"/>
	<path style="fill:#4D4D4D;" d="M186.344,233.825c-4.908,0-8.886-3.979-8.886-8.886v-14.213c0-4.908,3.979-8.886,8.886-8.886
		s8.886,3.979,8.886,8.886v14.213C195.23,229.846,191.251,233.825,186.344,233.825z"/>
</g>
<g>
	<path style="fill:#666666;" d="M271.517,173.342c0,0,0.024-0.236,0.103-0.641c0.091-0.392,0.184-1.012,0.383-1.713
		c0.089-0.363,0.204-0.741,0.335-1.156c0.172-0.422,0.403-0.846,0.648-1.327c0.243-0.483,0.55-0.961,0.872-1.498
		c0.325-0.545,0.712-0.959,1.109-1.485c0.403-0.506,0.857-0.995,1.331-1.521c0.501-0.475,1.045-0.943,1.623-1.413
		c1.132-0.996,2.514-1.717,3.955-2.518c1.491-0.63,3.072-1.314,4.767-1.63c1.678-0.436,3.437-0.539,5.192-0.621
		c1.755,0.081,3.515,0.174,5.194,0.608c1.695,0.313,3.278,1,4.77,1.626c1.442,0.8,2.826,1.519,3.958,2.517
		c0.577,0.472,1.122,0.941,1.624,1.413c0.474,0.527,0.925,1.021,1.331,1.524c0.391,0.524,0.797,0.954,1.095,1.477
		c0.299,0.521,0.588,0.988,0.822,1.461c0.233,0.474,0.46,0.891,0.63,1.312c0.155,0.438,0.293,0.835,0.395,1.211
		c0.225,0.726,0.319,1.351,0.405,1.742c0.076,0.404,0.092,0.634,0.092,0.634s-0.245-0.006-0.66-0.046
		c-0.403-0.052-1.028-0.078-1.719-0.179c-0.358-0.037-0.723-0.103-1.124-0.156c-0.428-0.02-0.85-0.079-1.308-0.115
		c-0.899-0.095-1.838-0.236-2.87-0.276c-0.507-0.033-0.999-0.107-1.513-0.149c-0.532-0.007-1.057-0.034-1.578-0.073
		c-1.021-0.133-2.132-0.055-3.162-0.184c-1.084,0.039-2.122-0.094-3.197-0.06c-1.057-0.079-2.126,0.005-3.186-0.07
		c-1.06,0.072-2.129-0.02-3.188,0.057c-1.076-0.038-2.114,0.1-3.2,0.056c-1.032,0.128-2.145,0.049-3.166,0.182
		c-0.521,0.039-1.046,0.068-1.579,0.073c-0.514,0.043-1.004,0.121-1.513,0.152c-1.052,0.057-1.927,0.156-2.805,0.232
		c-0.461,0.036-0.892,0.069-1.291,0.098c-0.425,0.077-0.814,0.162-1.184,0.211c-0.717,0.127-1.344,0.156-1.742,0.207
		C271.754,173.341,271.517,173.342,271.517,173.342z"/>
	<path style="fill:#666666;" d="M166.026,173.342c0,0,0.024-0.236,0.103-0.641c0.091-0.392,0.184-1.012,0.383-1.713
		c0.089-0.363,0.204-0.741,0.335-1.156c0.172-0.422,0.403-0.846,0.648-1.327c0.243-0.483,0.55-0.961,0.872-1.498
		c0.325-0.545,0.712-0.959,1.109-1.485c0.403-0.506,0.857-0.995,1.331-1.521c0.501-0.475,1.045-0.943,1.623-1.413
		c1.132-0.996,2.514-1.717,3.955-2.518c1.491-0.63,3.072-1.314,4.767-1.63c1.678-0.436,3.437-0.539,5.192-0.621
		c1.755,0.081,3.515,0.174,5.194,0.608c1.695,0.313,3.278,1,4.77,1.626c1.442,0.8,2.826,1.519,3.959,2.517
		c0.577,0.472,1.122,0.941,1.624,1.413c0.474,0.527,0.925,1.021,1.331,1.524c0.391,0.524,0.797,0.954,1.095,1.477
		c0.299,0.521,0.588,0.988,0.822,1.461c0.233,0.474,0.46,0.891,0.63,1.312c0.155,0.438,0.293,0.835,0.395,1.211
		c0.225,0.726,0.319,1.351,0.405,1.742c0.076,0.404,0.092,0.634,0.092,0.634s-0.245-0.006-0.66-0.046
		c-0.403-0.052-1.028-0.078-1.719-0.179c-0.358-0.037-0.723-0.103-1.124-0.156c-0.428-0.02-0.85-0.079-1.308-0.115
		c-0.899-0.095-1.838-0.236-2.87-0.276c-0.507-0.033-0.999-0.107-1.513-0.149c-0.532-0.007-1.057-0.034-1.578-0.073
		c-1.021-0.133-2.132-0.055-3.162-0.184c-1.084,0.039-2.122-0.094-3.197-0.06c-1.057-0.079-2.126,0.005-3.186-0.07
		c-1.06,0.072-2.129-0.02-3.188,0.057c-1.076-0.038-2.114,0.1-3.2,0.056c-1.032,0.128-2.145,0.049-3.166,0.182
		c-0.521,0.039-1.046,0.068-1.579,0.073c-0.514,0.043-1.004,0.121-1.513,0.152c-1.052,0.057-1.927,0.156-2.805,0.232
		c-0.461,0.036-0.892,0.069-1.291,0.098c-0.425,0.077-0.814,0.162-1.184,0.211c-0.717,0.127-1.344,0.156-1.742,0.207
		C166.263,173.341,166.026,173.342,166.026,173.342z"/>
</g>
<path style="fill:#4D4D4D;" d="M291.833,233.825c-4.908,0-8.886-3.979-8.886-8.886v-14.213c0-4.908,3.979-8.886,8.886-8.886
	c4.908,0,8.886,3.979,8.886,8.886v14.213C300.719,229.846,296.741,233.825,291.833,233.825z"/>
<path style="fill:#E0B394;" d="M252.713,194.73v42.062c0,7.525-6.101,13.626-13.626,13.626l0,0c-7.525,0-13.626-6.101-13.626-13.626
	V194.73"/>
<g>
	<circle style="fill:#4D4D4D;" cx="267.121" cy="482.832" r="8.688"/>
	<circle style="fill:#4D4D4D;" cx="267.121" cy="413.318" r="8.688"/>
	<circle style="fill:#4D4D4D;" cx="267.121" cy="448.069" r="8.688"/>
</g>
<path style="fill:#C9628C;" d="M50.815,466.386c-13.673,0-24.763-11.09-24.763-24.775V368.14
	c-7.239-5.391-12.654-13.092-15.154-22.014h24.182c0.983,8.922,3.116,16.623,5.972,22.014v73.472
	C41.052,455.296,45.424,466.386,50.815,466.386z"/>
<g>
</g>
<g>
</g>
<g>
</g>
<g>
</g>
<g>
</g>
<g>
</g>
<g>
</g>
<g>
</g>
<g>
</g>
<g>
</g>
<g>
</g>
<g>
</g>
<g>
</g>
<g>
</g>
<g>
</g>
</svg>
