<?xml version="1.0" encoding="iso-8859-1"?>
<!-- Generator: Adobe Illustrator 19.0.0, SVG Export Plug-In . SVG Version: 6.00 Build 0)  -->
<svg version="1.1" id="Layer_1" xmlns="http://www.w3.org/2000/svg" xmlns:xlink="http://www.w3.org/1999/xlink" x="0px" y="0px"
	 viewBox="0 0 512.002 512.002" style="enable-background:new 0 0 512.002 512.002;" xml:space="preserve">
<path style="fill:#F9C573;" d="M108.715,374.43c-1.892-24.055-21.997-42.991-46.538-42.991s-44.646,18.935-46.538,42.991H108.715z"
	/>
<path style="fill:#E2AF66;" d="M15.641,374.43h20.754c1.048-24.055,12.187-42.991,25.784-42.991
	C37.636,331.44,17.532,350.375,15.641,374.43z"/>
<path style="fill:#4D4D4D;" d="M458.864,408.121c-3.193,0-5.781-2.589-5.781-5.782v-28.907h-41.935v28.907
	c0,3.193-2.589,5.782-5.781,5.782s-5.781-2.589-5.781-5.782v-40.47h65.061v40.47C464.645,405.533,462.056,408.121,458.864,408.121z"
	/>
<polyline style="fill:#F9C573;" points="119.12,391.921 5.235,391.921 5.235,365.83 119.12,365.83 "/>
<polyline style="fill:#E2AF66;" points="30.174,391.921 5.235,391.921 5.235,365.83 30.174,365.83 "/>
<g>
	<path style="fill:#E0B394;" d="M128.425,230.746c-14.706-0.652-26.411-12.785-26.411-27.644c0-15.275,12.381-27.668,27.668-27.668
		c1.376,0,2.728,0.095,4.056,0.296L128.425,230.746z"/>
	<path style="fill:#E0B394;" d="M378.447,230.746c14.706-0.652,26.423-12.785,26.423-27.644c0-15.275-12.393-27.668-27.68-27.668
		c-1.376,0-2.74,0.107-4.056,0.296L378.447,230.746z"/>
</g>
<path style="fill:#E0739B;" d="M309.369,330.994H197.524c-40.507,0-73.346,32.838-73.346,73.346v107.662h258.537V404.34
	C382.714,363.832,349.876,330.994,309.369,330.994z"/>
<path style="fill:#C9628C;" d="M242.715,330.994h-45.192c-40.507,0-73.346,32.838-73.346,73.346v107.662h45.192V404.34
	C169.369,363.832,202.207,330.994,242.715,330.994z"/>
<path style="fill:#F7CBA4;" d="M342.157,314.976l-48.683,35.365c-23.873,17.339-56.19,17.339-80.063,0l-48.671-35.365
	c-25.735-18.691-39.646-49.608-36.587-81.249l7.377-76.387l1.067-10.994c1.601-16.615,6.629-32.151,14.338-45.932
	c20.161-36.124,58.74-60.175,102.513-60.175c28.012,0,53.889,9.855,74.181,26.423c1.613,1.305,3.19,2.657,4.732,4.056
	c20.932,19.011,35.021,45.54,37.927,75.628l1.245,12.844l7.199,74.537C381.791,265.368,367.88,296.286,342.157,314.976z"/>
<path style="fill:#E8BA97;" d="M158.445,250.942c-0.818,13.84,3.688,27.455,12.607,38.069l50.881,62.523
	c2.657,3.166,5.669,5.823,8.93,7.946c-6.119-2.135-12.002-5.194-17.445-9.144l-48.683-35.365
	c-25.723-18.691-39.634-49.596-36.575-81.249l8.432-87.381c5.764-59.594,55.408-105.205,115.096-106.071
	c-36.764,0.889-78.395,35.543-80.565,72.45L158.445,250.942z"/>
<g>
	<path style="fill:#666666;" d="M371.533,159.19c-104.446,11.397-139.918-55.775-139.918-55.775l30.882-32.697l65.132-4.056
		c1.613,1.305,3.19,2.657,4.732,4.056c20.932,19.011,35.021,45.54,37.927,75.628L371.533,159.19z"/>
	<path style="fill:#666666;" d="M231.615,103.415c0,0-14.682,48.292-96.086,53.925l1.067-10.994
		c1.601-16.615,6.629-32.151,14.338-45.932L231.615,103.415z"/>
</g>
<path style="fill:#C9628C;" d="M363.089,12.109v102.94c-54.103-12.097-109.724-15.133-164.586-9.096
	c-18.347,2.028-36.61,5.052-54.708,9.096V12.109c18.098-4.044,36.361-7.068,54.708-9.096
	C253.365-3.024,308.986,0.012,363.089,12.109z"/>
<path style="fill:#E0739B;" d="M363.089,12.109v82.779c-54.103-12.097-109.724-15.133-164.586-9.096
	c-18.347,2.028-36.61,5.052-54.708,9.096V12.109c18.098-4.044,36.361-7.068,54.708-9.096
	C253.365-3.024,308.986,0.012,363.089,12.109z"/>
<path style="fill:#C9628C;" d="M198.503,3.013v102.94c-18.347,2.028-36.61,5.052-54.708,9.096V12.109
	C161.893,8.065,180.156,5.042,198.503,3.013z"/>
<rect x="244.556" y="363.268" style="fill:#4D4D4D;" width="17.789" height="148.73"/>
<rect x="353.248" y="392.798" style="fill:#AD683A;" width="157.731" height="119.2"/>
<rect x="353.248" y="392.798" style="fill:#9E5B36;" width="10.646" height="119.2"/>
<path style="fill:#F9C573;" d="M94.963,467.865c4.403-4.069,7.182-9.873,7.182-16.327c0-12.272-9.984-22.257-22.257-22.257
	c-12.273,0-22.258,9.984-22.258,22.257c0,3.756,0.943,7.291,2.592,10.397H37.787v-23.573H25.927v23.572H12.882v-23.572H1.023v35.431
	h59.201c-1.65,3.106-2.592,6.643-2.592,10.397c0,12.272,9.985,22.257,22.258,22.257c12.272,0,22.257-9.984,22.257-22.257
	C102.145,477.738,99.366,471.934,94.963,467.865z M69.491,451.538c0-5.733,4.666-10.397,10.398-10.397
	c5.733,0,10.397,4.664,10.397,10.397s-4.664,10.397-10.397,10.397C74.156,461.936,69.491,457.271,69.491,451.538z M79.888,494.59
	c-5.733,0-10.398-4.664-10.398-10.397s4.666-10.397,10.398-10.397s10.397,4.664,10.397,10.397S85.621,494.59,79.888,494.59z"/>
<path style="fill:#F2F2F2;" d="M299.87,278.018c0,0-0.676,1.66-2.099,4.281c-0.344,0.676-0.747,1.388-1.198,2.158
	c-0.534,0.759-1.15,1.53-1.814,2.396c-0.664,0.866-1.423,1.743-2.23,2.716c-0.285,0.368-0.593,0.676-0.925,0.996
	c-0.119,0.119-0.249,0.237-0.38,0.356c-0.463,0.427-0.937,0.878-1.423,1.328c-0.973,0.913-2.028,1.814-3.131,2.763
	c-1.162,0.854-2.407,1.66-3.688,2.538c-0.64,0.439-1.305,0.866-1.981,1.293c-0.676,0.403-1.399,0.735-2.135,1.103
	c-1.447,0.735-2.953,1.447-4.507,2.158c-3.202,1.091-6.535,2.372-10.092,2.906c-3.51,0.818-7.175,0.949-10.828,1.127
	c-3.653-0.178-7.317-0.296-10.828-1.115c-3.558-0.534-6.89-1.814-10.092-2.906c-1.554-0.7-3.06-1.411-4.518-2.147
	c-0.723-0.368-1.447-0.7-2.135-1.103c-0.664-0.439-1.328-0.854-1.969-1.293c-1.281-0.878-2.538-1.696-3.7-2.538
	c-1.103-0.949-2.147-1.862-3.131-2.763c-0.486-0.462-0.949-0.901-1.411-1.34c-0.166-0.154-0.332-0.308-0.498-0.463
	c-0.285-0.285-0.557-0.557-0.795-0.878c-0.771-0.937-1.518-1.803-2.17-2.657c-0.64-0.866-1.269-1.625-1.791-2.384
	c-0.474-0.806-0.913-1.542-1.281-2.218c-1.482-2.704-2.099-4.317-2.099-4.317s1.755,0.534,4.459,1.625
	c0.688,0.261,1.399,0.581,2.194,0.901c0.842,0.249,1.708,0.569,2.633,0.878c0.937,0.308,1.874,0.688,2.87,1.044
	c0.984,0.38,2.099,0.629,3.202,0.961c1.103,0.32,2.206,0.712,3.356,1.055c1.198,0.261,2.396,0.569,3.629,0.866
	c0.617,0.142,1.222,0.32,1.838,0.486c0.629,0.142,1.281,0.225,1.921,0.356c1.293,0.225,2.585,0.486,3.878,0.783
	c2.692,0.249,5.349,0.842,8.124,0.949c2.74,0.356,5.538,0.261,8.313,0.427c2.787-0.166,5.586-0.059,8.325-0.415
	c2.775-0.095,5.432-0.7,8.124-0.949c1.293-0.285,2.585-0.546,3.878-0.771c0.64-0.13,1.293-0.213,1.921-0.356
	c0.617-0.178,1.233-0.344,1.838-0.486c1.233-0.296,2.431-0.617,3.629-0.866c1.162-0.344,2.265-0.735,3.368-1.056
	c1.091-0.332,2.23-0.593,3.178-0.961c0.973-0.332,1.886-0.7,2.811-0.984c0.913-0.308,1.767-0.617,2.609-0.866
	c0.83-0.356,1.565-0.7,2.265-0.973C298.15,278.516,299.87,278.018,299.87,278.018z"/>
<g>
	<path style="fill:#4D4D4D;" d="M291.604,290.565c-0.119,0.119-0.249,0.237-0.38,0.356c-0.463,0.427-0.937,0.878-1.423,1.328
		c-0.973,0.913-2.028,1.814-3.131,2.763c-1.162,0.854-2.407,1.66-3.688,2.538c-0.64,0.439-1.305,0.866-1.981,1.293
		c-0.676,0.403-1.399,0.735-2.135,1.103c-1.447,0.735-2.953,1.447-4.507,2.158c-3.202,1.091-6.535,2.372-10.092,2.906
		c-3.51,0.818-7.175,0.949-10.828,1.127c-3.653-0.178-7.317-0.296-10.828-1.115c-3.558-0.534-6.89-1.814-10.092-2.906
		c-1.554-0.7-3.06-1.411-4.518-2.147c-0.723-0.368-1.447-0.7-2.135-1.103c-0.664-0.439-1.328-0.854-1.969-1.293
		c-1.281-0.878-2.538-1.696-3.7-2.538c-1.103-0.949-2.147-1.862-3.131-2.763c-0.486-0.462-0.949-0.901-1.411-1.34
		c-0.166-0.154-0.332-0.308-0.498-0.463c0.38,0.13,0.759,0.261,1.15,0.391c0.937,0.308,1.874,0.676,2.87,1.032
		c0.984,0.391,2.099,0.64,3.202,0.972c1.103,0.32,2.206,0.7,3.356,1.055c1.198,0.249,2.396,0.569,3.629,0.866
		c0.617,0.142,1.222,0.308,1.838,0.474c0.629,0.142,1.281,0.225,1.921,0.356c1.293,0.225,2.585,0.498,3.878,0.783
		c2.692,0.261,5.349,0.854,8.124,0.949c2.74,0.368,5.538,0.261,8.313,0.439c2.787-0.166,5.586-0.059,8.325-0.427
		c2.775-0.095,5.432-0.688,8.124-0.937c1.293-0.285,2.585-0.557,3.878-0.783c0.64-0.13,1.293-0.213,1.921-0.356
		c0.617-0.166,1.233-0.332,1.838-0.474c1.233-0.296,2.431-0.617,3.629-0.866c1.162-0.356,2.265-0.747,3.368-1.056
		c1.091-0.332,2.23-0.605,3.178-0.961c0.973-0.344,1.886-0.7,2.811-0.996C290.88,290.814,291.248,290.684,291.604,290.565z"/>
	<path style="fill:#4D4D4D;" d="M200.647,237.105c-4.912,0-8.895-3.982-8.895-8.895v-14.227c0-4.912,3.982-8.895,8.895-8.895
		c4.912,0,8.895,3.982,8.895,8.895v14.227C209.542,233.122,205.561,237.105,200.647,237.105z"/>
</g>
<g>
	<path style="fill:#666666;" d="M285.902,192.096c0,0,0.024-0.236,0.103-0.642c0.091-0.393,0.184-1.013,0.383-1.715
		c0.089-0.363,0.204-0.741,0.336-1.157c0.172-0.422,0.403-0.847,0.649-1.328c0.243-0.484,0.55-0.962,0.873-1.499
		c0.325-0.546,0.713-0.959,1.11-1.486c0.403-0.506,0.857-0.996,1.332-1.523c0.502-0.476,1.046-0.944,1.625-1.415
		c1.133-0.997,2.517-1.718,3.959-2.52c1.492-0.631,3.075-1.315,4.771-1.632c1.679-0.436,3.44-0.54,5.197-0.621
		c1.756,0.081,3.519,0.174,5.199,0.608c1.697,0.313,3.282,1.001,4.775,1.627c1.443,0.801,2.828,1.52,3.962,2.519
		c0.578,0.472,1.123,0.942,1.626,1.415c0.474,0.528,0.926,1.022,1.332,1.525c0.391,0.524,0.798,0.955,1.096,1.479
		c0.299,0.522,0.588,0.989,0.823,1.462c0.234,0.474,0.46,0.892,0.631,1.313c0.155,0.439,0.293,0.836,0.395,1.212
		c0.225,0.727,0.319,1.352,0.406,1.743c0.076,0.404,0.092,0.634,0.092,0.634s-0.245-0.006-0.661-0.046
		c-0.403-0.052-1.029-0.078-1.721-0.179c-0.358-0.037-0.723-0.103-1.125-0.157c-0.428-0.02-0.85-0.079-1.309-0.115
		c-0.9-0.095-1.839-0.236-2.872-0.276c-0.508-0.033-1-0.107-1.514-0.149c-0.532-0.007-1.058-0.034-1.58-0.074
		c-1.022-0.133-2.134-0.055-3.165-0.184c-1.085,0.039-2.124-0.094-3.2-0.06c-1.058-0.079-2.128,0.005-3.189-0.07
		c-1.061,0.072-2.131-0.02-3.191,0.057c-1.077-0.038-2.116,0.1-3.203,0.056c-1.033,0.128-2.147,0.049-3.169,0.183
		c-0.522,0.039-1.047,0.068-1.581,0.074c-0.515,0.043-1.004,0.121-1.514,0.152c-1.053,0.057-1.928,0.157-2.807,0.232
		c-0.461,0.036-0.893,0.069-1.293,0.098c-0.426,0.077-0.815,0.162-1.185,0.211c-0.717,0.127-1.345,0.157-1.743,0.208
		C286.139,192.094,285.902,192.096,285.902,192.096z"/>
	<path style="fill:#666666;" d="M180.312,192.096c0,0,0.024-0.236,0.103-0.642c0.091-0.393,0.184-1.013,0.383-1.715
		c0.089-0.363,0.204-0.741,0.336-1.157c0.172-0.422,0.403-0.847,0.649-1.328c0.243-0.484,0.55-0.962,0.873-1.499
		c0.325-0.546,0.713-0.959,1.11-1.486c0.403-0.506,0.857-0.996,1.332-1.523c0.502-0.476,1.046-0.944,1.625-1.415
		c1.133-0.997,2.517-1.718,3.959-2.52c1.492-0.631,3.075-1.315,4.771-1.632c1.679-0.436,3.44-0.54,5.197-0.621
		c1.756,0.081,3.519,0.174,5.199,0.608c1.697,0.313,3.282,1.001,4.775,1.627c1.443,0.801,2.828,1.52,3.962,2.519
		c0.578,0.472,1.123,0.942,1.626,1.415c0.474,0.528,0.926,1.022,1.332,1.525c0.391,0.524,0.798,0.955,1.096,1.479
		c0.299,0.522,0.588,0.989,0.823,1.462c0.234,0.474,0.46,0.892,0.631,1.313c0.155,0.439,0.293,0.836,0.395,1.212
		c0.225,0.727,0.319,1.352,0.406,1.743c0.076,0.404,0.092,0.634,0.092,0.634s-0.245-0.006-0.661-0.046
		c-0.403-0.052-1.029-0.078-1.721-0.179c-0.358-0.037-0.723-0.103-1.125-0.157c-0.428-0.02-0.85-0.079-1.309-0.115
		c-0.9-0.095-1.839-0.236-2.872-0.276c-0.508-0.033-1-0.107-1.514-0.149c-0.532-0.007-1.058-0.034-1.58-0.074
		c-1.022-0.133-2.134-0.055-3.165-0.184c-1.085,0.039-2.124-0.094-3.2-0.06c-1.058-0.079-2.128,0.005-3.189-0.07
		c-1.061,0.072-2.131-0.02-3.191,0.057c-1.077-0.038-2.116,0.1-3.203,0.056c-1.033,0.128-2.147,0.049-3.169,0.183
		c-0.522,0.039-1.047,0.068-1.581,0.074c-0.515,0.043-1.005,0.121-1.514,0.152c-1.053,0.057-1.928,0.157-2.807,0.232
		c-0.461,0.036-0.893,0.069-1.293,0.098c-0.426,0.077-0.815,0.162-1.185,0.211c-0.717,0.127-1.345,0.157-1.743,0.208
		C180.549,192.094,180.312,192.096,180.312,192.096z"/>
</g>
<path style="fill:#4D4D4D;" d="M306.237,237.105c-4.912,0-8.895-3.982-8.895-8.895v-14.227c0-4.912,3.982-8.895,8.895-8.895
	s8.895,3.982,8.895,8.895v14.227C315.132,233.122,311.149,237.105,306.237,237.105z"/>
<path style="fill:#E0B394;" d="M267.081,197.973v42.101c0,7.532-6.106,13.638-13.638,13.638l0,0
	c-7.532,0-13.638-6.106-13.638-13.638v-42.101"/>
<g>
	<circle style="fill:#F9C573;" cx="64.914" cy="318.712" r="8.45"/>
	<rect x="302.821" y="413.458" style="fill:#F9C573;" width="50.43" height="26.091"/>
</g>
<g>
	<circle style="fill:#4D4D4D;" cx="227.217" cy="392.407" r="7.412"/>
	<circle style="fill:#4D4D4D;" cx="227.217" cy="468.604" r="7.412"/>
	<circle style="fill:#4D4D4D;" cx="227.217" cy="443.201" r="7.412"/>
	<circle style="fill:#4D4D4D;" cx="227.217" cy="417.81" r="7.412"/>
</g>
<rect x="72.152" y="365.83" style="fill:#F9CE91;" width="17.789" height="26.091"/>
<g>
</g>
<g>
</g>
<g>
</g>
<g>
</g>
<g>
</g>
<g>
</g>
<g>
</g>
<g>
</g>
<g>
</g>
<g>
</g>
<g>
</g>
<g>
</g>
<g>
</g>
<g>
</g>
<g>
</g>
</svg>
