<?xml version="1.0" encoding="iso-8859-1"?>
<!-- Generator: Adobe Illustrator 19.0.0, SVG Export Plug-In . SVG Version: 6.00 Build 0)  -->
<svg version="1.1" id="Layer_1" xmlns="http://www.w3.org/2000/svg" xmlns:xlink="http://www.w3.org/1999/xlink" x="0px" y="0px"
	 viewBox="0 0 512.001 512.001" style="enable-background:new 0 0 512.001 512.001;" xml:space="preserve">
<path style="fill:#F76B4F;" d="M127.09,397.622c-2.208,0-4.416-0.842-6.1-2.527l-65.054-65.054c-3.369-3.369-3.369-8.832,0-12.201
	c3.369-3.369,8.832-3.369,12.201,0l65.054,65.054c3.369,3.369,3.369,8.832,0,12.201C131.506,396.778,129.298,397.622,127.09,397.622
	z"/>
<path style="fill:#E6E6E6;" d="M371.039,436.914l50.494-46.68c6.487-5.959,12.454-12.68,17.769-20.144
	c17.581-24.684,25.162-53.456,23.613-81.532c-27.039,7.715-51.752,24.286-69.332,48.97l-42.675,61.425L371.039,436.914z"/>
<path style="fill:#CCCCCC;" d="M371.081,400.16l36.613-52.7c9.785-13.716,22.185-24.764,36.552-32.69
	c-2.799,16.199-9.205,31.558-18.999,45.309c-4.525,6.353-9.703,12.224-15.388,17.447l-34.076,31.502L371.081,400.16z"/>
<path style="fill:#E6E6E6;" d="M366.438,469.124l50.209-38.177c3.484-2.45,7.124-4.751,10.915-6.887
	c26.398-14.883,55.809-19.391,83.565-14.895c-10.52,26.076-29.602,48.906-56,63.788c-11.058,6.234-22.645,10.648-34.416,13.342
	l-54.272,9.286L366.438,469.124L366.438,469.124z"/>
<path style="fill:#CCCCCC;" d="M426.827,444.886c2.954-2.065,6.051-4.014,9.21-5.794c14.462-8.153,30.586-12.964,47.03-14.081
	c-9.409,13.459-21.723,24.631-36.413,32.914c-9.245,5.212-19.115,9.062-29.342,11.448l-29.278,5.009L426.827,444.886z"/>
<g>
	<path style="fill:#E0B394;" d="M150.15,239.187c-14.264-0.633-25.618-12.401-25.618-26.815c0-14.817,12.01-26.838,26.838-26.838
		c1.334,0,2.646,0.092,3.934,0.288"/>
	<path style="fill:#E0B394;" d="M390.366,239.187c14.264-0.633,25.63-12.401,25.63-26.815c0-14.817-12.021-26.838-26.849-26.838
		c-1.334,0-2.657,0.104-3.934,0.288"/>
</g>
<path style="fill:#9691C6;" d="M324.511,336.426H216.022c-39.291,0-71.145,31.852-71.145,71.145v104.43h250.777V407.57
	C395.656,368.278,363.804,336.426,324.511,336.426z"/>
<path style="fill:#7F7DAD;" d="M259.858,336.426h-43.835c-39.291,0-71.145,31.852-71.145,71.145v104.43h43.835V407.57
	C188.714,368.278,220.566,336.426,259.858,336.426z"/>
<g>
	<path style="fill:#F9C573;" d="M260.301,377.308l-42.979,24.814c-4.429,2.557-9.967-0.64-9.967-5.754v-49.629
		c0-5.114,5.537-8.311,9.967-5.754l42.979,24.814C264.731,368.357,264.731,374.75,260.301,377.308z"/>
	<path style="fill:#F9C573;" d="M280.233,377.308l42.979,24.814c4.429,2.557,9.967-0.64,9.967-5.754v-49.629
		c0-5.114-5.537-8.311-9.967-5.754l-42.979,24.814C275.804,368.357,275.804,374.75,280.233,377.308z"/>
</g>
<circle style="fill:#E2AF66;" cx="270.265" cy="371.552" r="20.963"/>
<path style="fill:#F7CBA4;" d="M231.438,355.193l-47.221-34.308c-24.953-18.13-38.453-48.11-35.486-78.812l8.191-84.756
	C162.563,98.943,211.618,54.4,270.264,54.4l0,0c58.646,0,107.701,44.543,113.342,102.917l8.19,84.756
	c2.967,30.702-10.531,60.681-35.486,78.812l-47.221,34.308C285.937,372.014,254.589,372.014,231.438,355.193z"/>
<path style="fill:#F2F2F2;" d="M315.325,284.505c0,0-0.656,1.61-2.036,4.153c-0.334,0.656-0.725,1.346-1.162,2.094
	c-0.518,0.736-1.116,1.484-1.76,2.324c-0.644,0.84-1.38,1.691-2.163,2.634c-0.276,0.357-0.575,0.656-0.897,0.966
	c-0.115,0.115-0.242,0.23-0.368,0.345c-0.449,0.414-0.909,0.851-1.38,1.288c-0.943,0.886-1.967,1.76-3.037,2.68
	c-1.127,0.828-2.335,1.611-3.578,2.462c-0.621,0.426-1.265,0.84-1.921,1.254c-0.656,0.391-1.357,0.713-2.071,1.07
	c-1.403,0.713-2.864,1.403-4.371,2.094c-3.106,1.058-6.338,2.301-9.789,2.818c-3.405,0.794-6.96,0.92-10.503,1.093
	c-3.543-0.173-7.098-0.288-10.503-1.081c-3.451-0.518-6.684-1.76-9.789-2.818c-1.507-0.679-2.968-1.369-4.383-2.082
	c-0.702-0.357-1.403-0.679-2.071-1.07c-0.644-0.426-1.288-0.828-1.91-1.254c-1.242-0.851-2.462-1.645-3.589-2.462
	c-1.07-0.92-2.082-1.806-3.037-2.68c-0.472-0.449-0.92-0.874-1.369-1.3c-0.161-0.15-0.322-0.299-0.483-0.449
	c-0.276-0.276-0.541-0.541-0.771-0.851c-0.748-0.909-1.472-1.749-2.105-2.577c-0.621-0.84-1.231-1.576-1.737-2.312
	c-0.46-0.782-0.886-1.495-1.242-2.151c-1.438-2.623-2.036-4.187-2.036-4.187s1.703,0.518,4.325,1.576
	c0.667,0.253,1.357,0.564,2.128,0.874c0.817,0.242,1.657,0.552,2.554,0.851c0.909,0.299,1.818,0.667,2.784,1.012
	c0.955,0.368,2.036,0.61,3.106,0.932c1.07,0.311,2.14,0.69,3.255,1.024c1.162,0.253,2.324,0.552,3.52,0.84
	c0.598,0.138,1.185,0.311,1.783,0.472c0.61,0.138,1.242,0.219,1.864,0.345c1.254,0.219,2.508,0.472,3.762,0.759
	c2.611,0.242,5.188,0.817,7.88,0.92c2.657,0.345,5.372,0.253,8.064,0.414c2.703-0.161,5.418-0.058,8.076-0.403
	c2.692-0.092,5.269-0.679,7.88-0.92c1.254-0.276,2.508-0.529,3.762-0.748c0.621-0.127,1.254-0.207,1.864-0.345
	c0.598-0.173,1.196-0.334,1.783-0.472c1.196-0.288,2.358-0.598,3.52-0.84c1.127-0.334,2.197-0.713,3.267-1.024
	c1.058-0.322,2.163-0.575,3.083-0.932c0.943-0.322,1.829-0.679,2.726-0.955c0.886-0.299,1.714-0.598,2.531-0.84
	c0.805-0.345,1.518-0.679,2.197-0.943C313.657,284.988,315.325,284.505,315.325,284.505z"/>
<path style="fill:#E8BA97;" d="M178.117,258.778c-0.794,13.425,3.578,26.631,12.228,36.926l49.354,60.647
	c2.577,3.071,5.499,5.648,8.662,7.707c-5.936-2.071-11.642-5.039-16.922-8.869l-47.222-34.304
	c-24.951-18.13-38.445-48.108-35.477-78.811l8.179-84.758c5.591-57.805,53.744-102.048,111.642-102.888
	c-35.661,0.863-76.042,34.476-78.147,70.275L178.117,258.778z"/>
<path style="fill:#9691C6;" d="M382.852,0c-75.059,0-150.12,0-225.179,0c15.068,48.981,15.068,101.36,0,150.341
	c75.059,0,150.12,0,225.179,0C367.784,101.36,367.784,48.981,382.852,0z"/>
<path style="fill:#7F7DAD;" d="M204.249,0c-15.525,0-31.05,0-46.575,0c15.068,48.981,15.068,101.36,0,150.341
	c15.525,0,31.05,0,46.575,0C213.083,101.36,213.083,48.981,204.249,0z"/>
<g>
	<path style="fill:#666666;" d="M311.708,259.747c-14.589-6.007-25.373-4.025-32.859,0.044c-3.586,1.949-6.485,4.749-8.556,8.041
		c-1.925-3.078-4.581-5.72-7.866-7.62c-7.509-4.345-18.525-6.674-33.608-0.464c-32.908,13.55-41.619,46.458-68.72,46.458
		c28.357,21.483,91.04,39.138,110.165-10.681c19.125,49.819,81.806,32.164,110.163,10.681
		C353.327,306.205,344.616,273.298,311.708,259.747z"/>
	<path style="fill:#666666;" d="M383.614,157.321l6.753,69.826h-0.012c-31.508,0-30.358-76.809-30.358-76.809
		c7.569,0,15.15,0,22.719,0C383.083,152.639,383.383,154.974,383.614,157.321z"/>
	<path style="fill:#666666;" d="M181.198,150.338c0,0,1.15,76.809-30.358,76.809l-0.656-0.069l6.741-69.757
		c0.23-2.347,0.529-4.682,0.897-6.983C165.61,150.338,173.409,150.338,181.198,150.338z"/>
</g>
<path style="fill:#F9C573;" d="M382.855,150.338H157.673c3.486-11.342,6.166-22.869,8.029-34.488h209.065l0.046-0.012
	C376.677,127.469,379.368,138.996,382.855,150.338z"/>
<path style="fill:#E2AF66;" d="M208.966,115.851c-1.104,11.619-2.669,23.145-4.716,34.488h-46.578
	c3.486-11.342,6.166-22.869,8.029-34.488H208.966z"/>
<g>
	<polygon style="fill:#F9C573;" points="9.913,271.816 40.818,282.296 66.972,262.778 66.555,295.409 93.199,314.253 
		62.036,323.939 52.349,355.103 33.506,328.459 0.874,328.875 20.392,302.721 	"/>
	<path style="fill:#F9C573;" d="M73.549,412.623c-3.015,0-5.784-1.99-6.64-5.035l-5.177-18.406c-1.032-3.67,1.105-7.481,4.775-8.513
		c3.665-1.031,7.481,1.105,8.513,4.775l5.177,18.406c1.032,3.67-1.105,7.481-4.775,8.513
		C74.797,412.539,74.168,412.623,73.549,412.623z"/>
	<path style="fill:#F9C573;" d="M39.043,201.533c-3.495,0-6.327,2.832-6.327,6.327v26.458c0,3.495,2.832,6.327,6.327,6.327
		s6.327-2.832,6.327-6.327v-26.458C45.37,204.365,42.537,201.533,39.043,201.533z"/>
	<path style="fill:#F9C573;" d="M108.191,258.602l-13.804,13.804c-2.471,2.471-2.471,6.477,0,8.947
		c1.235,1.235,2.854,1.853,4.474,1.853s3.238-0.618,4.474-1.853l13.804-13.804c2.471-2.471,2.471-6.477,0-8.947
		C114.667,256.132,110.663,256.132,108.191,258.602z"/>
	<path style="fill:#F9C573;" d="M24.616,356.347c-3.124-1.561-6.926-0.296-8.488,2.83L4.624,382.184
		c-1.562,3.126-0.296,6.926,2.83,8.488c0.909,0.454,1.873,0.67,2.824,0.67c2.321,0,4.555-1.282,5.664-3.499l11.504-23.007
		C29.008,361.71,27.742,357.91,24.616,356.347z"/>
	<path style="fill:#F9C573;" d="M476.819,90.236h-11.504V78.732c0-3.495-2.832-6.327-6.327-6.327s-6.327,2.832-6.327,6.327v11.504
		h-11.504c-3.495,0-6.327,2.832-6.327,6.327s2.832,6.327,6.327,6.327h11.504v11.504c0,3.495,2.832,6.327,6.327,6.327
		s6.327-2.832,6.327-6.327V102.89h11.504c3.495,0,6.327-2.832,6.327-6.327S480.314,90.236,476.819,90.236z"/>
	<path style="fill:#F9C573;" d="M97.136,460.362H85.632v-11.504c0-3.495-2.832-6.327-6.327-6.327s-6.327,2.832-6.327,6.327v11.504
		H61.475c-3.495,0-6.327,2.832-6.327,6.327s2.832,6.327,6.327,6.327h11.504v11.504c0,3.495,2.832,6.327,6.327,6.327
		s6.327-2.832,6.327-6.327v-11.504h11.504c3.495,0,6.327-2.832,6.327-6.327S100.629,460.362,97.136,460.362z"/>
</g>
<path style="fill:#9691C6;" d="M447.418,158.97H93.11c-4.765,0-8.628-3.863-8.628-8.628c0-4.765,3.863-8.628,8.628-8.628h354.309
	c4.765,0,8.628,3.863,8.628,8.628C456.046,155.107,452.183,158.97,447.418,158.97z"/>
<g>
	<circle style="fill:#666666;" cx="270.265" cy="413.184" r="9.634"/>
	<circle style="fill:#666666;" cx="270.265" cy="489.832" r="9.634"/>
	<circle style="fill:#666666;" cx="270.265" cy="451.513" r="9.634"/>
</g>
<path style="fill:#4D4D4D;" d="M218.002,243.028c-4.378-0.531-7.547-4.478-7.547-8.889v-13.145c0-4.41,3.168-8.357,7.547-8.889
	c5.248-0.637,9.708,3.442,9.708,8.562v13.8C227.71,239.587,223.25,243.665,218.002,243.028z"/>
<g>
	<path style="fill:#666666;" d="M301.778,190.183c0,0,0.023-0.229,0.1-0.622c0.089-0.381,0.178-0.982,0.372-1.663
		c0.086-0.352,0.198-0.719,0.326-1.123c0.167-0.41,0.391-0.821,0.629-1.288c0.236-0.469,0.534-0.933,0.847-1.454
		c0.315-0.529,0.691-0.931,1.077-1.441c0.391-0.491,0.832-0.966,1.292-1.477c0.487-0.461,1.015-0.916,1.576-1.372
		c1.099-0.967,2.441-1.667,3.84-2.445c1.447-0.612,2.983-1.276,4.628-1.583c1.629-0.423,3.337-0.523,5.041-0.603
		c1.704,0.078,3.413,0.169,5.043,0.59c1.646,0.304,3.183,0.971,4.631,1.578c1.4,0.776,2.744,1.475,3.843,2.443
		c0.56,0.458,1.089,0.913,1.577,1.372c0.46,0.512,0.898,0.992,1.292,1.479c0.38,0.508,0.774,0.926,1.063,1.434
		c0.29,0.506,0.571,0.959,0.798,1.418c0.227,0.46,0.446,0.865,0.612,1.273c0.151,0.426,0.284,0.811,0.383,1.176
		c0.219,0.705,0.309,1.311,0.393,1.691c0.074,0.392,0.09,0.615,0.09,0.615s-0.238-0.006-0.641-0.045
		c-0.391-0.051-0.999-0.076-1.669-0.174c-0.347-0.036-0.702-0.1-1.092-0.152c-0.415-0.02-0.825-0.077-1.27-0.112
		c-0.873-0.092-1.784-0.229-2.786-0.268c-0.492-0.032-0.97-0.104-1.469-0.145c-0.517-0.007-1.026-0.033-1.532-0.071
		c-0.992-0.129-2.069-0.053-3.07-0.178c-1.053,0.038-2.06-0.091-3.104-0.059c-1.026-0.077-2.064,0.005-3.093-0.068
		c-1.03,0.07-2.067-0.02-3.096,0.055c-1.045-0.037-2.052,0.097-3.107,0.054c-1.002,0.124-2.082,0.047-3.074,0.177
		c-0.506,0.038-1.016,0.066-1.533,0.071c-0.499,0.041-0.974,0.117-1.469,0.147c-1.022,0.055-1.87,0.152-2.723,0.225
		c-0.448,0.035-0.866,0.067-1.254,0.095c-0.413,0.075-0.79,0.158-1.149,0.205c-0.696,0.123-1.305,0.152-1.691,0.201
		C302.008,190.182,301.778,190.183,301.778,190.183z"/>
	<path style="fill:#666666;" d="M199.357,190.183c0,0,0.023-0.229,0.1-0.622c0.089-0.381,0.178-0.982,0.372-1.663
		c0.086-0.352,0.198-0.719,0.326-1.123c0.167-0.41,0.391-0.821,0.629-1.288c0.236-0.469,0.534-0.933,0.847-1.454
		c0.315-0.529,0.691-0.931,1.077-1.441c0.391-0.491,0.832-0.966,1.292-1.477c0.487-0.461,1.015-0.916,1.576-1.372
		c1.099-0.967,2.441-1.667,3.84-2.445c1.447-0.612,2.983-1.276,4.628-1.583c1.629-0.423,3.337-0.523,5.041-0.603
		c1.704,0.078,3.413,0.169,5.043,0.59c1.646,0.304,3.183,0.971,4.631,1.578c1.4,0.776,2.744,1.475,3.843,2.443
		c0.56,0.458,1.089,0.913,1.577,1.372c0.46,0.512,0.898,0.992,1.292,1.479c0.38,0.508,0.774,0.926,1.063,1.434
		c0.29,0.506,0.571,0.959,0.798,1.418c0.227,0.46,0.446,0.865,0.612,1.273c0.151,0.426,0.284,0.811,0.383,1.176
		c0.219,0.705,0.309,1.311,0.393,1.691c0.074,0.392,0.09,0.615,0.09,0.615s-0.238-0.006-0.641-0.045
		c-0.391-0.051-0.999-0.076-1.669-0.174c-0.347-0.036-0.702-0.1-1.092-0.152c-0.415-0.02-0.825-0.077-1.27-0.112
		c-0.873-0.092-1.784-0.229-2.786-0.268c-0.492-0.032-0.97-0.104-1.469-0.145c-0.517-0.007-1.026-0.033-1.532-0.071
		c-0.992-0.129-2.069-0.053-3.07-0.178c-1.053,0.038-2.06-0.091-3.104-0.059c-1.026-0.077-2.064,0.005-3.093-0.068
		c-1.03,0.07-2.067-0.02-3.096,0.055c-1.045-0.037-2.052,0.097-3.107,0.054c-1.002,0.124-2.082,0.047-3.074,0.177
		c-0.506,0.038-1.016,0.066-1.533,0.071c-0.499,0.041-0.974,0.117-1.469,0.147c-1.022,0.055-1.87,0.152-2.723,0.225
		c-0.447,0.035-0.866,0.067-1.254,0.095c-0.413,0.075-0.79,0.158-1.149,0.205c-0.696,0.123-1.305,0.152-1.691,0.201
		C199.587,190.182,199.357,190.183,199.357,190.183z"/>
</g>
<path style="fill:#4D4D4D;" d="M320.423,243.028c-4.378-0.531-7.547-4.478-7.547-8.889v-13.145c0-4.41,3.168-8.357,7.547-8.889
	c5.248-0.637,9.708,3.442,9.708,8.562v13.8C330.13,239.587,325.669,243.665,320.423,243.028z"/>
<path style="fill:#E0B394;" d="M283.522,206.269v48.333c0,7.306-5.923,13.229-13.229,13.229l0,0
	c-7.306,0-13.229-5.923-13.229-13.229v-48.333"/>
<g>
</g>
<g>
</g>
<g>
</g>
<g>
</g>
<g>
</g>
<g>
</g>
<g>
</g>
<g>
</g>
<g>
</g>
<g>
</g>
<g>
</g>
<g>
</g>
<g>
</g>
<g>
</g>
<g>
</g>
</svg>
