<?xml version="1.0" encoding="iso-8859-1"?>
<!-- Generator: Adobe Illustrator 19.0.0, SVG Export Plug-In . SVG Version: 6.00 Build 0)  -->
<svg version="1.1" id="Layer_1" xmlns="http://www.w3.org/2000/svg" xmlns:xlink="http://www.w3.org/1999/xlink" x="0px" y="0px"
	 viewBox="0 0 512 512" style="enable-background:new 0 0 512 512;" xml:space="preserve">
<path style="fill:#508DA3;" d="M376.217,393.804v103.253H128.264V393.804c0-38.854,31.495-70.348,70.348-70.348H305.88
	C344.722,323.455,376.217,354.95,376.217,393.804z"/>
<path style="fill:#4D4D4D;" d="M53.983,260.6c-2.826,0-5.118-2.292-5.118-5.118v-34.406c0-2.826,2.292-5.118,5.118-5.118
	s5.118,2.292,5.118,5.118v34.406C59.102,258.31,56.81,260.6,53.983,260.6z"/>
<g>
	<circle style="fill:#C0E7F9;" cx="79.641" cy="143.165" r="13.933"/>
	<circle style="fill:#C0E7F9;" cx="437.354" cy="96.247" r="13.933"/>
	<circle style="fill:#C0E7F9;" cx="406.041" cy="55.56" r="10.058"/>
	<circle style="fill:#C0E7F9;" cx="43.962" cy="122.089" r="10.058"/>
	<circle style="fill:#C0E7F9;" cx="84.759" cy="68.665" r="22.464"/>
</g>
<path style="fill:#508DA3;" d="M410.61,384.583c-2.399,12.792-4.109,25.708-5.043,38.69c-0.864,12.027-1.297,24.078-1.297,36.136
	l0,0c0,7.329,7.162,13.271,15.996,13.271l0,0c7.182,0,14.255-1.456,20.603-4.243l0,0c11.004-4.829,23.527-4.829,34.532,0l0,0
	c6.348,2.787,13.421,4.243,20.603,4.243l0,0c8.834,0,15.996-5.942,15.996-13.271l0,0c0-36.54-3.975-73.006-11.877-108.953
	l-5.885-26.774c-5.442-24.761-9.291-49.747-11.529-74.848l-3.066-34.401c-0.833-9.344-10.214-16.572-21.507-16.572l0,0
	c-11.293,0-20.675,7.228-21.507,16.572l-3.066,34.401c-2.237,25.101-6.086,50.087-11.529,74.848L410.61,384.583z"/>
<g>
	<path style="fill:#E0B394;" d="M133.476,227.313c-14.104-0.626-25.33-12.261-25.33-26.513c0-14.65,11.874-26.536,26.536-26.536
		c1.319,0,2.616,0.091,3.89,0.284"/>
	<path style="fill:#E0B394;" d="M370.988,227.313c14.104-0.626,25.341-12.261,25.341-26.513c0-14.65-11.886-26.536-26.547-26.536
		c-1.319,0-2.627,0.102-3.89,0.284"/>
</g>
<g>
	<circle style="fill:#447E8E;" cx="252.241" cy="313.172" r="50.804"/>
	<path style="fill:#447E8E;" d="M241.95,323.457h-43.342c-38.849,0-70.344,31.493-70.344,70.344v103.254h43.342V393.8
		C171.607,354.951,203.1,323.457,241.95,323.457z"/>
</g>
<path style="fill:#F7CBA4;" d="M337.318,308.089l-46.69,33.929c-22.896,16.629-53.89,16.629-76.775,0l-46.69-33.929
	c-24.67-17.925-38.023-47.566-35.089-77.923l8.098-83.804c0.58-6.04,1.638-11.931,3.128-17.641
	c9.918-38.092,39.092-67.96,76.104-79.231c5.334-1.626,10.828-2.866,16.458-3.685c5.346-0.785,10.817-1.194,16.379-1.194
	c28.992,0,55.619,11.01,75.683,29.231c19.302,17.527,32.552,41.731,36.01,69.222c0.148,1.092,0.273,2.195,0.375,3.298l8.098,83.804
	C375.341,260.523,361.988,290.164,337.318,308.089z"/>
<rect x="232.291" y="218.768" style="fill:#E0B394;" width="39.9" height="62.057"/>
<path style="fill:#E8BA97;" d="M161.129,246.682c-0.785,13.273,3.537,26.331,12.091,36.511l48.798,59.964
	c2.548,3.037,5.437,5.585,8.565,7.621c-5.869-2.047-11.51-4.982-16.731-8.769l-46.69-33.917
	c-24.67-17.925-38.012-47.566-35.077-77.923l8.087-83.804c5.528-57.154,53.139-100.899,110.385-101.729
	c-35.259,0.853-75.186,34.088-77.267,69.484L161.129,246.682z"/>
<circle style="fill:#F9C573;" cx="253.379" cy="296.43" r="30.71"/>
<circle style="fill:#E2AF66;" cx="253.379" cy="296.43" r="12.771"/>
<g>
	<path style="fill:#447E8E;" d="M253.38,332.826c-20.069,0-36.397-16.327-36.397-36.397c0-20.069,16.327-36.397,36.397-36.397
		s36.397,16.327,36.397,36.397C289.777,316.499,273.449,332.826,253.38,332.826z M253.38,271.406
		c-13.798,0-25.023,11.225-25.023,25.023s11.225,25.023,25.023,25.023c13.798,0,25.023-11.225,25.023-25.023
		C278.403,282.632,267.177,271.406,253.38,271.406z"/>
	<path style="fill:#447E8E;" d="M405.79,348.182c0,15.503-6.04,30.062-16.993,41.015c-3.753,3.765-7.962,6.961-12.58,9.554v-4.948
		c0-3.253-0.216-6.46-0.66-9.6c1.535-1.172,3.003-2.468,4.39-3.856c8.599-8.587,13.33-20.007,13.33-32.166
		c0-25.091-20.405-45.496-45.496-45.496h-63.694v-12.511h63.694C379.766,290.175,405.79,316.199,405.79,348.182z"/>
</g>
<path style="fill:#F9C573;" d="M53.983,255.482L53.983,255.482c-25.321,0-45.848,20.527-45.848,45.848v169.023
	c0,5.707,4.627,10.336,10.336,10.336h71.024c5.707,0,10.336-4.627,10.336-10.336V301.33
	C99.83,276.009,79.304,255.482,53.983,255.482z"/>
<path style="fill:#E2AF66;" d="M53.984,255.484c-9.622,0-17.414,20.519-17.414,45.849V480.69H18.471
	c-5.707,0-10.336-4.627-10.336-10.336V301.333C8.136,276.003,28.655,255.484,53.984,255.484z"/>
<path style="fill:#E0B394;" d="M363.933,143.064c-42.721-24.784-80.255-26.228-118.995-8.03c-9.429,4.436-19.04,6.893-28.435,7.962
	v0.011c-33.781,3.879-64.661-10.009-73.203-14.286c9.918-38.092,39.092-67.96,76.104-79.231c7.132,1.376,10.43,2.571,10.43,2.571
	s2.047-2.616,6.028-6.256c5.346-0.785,10.817-1.194,16.379-1.194c28.992,0,55.619,11.01,75.683,29.231
	C347.225,91.369,360.475,115.573,363.933,143.064z"/>
<path style="fill:#9B5F10;" d="M364.309,146.373l4.652,48.158c-4.174-13.069-13.694-23.738-25.99-29.459l-8.792-70.849
	c7.712,2.138,18.392,28.947,26.501,32.655C362.432,133.157,363.66,139.674,364.309,146.373z"/>
<path style="fill:#B27214;" d="M404.652,153.118c-61.42-44.359-109.191-50.046-156.961-23.885
	c-9.133,5.005-18.574,8.053-27.889,9.702v0.011c-39.411,7.029-76.354-10.794-76.354-10.794
	c-16.89-65.457,22.35-84.225,46.235-84.225c26.16,0,37.796,3.424,37.796,3.424s4.083-5.949,12.204-12.739
	c0.091-0.08,0.171-0.148,0.25-0.216c0.353-0.296,0.614-0.512,0.773-0.637c0.08-0.068,0.136-0.114,0.159-0.136l0.011-0.011h0.011
	c15.196-12.273,43.301-26.467,84.145-13.569C389.866,40.515,404.652,153.118,404.652,153.118z"/>
<circle style="fill:#C0E7F9;" cx="37.207" cy="221.077" r="16.777"/>
<path style="fill:#999999;" d="M37.207,242.971c-12.072,0-21.895-9.823-21.895-21.895s9.823-21.895,21.895-21.895
	s21.895,9.823,21.895,21.895S49.279,242.971,37.207,242.971z M37.207,209.417c-6.429,0-11.658,5.23-11.658,11.658
	c0,6.429,5.23,11.658,11.658,11.658s11.658-5.23,11.658-11.658C48.865,214.647,43.635,209.417,37.207,209.417z"/>
<g>
	<path style="fill:#E2AF66;" d="M99.435,320.884H8.531c-4.711,0-8.531-3.819-8.531-8.531c0-4.711,3.819-8.53,8.531-8.53h90.905
		c4.711,0,8.531,3.819,8.531,8.53C107.966,317.064,104.146,320.884,99.435,320.884z"/>
	<path style="fill:#E2AF66;" d="M99.435,438.036H8.531c-4.711,0-8.531-3.819-8.531-8.531s3.819-8.531,8.531-8.531h90.905
		c4.711,0,8.531,3.819,8.531,8.531S104.146,438.036,99.435,438.036z"/>
</g>
<g>
	<path style="fill:#447E8E;" d="M434.543,237.9c14.138,8.189,33.042,8.189,47.179,0h0.011l0.978,10.93
		c1.774,19.825,4.538,39.582,8.314,59.213c-7.143,11.567-19.211,19.154-32.894,19.154c-13.672,0-25.739-7.586-32.882-19.154
		c3.776-19.632,6.54-39.388,8.314-59.213L434.543,237.9z"/>
	<path style="fill:#447E8E;" d="M206.949,371.954c-17.857,17.198-28.094,41.276-28.094,66.06v59.043h-17.061v-59.043
		c0-29.402,12.147-57.951,33.326-78.344c3.389-3.276,8.792-3.173,12.056,0.228C210.441,363.287,210.35,368.69,206.949,371.954z"/>
	<path style="fill:#447E8E;" d="M342.686,438.014v59.043h-17.061v-59.043c0-24.784-10.237-48.863-28.094-66.06
		c-3.389-3.264-3.492-8.667-0.228-12.056c3.264-3.401,8.667-3.503,12.068-0.228C330.55,380.052,342.686,408.613,342.686,438.014z"/>
	<path style="fill:#447E8E;" d="M260.771,382.305v114.752H243.71V382.304c0-4.709,3.822-8.531,8.531-8.531
		C256.949,373.774,260.771,377.596,260.771,382.305z"/>
</g>
<path style="fill:#E0B394;" d="M371.292,224.319v0.921c0,16.799-13.615,30.403-30.403,30.403h-60.441
	c-2.844,0-5.414-1.149-7.279-3.014c-1.865-1.865-3.026-4.447-3.026-7.291c0-4.891-1.979-9.327-5.187-12.534
	c-3.207-3.207-7.643-5.187-12.534-5.187s-9.327,1.979-12.534,5.187c-3.207,3.207-5.198,7.643-5.198,12.534
	c0,5.698-4.606,10.305-10.305,10.305h-60.43c-16.799,0-30.414-13.603-30.414-30.403v-4.572l1.808-18.756
	c3.913-13.91,13.808-25.319,26.74-31.256v-0.011c6.21-2.855,13.137-4.447,20.428-4.447h139.809c7.37,0,14.377,1.638,20.644,4.561
	c12.295,5.721,21.815,16.39,25.99,29.459L371.292,224.319z"/>
<path style="fill:#F9C573;" d="M371.292,218.632v0.921c0,16.799-13.615,30.403-30.403,30.403h-60.441
	c-2.844,0-5.414-1.149-7.279-3.014c-1.865-1.865-3.026-4.447-3.026-7.291c0-4.891-1.979-9.327-5.187-12.534
	c-3.207-3.207-7.643-5.187-12.534-5.187s-9.327,1.979-12.534,5.187c-3.207,3.207-5.198,7.643-5.198,12.534
	c0,5.698-4.606,10.305-10.305,10.305h-60.43c-16.799,0-30.414-13.603-30.414-30.403v-4.572l1.808-18.756
	c3.913-13.91,13.808-25.319,26.74-31.256v-0.011c6.21-2.855,13.137-4.447,20.428-4.447h139.809c7.37,0,14.377,1.638,20.644,4.561
	c12.295,5.721,21.815,16.39,25.99,29.459L371.292,218.632z"/>
<path style="fill:#9B5F10;" d="M239.683,34.612c-8.121,6.79-12.204,12.739-12.204,12.739s-11.636-3.424-37.796-3.424
	c-23.885,0-63.126,18.767-46.235,84.225c-1.57,5.88-2.673,11.977-3.276,18.221l-4.823,49.852
	c3.913-13.91,13.808-25.319,26.74-31.256v-0.011l8.292-27.923v-0.007c13.724,3.126,31.306,5.149,49.42,1.918v-0.011
	C196.621,76.082,232.518,40.845,239.683,34.612z"/>
<g>
	<path style="fill:#C0E7F9;" d="M330.047,192.609h-23.885c-8.48,0-15.355,6.874-15.355,15.355l0,0
		c0,8.48,6.874,15.355,15.355,15.355h23.885c8.48,0,15.355-6.874,15.355-15.355l0,0
		C345.401,199.483,338.526,192.609,330.047,192.609z"/>
	<path style="fill:#C0E7F9;" d="M214.035,207.964c0,8.485-6.881,15.355-15.355,15.355h-23.885c-4.242,0-8.087-1.717-10.862-4.493
		c-2.775-2.787-4.493-6.62-4.493-10.862c0-8.485,6.87-15.355,15.355-15.355h23.885c4.242,0,8.076,1.717,10.851,4.493
		C212.318,199.888,214.035,203.721,214.035,207.964z"/>
</g>
<g>
	<path style="fill:#E6F6FC;" d="M214.035,207.964c0,8.485-6.881,15.355-15.355,15.355h-17.209l14.331-30.71h2.878
		c4.242,0,8.076,1.717,10.851,4.493C212.318,199.888,214.035,203.721,214.035,207.964z"/>
	<path style="fill:#E6F6FC;" d="M345.401,207.964c0,8.485-6.881,15.355-15.355,15.355h-17.209l14.331-30.71h2.878
		c4.243,0,8.076,1.717,10.851,4.493C343.684,199.888,345.401,203.721,345.401,207.964z"/>
</g>
<g>
	<path style="fill:#E2AF66;" d="M330.047,227.868h-23.885c-10.975,0-19.905-8.93-19.905-19.905c0-10.975,8.93-19.905,19.905-19.905
		h23.885c10.975,0,19.905,8.93,19.905,19.905C349.951,218.938,341.021,227.868,330.047,227.868z M306.161,197.158
		c-5.958,0-10.805,4.848-10.805,10.805s4.848,10.805,10.805,10.805h23.885c5.958,0,10.805-4.848,10.805-10.805
		s-4.848-10.805-10.805-10.805H306.161z"/>
	<path style="fill:#E2AF66;" d="M198.677,227.868h-23.885c-10.975,0-19.905-8.93-19.905-19.905c0-10.975,8.93-19.905,19.905-19.905
		h23.885c10.975,0,19.905,8.93,19.905,19.905C218.581,218.938,209.651,227.868,198.677,227.868z M174.791,197.158
		c-5.958,0-10.805,4.848-10.805,10.805s4.848,10.805,10.805,10.805h23.885c5.958,0,10.805-4.848,10.805-10.805
		s-4.848-10.805-10.805-10.805H174.791z"/>
	<path style="fill:#E2AF66;" d="M340.888,252.8h-60.441c-3.51,0-6.81-1.366-9.289-3.847c-2.489-2.489-3.858-5.792-3.858-9.302
		c0-3.979-1.546-7.716-4.354-10.523c-2.807-2.807-6.545-4.354-10.523-4.354c-3.979,0-7.716,1.546-10.523,4.354
		c-2.815,2.815-4.365,6.553-4.365,10.523c0,7.25-5.899,13.148-13.148,13.148h-60.43c-18.338,0-33.258-14.914-33.258-33.246
		l0.014-4.845l1.901-19.253c3.956-14.065,13.614-25.734,26.635-32.274v-0.035l1.656-0.772c6.795-3.123,14.067-4.708,21.615-4.708
		h139.809c7.627,0,14.977,1.624,21.846,4.828c13.093,6.091,23.115,17.453,27.497,31.17l0.093,0.289l2.374,24.677v0.921
		C374.134,237.886,359.221,252.8,340.888,252.8z M252.422,219.087c5.497,0,10.663,2.137,14.545,6.019
		c3.882,3.883,6.019,9.048,6.019,14.545c0,1.99,0.779,3.866,2.193,5.281c1.406,1.406,3.277,2.18,5.268,2.18h60.441
		c15.196,0,27.559-12.364,27.559-27.559v-0.784l-2.288-23.658c-3.947-12.081-12.821-22.079-24.388-27.461
		c-6.112-2.85-12.654-4.296-19.444-4.296H182.519c-6.46,0-12.691,1.302-18.533,3.869l-0.709,0.331
		c-12.262,5.63-21.407,16.264-25.121,29.201l-1.771,18.363v4.436c0,15.196,12.368,27.559,27.571,27.559h60.43
		c4.114,0,7.461-3.347,7.461-7.461c0-5.49,2.142-10.655,6.032-14.545C241.759,221.225,246.924,219.087,252.422,219.087z"/>
</g>
<g>
</g>
<g>
</g>
<g>
</g>
<g>
</g>
<g>
</g>
<g>
</g>
<g>
</g>
<g>
</g>
<g>
</g>
<g>
</g>
<g>
</g>
<g>
</g>
<g>
</g>
<g>
</g>
<g>
</g>
</svg>
