<?xml version="1.0" encoding="iso-8859-1"?>
<!-- Generator: Adobe Illustrator 19.0.0, SVG Export Plug-In . SVG Version: 6.00 Build 0)  -->
<svg version="1.1" id="Layer_1" xmlns="http://www.w3.org/2000/svg" xmlns:xlink="http://www.w3.org/1999/xlink" x="0px" y="0px"
	 viewBox="0 0 512.001 512.001" style="enable-background:new 0 0 512.001 512.001;" xml:space="preserve">
<path style="fill:#F9C573;" d="M465.949,506.067c-3.438,0-6.226-2.787-6.226-6.226v-84.026c0-3.439,2.788-6.226,6.226-6.226
	c3.438,0,6.226,2.787,6.226,6.226v84.026C472.175,503.279,469.387,506.067,465.949,506.067z"/>
<path style="fill:#64B4D8;" d="M172.058,460.528H6.039c-3.336,0-6.039-2.704-6.039-6.039V333.211h172.058V460.528z"/>
<path style="fill:#71C5F4;" d="M172.058,453.359H6.039c-3.336,0-6.039-2.704-6.039-6.039V326.042h172.058V453.359z"/>
<rect x="7.615" y="391.478" style="fill:#E0C8A2;" width="169.534" height="53.542"/>
<path style="fill:#FCE8CA;" d="M137.213,302.14c-12.395,0-22.435,10.052-22.435,22.435c0-8.897-5.184-16.595-12.712-20.217
	c-2.943-1.426-6.237-2.219-9.724-2.219H7.615v113.321h77.607c6.26,0,12.067,1.947,16.844,5.275
	c7.686,5.332,12.712,14.217,12.712,24.281c0-16.323,13.233-29.556,29.556-29.556h77.607v-11.082V302.14L137.213,302.14
	L137.213,302.14z"/>
<g>
	<rect x="147.483" y="326.04" style="fill:#999999;" width="56.791" height="12.452"/>
	<rect x="147.483" y="381.483" style="fill:#999999;" width="56.791" height="12.452"/>
	<rect x="147.483" y="353.761" style="fill:#999999;" width="56.791" height="12.452"/>
</g>
<g>
	<path style="fill:#EDD9BE;" d="M114.778,324.576v120.441c0-10.063-5.026-18.949-12.712-24.281V304.359
		C109.593,307.981,114.778,315.679,114.778,324.576z"/>
	<path style="fill:#EDD9BE;" d="M114.778,324.576v120.441c0-10.063,5.026-18.949,12.712-24.281V304.359
		C119.962,307.981,114.778,315.679,114.778,324.576z"/>
</g>
<path style="fill:#F9C573;" d="M465.949,433.286L465.949,433.286c-25.433,0-46.05-20.618-46.05-46.05v-60.168h92.102v60.168
	C512,412.669,491.382,433.286,465.949,433.286z"/>
<path style="fill:#E2AF66;" d="M439.201,387.235v-60.168h-19.302v60.168c0,25.433,20.618,46.052,46.05,46.052l0,0
	C456.803,433.286,439.201,412.669,439.201,387.235z"/>
<polygon style="fill:#F9C573;" points="162.75,81.987 148.695,81.987 148.695,3.667 101.582,3.667 101.582,81.987 87.527,81.987 
	23.262,81.987 23.262,129.1 101.582,129.1 101.582,321.108 148.695,321.108 148.695,129.1 227.015,129.1 227.015,81.987 "/>
<g>
	<path style="fill:#E0B394;" d="M154.812,231.389c-14.036-0.623-25.209-12.203-25.209-26.386c0-14.58,11.818-26.409,26.409-26.409
		c1.313,0,2.604,0.091,3.871,0.283"/>
	<path style="fill:#E0B394;" d="M391.188,231.389c14.036-0.623,25.22-12.203,25.22-26.386c0-14.58-11.829-26.409-26.42-26.409
		c-1.313,0-2.615,0.102-3.871,0.283"/>
</g>
<path style="fill:#666666;" d="M396.39,397.085v102.759H149.623V397.085c0-26.013,14.183-48.697,35.238-60.775
	c3.464-1.992,7.12-3.702,10.935-5.071c7.448-2.694,15.474-4.166,23.839-4.166H326.39c8.365,0,16.391,1.472,23.839,4.166
	c3.815,1.37,7.471,3.079,10.935,5.071C382.207,348.388,396.39,371.072,396.39,397.085z"/>
<path style="fill:#4D4D4D;" d="M262.766,327.074h-43.135c-38.663,0-70.007,31.343-70.007,70.007v102.761h43.135V397.082
	C192.76,358.417,224.102,327.074,262.766,327.074z"/>
<rect x="264.517" y="343.211" style="fill:#FFFFFF;" width="16.979" height="37.333"/>
<path style="fill:#F7CBA4;" d="M234.801,345.542l-46.466-33.76c-24.555-17.84-37.838-47.341-34.919-77.552l8.06-83.401
	c5.551-57.441,53.821-101.272,111.53-101.272l0,0c57.709,0,105.979,43.831,111.53,101.272l8.06,83.401
	c2.919,30.211-10.363,59.711-34.919,77.552l-46.466,33.76C288.428,362.093,257.581,362.093,234.801,345.542z"/>
<path style="fill:#E8BA97;" d="M182.332,250.667c-0.781,13.21,3.52,26.205,12.033,36.336l48.565,59.677
	c2.536,3.022,5.411,5.558,8.524,7.584c-5.841-2.038-11.455-4.958-16.651-8.727l-46.467-33.755
	c-24.552-17.84-37.83-47.339-34.91-77.551l8.048-83.403c5.501-56.881,52.885-100.416,109.857-101.243
	c-35.091,0.849-74.826,33.925-76.898,69.152L182.332,250.667z"/>
<path style="fill:#4D4D4D;" d="M370.967,107.201c-3.147,0.521-6.373,0.792-9.667,0.792c-17.251,0-32.77-7.346-43.648-19.062
	c-10.912,12.361-26.861,20.172-44.645,20.172s-33.744-7.811-44.656-20.172c-10.867,11.716-26.397,19.062-43.637,19.062
	c-3.294,0-6.52-0.272-9.667-0.792c19.209-34.581,56.111-57.639,97.96-57.639c28.854,0,55.353,10.957,75.321,29.091
	C357.326,86.825,365.001,96.458,370.967,107.201z"/>
<polygon style="fill:#999999;" points="77.873,346.02 61.649,346.02 61.649,327.598 48.065,327.598 48.065,346.02 31.841,346.02 
	31.841,359.603 48.065,359.603 48.065,386.015 61.649,386.015 61.649,359.603 77.873,359.603 "/>
<path style="fill:#333333;" d="M361.164,336.31l-84.15,84.15c-1.109,1.109-2.558,1.653-4.007,1.653s-2.898-0.543-3.996-1.653
	l-84.15-84.15c3.464-1.992,7.12-3.702,10.935-5.071l77.211,77.211l77.222-77.211C354.044,332.608,357.7,334.318,361.164,336.31z"/>
<g>
	<rect x="267.347" y="414.763" style="fill:#E2AF66;" width="11.32" height="54.459"/>
	<rect x="251.126" y="431.482" style="fill:#E2AF66;" width="43.77" height="11.32"/>
</g>
<path style="fill:#C49270;" d="M294.31,300.741H251.7c-3.439,0-6.226-2.787-6.226-6.226c0-3.439,2.787-6.226,6.226-6.226h42.61
	c3.438,0,6.226,2.787,6.226,6.226C300.536,297.954,297.748,300.741,294.31,300.741z"/>
<path style="fill:#E0B394;" d="M280.146,316.22h-14.282c-2.503,0-4.532-2.028-4.532-4.532s2.029-4.532,4.532-4.532h14.283
	c2.503,0,4.532,2.028,4.532,4.532S282.649,316.22,280.146,316.22z"/>
<path style="fill:#F9C573;" d="M496.554,508.331h-61.21l0,0c0-9.377,11.188-16.979,24.99-16.979h11.229
	C485.366,491.351,496.554,498.954,496.554,508.331L496.554,508.331z"/>
<path style="fill:#E2AF66;" d="M460.327,491.355h1.822c-4.652,0-8.863,1.902-11.92,4.969c-3.045,3.068-4.935,7.324-4.935,12.01
	h-9.95c0-4.686,2.796-8.943,7.312-12.01C447.185,493.256,453.433,491.355,460.327,491.355z"/>
<circle style="fill:#F9C573;" cx="436.892" cy="346.392" r="8.679"/>
<g>
	<circle style="fill:#E2AF66;" cx="465.949" cy="346.392" r="8.679"/>
	<circle style="fill:#E2AF66;" cx="495.007" cy="346.392" r="8.679"/>
</g>
<path style="fill:#4D4D4D;" d="M222.614,234.629c-4.689,0-8.49-3.801-8.49-8.49V212.56c0-4.689,3.801-8.49,8.49-8.49
	s8.49,3.801,8.49,8.49v13.579C231.104,230.828,227.302,234.629,222.614,234.629z"/>
<g>
	<path style="fill:#666666;" d="M303.986,188.789c0,0,0.023-0.225,0.098-0.612c0.087-0.375,0.175-0.967,0.366-1.637
		c0.085-0.346,0.195-0.707,0.32-1.105c0.164-0.403,0.385-0.808,0.619-1.268c0.232-0.462,0.525-0.918,0.833-1.431
		c0.31-0.521,0.68-0.916,1.06-1.418c0.385-0.483,0.818-0.951,1.271-1.453c0.479-0.454,0.998-0.901,1.551-1.35
		c1.081-0.952,2.402-1.64,3.779-2.405c1.424-0.602,2.935-1.255,4.554-1.558c1.603-0.417,3.284-0.515,4.96-0.593
		c1.676,0.077,3.359,0.166,4.963,0.581c1.62,0.299,3.132,0.955,4.557,1.553c1.378,0.764,2.7,1.451,3.782,2.404
		c0.551,0.451,1.072,0.899,1.552,1.35c0.453,0.504,0.884,0.976,1.271,1.456c0.374,0.5,0.762,0.911,1.046,1.412
		c0.285,0.498,0.561,0.944,0.786,1.396c0.223,0.453,0.439,0.851,0.602,1.253c0.148,0.419,0.28,0.798,0.377,1.157
		c0.215,0.694,0.305,1.29,0.387,1.664c0.072,0.386,0.088,0.606,0.088,0.606s-0.234-0.006-0.631-0.044
		c-0.385-0.05-0.983-0.075-1.642-0.171c-0.342-0.035-0.69-0.098-1.074-0.149c-0.409-0.019-0.812-0.076-1.25-0.11
		c-0.859-0.091-1.756-0.225-2.742-0.264c-0.484-0.032-0.954-0.102-1.446-0.143c-0.508-0.007-1.01-0.033-1.508-0.07
		c-0.976-0.127-2.036-0.052-3.021-0.175c-1.036,0.037-2.027-0.089-3.054-0.058c-1.01-0.076-2.031,0.005-3.044-0.067
		c-1.013,0.069-2.034-0.019-3.046,0.054c-1.028-0.036-2.019,0.095-3.057,0.053c-0.986,0.122-2.049,0.046-3.025,0.174
		c-0.498,0.037-1,0.065-1.509,0.07c-0.491,0.041-0.959,0.115-1.446,0.145c-1.005,0.054-1.841,0.149-2.679,0.222
		c-0.44,0.034-0.852,0.066-1.234,0.094c-0.406,0.074-0.778,0.155-1.131,0.201c-0.685,0.121-1.284,0.149-1.664,0.198
		C304.212,188.789,303.986,188.789,303.986,188.789z"/>
	<path style="fill:#666666;" d="M203.203,188.789c0,0,0.023-0.225,0.098-0.612c0.087-0.375,0.175-0.967,0.366-1.637
		c0.085-0.346,0.195-0.707,0.32-1.105c0.164-0.403,0.385-0.808,0.619-1.268c0.232-0.462,0.525-0.918,0.833-1.431
		c0.31-0.521,0.68-0.916,1.06-1.418c0.385-0.483,0.818-0.951,1.271-1.453c0.479-0.454,0.998-0.901,1.551-1.35
		c1.081-0.952,2.402-1.64,3.778-2.405c1.424-0.602,2.935-1.255,4.554-1.558c1.603-0.417,3.284-0.515,4.96-0.593
		c1.676,0.077,3.359,0.166,4.963,0.581c1.62,0.299,3.132,0.955,4.557,1.553c1.378,0.764,2.7,1.451,3.782,2.404
		c0.551,0.451,1.072,0.899,1.552,1.35c0.453,0.504,0.884,0.976,1.271,1.456c0.374,0.5,0.762,0.911,1.046,1.412
		c0.285,0.498,0.561,0.944,0.786,1.396c0.223,0.453,0.439,0.851,0.602,1.253c0.148,0.419,0.28,0.798,0.377,1.157
		c0.215,0.694,0.304,1.29,0.387,1.664c0.072,0.386,0.088,0.606,0.088,0.606s-0.234-0.006-0.631-0.044
		c-0.385-0.05-0.983-0.075-1.642-0.171c-0.342-0.035-0.69-0.098-1.074-0.149c-0.409-0.019-0.812-0.076-1.25-0.11
		c-0.859-0.091-1.756-0.225-2.742-0.264c-0.484-0.032-0.954-0.102-1.446-0.143c-0.508-0.007-1.01-0.033-1.508-0.07
		c-0.976-0.127-2.036-0.052-3.021-0.175c-1.036,0.037-2.027-0.089-3.054-0.058c-1.01-0.076-2.031,0.005-3.044-0.067
		c-1.013,0.069-2.034-0.019-3.046,0.054c-1.028-0.036-2.019,0.095-3.057,0.053c-0.986,0.122-2.049,0.046-3.025,0.174
		c-0.498,0.037-1,0.065-1.509,0.07c-0.491,0.041-0.959,0.115-1.446,0.145c-1.005,0.054-1.841,0.149-2.679,0.222
		c-0.44,0.034-0.852,0.066-1.234,0.094c-0.406,0.074-0.778,0.155-1.131,0.201c-0.685,0.121-1.284,0.149-1.664,0.198
		C203.429,188.789,203.203,188.789,203.203,188.789z"/>
</g>
<path style="fill:#4D4D4D;" d="M323.396,234.629c-4.689,0-8.49-3.801-8.49-8.49V212.56c0-4.689,3.801-8.49,8.49-8.49
	c4.689,0,8.49,3.801,8.49,8.49v13.579C331.886,230.828,328.086,234.629,323.396,234.629z"/>
<path style="fill:#E0B394;" d="M286.023,200.109v40.185c0,7.189-5.828,13.018-13.018,13.018l0,0
	c-7.189,0-13.018-5.828-13.018-13.018v-40.185"/>
<g>
</g>
<g>
</g>
<g>
</g>
<g>
</g>
<g>
</g>
<g>
</g>
<g>
</g>
<g>
</g>
<g>
</g>
<g>
</g>
<g>
</g>
<g>
</g>
<g>
</g>
<g>
</g>
<g>
</g>
</svg>
