<?xml version="1.0" encoding="iso-8859-1"?>
<!-- Generator: Adobe Illustrator 19.0.0, SVG Export Plug-In . SVG Version: 6.00 Build 0)  -->
<svg version="1.1" id="Layer_1" xmlns="http://www.w3.org/2000/svg" xmlns:xlink="http://www.w3.org/1999/xlink" x="0px" y="0px"
	 viewBox="0 0 512 512" style="enable-background:new 0 0 512 512;" xml:space="preserve">
<polygon style="fill:#FCE8CA;" points="201.277,284.192 0,284.192 0,464.182 169.581,464.182 "/>
<g>
	<rect x="24.931" y="311.554" style="fill:#808080;" width="112.093" height="13.378"/>
	<rect x="24.931" y="365.673" style="fill:#808080;" width="112.093" height="13.378"/>
	<rect x="24.931" y="338.613" style="fill:#808080;" width="112.093" height="13.378"/>
	<rect x="24.931" y="392.732" style="fill:#808080;" width="112.093" height="13.378"/>
	<rect x="24.931" y="419.791" style="fill:#808080;" width="112.093" height="13.378"/>
</g>
<rect x="390.385" y="403.471" style="fill:#E6E6E6;" width="121.615" height="107.398"/>
<path style="fill:#E0B394;" d="M130.836,222.451c-15.08-0.669-27.084-13.11-27.084-28.349c0-15.664,12.697-28.373,28.373-28.373
	c1.411,0,2.797,0.097,4.159,0.304"/>
<path style="fill:#71C5F4;" d="M390.388,400.469v110.402H125.267V400.469c0-36.655,26.22-67.18,60.917-73.857
	c4.621-0.9,9.401-1.362,14.29-1.362h114.695c4.889,0,9.656,0.462,14.278,1.362C364.168,333.277,390.388,363.814,390.388,400.469z"/>
<g>
	<path style="fill:#64B4D8;" d="M329.447,326.612l-17.5,96.927l-54.119-38.455l-54.131,38.455l-17.513-96.927
		c4.621-0.9,9.401-1.362,14.29-1.362h114.695C320.058,325.25,324.826,325.712,329.447,326.612z"/>
	<path style="fill:#64B4D8;" d="M246.819,325.253h-46.343c-41.539,0-75.214,33.674-75.214,75.214V510.87h46.343V400.467
		C171.606,358.927,205.28,325.253,246.819,325.253z"/>
</g>
<path style="fill:#E0B394;" d="M310.75,257.824v67.565c0,29.225-23.697,52.922-52.922,52.922c-29.235,0-52.922-23.697-52.922-52.922
	v-67.565H310.75z"/>
<path style="fill:#F7CBA4;" d="M386.582,239.511c-1.52,27.363-15.226,52.915-37.798,69.309l-11.335,8.233l-3.417,2.481
	l-35.171,25.564c-24.469,17.78-57.609,17.78-82.09,0l-49.923-36.278c-26.378-19.167-40.644-50.859-37.506-83.319L138,135.895
	c0.243-2.578,0.584-5.132,0.985-7.65c9.328-57.913,59.421-101.147,118.83-101.147c31,0,59.47,11.772,80.935,31.255
	c21.453,19.483,35.913,46.688,38.893,77.542l8.659,89.606C386.752,230.196,386.849,234.878,386.582,239.511z"/>
<path style="fill:#E8BA97;" d="M160.403,243.162c-0.839,14.192,3.782,28.154,12.928,39.038l52.177,64.116
	c2.724,3.247,5.813,5.971,9.158,8.148c-6.275-2.189-12.307-5.327-17.89-9.377l-49.923-36.266
	c-26.378-19.167-40.644-50.859-37.506-83.319l8.647-89.606c5.911-61.112,56.819-107.885,118.028-108.773
	c-37.701,0.912-80.391,36.448-82.617,74.295L160.403,243.162z"/>
<path style="fill:#C9628C;" d="M160.536,135.53c0,0-5.875,68.497-30.3,80.767l5.54-57.405l-1.386-36.132L160.536,135.53z"/>
<path style="fill:#E0739B;" d="M359.583,299.626c19.848-59.202,17.427-162.587-78.649-156.507c-24.603,1.557-44.341-9-58.217-20.407
	c-15.092-12.393-23.265-25.807-23.265-25.807s-28.847,52.209-63.678,61.987l-0.693,7.139h-0.012
	c-1.362-0.207-2.749-0.304-4.159-0.304c-5.533,0-10.702,1.581-15.068,4.329c-15.36-30.732-8.525-76.824,3.344-99.907
	c21.891-42.565,69.211-21.015,69.211-21.015c0-11.347,5.643-20.139,13.706-26.926c6.324-5.321,14.138-9.403,21.892-12.503
	c18.302-7.315,38.151-9.767,57.785-8.056c110.931,9.665,139.898,98.788,145.566,120.904
	C453.166,223.361,359.583,299.626,359.583,299.626z"/>
<path style="fill:#C9628C;" d="M222.718,122.712c-15.092-12.393-23.265-25.807-23.265-25.807s-28.847,52.209-63.678,61.987
	l-0.693,7.139h-0.012c-1.362-0.207-2.749-0.304-4.159-0.304c-5.534,0-10.702,1.581-15.068,4.329
	c-15.36-30.732-8.525-76.824,3.344-99.907c21.891-42.565,69.211-21.015,69.211-21.015c0-11.347,5.643-20.139,13.706-26.926
	C168.879,73.069,222.718,122.712,222.718,122.712z"/>
<rect x="248.703" y="380.826" style="fill:#64B4D8;" width="18.242" height="130.031"/>
<rect x="153.162" y="449.988" style="fill:#F2F2F2;" width="64.797" height="32.836"/>
<rect x="153.162" y="449.988" style="fill:#E6E6E6;" width="18.437" height="32.836"/>
<rect x="314.789" y="454.658" style="fill:#64B4D8;" width="57.159" height="18.242"/>
<g>
	<rect x="390.385" y="431.345" style="fill:#B3B3B3;" width="121.615" height="13.378"/>
	<rect x="390.385" y="469.045" style="fill:#B3B3B3;" width="121.615" height="13.378"/>
</g>
<circle style="fill:#808080;" cx="236.14" cy="421.725" r="7.702"/>
<g>
	<path style="fill:#4D4D4D;" d="M203.682,235.683c-5.039,0-9.121-4.084-9.121-9.121v-14.589c0-5.037,4.083-9.121,9.121-9.121
		c5.039,0,9.121,4.084,9.121,9.121v14.589C212.804,231.599,208.72,235.683,203.682,235.683z"/>
	<path style="fill:#4D4D4D;" d="M311.961,235.683c-5.039,0-9.121-4.084-9.121-9.121v-14.589c0-5.037,4.083-9.121,9.121-9.121
		c5.039,0,9.121,4.084,9.121,9.121v14.589C321.082,231.599,317,235.683,311.961,235.683z"/>
</g>
<path style="fill:#E0B394;" d="M267.355,237.079h-0.415v-18.85c0-5.037-4.083-9.121-9.121-9.121c-5.039,0-9.121,4.084-9.121,9.121
	v18.85h-0.415c-5.039,0-9.121,4.084-9.121,9.121c0,5.037,4.083,9.121,9.121,9.121h19.072c5.039,0,9.121-4.084,9.121-9.121
	C276.476,241.163,272.394,237.079,267.355,237.079z"/>
<path style="fill:#F2F2F2;" d="M293.734,278.333c0,0-0.523,1.703-1.624,4.39c-0.266,0.693-0.578,1.423-0.927,2.213
	c-0.412,0.778-0.89,1.569-1.403,2.457s-1.101,1.788-1.725,2.785c-0.22,0.377-0.458,0.693-0.715,1.022
	c-0.091,0.122-0.192,0.243-0.293,0.365c-0.358,0.438-0.725,0.9-1.101,1.362c-0.753,0.936-1.569,1.861-2.421,2.834
	c-0.899,0.876-1.862,1.703-2.853,2.603c-0.495,0.45-1.009,0.888-1.532,1.326c-0.523,0.413-1.082,0.754-1.652,1.131
	c-1.119,0.754-2.284,1.484-3.486,2.213c-2.477,1.119-5.054,2.432-7.806,2.98c-2.716,0.839-5.549,0.973-8.376,1.155
	c-2.825-0.182-5.66-0.304-8.376-1.143c-2.752-0.547-5.329-1.861-7.806-2.98c-1.202-0.718-2.367-1.447-3.495-2.201
	c-0.559-0.377-1.119-0.718-1.652-1.131c-0.513-0.45-1.028-0.876-1.523-1.326c-0.991-0.9-1.963-1.739-2.862-2.603
	c-0.853-0.973-1.66-1.909-2.421-2.834c-0.376-0.474-0.733-0.924-1.092-1.374c-0.129-0.158-0.257-0.316-0.386-0.474
	c-0.22-0.292-0.432-0.572-0.614-0.9c-0.596-0.961-1.175-1.849-1.678-2.724c-0.495-0.888-0.981-1.666-1.385-2.444
	c-0.367-0.827-0.707-1.581-0.991-2.274c-1.147-2.773-1.624-4.427-1.624-4.427s1.357,0.547,3.449,1.666
	c0.533,0.268,1.082,0.596,1.697,0.924c0.652,0.255,1.321,0.584,2.037,0.9c0.725,0.316,1.45,0.705,2.219,1.07
	c0.761,0.389,1.624,0.645,2.477,0.985c0.854,0.328,1.706,0.73,2.596,1.082c0.927,0.268,1.853,0.584,2.807,0.888
	c0.477,0.146,0.945,0.328,1.422,0.499c0.486,0.146,0.991,0.231,1.486,0.365c1,0.231,1.999,0.499,3,0.803
	c2.082,0.255,4.137,0.863,6.284,0.973c2.119,0.365,4.285,0.268,6.431,0.438c2.156-0.17,4.321-0.061,6.44-0.426
	c2.146-0.097,4.202-0.718,6.284-0.973c1-0.292,1.999-0.559,3-0.79c0.495-0.134,1-0.219,1.486-0.365
	c0.477-0.182,0.955-0.353,1.422-0.499c0.955-0.304,1.88-0.632,2.807-0.888c0.899-0.353,1.752-0.754,2.605-1.082
	c0.844-0.341,1.725-0.608,2.459-0.985c0.753-0.341,1.458-0.718,2.174-1.009c0.707-0.316,1.367-0.632,2.018-0.888
	c0.642-0.365,1.211-0.717,1.752-0.997C292.403,278.844,293.734,278.333,293.734,278.333z"/>
<path style="fill:#4D4D4D;" d="M287.34,291.2c-0.091,0.122-0.192,0.243-0.293,0.365c-0.358,0.438-0.725,0.9-1.101,1.362
	c-0.753,0.936-1.569,1.861-2.421,2.834c-0.899,0.876-1.862,1.703-2.853,2.603c-0.495,0.45-1.009,0.888-1.532,1.326
	c-0.523,0.413-1.082,0.754-1.652,1.131c-1.119,0.754-2.284,1.484-3.485,2.213c-2.477,1.119-5.054,2.432-7.806,2.98
	c-2.716,0.839-5.549,0.973-8.376,1.155c-2.825-0.182-5.66-0.304-8.376-1.143c-2.752-0.547-5.329-1.861-7.806-2.98
	c-1.202-0.718-2.367-1.447-3.495-2.201c-0.559-0.377-1.119-0.718-1.652-1.131c-0.513-0.45-1.028-0.876-1.523-1.326
	c-0.991-0.9-1.963-1.739-2.862-2.603c-0.853-0.973-1.66-1.909-2.421-2.834c-0.376-0.474-0.733-0.924-1.092-1.374
	c-0.129-0.158-0.257-0.316-0.386-0.474c0.293,0.134,0.587,0.268,0.89,0.401c0.725,0.316,1.45,0.693,2.219,1.058
	c0.761,0.401,1.624,0.657,2.477,0.997c0.854,0.328,1.706,0.718,2.596,1.082c0.927,0.255,1.853,0.584,2.807,0.888
	c0.477,0.146,0.945,0.316,1.422,0.486c0.486,0.146,0.991,0.231,1.486,0.365c1,0.231,1.999,0.511,3,0.803
	c2.082,0.268,4.137,0.876,6.284,0.973c2.119,0.377,4.285,0.268,6.431,0.45c2.156-0.17,4.321-0.061,6.44-0.438
	c2.147-0.097,4.202-0.705,6.284-0.961c1-0.292,1.999-0.572,3-0.803c0.495-0.134,1-0.219,1.486-0.365
	c0.477-0.17,0.955-0.341,1.422-0.486c0.955-0.304,1.88-0.632,2.807-0.888c0.899-0.365,1.752-0.766,2.605-1.082
	c0.844-0.341,1.724-0.62,2.459-0.985c0.753-0.353,1.458-0.718,2.174-1.022C286.781,291.456,287.064,291.322,287.34,291.2z"/>
<g>
	<path style="fill:#666666;" d="M291.107,191.386c0,0,0.024-0.242,0.106-0.658c0.094-0.403,0.189-1.039,0.393-1.759
		c0.091-0.372,0.209-0.76,0.344-1.187c0.176-0.433,0.413-0.868,0.665-1.362c0.249-0.496,0.564-0.986,0.895-1.537
		c0.333-0.559,0.731-0.984,1.138-1.524c0.414-0.519,0.879-1.022,1.366-1.562c0.514-0.488,1.073-0.968,1.666-1.451
		c1.161-1.023,2.581-1.762,4.06-2.584c1.53-0.647,3.153-1.349,4.893-1.673c1.722-0.448,3.528-0.553,5.329-0.637
		c1.801,0.083,3.608,0.179,5.332,0.624c1.74,0.321,3.365,1.026,4.896,1.669c1.48,0.821,2.901,1.559,4.063,2.583
		c0.592,0.484,1.152,0.966,1.667,1.451c0.486,0.541,0.95,1.048,1.366,1.564c0.401,0.538,0.818,0.979,1.124,1.517
		c0.306,0.535,0.603,1.014,0.844,1.5c0.24,0.486,0.472,0.915,0.647,1.346c0.159,0.45,0.3,0.857,0.405,1.243
		c0.231,0.746,0.327,1.386,0.416,1.788c0.078,0.415,0.095,0.651,0.095,0.651s-0.252-0.006-0.677-0.047
		c-0.413-0.054-1.056-0.08-1.765-0.184c-0.367-0.038-0.742-0.106-1.154-0.161c-0.439-0.021-0.872-0.081-1.343-0.118
		c-0.923-0.097-1.886-0.242-2.945-0.283c-0.521-0.034-1.025-0.109-1.553-0.153c-0.546-0.007-1.085-0.035-1.62-0.075
		c-1.048-0.136-2.188-0.056-3.246-0.189c-1.113,0.04-2.178-0.096-3.281-0.062c-1.085-0.081-2.182,0.005-3.27-0.072
		c-1.088,0.074-2.185-0.021-3.273,0.058c-1.104-0.039-2.17,0.102-3.285,0.057c-1.059,0.131-2.201,0.05-3.25,0.187
		c-0.535,0.04-1.074,0.069-1.621,0.075c-0.528,0.044-1.03,0.124-1.553,0.156c-1.08,0.058-1.977,0.161-2.879,0.238
		c-0.473,0.036-0.916,0.071-1.326,0.101c-0.437,0.079-0.836,0.167-1.215,0.216c-0.736,0.13-1.379,0.161-1.788,0.213
		C291.351,191.386,291.107,191.386,291.107,191.386z"/>
	<path style="fill:#666666;" d="M182.828,191.386c0,0,0.024-0.242,0.106-0.658c0.094-0.403,0.189-1.039,0.393-1.759
		c0.091-0.372,0.209-0.76,0.344-1.187c0.176-0.433,0.413-0.868,0.665-1.362c0.249-0.496,0.564-0.986,0.895-1.537
		c0.333-0.559,0.731-0.984,1.138-1.524c0.413-0.519,0.879-1.022,1.366-1.562c0.514-0.488,1.073-0.968,1.666-1.451
		c1.161-1.023,2.581-1.762,4.06-2.584c1.53-0.647,3.153-1.349,4.893-1.673c1.722-0.448,3.528-0.553,5.329-0.637
		c1.801,0.083,3.608,0.179,5.332,0.624c1.74,0.321,3.365,1.026,4.896,1.669c1.48,0.821,2.901,1.559,4.063,2.583
		c0.592,0.484,1.152,0.966,1.667,1.451c0.486,0.541,0.95,1.048,1.366,1.564c0.401,0.538,0.818,0.979,1.124,1.517
		c0.306,0.535,0.603,1.014,0.844,1.5c0.24,0.486,0.472,0.915,0.647,1.346c0.159,0.45,0.3,0.857,0.405,1.243
		c0.231,0.746,0.327,1.386,0.416,1.788c0.078,0.415,0.095,0.651,0.095,0.651s-0.252-0.006-0.677-0.047
		c-0.413-0.054-1.056-0.08-1.765-0.184c-0.367-0.038-0.742-0.106-1.154-0.161c-0.439-0.021-0.872-0.081-1.343-0.118
		c-0.923-0.097-1.886-0.242-2.946-0.283c-0.521-0.034-1.025-0.109-1.553-0.153c-0.546-0.007-1.085-0.035-1.62-0.075
		c-1.048-0.136-2.188-0.056-3.246-0.189c-1.113,0.04-2.178-0.096-3.281-0.062c-1.085-0.081-2.182,0.005-3.27-0.072
		c-1.088,0.074-2.185-0.021-3.273,0.058c-1.104-0.039-2.17,0.102-3.285,0.057c-1.059,0.131-2.201,0.05-3.25,0.187
		c-0.535,0.04-1.074,0.069-1.621,0.075c-0.528,0.044-1.03,0.124-1.553,0.156c-1.08,0.058-1.977,0.161-2.879,0.238
		c-0.473,0.036-0.916,0.071-1.326,0.101c-0.437,0.079-0.835,0.167-1.215,0.216c-0.736,0.13-1.379,0.161-1.788,0.213
		C183.072,191.386,182.828,191.386,182.828,191.386z"/>
</g>
<g>
</g>
<g>
</g>
<g>
</g>
<g>
</g>
<g>
</g>
<g>
</g>
<g>
</g>
<g>
</g>
<g>
</g>
<g>
</g>
<g>
</g>
<g>
</g>
<g>
</g>
<g>
</g>
<g>
</g>
</svg>
