<?xml version="1.0" encoding="iso-8859-1"?>
<!-- Generator: Adobe Illustrator 19.0.0, SVG Export Plug-In . SVG Version: 6.00 Build 0)  -->
<svg version="1.1" id="Layer_1" xmlns="http://www.w3.org/2000/svg" xmlns:xlink="http://www.w3.org/1999/xlink" x="0px" y="0px"
	 viewBox="0 0 512 512" style="enable-background:new 0 0 512 512;" xml:space="preserve">
<path style="fill:#F76B4F;" d="M311.149,330.12H207.354c-37.592,0-68.067,30.474-68.067,68.067v99.912h239.927v-99.912
	C379.216,360.594,348.742,330.12,311.149,330.12z"/>
<rect x="250.999" y="399.258" style="fill:#E5624C;" width="16.509" height="98.843"/>
<path style="fill:#FCE8CA;" d="M139.102,229.687H86.544l7.241,40.063l-24.996-17.922l-30.885-22.142H26.561h-4.111
	C10.054,229.687,0,217.857,0,203.248v-65.633c0-14.608,10.054-26.448,22.451-26.448h25.945h32.286H139.1
	c9.859,0,17.85,7.992,17.85,17.85v82.818C156.952,221.695,148.959,229.687,139.102,229.687z"/>
<g>
	<rect x="27.199" y="136.131" style="fill:#666666;" width="104.071" height="12.106"/>
	<rect x="27.199" y="161.367" style="fill:#666666;" width="104.071" height="12.106"/>
	<rect x="27.199" y="187.044" style="fill:#666666;" width="104.071" height="12.106"/>
</g>
<path style="fill:#808080;" d="M306.123,72.536c0.77-3.401,1.178-6.945,1.178-10.588c0-26.535-21.516-48.051-48.051-48.051
	s-48.051,21.516-48.051,48.051c0,3.643,0.407,7.187,1.178,10.588"/>
<path style="fill:#666666;" d="M211.197,61.949c0,3.643,0.407,7.187,1.178,10.588h27.914c-0.311-3.401-0.477-6.945-0.477-10.588
	c0-26.535,8.703-48.051,19.436-48.051C232.714,13.897,211.197,35.413,211.197,61.949z"/>
<g>
	<path style="fill:#E0B394;" d="M144.332,237.088c-13.647-0.605-24.51-11.864-24.51-25.655c0-14.176,11.49-25.677,25.677-25.677
		c1.277,0,2.531,0.088,3.764,0.275L144.332,237.088z"/>
	<path style="fill:#E0B394;" d="M374.155,237.088c13.647-0.605,24.521-11.864,24.521-25.655c0-14.176-11.501-25.677-25.688-25.677
		c-1.277,0-2.542,0.099-3.764,0.275L374.155,237.088z"/>
</g>
<path style="fill:#E5624C;" d="M249.293,330.12h-41.939c-37.592,0-68.067,30.474-68.067,68.067v99.912h41.939v-99.912
	C181.227,360.594,211.702,330.12,249.293,330.12z"/>
<path style="fill:#E0B394;" d="M307.145,299.918v61.144c0,26.448-21.445,47.893-47.893,47.893
	c-26.457,0-47.893-21.445-47.893-47.893v-61.144H307.145z"/>
<path style="fill:#F7CBA4;" d="M222.103,348.076l-45.178-32.824c-23.874-17.345-36.789-46.029-33.951-75.402l7.836-81.089
	c5.397-55.849,52.329-78.653,108.438-78.653l0,0c56.109,0,103.041,22.804,108.438,78.653l7.836,81.089
	c2.838,29.373-10.077,58.056-33.951,75.402l-45.178,32.824C274.244,364.169,244.252,364.169,222.103,348.076z"/>
<path style="fill:#E0B394;" d="M171.089,255.831c-0.759,12.844,3.423,25.478,11.699,35.329l47.218,58.023
	c2.465,2.939,5.261,5.404,8.287,7.374c-5.679-1.981-11.138-4.821-16.19-8.486l-45.179-32.819
	c-23.872-17.345-36.781-46.026-33.942-75.401l7.825-81.091c5.349-55.304,51.419-97.633,106.812-98.436
	c-34.118,0.825-72.752,32.984-74.766,67.235L171.089,255.831z"/>
<path style="fill:#808080;" d="M368.946,171.791c-37.409,17.499-83.655-19.7-83.655-19.7c-29.793,18.908-65,19.932-91.91,16.575
	c-24.807-3.093-42.571-9.905-42.571-9.905c5.393-55.844,52.333-98.458,108.44-98.458c28.054,0,53.808,10.654,73.233,28.285
	c19.425,17.642,32.5,42.251,35.208,70.173L368.946,171.791z"/>
<g>
	<path style="fill:#666666;" d="M259.251,60.302c-33.348,0.22-61.214,42.758-64.417,98.458c0,0-0.693,3.94-1.453,9.905
		c-24.807-3.093-42.571-9.905-42.571-9.905C156.204,102.917,203.143,60.302,259.251,60.302z"/>
	<path style="fill:#666666;" d="M326,295.163c-2.775,0-5.161-2.092-5.465-4.914c-0.325-3.021,1.86-5.735,4.883-6.06l40.81-4.395
		c6.117-0.659,11.628-3.941,15.12-9.006c3.493-5.065,4.602-11.383,3.043-17.334l-10.445-39.88c-0.769-2.94,0.988-5.948,3.929-6.718
		c2.943-0.772,5.946,0.989,6.718,3.929l10.445,39.88c2.371,9.055,0.685,18.666-4.629,26.371
		c-5.313,7.705-13.697,12.699-23.002,13.701l-40.81,4.395C326.397,295.152,326.197,295.163,326,295.163z"/>
</g>
<path style="fill:#4D8DA3;" d="M481.195,428.007l8.43,70.096h-39.071H424.14h-78.141l8.43-70.096l-0.011-0.033l27.03-5.404
	l2.972-17.521l1.992-11.831c13.152-3.632,49.647-3.632,62.799,0l2.003,11.82l2.95,17.532l27.041,5.404L481.195,428.007z"/>
<circle style="fill:#E6E6E6;" cx="417.814" cy="452.208" r="34.769"/>
<circle style="fill:#4D8DA3;" cx="417.814" cy="452.208" r="11.22"/>
<rect x="169.171" y="429.987" style="fill:#E5624C;" width="56.13" height="16.509"/>
<g>
	<path style="fill:#4D4D4D;" d="M210.254,246.501c-4.56,0-8.254-3.696-8.254-8.254v-13.203c0-4.559,3.695-8.254,8.254-8.254
		s8.254,3.696,8.254,8.254v13.203C218.509,242.805,214.813,246.501,210.254,246.501z"/>
	<path style="fill:#4D4D4D;" d="M308.244,246.501c-4.56,0-8.254-3.696-8.254-8.254v-13.203c0-4.559,3.695-8.254,8.254-8.254
		s8.254,3.696,8.254,8.254v13.203C316.498,242.805,312.802,246.501,308.244,246.501z"/>
</g>
<path style="fill:#E0B394;" d="M267.876,247.764h-0.375v-17.059c0-4.559-3.695-8.254-8.254-8.254c-4.56,0-8.254,3.696-8.254,8.254
	v17.059h-0.375c-4.56,0-8.254,3.696-8.254,8.254c0,4.559,3.695,8.254,8.254,8.254h17.259c4.56,0,8.254-3.696,8.254-8.254
	C276.131,251.46,272.436,247.764,267.876,247.764z"/>
<path style="fill:#F2F2F2;" d="M291.748,285.098c0,0-0.473,1.541-1.469,3.973c-0.241,0.627-0.523,1.288-0.839,2.003
	c-0.373,0.704-0.806,1.42-1.27,2.223c-0.464,0.803-0.996,1.618-1.561,2.52c-0.199,0.341-0.415,0.627-0.647,0.924
	c-0.083,0.11-0.174,0.22-0.265,0.33c-0.324,0.396-0.656,0.814-0.996,1.233c-0.681,0.847-1.42,1.684-2.191,2.564
	c-0.813,0.792-1.685,1.541-2.582,2.355c-0.448,0.407-0.913,0.803-1.387,1.2c-0.473,0.374-0.98,0.682-1.495,1.024
	c-1.013,0.682-2.067,1.343-3.154,2.003c-2.242,1.013-4.574,2.201-7.065,2.696c-2.458,0.759-5.022,0.88-7.58,1.046
	c-2.557-0.165-5.122-0.275-7.58-1.035c-2.491-0.495-4.823-1.684-7.065-2.696c-1.087-0.649-2.142-1.31-3.163-1.992
	c-0.506-0.341-1.013-0.649-1.495-1.024c-0.464-0.407-0.93-0.792-1.378-1.2c-0.897-0.814-1.776-1.574-2.59-2.355
	c-0.772-0.88-1.502-1.728-2.191-2.564c-0.34-0.429-0.664-0.836-0.988-1.244c-0.117-0.143-0.232-0.286-0.349-0.429
	c-0.199-0.264-0.391-0.517-0.556-0.814c-0.539-0.869-1.063-1.673-1.519-2.465c-0.448-0.803-0.888-1.508-1.254-2.212
	c-0.332-0.748-0.639-1.431-0.897-2.058c-1.038-2.509-1.469-4.006-1.469-4.006s1.228,0.495,3.121,1.508
	c0.482,0.242,0.98,0.539,1.535,0.836c0.59,0.231,1.195,0.528,1.843,0.814c0.656,0.286,1.312,0.638,2.009,0.969
	c0.689,0.352,1.469,0.583,2.242,0.891c0.773,0.297,1.544,0.66,2.35,0.98c0.839,0.242,1.677,0.528,2.54,0.803
	c0.431,0.132,0.855,0.297,1.287,0.451c0.44,0.132,0.897,0.209,1.345,0.33c0.905,0.209,1.809,0.451,2.715,0.726
	c1.884,0.231,3.744,0.781,5.687,0.88c1.917,0.33,3.877,0.242,5.82,0.396c1.951-0.154,3.91-0.055,5.828-0.385
	c1.943-0.088,3.803-0.649,5.687-0.88c0.905-0.264,1.809-0.506,2.715-0.715c0.448-0.121,0.905-0.198,1.345-0.33
	c0.431-0.165,0.864-0.319,1.287-0.451c0.864-0.275,1.702-0.572,2.54-0.803c0.813-0.319,1.586-0.682,2.357-0.98
	c0.764-0.308,1.561-0.55,2.224-0.891c0.681-0.308,1.32-0.649,1.968-0.913c0.639-0.286,1.237-0.572,1.826-0.803
	c0.581-0.33,1.096-0.649,1.586-0.902C290.544,285.561,291.748,285.098,291.748,285.098z"/>
<path style="fill:#4D4D4D;" d="M285.962,296.742c-0.083,0.11-0.174,0.22-0.265,0.33c-0.324,0.396-0.656,0.814-0.996,1.233
	c-0.681,0.847-1.42,1.684-2.191,2.564c-0.813,0.792-1.685,1.541-2.582,2.355c-0.448,0.407-0.913,0.803-1.387,1.2
	c-0.473,0.374-0.98,0.682-1.495,1.024c-1.013,0.682-2.067,1.343-3.154,2.003c-2.242,1.013-4.574,2.201-7.065,2.696
	c-2.458,0.759-5.022,0.88-7.58,1.046c-2.557-0.165-5.122-0.275-7.58-1.035c-2.491-0.495-4.823-1.684-7.065-2.696
	c-1.087-0.649-2.142-1.31-3.163-1.992c-0.506-0.341-1.013-0.649-1.495-1.024c-0.464-0.407-0.93-0.792-1.378-1.2
	c-0.897-0.814-1.776-1.574-2.59-2.355c-0.772-0.88-1.502-1.728-2.191-2.564c-0.34-0.429-0.664-0.836-0.988-1.244
	c-0.117-0.143-0.232-0.286-0.349-0.429c0.265,0.121,0.532,0.242,0.806,0.363c0.656,0.286,1.312,0.627,2.009,0.958
	c0.689,0.363,1.469,0.594,2.242,0.902c0.773,0.297,1.544,0.649,2.35,0.98c0.839,0.231,1.677,0.528,2.54,0.803
	c0.431,0.132,0.855,0.286,1.287,0.44c0.44,0.132,0.897,0.209,1.345,0.33c0.905,0.209,1.809,0.462,2.715,0.726
	c1.884,0.242,3.744,0.792,5.687,0.88c1.917,0.341,3.877,0.242,5.82,0.407c1.951-0.154,3.91-0.055,5.828-0.396
	c1.943-0.088,3.803-0.638,5.687-0.869c0.905-0.264,1.809-0.517,2.715-0.726c0.448-0.121,0.905-0.198,1.345-0.33
	c0.431-0.154,0.864-0.308,1.287-0.44c0.864-0.275,1.702-0.572,2.54-0.803c0.813-0.33,1.586-0.693,2.357-0.98
	c0.764-0.308,1.561-0.561,2.224-0.891c0.681-0.319,1.32-0.649,1.968-0.924C285.455,296.974,285.712,296.853,285.962,296.742z"/>
<g>
	<path style="fill:#666666;" d="M289.371,206.413c0,0,0.022-0.219,0.096-0.595c0.085-0.364,0.171-0.94,0.355-1.591
		c0.083-0.337,0.189-0.688,0.311-1.074c0.16-0.392,0.374-0.786,0.602-1.233c0.226-0.449,0.511-0.893,0.81-1.391
		c0.302-0.506,0.661-0.89,1.03-1.379c0.374-0.47,0.796-0.924,1.236-1.413c0.466-0.441,0.971-0.876,1.508-1.313
		c1.051-0.926,2.335-1.595,3.674-2.339c1.385-0.586,2.854-1.221,4.428-1.514c1.558-0.405,3.193-0.501,4.823-0.577
		c1.63,0.075,3.265,0.162,4.825,0.565c1.575,0.291,3.045,0.929,4.431,1.51c1.339,0.743,2.625,1.411,3.677,2.338
		c0.536,0.438,1.042,0.874,1.509,1.313c0.44,0.49,0.86,0.949,1.236,1.415c0.363,0.486,0.741,0.886,1.017,1.372
		c0.277,0.484,0.546,0.918,0.764,1.357c0.217,0.44,0.427,0.828,0.586,1.218c0.144,0.407,0.272,0.776,0.366,1.125
		c0.209,0.675,0.296,1.255,0.376,1.618c0.07,0.375,0.086,0.589,0.086,0.589s-0.228-0.006-0.613-0.043
		c-0.374-0.048-0.955-0.073-1.597-0.166c-0.332-0.034-0.671-0.096-1.044-0.145c-0.397-0.019-0.789-0.074-1.215-0.107
		c-0.835-0.088-1.707-0.219-2.666-0.256c-0.471-0.031-0.928-0.099-1.405-0.139c-0.494-0.007-0.982-0.032-1.466-0.068
		c-0.949-0.123-1.98-0.051-2.937-0.171c-1.007,0.036-1.971-0.087-2.969-0.056c-0.982-0.074-1.974,0.004-2.959-0.065
		c-0.985,0.067-1.978-0.019-2.962,0.053c-0.999-0.035-1.963,0.092-2.973,0.052c-0.959,0.119-1.992,0.045-2.941,0.169
		c-0.484,0.036-0.972,0.063-1.467,0.068c-0.478,0.04-0.932,0.112-1.405,0.141c-0.977,0.053-1.79,0.145-2.605,0.216
		c-0.428,0.033-0.829,0.064-1.2,0.091c-0.395,0.072-0.756,0.151-1.099,0.196c-0.666,0.118-1.248,0.145-1.618,0.193
		C289.591,206.413,289.371,206.413,289.371,206.413z"/>
	<path style="fill:#666666;" d="M191.381,206.413c0,0,0.022-0.219,0.096-0.595c0.085-0.364,0.171-0.94,0.355-1.591
		c0.083-0.337,0.189-0.688,0.311-1.074c0.16-0.392,0.374-0.786,0.602-1.233c0.226-0.449,0.511-0.893,0.81-1.391
		c0.302-0.506,0.661-0.89,1.03-1.379c0.374-0.47,0.796-0.924,1.236-1.413c0.466-0.441,0.971-0.876,1.508-1.313
		c1.051-0.926,2.335-1.595,3.674-2.339c1.385-0.586,2.854-1.221,4.428-1.514c1.558-0.405,3.193-0.501,4.823-0.577
		c1.63,0.075,3.265,0.162,4.825,0.565c1.575,0.291,3.045,0.929,4.431,1.51c1.339,0.743,2.625,1.411,3.677,2.338
		c0.536,0.438,1.042,0.874,1.509,1.313c0.44,0.49,0.86,0.949,1.236,1.415c0.363,0.486,0.741,0.886,1.017,1.372
		c0.277,0.484,0.546,0.918,0.764,1.357c0.217,0.44,0.427,0.828,0.585,1.218c0.144,0.407,0.272,0.776,0.366,1.125
		c0.209,0.675,0.296,1.255,0.376,1.618c0.07,0.375,0.086,0.589,0.086,0.589s-0.228-0.006-0.613-0.043
		c-0.374-0.048-0.955-0.073-1.597-0.166c-0.332-0.034-0.671-0.096-1.044-0.145c-0.397-0.019-0.789-0.074-1.215-0.107
		c-0.835-0.088-1.707-0.219-2.666-0.256c-0.471-0.031-0.928-0.099-1.405-0.139c-0.494-0.007-0.982-0.032-1.466-0.068
		c-0.949-0.123-1.98-0.051-2.937-0.171c-1.007,0.036-1.971-0.087-2.969-0.056c-0.982-0.074-1.974,0.004-2.959-0.065
		c-0.985,0.067-1.978-0.019-2.962,0.053c-0.999-0.035-1.963,0.092-2.973,0.052c-0.959,0.119-1.992,0.045-2.941,0.169
		c-0.484,0.036-0.972,0.063-1.467,0.068c-0.478,0.04-0.932,0.112-1.405,0.141c-0.977,0.053-1.79,0.145-2.605,0.216
		c-0.428,0.033-0.829,0.064-1.2,0.091c-0.395,0.072-0.756,0.151-1.099,0.196c-0.666,0.118-1.248,0.145-1.618,0.193
		C191.603,206.413,191.381,206.413,191.381,206.413z"/>
</g>
<circle style="fill:#F76B4F;" cx="323.021" cy="286.779" r="11.248"/>
<path style="fill:#5D9EBA;" d="M498.232,380.707L512,423.476l-5.514,15.43l-6.615-1.321v-0.011l-18.666-3.731l-27.041-5.404
	l-2.95-17.532l-2.003-11.82c-13.152-3.632-49.647-3.632-62.799,0l-1.992,11.831l-2.972,17.521l-27.03,5.404l-18.666,3.731
	l-6.625,1.332l-5.503-15.43l13.768-42.769l16.553-4.292c0.462-0.121,0.924-0.242,1.387-0.352c47.017-11.897,77.954-11.897,124.96,0
	c0.462,0.11,0.924,0.231,1.387,0.352L498.232,380.707z"/>
<g>
	<polygon style="fill:#4D808C;" points="323.624,423.476 384.42,410.918 381.449,428.439 329.127,438.906 	"/>
	<polygon style="fill:#4D808C;" points="454.164,428.439 451.215,410.907 512,423.476 506.486,438.906 	"/>
</g>
<g>
</g>
<g>
</g>
<g>
</g>
<g>
</g>
<g>
</g>
<g>
</g>
<g>
</g>
<g>
</g>
<g>
</g>
<g>
</g>
<g>
</g>
<g>
</g>
<g>
</g>
<g>
</g>
<g>
</g>
</svg>
