<?xml version="1.0" encoding="iso-8859-1"?>
<!-- Generator: Adobe Illustrator 19.0.0, SVG Export Plug-In . SVG Version: 6.00 Build 0)  -->
<svg version="1.1" id="Layer_1" xmlns="http://www.w3.org/2000/svg" xmlns:xlink="http://www.w3.org/1999/xlink" x="0px" y="0px"
	 viewBox="0 0 512.001 512.001" style="enable-background:new 0 0 512.001 512.001;" xml:space="preserve">
<g>
	<path style="fill:#808080;" d="M443.847,472.538c-4.032,0-7.302-3.27-7.302-7.302v-42.584l-30.721-30.721
		c-2.851-2.851-2.851-7.475,0-10.326c2.851-2.851,7.476-2.851,10.326,0l32.86,32.86c1.369,1.369,2.138,3.226,2.138,5.164v45.609
		C451.149,469.268,447.88,472.538,443.847,472.538z"/>
	<path style="fill:#808080;" d="M488.877,472.538c-4.032,0-7.302-3.27-7.302-7.302v-42.584l-30.721-30.721
		c-2.851-2.851-2.851-7.475,0-10.326c2.851-2.851,7.476-2.851,10.326,0l32.86,32.86c1.369,1.369,2.138,3.226,2.138,5.164v45.609
		C496.179,469.268,492.91,472.538,488.877,472.538z"/>
</g>
<rect y="279.635" style="fill:#FCE8CA;" width="159.284" height="180.119"/>
<g>
	<rect x="23.609" y="307.627" style="fill:#808080;" width="112.076" height="12.17"/>
	<rect x="23.609" y="334.706" style="fill:#808080;" width="112.076" height="12.17"/>
	<rect x="23.609" y="361.784" style="fill:#808080;" width="112.076" height="12.17"/>
	<rect x="23.609" y="388.863" style="fill:#808080;" width="112.076" height="12.17"/>
	<rect x="23.609" y="415.942" style="fill:#808080;" width="112.076" height="12.17"/>
</g>
<g>
	<path style="fill:#E0B394;" d="M127.524,219.374c-15.091-0.669-27.103-13.119-27.103-28.369c0-15.675,12.706-28.393,28.393-28.393
		c1.412,0,2.799,0.097,4.162,0.304L127.524,219.374z"/>
	<path style="fill:#E0B394;" d="M384.097,219.374c15.091-0.669,27.115-13.119,27.115-28.369c0-15.675-12.718-28.393-28.405-28.393
		c-1.412,0-2.811,0.11-4.162,0.304L384.097,219.374z"/>
</g>
<path style="fill:#2F83B2;" d="M313.209,322.249H198.433c-41.569,0-75.268,33.698-75.268,75.268V508h265.311V397.517
	C388.476,355.947,354.778,322.249,313.209,322.249z"/>
<g>
	<polygon style="fill:#27789B;" points="319.958,306.27 315.447,440.582 289.691,438.24 300.228,470.405 255.74,507.253 
		255.521,507.253 211.034,470.405 221.57,438.518 195.814,440.72 191.305,306.339 	"/>
	<path style="fill:#27789B;" d="M244.809,322.249h-46.376c-41.569,0-75.268,33.698-75.268,75.268V508h46.376V397.517
		C169.541,355.947,203.24,322.249,244.809,322.249z"/>
</g>
<polygon style="fill:#FFFFFF;" points="189.479,307.023 255.822,468.887 322.143,307.023 "/>
<polygon style="fill:#F9C573;" points="255.81,305.025 274.381,350.347 255.822,395.644 237.25,350.322 "/>
<path style="fill:#F7CBA4;" d="M346.855,305.811l-49.959,36.292c-24.499,17.793-57.663,17.793-82.149,0l-49.959-36.292
	c-26.409-19.18-40.685-50.896-37.545-83.378l8.665-89.67c0.256-2.69,0.609-5.343,1.034-7.971
	c9.468-57.809,59.537-100.915,118.879-100.915c31.022,0,59.5,11.781,80.981,31.277c12.304,11.172,22.308,24.888,29.172,40.369
	c5.112,11.537,8.47,24.061,9.748,37.241l8.665,89.67C387.528,254.915,373.252,286.631,346.855,305.811z"/>
<g>
	<path style="fill:#E8BA97;" d="M158.331,240.1c-0.84,14.203,3.785,28.174,12.937,39.066l52.214,64.161
		c2.726,3.249,5.817,5.976,9.164,8.154c-6.28-2.191-12.316-5.331-17.902-9.383l-49.959-36.292
		c-26.397-19.18-40.673-50.896-37.533-83.378l8.653-89.67c5.915-61.155,56.859-107.962,118.112-108.85
		c-37.728,0.913-80.449,36.474-82.676,74.348L158.331,240.1z"/>
	<path style="fill:#E8BA97;" d="M365.974,95.522c-6.523,31.204-29.829,54.51-29.829,54.51s-2.434-75.455-90.06-64.502
		c-13.217,1.643-26.056-0.828-38.361-6.207c0,0-7.436,10.503-21.201,21.614c-11.975,9.651-28.734,19.777-49.581,23.854
		c9.468-57.809,59.537-100.915,118.879-100.915c31.022,0,59.5,11.781,80.981,31.277C349.106,66.327,359.11,80.041,365.974,95.522z"
		/>
</g>
<path style="fill:#666666;" d="M354.401,156.117c0,0-2.434-75.455-90.06-64.502c-13.217,1.643-26.056-0.828-38.361-6.207
	c0,0-7.436,10.503-21.201,21.614c-15.468,12.474-38.945,25.74-68.871,25.74c0,0-30.998-83.743,22.551-110.518
	c27.821-13.911,49.095-12.694,63.115-8.3c12.961,4.053,19.716,10.807,19.716,10.807s61.995-51.188,120.412,7.229
	S354.401,156.117,354.401,156.117z"/>
<path style="fill:#4D4D4D;" d="M204.78,107.023c-15.468,12.474-38.945,25.74-68.871,25.74c0,0-30.998-83.743,22.551-110.518
	c27.821-13.911,49.095-12.694,63.115-8.3C221.575,13.945,171.08,47.547,204.78,107.023z"/>
<path style="fill:#C49270;" d="M280.157,291.81h-48.681c-3.697,0-6.694-2.996-6.694-6.694c0-3.697,2.996-6.694,6.694-6.694h48.681
	c3.697,0,6.694,2.996,6.694,6.694C286.851,288.814,283.855,291.81,280.157,291.81z"/>
<path style="fill:#E0B394;" d="M272.529,309.551h-33.424c-2.539,0-4.595-2.058-4.595-4.595s2.058-4.595,4.595-4.595h33.424
	c2.539,0,4.595,2.058,4.595,4.595S275.068,309.551,272.529,309.551z"/>
<polygon style="fill:#F9C573;" points="255.81,378.273 274.381,423.594 255.822,468.892 237.25,423.57 "/>
<rect x="342.835" y="461.58" style="fill:#AF7C38;" width="169.166" height="46.417"/>
<path style="fill:#4D4D4D;" d="M201.64,228.334c-5.041,0-9.128-4.087-9.128-9.128v-14.599c0-5.041,4.087-9.128,9.128-9.128
	c5.041,0,9.128,4.087,9.128,9.128v14.599C210.768,224.247,206.681,228.334,201.64,228.334z"/>
<g>
	<path style="fill:#666666;" d="M289.127,169.313c0,0,0.024-0.242,0.106-0.658c0.094-0.403,0.189-1.039,0.393-1.76
		c0.091-0.372,0.209-0.761,0.344-1.188c0.176-0.433,0.414-0.869,0.666-1.363c0.249-0.497,0.565-0.987,0.896-1.538
		c0.333-0.56,0.731-0.985,1.139-1.525c0.414-0.52,0.88-1.022,1.367-1.563c0.515-0.488,1.073-0.969,1.667-1.452
		c1.162-1.024,2.583-1.763,4.062-2.586c1.531-0.647,3.156-1.35,4.896-1.675c1.723-0.448,3.531-0.554,5.333-0.638
		c1.802,0.083,3.611,0.179,5.335,0.624c1.742,0.321,3.367,1.027,4.9,1.67c1.481,0.821,2.903,1.56,4.066,2.585
		c0.593,0.484,1.152,0.966,1.669,1.452c0.487,0.542,0.951,1.049,1.367,1.565c0.402,0.538,0.819,0.98,1.125,1.518
		c0.307,0.535,0.604,1.015,0.845,1.501c0.24,0.487,0.472,0.915,0.647,1.347c0.159,0.45,0.301,0.858,0.405,1.244
		c0.231,0.746,0.327,1.387,0.416,1.789c0.078,0.415,0.095,0.651,0.095,0.651s-0.252-0.006-0.678-0.047
		c-0.414-0.054-1.056-0.08-1.766-0.184c-0.368-0.038-0.742-0.106-1.155-0.161c-0.439-0.021-0.873-0.082-1.344-0.118
		c-0.924-0.097-1.888-0.242-2.948-0.284c-0.521-0.034-1.026-0.11-1.554-0.153c-0.546-0.007-1.086-0.035-1.621-0.075
		c-1.049-0.136-2.189-0.056-3.248-0.189c-1.114,0.04-2.18-0.096-3.284-0.062c-1.086-0.082-2.183,0.005-3.273-0.072
		c-1.089,0.074-2.187-0.021-3.275,0.058c-1.105-0.039-2.171,0.102-3.287,0.057c-1.06,0.131-2.203,0.05-3.252,0.187
		c-0.535,0.04-1.075,0.069-1.622,0.075c-0.528,0.044-1.031,0.124-1.554,0.156c-1.081,0.058-1.979,0.161-2.881,0.239
		c-0.473,0.036-0.916,0.071-1.327,0.101c-0.437,0.079-0.836,0.167-1.216,0.217c-0.736,0.13-1.38,0.161-1.789,0.213
		C289.37,169.313,289.127,169.313,289.127,169.313z"/>
	<path style="fill:#666666;" d="M180.77,169.313c0,0,0.024-0.242,0.106-0.658c0.094-0.403,0.189-1.039,0.393-1.76
		c0.091-0.372,0.209-0.761,0.344-1.188c0.176-0.433,0.414-0.869,0.666-1.363c0.249-0.497,0.565-0.987,0.896-1.538
		c0.333-0.56,0.731-0.985,1.139-1.525c0.414-0.52,0.88-1.022,1.367-1.563c0.515-0.488,1.073-0.969,1.667-1.452
		c1.162-1.024,2.583-1.763,4.062-2.586c1.531-0.647,3.156-1.35,4.896-1.675c1.723-0.448,3.531-0.554,5.333-0.638
		c1.802,0.083,3.611,0.179,5.335,0.624c1.742,0.321,3.367,1.027,4.9,1.67c1.481,0.821,2.903,1.56,4.066,2.585
		c0.593,0.484,1.153,0.966,1.669,1.452c0.487,0.542,0.951,1.049,1.367,1.565c0.402,0.538,0.819,0.98,1.125,1.518
		c0.307,0.535,0.604,1.015,0.845,1.501c0.24,0.487,0.472,0.915,0.647,1.347c0.159,0.45,0.301,0.858,0.405,1.244
		c0.231,0.746,0.327,1.387,0.416,1.789c0.078,0.415,0.095,0.651,0.095,0.651s-0.252-0.006-0.678-0.047
		c-0.414-0.054-1.056-0.08-1.766-0.184c-0.368-0.038-0.742-0.106-1.155-0.161c-0.439-0.021-0.873-0.082-1.344-0.118
		c-0.924-0.097-1.888-0.242-2.948-0.284c-0.521-0.034-1.026-0.11-1.554-0.153c-0.546-0.007-1.086-0.035-1.621-0.075
		c-1.049-0.136-2.189-0.056-3.248-0.189c-1.114,0.04-2.18-0.096-3.284-0.062c-1.086-0.082-2.183,0.005-3.273-0.072
		c-1.089,0.074-2.187-0.021-3.275,0.058c-1.105-0.039-2.171,0.102-3.287,0.057c-1.06,0.131-2.203,0.05-3.252,0.187
		c-0.535,0.04-1.075,0.069-1.622,0.075c-0.528,0.044-1.031,0.124-1.554,0.156c-1.081,0.058-1.979,0.161-2.881,0.239
		c-0.473,0.036-0.916,0.071-1.327,0.101c-0.437,0.079-0.836,0.167-1.216,0.217c-0.736,0.13-1.38,0.161-1.789,0.213
		C181.014,169.313,180.77,169.313,180.77,169.313z"/>
</g>
<path style="fill:#4D4D4D;" d="M309.995,228.334c-5.041,0-9.128-4.087-9.128-9.128v-14.599c0-5.041,4.087-9.128,9.128-9.128
	s9.128,4.087,9.128,9.128v14.599C319.123,224.247,315.036,228.334,309.995,228.334z"/>
<path style="fill:#E0B394;" d="M269.813,191.22v43.204c0,7.729-6.266,13.996-13.996,13.996l0,0c-7.729,0-13.996-6.266-13.996-13.996
	V191.22"/>
<g>
	<circle style="fill:#F76B4F;" cx="456.018" cy="386.77" r="14.762"/>
	<circle style="fill:#F76B4F;" cx="410.988" cy="386.77" r="14.762"/>
</g>
<g>
</g>
<g>
</g>
<g>
</g>
<g>
</g>
<g>
</g>
<g>
</g>
<g>
</g>
<g>
</g>
<g>
</g>
<g>
</g>
<g>
</g>
<g>
</g>
<g>
</g>
<g>
</g>
<g>
</g>
</svg>
