<?xml version="1.0" encoding="iso-8859-1"?>
<!-- Generator: Adobe Illustrator 19.0.0, SVG Export Plug-In . SVG Version: 6.00 Build 0)  -->
<svg version="1.1" id="Layer_1" xmlns="http://www.w3.org/2000/svg" xmlns:xlink="http://www.w3.org/1999/xlink" x="0px" y="0px"
	 viewBox="0 0 512.002 512.002" style="enable-background:new 0 0 512.002 512.002;" xml:space="preserve">
<path style="fill:#96652A;" d="M70.656,357.98v133.732c0,6.345-4.079,11.738-9.756,13.694c-1.48,0.502-3.063,0.784-4.724,0.784
	c-4.002,0-7.619-1.621-10.232-4.246c-2.626-2.612-4.248-6.229-4.248-10.232V358.136L70.656,357.98z"/>
<path style="fill:#AF7C38;" d="M70.656,358.032v133.681c0,6.345-4.079,11.738-9.756,13.694c-2.098-0.733-3.976-1.917-5.521-3.462
	c-2.613-2.612-4.235-6.229-4.235-10.232V358.136L70.656,358.032z"/>
<path style="fill:#4D4D4D;" d="M141.026,31.737c-2.47,0-4.928-1.024-6.685-3.027l-12.244-13.964
	c-3.236-3.691-2.867-9.304,0.822-12.54c3.689-3.236,9.304-2.868,12.54,0.822l12.244,13.964c3.236,3.691,2.867,9.304-0.822,12.54
	C145.194,31.01,143.105,31.737,141.026,31.737z"/>
<path style="fill:#E8604B;" d="M82.148,361.726c-4.312,6.693-12.638,11.326-26.602,12.548
	c-21.789,1.905-40.657-29.485-20.708-49.434c19.949-19.949,11.699-57.387,11.699-57.387s0.013,0.013,0.026,0.039
	C47.965,269.203,100.282,333.643,82.148,361.726z"/>
<path style="fill:#F76B4F;" d="M82.148,361.726c-3.861,1.519-8.687,2.588-14.581,3.102c-21.802,1.918-40.657-29.472-20.708-49.421
	c19.536-19.537,0.514-46.782-0.296-47.915C47.965,269.203,100.282,333.643,82.148,361.726z"/>
<path style="fill:#90BC42;" d="M278.247,331.168H166.509c-40.468,0-73.276,32.806-73.276,73.276v107.558h258.288V404.444
	C351.522,363.974,318.716,331.168,278.247,331.168z"/>
<path style="fill:#E0B394;" d="M273.936,304.203v65.823c0,28.472-23.086,51.558-51.558,51.558
	c-28.482,0-51.558-23.086-51.558-51.558v-65.823H273.936z"/>
<path style="fill:#87AA3C;" d="M222.378,427.508c-31.696,0-57.482-25.786-57.482-57.482v-65.823c0-3.271,2.653-5.924,5.924-5.924
	h103.116c3.271,0,5.924,2.653,5.924,5.924v65.823C279.86,401.722,254.074,427.508,222.378,427.508z M176.744,310.127v59.899
	c0,25.163,20.471,45.634,45.634,45.634s45.634-20.471,45.634-45.634v-59.899H176.744z"/>
<g>
	<path style="fill:#E0B394;" d="M99.256,231.016c-14.692-0.652-26.386-12.772-26.386-27.618c0-15.26,12.369-27.642,27.642-27.642
		c1.374,0,2.725,0.095,4.052,0.296L99.256,231.016z"/>
	<path style="fill:#E0B394;" d="M345.482,231.016c14.692-0.652,26.397-12.772,26.397-27.618c0-15.26-12.381-27.642-27.653-27.642
		c-1.374,0-2.737,0.107-4.052,0.296L345.482,231.016z"/>
</g>
<path style="fill:#F9C573;" d="M465.864,364.077c-5.097-5.098-10.869-9.188-17.111-12.292c-8.392-4.174-18.385-0.591-22.868,7.64
	c-1.777,3.263-4.144,6.291-7.101,8.926c-11.999,10.695-30.293,11.169-42.803,1.076c-0.091-0.073-0.181-0.147-0.271-0.22
	c-6.715-5.531-16.413-5.532-22.947,0.211c-1.711,1.504-3.387,3.075-5.026,4.713c-35.396,35.396-39.897,88.284-10.053,118.128
	c29.844,29.844,82.731,25.343,118.128-10.053S495.709,393.921,465.864,364.077z M443.601,397.915
	c-7.416,0-13.427-6.012-13.427-13.427s6.012-13.427,13.427-13.427s13.427,6.012,13.427,13.427S451.018,397.915,443.601,397.915z"/>
<path style="fill:#87AA3C;" d="M211.657,331.168h-45.148c-40.468,0-73.276,32.806-73.276,73.276v107.558h45.148V404.444
	C138.383,363.974,171.189,331.168,211.657,331.168z"/>
<path style="fill:#F7CBA4;" d="M182.386,350.498l-48.635-35.336c-25.701-18.673-39.605-49.551-36.549-81.172l8.436-87.294
	c5.81-60.123,56.334-106,116.737-106l0,0c60.403,0,110.926,45.877,116.737,106l8.436,87.294
	c3.056,31.621-10.847,62.499-36.549,81.172l-48.635,35.336C238.518,367.821,206.231,367.821,182.386,350.498z"/>
<path style="fill:#E8BA97;" d="M127.468,251.194c-0.818,13.827,3.685,27.428,12.594,38.032l50.832,62.463
	c2.654,3.163,5.663,5.817,8.922,7.938c-6.114-2.133-11.99-5.189-17.429-9.135l-48.636-35.331
	c-25.698-18.673-39.596-49.549-36.539-81.171l8.424-87.297C111.394,87.157,160.99,41.59,220.621,40.725
	c-36.729,0.889-78.319,35.509-80.487,72.38L127.468,251.194z"/>
<path style="fill:#AF7C38;" d="M351.522,58.057c-32.31,52.191-91.384,51.338-123.978,46.113c-14.028-2.263-23.151-5.32-23.151-5.32
	l42.641-59.11c11.303-6.588,21.824-7.583,32.025-5.723C302.874,38.319,324.983,58.057,351.522,58.057z"/>
<path style="fill:#96652A;" d="M279.06,34.017c-0.178,1.908-0.581,3.827-1.22,5.723c-8.708,25.852-25.924,48.861-50.295,64.43
	c-14.028-2.263-23.151-5.32-23.151-5.32l42.641-59.11C258.337,33.153,268.858,32.158,279.06,34.017z"/>
<g>
	<circle style="fill:#F76B4F;" cx="139.145" cy="464.741" r="16.291"/>
	<circle style="fill:#F76B4F;" cx="291.203" cy="442.395" r="8.146"/>
	<circle style="fill:#F76B4F;" cx="258.466" cy="483.828" r="8.146"/>
	<circle style="fill:#F76B4F;" cx="152.023" cy="480.831" r="8.146"/>
</g>
<path style="fill:#AF7C38;" d="M241.335,348.927c0-16.686-8.487-30.213-18.957-30.213c-10.47,0-18.957,13.527-18.957,30.213
	s18.957,44.43,18.957,44.43S241.335,365.613,241.335,348.927z"/>
<path style="fill:#96652A;" d="M222.378,318.715c-4.976,0-9.016,13.531-9.016,30.213c0,16.421,8.732,43.565,9.005,44.407
	c-0.581-0.841-18.945-27.985-18.945-44.407C203.421,332.246,211.905,318.715,222.378,318.715z"/>
<g>
	<path style="fill:#AF7C38;" d="M336.794,138.623h-31.479c-3.271,0-5.924-2.653-5.924-5.924s2.653-5.924,5.924-5.924h31.479
		c3.271,0,5.924,2.653,5.924,5.924S340.065,138.623,336.794,138.623z"/>
	<path style="fill:#AF7C38;" d="M337.979,165.873h-22.001c-3.271,0-5.924-2.653-5.924-5.924s2.653-5.924,5.924-5.924h22.001
		c3.271,0,5.924,2.653,5.924,5.924S341.25,165.873,337.979,165.873z"/>
	<path style="fill:#AF7C38;" d="M128.268,165.873h-22.001c-3.271,0-5.924-2.653-5.924-5.924s2.653-5.924,5.924-5.924h22.001
		c3.271,0,5.924,2.653,5.924,5.924S131.539,165.873,128.268,165.873z"/>
</g>
<path style="fill:#666666;" d="M138.653,16.334c-29.066,15.379-49.44,40.727-59.172,69.607
	c-4.712,13.982,3.341,29.202,17.552,33.172c29.352,8.2,61.77,5.616,90.836-9.763s49.438-40.727,59.17-69.607
	c4.712-13.982-3.341-29.202-17.552-33.172C200.135-1.629,167.717,0.955,138.653,16.334z"/>
<path style="fill:#4D4D4D;" d="M129.023,119.114c-14.211-3.97-22.264-19.19-17.552-33.172c9.732-28.88,30.106-54.227,59.17-69.607
	c13.358-7.067,27.424-11.426,41.575-13.284c-24.456-3.203-50.102,0.87-73.565,13.284c-29.066,15.379-49.438,40.727-59.17,69.607
	c-4.712,13.982,3.341,29.202,17.552,33.172c15.863,4.432,32.62,5.706,49.261,3.521C140.454,121.87,134.681,120.694,129.023,119.114z
	"/>
<circle style="fill:#F76B4F;" cx="348.82" cy="418.451" r="13.427"/>
<circle style="fill:#71C5F4;" cx="352.765" cy="456.566" r="13.427"/>
<circle style="fill:#90BC42;" cx="389.02" cy="476.577" r="13.427"/>
<circle style="fill:#666666;" cx="431.934" cy="466.791" r="13.427"/>
<path style="fill:#F2F2F2;" d="M268.756,274.096c0,0-0.675,1.659-2.097,4.277c-0.344,0.675-0.746,1.386-1.197,2.156
	c-0.533,0.758-1.149,1.528-1.813,2.393c-0.664,0.865-1.422,1.742-2.227,2.713c-0.284,0.367-0.592,0.675-0.924,0.995
	c-0.118,0.118-0.249,0.237-0.379,0.355c-0.462,0.427-0.936,0.877-1.422,1.327c-0.972,0.912-2.026,1.813-3.128,2.761
	c-1.161,0.853-2.405,1.659-3.685,2.535c-0.64,0.438-1.303,0.865-1.979,1.291c-0.675,0.403-1.398,0.735-2.133,1.102
	c-1.445,0.735-2.95,1.445-4.502,2.156c-3.199,1.09-6.528,2.37-10.083,2.903c-3.507,0.818-7.168,0.948-10.817,1.126
	c-3.649-0.178-7.31-0.296-10.817-1.114c-3.554-0.533-6.884-1.813-10.083-2.903c-1.552-0.699-3.057-1.41-4.514-2.145
	c-0.723-0.367-1.445-0.699-2.133-1.102c-0.663-0.438-1.327-0.853-1.967-1.291c-1.28-0.877-2.535-1.694-3.697-2.535
	c-1.102-0.948-2.145-1.86-3.128-2.761c-0.486-0.462-0.948-0.9-1.41-1.339c-0.166-0.154-0.332-0.308-0.498-0.462
	c-0.284-0.284-0.557-0.557-0.794-0.877c-0.77-0.936-1.517-1.801-2.168-2.654c-0.64-0.865-1.268-1.623-1.789-2.381
	c-0.474-0.806-0.912-1.54-1.28-2.216c-1.481-2.701-2.097-4.313-2.097-4.313s1.754,0.533,4.455,1.623
	c0.687,0.261,1.398,0.581,2.192,0.9c0.841,0.249,1.706,0.569,2.63,0.877c0.936,0.308,1.872,0.687,2.867,1.043
	c0.983,0.379,2.097,0.628,3.199,0.96c1.102,0.32,2.204,0.711,3.353,1.055c1.197,0.261,2.393,0.569,3.626,0.865
	c0.616,0.142,1.22,0.32,1.836,0.486c0.628,0.142,1.28,0.225,1.919,0.355c1.291,0.225,2.583,0.486,3.874,0.782
	c2.69,0.249,5.343,0.841,8.116,0.948c2.737,0.355,5.533,0.261,8.305,0.427c2.784-0.166,5.58-0.059,8.317-0.415
	c2.772-0.095,5.426-0.699,8.116-0.948c1.291-0.284,2.583-0.545,3.874-0.77c0.64-0.13,1.291-0.213,1.919-0.355
	c0.616-0.178,1.232-0.344,1.836-0.486c1.232-0.296,2.429-0.616,3.626-0.865c1.161-0.344,2.263-0.735,3.365-1.054
	c1.09-0.332,2.227-0.592,3.175-0.96c0.972-0.332,1.884-0.699,2.808-0.983c0.912-0.308,1.765-0.616,2.607-0.865
	c0.829-0.355,1.564-0.699,2.263-0.972C267.038,274.594,268.756,274.096,268.756,274.096z"/>
<g>
	<path style="fill:#4D4D4D;" d="M260.498,286.631c-0.118,0.118-0.249,0.237-0.379,0.355c-0.462,0.427-0.936,0.877-1.422,1.327
		c-0.972,0.912-2.026,1.813-3.128,2.761c-1.161,0.853-2.405,1.659-3.685,2.535c-0.64,0.438-1.303,0.865-1.979,1.291
		c-0.675,0.403-1.398,0.735-2.133,1.102c-1.445,0.735-2.95,1.445-4.502,2.156c-3.199,1.09-6.528,2.37-10.083,2.903
		c-3.507,0.818-7.168,0.948-10.817,1.126c-3.649-0.178-7.31-0.296-10.817-1.114c-3.554-0.533-6.884-1.813-10.083-2.903
		c-1.552-0.699-3.057-1.41-4.514-2.145c-0.723-0.367-1.445-0.699-2.133-1.102c-0.663-0.438-1.327-0.853-1.967-1.291
		c-1.28-0.877-2.535-1.694-3.697-2.535c-1.102-0.948-2.145-1.86-3.128-2.761c-0.486-0.462-0.948-0.9-1.41-1.339
		c-0.166-0.154-0.332-0.308-0.498-0.462c0.379,0.13,0.758,0.261,1.149,0.391c0.936,0.308,1.872,0.675,2.867,1.031
		c0.983,0.391,2.097,0.64,3.199,0.972c1.102,0.32,2.204,0.699,3.353,1.054c1.197,0.249,2.393,0.569,3.626,0.865
		c0.616,0.142,1.22,0.308,1.836,0.474c0.628,0.142,1.28,0.225,1.919,0.355c1.291,0.225,2.583,0.498,3.874,0.782
		c2.69,0.261,5.343,0.853,8.116,0.948c2.737,0.367,5.533,0.261,8.305,0.438c2.784-0.166,5.58-0.059,8.317-0.427
		c2.772-0.095,5.426-0.687,8.116-0.936c1.291-0.284,2.583-0.557,3.874-0.782c0.64-0.13,1.291-0.213,1.919-0.355
		c0.616-0.166,1.232-0.332,1.836-0.474c1.232-0.296,2.429-0.616,3.626-0.865c1.161-0.355,2.263-0.746,3.365-1.055
		c1.09-0.332,2.227-0.604,3.175-0.96c0.972-0.344,1.884-0.699,2.808-0.995C259.776,286.88,260.143,286.75,260.498,286.631z"/>
	<path style="fill:#4D4D4D;" d="M169.631,234.407c-4.907,0-8.886-3.979-8.886-8.886v-14.213c0-4.907,3.979-8.886,8.886-8.886
		s8.886,3.979,8.886,8.886v14.213C178.517,230.429,174.538,234.407,169.631,234.407z"/>
</g>
<g>
	<path style="fill:#666666;" d="M254.802,176.949c0,0,0.024-0.236,0.103-0.641c0.091-0.392,0.184-1.012,0.383-1.713
		c0.089-0.363,0.204-0.741,0.335-1.156c0.172-0.422,0.403-0.846,0.648-1.327c0.243-0.483,0.55-0.961,0.872-1.498
		c0.325-0.545,0.712-0.959,1.109-1.485c0.403-0.506,0.857-0.995,1.331-1.521c0.501-0.475,1.045-0.943,1.623-1.413
		c1.132-0.996,2.514-1.717,3.955-2.518c1.49-0.63,3.072-1.314,4.766-1.63c1.678-0.436,3.437-0.539,5.192-0.621
		c1.755,0.081,3.515,0.174,5.194,0.608c1.695,0.313,3.278,1,4.77,1.626c1.442,0.8,2.826,1.519,3.958,2.517
		c0.577,0.472,1.122,0.941,1.624,1.413c0.474,0.527,0.925,1.021,1.331,1.524c0.391,0.524,0.797,0.954,1.095,1.477
		c0.299,0.521,0.588,0.988,0.822,1.461c0.233,0.474,0.46,0.891,0.63,1.312c0.155,0.438,0.293,0.835,0.395,1.211
		c0.225,0.726,0.319,1.351,0.405,1.742c0.076,0.404,0.092,0.634,0.092,0.634s-0.245-0.006-0.66-0.046
		c-0.403-0.052-1.028-0.078-1.719-0.179c-0.358-0.037-0.723-0.103-1.124-0.156c-0.428-0.02-0.849-0.079-1.308-0.115
		c-0.899-0.095-1.838-0.236-2.87-0.276c-0.507-0.033-0.999-0.107-1.513-0.149c-0.532-0.007-1.057-0.034-1.578-0.073
		c-1.021-0.133-2.131-0.055-3.162-0.184c-1.084,0.039-2.122-0.094-3.197-0.06c-1.057-0.079-2.126,0.005-3.186-0.07
		c-1.06,0.072-2.129-0.02-3.188,0.057c-1.076-0.038-2.114,0.1-3.2,0.056c-1.032,0.128-2.145,0.049-3.166,0.182
		c-0.521,0.039-1.046,0.068-1.579,0.073c-0.514,0.043-1.004,0.121-1.513,0.152c-1.052,0.057-1.927,0.156-2.804,0.232
		c-0.461,0.036-0.892,0.069-1.291,0.098c-0.425,0.077-0.814,0.162-1.184,0.211c-0.717,0.127-1.344,0.156-1.742,0.207
		C255.04,176.949,254.802,176.949,254.802,176.949z"/>
	<path style="fill:#666666;" d="M149.314,176.949c0,0,0.024-0.236,0.103-0.641c0.091-0.392,0.184-1.012,0.383-1.713
		c0.089-0.363,0.204-0.741,0.335-1.156c0.172-0.422,0.403-0.846,0.648-1.327c0.243-0.483,0.55-0.961,0.872-1.498
		c0.325-0.545,0.712-0.959,1.109-1.485c0.403-0.506,0.857-0.995,1.331-1.521c0.501-0.475,1.045-0.943,1.623-1.413
		c1.132-0.996,2.514-1.717,3.955-2.518c1.49-0.63,3.072-1.314,4.766-1.63c1.678-0.436,3.437-0.539,5.192-0.621
		c1.755,0.081,3.515,0.174,5.194,0.608c1.695,0.313,3.278,1,4.77,1.626c1.442,0.8,2.826,1.519,3.958,2.517
		c0.577,0.472,1.122,0.941,1.624,1.413c0.474,0.527,0.925,1.021,1.331,1.524c0.391,0.524,0.797,0.954,1.095,1.477
		c0.299,0.521,0.588,0.988,0.822,1.461c0.233,0.474,0.46,0.891,0.63,1.312c0.155,0.438,0.293,0.835,0.395,1.211
		c0.225,0.726,0.319,1.351,0.405,1.742c0.076,0.404,0.092,0.634,0.092,0.634s-0.245-0.006-0.66-0.046
		c-0.403-0.052-1.028-0.078-1.719-0.179c-0.358-0.037-0.723-0.103-1.124-0.156c-0.428-0.02-0.85-0.079-1.308-0.115
		c-0.899-0.095-1.838-0.236-2.87-0.276c-0.507-0.033-0.999-0.107-1.513-0.149c-0.532-0.007-1.057-0.034-1.578-0.073
		c-1.021-0.133-2.131-0.055-3.162-0.184c-1.084,0.039-2.122-0.094-3.197-0.06c-1.057-0.079-2.126,0.005-3.186-0.07
		c-1.06,0.072-2.129-0.02-3.188,0.057c-1.076-0.038-2.114,0.1-3.2,0.056c-1.032,0.128-2.144,0.049-3.166,0.182
		c-0.521,0.039-1.046,0.068-1.579,0.073c-0.514,0.043-1.004,0.121-1.513,0.152c-1.052,0.057-1.927,0.156-2.804,0.232
		c-0.461,0.036-0.892,0.069-1.291,0.098c-0.425,0.077-0.814,0.162-1.184,0.211c-0.717,0.127-1.344,0.156-1.742,0.207
		C149.552,176.949,149.314,176.949,149.314,176.949z"/>
</g>
<path style="fill:#4D4D4D;" d="M275.119,234.407c-4.907,0-8.886-3.979-8.886-8.886v-14.213c0-4.907,3.979-8.886,8.886-8.886
	s8.886,3.979,8.886,8.886v14.213C284.005,230.429,280.026,234.407,275.119,234.407z"/>
<path style="fill:#E0B394;" d="M236,198.276v42.061c0,7.525-6.101,13.625-13.625,13.625l0,0c-7.525,0-13.625-6.101-13.625-13.625
	v-42.061"/>
<g>
</g>
<g>
</g>
<g>
</g>
<g>
</g>
<g>
</g>
<g>
</g>
<g>
</g>
<g>
</g>
<g>
</g>
<g>
</g>
<g>
</g>
<g>
</g>
<g>
</g>
<g>
</g>
<g>
</g>
</svg>
