<?xml version="1.0" encoding="iso-8859-1"?>
<!-- Generator: Adobe Illustrator 19.0.0, SVG Export Plug-In . SVG Version: 6.00 Build 0)  -->
<svg version="1.1" id="Layer_1" xmlns="http://www.w3.org/2000/svg" xmlns:xlink="http://www.w3.org/1999/xlink" x="0px" y="0px"
	 viewBox="0 0 512.001 512.001" style="enable-background:new 0 0 512.001 512.001;" xml:space="preserve">
<g>
	<path style="fill:#71C5F4;" d="M456.072,467.738c-14.692,0-22.217-6.458-28.857-12.157c-6.06-5.202-10.846-9.31-21.168-9.31
		c-10.318,0-15.105,4.109-21.165,9.309c-6.639,5.699-14.162,12.158-28.853,12.158c-14.691,0-22.216-6.46-28.854-12.158
		c-6.06-5.202-10.846-9.309-21.166-9.309c-10.317,0-15.103,4.109-21.164,9.309c-6.639,5.699-14.162,12.158-28.853,12.158
		c-14.691,0-22.215-6.46-28.853-12.158c-6.059-5.202-10.845-9.309-21.163-9.309c-10.318,0-15.106,4.109-21.165,9.309
		c-6.64,5.699-14.164,12.158-28.854,12.158c-14.69,0-22.215-6.46-28.853-12.158c-6.059-5.202-10.845-9.309-21.163-9.309
		c-10.318,0-15.105,4.109-21.164,9.309c-6.64,5.699-14.164,12.158-28.854,12.158s-22.216-6.46-28.854-12.158
		c-6.059-5.202-10.845-9.309-21.164-9.309c-3.261,0-5.904-2.643-5.904-5.904c0-3.261,2.643-5.904,5.904-5.904
		c14.691,0,22.216,6.46,28.854,12.158c6.059,5.202,10.845,9.309,21.164,9.309s15.105-4.109,21.164-9.309
		c6.639-5.699,14.164-12.158,28.854-12.158s22.215,6.46,28.853,12.158c6.059,5.202,10.845,9.309,21.163,9.309
		c10.318,0,15.105-4.109,21.164-9.309c6.64-5.699,14.164-12.158,28.856-12.158c14.69,0,22.215,6.46,28.853,12.158
		c6.059,5.202,10.845,9.309,21.163,9.309s15.103-4.109,21.164-9.309c6.639-5.699,14.162-12.158,28.853-12.158
		c14.692,0,22.217,6.46,28.856,12.158c6.06,5.202,10.845,9.309,21.165,9.309c10.317,0,15.103-4.109,21.164-9.309
		c6.639-5.699,14.163-12.158,28.854-12.158c14.692,0,22.218,6.46,28.858,12.158c6.06,5.202,10.846,9.309,21.167,9.309
		s15.107-4.109,21.168-9.309c6.64-5.699,14.164-12.158,28.858-12.158c3.26,0,5.904,2.643,5.904,5.904
		c0,3.261-2.644,5.904-5.904,5.904c-10.32,0-15.107,4.109-21.168,9.309C478.29,461.279,470.763,467.738,456.072,467.738z"/>
	<path style="fill:#71C5F4;" d="M456.072,427.36c-14.692,0-22.217-6.458-28.857-12.157c-6.06-5.202-10.846-9.31-21.168-9.31
		c-10.318,0-15.105,4.109-21.165,9.309c-6.639,5.699-14.162,12.158-28.853,12.158c-14.691,0-22.216-6.46-28.854-12.158
		c-6.06-5.202-10.846-9.309-21.166-9.309c-10.317,0-15.103,4.109-21.164,9.309c-6.639,5.699-14.162,12.158-28.853,12.158
		c-14.691,0-22.215-6.46-28.853-12.158c-6.059-5.202-10.845-9.309-21.163-9.309c-10.318,0-15.106,4.109-21.165,9.309
		c-6.64,5.699-14.164,12.158-28.854,12.158c-14.69,0-22.215-6.46-28.853-12.158c-6.059-5.202-10.845-9.309-21.163-9.309
		c-10.318,0-15.105,4.109-21.164,9.309c-6.64,5.699-14.164,12.158-28.854,12.158s-22.216-6.46-28.854-12.158
		c-6.059-5.202-10.845-9.309-21.164-9.309c-3.261,0-5.904-2.643-5.904-5.904c0-3.261,2.643-5.904,5.904-5.904
		c14.691,0,22.216,6.46,28.854,12.158c6.059,5.202,10.845,9.309,21.164,9.309s15.105-4.109,21.164-9.309
		c6.639-5.699,14.164-12.158,28.854-12.158s22.215,6.46,28.853,12.158c6.059,5.202,10.845,9.309,21.163,9.309
		c10.318,0,15.105-4.109,21.164-9.309c6.64-5.699,14.164-12.158,28.856-12.158c14.69,0,22.215,6.46,28.853,12.158
		c6.059,5.202,10.845,9.309,21.163,9.309s15.103-4.109,21.164-9.309c6.639-5.699,14.162-12.158,28.853-12.158
		c14.692,0,22.217,6.46,28.856,12.158c6.06,5.202,10.845,9.309,21.165,9.309c10.317,0,15.103-4.109,21.164-9.309
		c6.639-5.699,14.163-12.158,28.854-12.158c14.692,0,22.218,6.46,28.858,12.158c6.06,5.202,10.846,9.309,21.167,9.309
		s15.107-4.109,21.168-9.309c6.64-5.699,14.164-12.158,28.858-12.158c3.26,0,5.904,2.643,5.904,5.904
		c0,3.261-2.644,5.904-5.904,5.904c-10.32,0-15.107,4.109-21.168,9.309C478.29,420.9,470.763,427.36,456.072,427.36z"/>
	<path style="fill:#71C5F4;" d="M456.072,386.983c-14.692,0-22.217-6.458-28.857-12.157c-6.06-5.202-10.846-9.31-21.168-9.31
		c-10.318,0-15.105,4.109-21.165,9.309c-6.639,5.699-14.162,12.158-28.853,12.158c-14.691,0-22.216-6.46-28.854-12.158
		c-6.06-5.202-10.846-9.309-21.166-9.309c-10.317,0-15.103,4.109-21.164,9.309c-6.639,5.699-14.162,12.158-28.853,12.158
		c-14.691,0-22.215-6.46-28.853-12.158c-6.059-5.202-10.845-9.309-21.163-9.309c-10.318,0-15.106,4.109-21.165,9.309
		c-6.64,5.699-14.164,12.158-28.854,12.158c-14.69,0-22.215-6.46-28.853-12.158c-6.059-5.202-10.845-9.309-21.163-9.309
		c-10.318,0-15.105,4.109-21.164,9.309c-6.64,5.699-14.164,12.158-28.854,12.158s-22.216-6.46-28.854-12.158
		c-6.059-5.202-10.845-9.309-21.164-9.309c-3.261,0-5.904-2.643-5.904-5.904c0-3.261,2.643-5.904,5.904-5.904
		c14.691,0,22.216,6.46,28.854,12.158c6.059,5.202,10.845,9.309,21.164,9.309s15.105-4.109,21.164-9.309
		c6.639-5.699,14.164-12.158,28.854-12.158s22.215,6.46,28.853,12.158c6.059,5.202,10.845,9.309,21.163,9.309
		c10.318,0,15.105-4.109,21.164-9.309c6.64-5.699,14.164-12.158,28.856-12.158c14.69,0,22.215,6.46,28.853,12.158
		c6.059,5.202,10.845,9.309,21.163,9.309s15.103-4.109,21.164-9.309c6.639-5.699,14.162-12.158,28.853-12.158
		c14.692,0,22.217,6.46,28.856,12.158c6.06,5.202,10.845,9.309,21.165,9.309c10.317,0,15.103-4.109,21.164-9.309
		c6.639-5.699,14.163-12.158,28.854-12.158c14.692,0,22.218,6.46,28.858,12.158c6.06,5.202,10.846,9.309,21.167,9.309
		s15.107-4.109,21.168-9.309c6.64-5.699,14.164-12.158,28.858-12.158c3.26,0,5.904,2.643,5.904,5.904
		c0,3.261-2.644,5.904-5.904,5.904c-10.32,0-15.107,4.109-21.168,9.309C478.29,380.523,470.763,386.983,456.072,386.983z"/>
</g>
<path style="fill:#E6E6E6;" d="M334.099,68.546H177.236c13.567-29.765,43.59-50.459,78.432-50.459S320.531,38.781,334.099,68.546z"
	/>
<path style="fill:#CCCCCC;" d="M177.236,68.546h44.008c5.955-29.765,19.131-50.459,34.423-50.459
	C220.825,18.086,190.803,38.781,177.236,68.546z"/>
<g>
	<path style="fill:#E6E6E6;" d="M99.285,148.462c-47.58,0-86.15,38.571-86.15,86.15s38.571,86.151,86.15,86.151
		s86.15-38.572,86.15-86.151S146.865,148.462,99.285,148.462z M99.285,274.328c-21.934,0-39.715-17.78-39.715-39.715
		s17.78-39.715,39.715-39.715S139,212.679,139,234.613S121.219,274.328,99.285,274.328z"/>
	<path style="fill:#E6E6E6;" d="M307.522,440.095v5.947h-5.957c-25.171,0-45.565-20.405-45.565-45.565v-5.957h5.946
		c9.843,0,18.967,3.124,26.416,8.426C299.955,411.21,307.522,424.767,307.522,440.095z"/>
	<path style="fill:#E6E6E6;" d="M256,394.519v5.957c0,25.16-20.405,45.565-45.576,45.565h-5.946v-5.947
		c0-15.07,7.31-28.434,18.58-36.72c7.546-5.571,16.884-8.855,26.985-8.855H256z"/>
	<path style="fill:#E6E6E6;" d="M355.341,351.466l0.032-0.032c10.948,11.829,17.625,27.65,17.625,45.039v97.441H139.002v-97.441
		c0-17.142,6.494-32.759,17.153-44.534L355.341,351.466z"/>
</g>
<path style="fill:#CCCCCC;" d="M246.284,330.089h-40.902c-36.662,0-66.384,29.721-66.384,66.384v97.442H179.9v-97.442
	C179.901,359.809,209.622,330.089,246.284,330.089z"/>
<path style="fill:#71C5F4;" d="M355.341,351.466l0.032-0.032c-12.129-13.127-29.486-21.349-48.763-21.349H205.38
	c-19.525,0-37.074,8.426-49.225,21.854l27.876,21.425l39.028,30.012c0.001,0,0.002-0.001,0.003-0.002
	c-0.001,0-0.002,0.001-0.003,0.002c-11.27,8.286-18.58,21.65-18.58,36.72v5.947h5.946c25.171,0,45.576-20.405,45.576-45.565
	c0,25.16,20.394,45.565,45.565,45.565h5.957v-5.947c0-15.328-7.567-28.885-19.16-37.15c-0.001,0-0.002-0.001-0.003-0.002
	c0.001,0.001,0.002,0.001,0.003,0.002L355.341,351.466z"/>
<path style="fill:#64B4D8;" d="M246.286,330.084c-28.541,0-52.874,18.011-62.256,43.279l-27.876-21.425
	c12.151-13.428,29.7-21.854,49.225-21.854L246.286,330.084L246.286,330.084z"/>
<path style="fill:#F76B4F;" d="M99.289,194.903v-46.445c47.572,0,86.149,38.577,86.149,86.16h-46.434
	C139.004,212.679,121.218,194.903,99.289,194.903z"/>
<g>
	<path style="fill:#E0B394;" d="M143.917,239.356c-13.31-0.59-23.904-11.571-23.904-25.02c0-13.825,11.206-25.042,25.042-25.042
		c1.245,0,2.469,0.086,3.671,0.268L143.917,239.356z"/>
	<path style="fill:#E0B394;" d="M368.059,239.356c13.31-0.59,23.915-11.571,23.915-25.02c0-13.825-11.217-25.042-25.053-25.042
		c-1.245,0-2.479,0.097-3.671,0.268L368.059,239.356z"/>
	<path style="fill:#E0B394;" d="M302.709,279.519v59.632c0,25.794-20.915,46.709-46.709,46.709
		c-25.803,0-46.709-20.915-46.709-46.709v-59.632H302.709z"/>
</g>
<path style="fill:#F7CBA4;" d="M219.766,347.6l-44.061-32.012c-23.284-16.916-35.88-44.891-33.111-73.538l7.642-79.084
	c5.264-54.468,51.036-96.031,105.758-96.031l0,0c54.722,0,100.494,41.562,105.758,96.031l7.642,79.084
	c2.768,28.647-9.827,56.621-33.111,73.538L292.221,347.6C270.618,363.295,241.368,363.295,219.766,347.6z"/>
<path style="fill:#E8BA97;" d="M170.013,257.636c-0.741,12.526,3.338,24.849,11.41,34.455l46.051,56.588
	c2.404,2.866,5.131,5.27,8.083,7.192c-5.539-1.932-10.863-4.701-15.789-8.276l-44.062-32.008
	c-23.282-16.916-35.872-44.889-33.103-73.537l7.632-79.086c5.217-53.937,50.148-95.219,104.171-96.003
	c-33.275,0.805-70.953,32.169-72.918,65.572L170.013,257.636z"/>
<polygon style="fill:#E6E6E6;" points="364.346,66.936 355.824,138.616 155.511,138.616 146.988,66.936 "/>
<polygon style="fill:#CCCCCC;" points="203.748,138.616 155.511,138.616 146.988,66.936 202.718,66.936 "/>
<path style="fill:#F76B4F;" d="M99.284,274.328v46.445c-47.572,0-86.149-38.577-86.149-86.16h46.434
	C59.569,256.553,77.355,274.328,99.284,274.328z"/>
<g>
	<path style="fill:#666666;" d="M306.449,91.248c17.442,10.058,23.142,31.439,15.8,47.368c-4.401,9.564-13.514,17.163-27.607,19.181
		c-37.568,5.367-59.036-19.181-59.036-19.181h26.834C301.082,138.616,306.449,91.248,306.449,91.248z"/>
	<circle style="fill:#666666;" cx="256" cy="468.367" r="8.944"/>
</g>
<path style="fill:#F2F2F2;" d="M298.013,278.384c0,0-0.612,1.503-1.9,3.875c-0.311,0.612-0.676,1.256-1.084,1.954
	c-0.483,0.687-1.041,1.385-1.642,2.168c-0.601,0.784-1.288,1.578-2.018,2.458c-0.258,0.333-0.537,0.612-0.837,0.902
	c-0.107,0.107-0.225,0.215-0.344,0.322c-0.419,0.386-0.848,0.794-1.288,1.202c-0.88,0.826-1.835,1.642-2.834,2.501
	c-1.052,0.773-2.179,1.503-3.338,2.297c-0.58,0.397-1.181,0.784-1.793,1.17c-0.612,0.365-1.267,0.665-1.932,0.998
	c-1.31,0.665-2.673,1.31-4.079,1.954c-2.898,0.988-5.914,2.147-9.134,2.63c-3.177,0.741-6.494,0.859-9.8,1.02
	c-3.306-0.161-6.623-0.268-9.8-1.009c-3.22-0.483-6.236-1.642-9.134-2.63c-1.406-0.633-2.769-1.277-4.09-1.943
	c-0.655-0.333-1.31-0.633-1.932-0.998c-0.601-0.397-1.202-0.773-1.782-1.17c-1.159-0.794-2.297-1.535-3.349-2.297
	c-0.998-0.859-1.943-1.685-2.834-2.501c-0.44-0.419-0.859-0.816-1.277-1.213c-0.15-0.14-0.301-0.279-0.451-0.419
	c-0.258-0.258-0.504-0.504-0.719-0.794c-0.698-0.848-1.374-1.632-1.964-2.404c-0.58-0.784-1.149-1.471-1.621-2.158
	c-0.429-0.73-0.826-1.395-1.159-2.007c-1.342-2.447-1.9-3.907-1.9-3.907s1.589,0.483,4.036,1.471
	c0.623,0.236,1.267,0.526,1.986,0.816c0.762,0.225,1.546,0.515,2.383,0.794c0.848,0.279,1.696,0.623,2.598,0.945
	c0.891,0.343,1.9,0.569,2.898,0.869c0.998,0.29,1.996,0.644,3.038,0.955c1.084,0.236,2.168,0.515,3.285,0.784
	c0.558,0.129,1.106,0.29,1.664,0.44c0.569,0.129,1.159,0.204,1.739,0.322c1.17,0.204,2.34,0.44,3.51,0.708
	c2.437,0.225,4.841,0.762,7.353,0.859c2.479,0.322,5.013,0.236,7.524,0.386c2.522-0.15,5.056-0.054,7.535-0.376
	c2.512-0.086,4.916-0.633,7.353-0.859c1.17-0.258,2.34-0.494,3.51-0.698c0.58-0.118,1.17-0.193,1.739-0.322
	c0.558-0.161,1.116-0.311,1.664-0.44c1.116-0.268,2.2-0.558,3.285-0.784c1.052-0.311,2.05-0.665,3.048-0.955
	c0.988-0.301,2.018-0.537,2.877-0.869c0.88-0.301,1.707-0.633,2.544-0.891c0.826-0.279,1.599-0.558,2.361-0.784
	c0.751-0.322,1.417-0.633,2.05-0.88C296.457,278.835,298.013,278.384,298.013,278.384z"/>
<g>
	<path style="fill:#4D4D4D;" d="M290.532,289.74c-0.107,0.107-0.225,0.215-0.344,0.322c-0.419,0.386-0.848,0.794-1.288,1.202
		c-0.88,0.826-1.835,1.642-2.834,2.501c-1.052,0.773-2.179,1.503-3.338,2.297c-0.58,0.397-1.181,0.784-1.793,1.17
		c-0.612,0.365-1.267,0.665-1.932,0.998c-1.31,0.665-2.673,1.31-4.079,1.954c-2.898,0.988-5.914,2.147-9.134,2.63
		c-3.177,0.741-6.494,0.859-9.8,1.02c-3.306-0.161-6.623-0.268-9.8-1.009c-3.22-0.483-6.236-1.642-9.134-2.63
		c-1.406-0.633-2.769-1.277-4.09-1.943c-0.655-0.333-1.31-0.633-1.932-0.998c-0.601-0.397-1.202-0.773-1.782-1.17
		c-1.159-0.794-2.297-1.535-3.349-2.297c-0.998-0.859-1.943-1.685-2.834-2.501c-0.44-0.419-0.859-0.816-1.277-1.213
		c-0.15-0.14-0.301-0.279-0.451-0.419c0.343,0.118,0.687,0.236,1.041,0.354c0.848,0.279,1.696,0.612,2.598,0.934
		c0.891,0.354,1.9,0.58,2.898,0.88c0.998,0.29,1.996,0.633,3.038,0.955c1.084,0.225,2.168,0.515,3.285,0.784
		c0.558,0.129,1.106,0.279,1.664,0.429c0.569,0.129,1.159,0.204,1.739,0.322c1.17,0.204,2.34,0.451,3.51,0.708
		c2.437,0.236,4.841,0.773,7.353,0.859c2.479,0.333,5.013,0.236,7.524,0.397c2.522-0.15,5.056-0.054,7.535-0.386
		c2.512-0.086,4.916-0.623,7.353-0.848c1.17-0.258,2.34-0.504,3.51-0.708c0.58-0.118,1.17-0.193,1.739-0.322
		c0.558-0.15,1.116-0.301,1.664-0.429c1.116-0.268,2.2-0.558,3.285-0.784c1.052-0.322,2.05-0.676,3.048-0.955
		c0.988-0.301,2.018-0.547,2.877-0.869c0.88-0.311,1.707-0.633,2.544-0.902C289.877,289.966,290.21,289.848,290.532,289.74z"/>
	<path style="fill:#4D4D4D;" d="M208.21,242.427c-4.446,0-8.05-3.604-8.05-8.05v-12.875c0-4.446,3.604-8.05,8.05-8.05
		c4.446,0,8.05,3.604,8.05,8.05v12.876C216.26,238.824,212.656,242.427,208.21,242.427z"/>
</g>
<g>
	<path style="fill:#666666;" d="M285.371,190.374c0,0,0.021-0.214,0.093-0.581c0.083-0.355,0.166-0.917,0.347-1.552
		c0.081-0.328,0.185-0.671,0.304-1.048c0.156-0.382,0.365-0.766,0.587-1.202c0.22-0.438,0.498-0.871,0.79-1.357
		c0.294-0.494,0.645-0.868,1.005-1.345c0.365-0.458,0.776-0.902,1.205-1.378c0.454-0.43,0.947-0.854,1.471-1.281
		c1.025-0.903,2.278-1.555,3.583-2.281c1.35-0.571,2.783-1.19,4.318-1.477c1.52-0.395,3.114-0.488,4.704-0.562
		c1.59,0.073,3.185,0.158,4.706,0.551c1.536,0.283,2.97,0.906,4.321,1.473c1.306,0.725,2.56,1.376,3.586,2.28
		c0.523,0.427,1.016,0.852,1.472,1.281c0.429,0.478,0.838,0.925,1.205,1.38c0.354,0.474,0.722,0.864,0.992,1.338
		c0.271,0.472,0.532,0.895,0.745,1.323c0.211,0.429,0.416,0.807,0.571,1.188c0.141,0.397,0.265,0.757,0.357,1.097
		c0.204,0.658,0.289,1.224,0.367,1.578c0.069,0.366,0.084,0.574,0.084,0.574s-0.222-0.005-0.598-0.042
		c-0.365-0.047-0.932-0.071-1.557-0.162c-0.324-0.033-0.655-0.093-1.019-0.142c-0.387-0.018-0.77-0.072-1.185-0.104
		c-0.815-0.086-1.665-0.214-2.6-0.25c-0.459-0.03-0.905-0.097-1.371-0.135c-0.482-0.006-0.957-0.031-1.43-0.067
		c-0.925-0.12-1.931-0.049-2.865-0.166c-0.982,0.035-1.922-0.085-2.896-0.055c-0.957-0.072-1.926,0.004-2.886-0.063
		c-0.961,0.065-1.929-0.018-2.888,0.052c-0.975-0.034-1.915,0.09-2.899,0.05c-0.935,0.116-1.943,0.044-2.868,0.165
		c-0.472,0.035-0.948,0.061-1.431,0.067c-0.466,0.039-0.909,0.109-1.371,0.137c-0.953,0.052-1.745,0.142-2.541,0.21
		c-0.418,0.032-0.808,0.062-1.17,0.089c-0.385,0.07-0.737,0.147-1.072,0.191c-0.649,0.115-1.217,0.142-1.578,0.188
		C285.585,190.373,285.371,190.374,285.371,190.374z"/>
	<path style="fill:#666666;" d="M189.804,190.374c0,0,0.021-0.214,0.093-0.581c0.083-0.355,0.166-0.917,0.347-1.552
		c0.081-0.328,0.185-0.671,0.304-1.048c0.156-0.382,0.365-0.766,0.587-1.202c0.22-0.438,0.498-0.871,0.79-1.357
		c0.294-0.494,0.645-0.868,1.005-1.345c0.365-0.458,0.776-0.902,1.205-1.378c0.454-0.43,0.947-0.854,1.471-1.281
		c1.025-0.903,2.278-1.555,3.583-2.281c1.35-0.571,2.783-1.19,4.318-1.477c1.52-0.395,3.114-0.488,4.704-0.562
		c1.59,0.073,3.185,0.158,4.706,0.551c1.536,0.283,2.97,0.906,4.321,1.473c1.306,0.725,2.56,1.376,3.586,2.28
		c0.523,0.427,1.016,0.852,1.472,1.281c0.429,0.478,0.838,0.925,1.205,1.38c0.354,0.474,0.722,0.864,0.992,1.338
		c0.27,0.472,0.532,0.895,0.745,1.323c0.211,0.429,0.416,0.807,0.571,1.188c0.141,0.397,0.265,0.757,0.357,1.097
		c0.204,0.658,0.289,1.224,0.367,1.578c0.069,0.366,0.084,0.574,0.084,0.574s-0.222-0.005-0.598-0.042
		c-0.365-0.047-0.932-0.071-1.557-0.162c-0.324-0.033-0.655-0.093-1.019-0.142c-0.387-0.018-0.77-0.072-1.185-0.104
		c-0.815-0.086-1.665-0.214-2.6-0.25c-0.459-0.03-0.905-0.097-1.371-0.135c-0.482-0.006-0.957-0.031-1.43-0.067
		c-0.925-0.12-1.931-0.049-2.865-0.166c-0.982,0.035-1.922-0.085-2.896-0.055c-0.957-0.072-1.926,0.004-2.886-0.063
		c-0.961,0.065-1.929-0.018-2.888,0.052c-0.975-0.034-1.915,0.09-2.899,0.05c-0.935,0.116-1.943,0.044-2.868,0.165
		c-0.472,0.035-0.948,0.061-1.431,0.067c-0.466,0.039-0.909,0.109-1.371,0.137c-0.953,0.052-1.745,0.142-2.541,0.21
		c-0.418,0.032-0.808,0.062-1.17,0.089c-0.385,0.07-0.737,0.147-1.072,0.191c-0.649,0.115-1.217,0.142-1.578,0.188
		C190.02,190.373,189.804,190.374,189.804,190.374z"/>
</g>
<path style="fill:#4D4D4D;" d="M303.777,242.427c-4.446,0-8.05-3.604-8.05-8.05v-12.875c0-4.446,3.604-8.05,8.05-8.05
	c4.446,0,8.05,3.604,8.05,8.05v12.876C311.827,238.824,308.223,242.427,303.777,242.427z"/>
<g>
	<path style="fill:#E0B394;" d="M268.337,209.695v38.105c0,6.817-5.527,12.344-12.344,12.344l0,0
		c-6.817,0-12.344-5.527-12.344-12.344v-38.105"/>
	<circle style="fill:#E0B394;" cx="255.989" cy="319.168" r="7.156"/>
</g>
<g>
</g>
<g>
</g>
<g>
</g>
<g>
</g>
<g>
</g>
<g>
</g>
<g>
</g>
<g>
</g>
<g>
</g>
<g>
</g>
<g>
</g>
<g>
</g>
<g>
</g>
<g>
</g>
<g>
</g>
</svg>
