<?xml version="1.0" encoding="iso-8859-1"?>
<!-- Generator: Adobe Illustrator 19.0.0, SVG Export Plug-In . SVG Version: 6.00 Build 0)  -->
<svg version="1.1" id="Layer_1" xmlns="http://www.w3.org/2000/svg" xmlns:xlink="http://www.w3.org/1999/xlink" x="0px" y="0px"
	 viewBox="0 0 511.999 511.999" style="enable-background:new 0 0 511.999 511.999;" xml:space="preserve">
<polyline style="fill:#E6E6E6;" points="177.654,225.879 5.966,225.879 5.966,338.036 232.958,338.036 "/>
<path style="fill:#666666;" d="M232.958,344.001H0V219.914h177.654c3.295,0,5.966,2.671,5.966,5.966c0,3.294-2.67,5.966-5.966,5.966
	H11.932V332.07h221.026c3.295,0,5.966,2.671,5.966,5.966S236.253,344.001,232.958,344.001z"/>
<g>
	<path style="fill:#E0B394;" d="M147.452,210.346c-14.795-0.656-26.571-12.862-26.571-27.812c0-15.368,12.456-27.836,27.836-27.836
		c1.384,0,2.744,0.095,4.081,0.298L147.452,210.346z"/>
	<path style="fill:#E0B394;" d="M398.992,210.346c14.795-0.656,26.583-12.862,26.583-27.812c0-15.368-12.468-27.836-27.848-27.836
		c-1.384,0-2.756,0.107-4.081,0.298L398.992,210.346z"/>
</g>
<path style="fill:#F7CBA4;" d="M403.28,384.999v108.314H143.173V384.999c0-31.284,19.46-58.011,46.939-68.761
	c8.328-3.245,17.384-5.035,26.858-5.035h112.526c9.474,0,18.53,1.778,26.846,5.035C383.82,326.976,403.28,353.715,403.28,384.999z"
	/>
<rect x="143.178" y="408.427" style="fill:#C1442B;" width="260.107" height="84.881"/>
<path style="fill:#E0B394;" d="M262.441,311.203c-40.758,0-73.796,33.038-73.796,73.796v23.433h-45.471v-23.434
	c0-40.758,33.038-73.796,73.796-73.796L262.441,311.203L262.441,311.203z"/>
<rect x="143.178" y="408.427" style="fill:#A53725;" width="45.471" height="84.881"/>
<path style="fill:#E0B394;" d="M356.342,316.238l-42.846,31.129c-24.006,17.456-56.52,17.456-80.538,0l-42.846-31.129
	c8.328-3.245,17.384-5.035,26.858-5.035h112.526C338.969,311.203,348.025,312.981,356.342,316.238z"/>
<path style="fill:#F7CBA4;" d="M232.959,330.669l-48.978-35.585c-25.882-18.804-39.883-49.9-36.806-81.744l8.495-87.909
	c5.851-60.546,56.731-106.746,117.559-106.746l0,0c60.828,0,111.708,46.2,117.559,106.746l8.495,87.909
	c3.077,31.844-10.923,62.939-36.806,81.744l-48.978,35.585C289.486,348.114,256.971,348.114,232.959,330.669z"/>
<path style="fill:#E8BA97;" d="M177.654,230.665c-0.823,13.924,3.711,27.621,12.683,38.3l51.19,62.903
	c2.673,3.186,5.703,5.858,8.984,7.994c-6.157-2.148-12.075-5.226-17.551-9.199l-48.979-35.58
	c-25.879-18.804-39.875-49.898-36.797-81.743l8.483-87.911c5.799-59.956,55.744-105.844,115.795-106.715
	c-36.988,0.895-78.871,35.759-81.054,72.89L177.654,230.665z"/>
<path style="fill:#666666;" d="M391.862,136.549h-0.012c-10.464,3.83-21.775,5.918-33.563,5.918
	c-36.451,0-68.236-19.949-85.06-49.528c-14.974,26.321-41.784,45.006-73.188,48.812c-3.902,0.477-7.863,0.716-11.884,0.716
	c-11.788,0-23.099-2.088-33.563-5.918l1.074-11.12C161.524,64.889,212.4,18.69,273.227,18.69c7.66,0,15.153,0.728,22.419,2.136
	c0.012,0,0.024,0,0.024,0c21.608,4.164,41.211,14.234,56.961,28.528c21.047,19.114,35.234,45.805,38.157,76.075L391.862,136.549z"/>
<path style="fill:#4D4D4D;" d="M296.028,20.909c-50.315,9.855-89.665,51.735-94.772,104.52l-1.074,11.12
	c-0.024,1.742-0.072,3.472-0.143,5.202c-3.902,0.477-7.863,0.716-11.884,0.716c-11.788,0-23.099-2.088-33.563-5.918l1.074-11.12
	C161.524,64.889,212.4,18.69,273.227,18.69c7.66,0,15.153,0.728,22.419,2.136c0.012,0,0.024,0,0.024,0
	C295.789,20.862,295.908,20.885,296.028,20.909z"/>
<g>
	<path style="fill:#5D9EBA;" d="M108.476,91.79l-5.978-34.828c-0.476-2.774-3.113-4.635-5.885-4.162l-36.168,6.207
		c-1.333,0.229-2.519,0.977-3.299,2.081c-0.78,1.104-1.091,2.472-0.861,3.805l3.541,20.631c-1.691-0.289-3.433-0.309-5.173-0.01
		c-4.026,0.691-7.541,2.908-9.898,6.243c-2.358,3.335-3.275,7.388-2.584,11.412c0.69,4.026,2.908,7.541,6.243,9.898
		c2.611,1.846,5.661,2.809,8.795,2.809c0.869,0,1.744-0.074,2.619-0.224c4.024-0.691,7.541-2.908,9.898-6.243
		c2.358-3.335,3.275-7.388,2.584-11.414L67.195,68.19l26.122-4.483l2.677,15.599c-1.668-0.288-3.41-0.304-5.172-0.002
		c-4.026,0.691-7.541,2.908-9.898,6.243c-2.358,3.335-3.275,7.388-2.584,11.414c0.691,4.026,2.908,7.541,6.243,9.898
		c2.611,1.846,5.66,2.809,8.795,2.809c0.869,0,1.744-0.074,2.619-0.224C104.303,108.02,109.902,100.099,108.476,91.79z"/>
	<path style="fill:#5D9EBA;" d="M488.765,123.736l11.799-33.309c0.939-2.654-0.452-5.566-3.102-6.506l-34.591-12.252
		c-1.274-0.451-2.675-0.378-3.896,0.204s-2.16,1.625-2.611,2.899l-6.989,19.731c-1.334-1.077-2.844-1.946-4.509-2.535
		c-3.85-1.364-8-1.147-11.687,0.611c-3.686,1.759-6.467,4.847-7.831,8.696c-1.364,3.849-1.147,8,0.611,11.687
		c1.376,2.886,3.568,5.216,6.301,6.747c0.758,0.425,1.558,0.787,2.395,1.083c3.849,1.364,8,1.147,11.687-0.611
		c3.687-1.758,6.468-4.847,7.832-8.696l10.098-28.506l24.982,8.85l-5.284,14.919c-1.315-1.065-2.828-1.932-4.511-2.529
		c-3.85-1.364-8-1.147-11.687,0.611c-3.686,1.759-6.467,4.847-7.831,8.697c-1.364,3.85-1.147,8,0.612,11.687
		c1.376,2.886,3.568,5.216,6.301,6.747c0.758,0.425,1.558,0.787,2.395,1.083C477.193,135.859,485.949,131.684,488.765,123.736z"/>
	<path style="fill:#5D9EBA;" d="M507.518,222.701l-17.413-5.02c-1.577-0.455-3.273-0.265-4.712,0.53
		c-1.438,0.795-2.501,2.127-2.957,3.706l-7.047,24.446c-1.697-1.211-3.593-2.155-5.654-2.749
		c-9.849-2.841-20.167,2.865-23.005,12.711c-2.837,9.846,2.865,20.167,12.711,23.004c1.706,0.492,3.445,0.736,5.173,0.736
		c3.102,0,6.171-0.785,8.961-2.327c4.344-2.401,7.493-6.348,8.869-11.115c0-0.001,0.001-0.002,0.001-0.004l10.18-35.318l11.46,3.304
		c3.285,0.946,6.721-0.949,7.668-4.237C512.703,227.081,510.807,223.648,507.518,222.701z"/>
</g>
<path style="fill:#C1442B;" d="M294.703,287.924c0,11.86-9.617,21.477-21.477,21.477c-11.86,0-21.477-9.617-21.477-21.477
	c0-2.291,0.358-4.499,1.026-6.562c2.768-8.65,10.882-14.914,20.451-14.914c9.569,0,17.683,6.264,20.451,14.914
	C294.345,283.426,294.703,285.634,294.703,287.924z"/>
<path style="fill:#FFFFFF;" d="M293.677,281.362h-40.901c2.768-8.65,10.882-14.914,20.451-14.914
	C282.796,266.448,290.909,272.712,293.677,281.362z"/>
<path style="fill:#4D4D4D;" d="M146.989,306.425l-42.142-20.582l41.721-28.807c2.711-1.872,3.392-5.588,1.519-8.298
	c-1.87-2.71-5.588-3.392-8.298-1.519l-46.723,32.262l-46.723-32.262c-2.711-1.872-6.428-1.191-8.298,1.519
	c-1.872,2.711-1.192,6.426,1.519,8.298l41.721,28.807l-42.142,20.582c-2.96,1.445-4.189,5.018-2.743,7.979
	c1.034,2.118,3.157,3.349,5.366,3.349c0.878,0,1.771-0.194,2.613-0.606l48.688-23.778l48.688,23.777
	c0.842,0.412,1.735,0.606,2.613,0.606c2.209,0,4.331-1.231,5.366-3.349C151.178,311.444,149.95,307.87,146.989,306.425z"/>
<path style="fill:#F76B4F;" d="M273.228,314.173c-14.474,0-26.249-11.775-26.249-26.249c0-14.474,11.775-26.249,26.249-26.249
	c14.474,0,26.249,11.775,26.249,26.249C299.477,302.397,287.702,314.173,273.228,314.173z M273.228,271.219
	c-9.211,0-16.704,7.493-16.704,16.704s7.493,16.704,16.704,16.704s16.704-7.493,16.704-16.704S282.439,271.219,273.228,271.219z"/>
<rect x="84.117" y="204.41" style="fill:#666666;" width="17.897" height="288.898"/>
<path style="fill:#E0B394;" d="M282.582,225.097h-0.407v-18.494c0-4.942-4.005-8.949-8.949-8.949c-4.943,0-8.949,4.007-8.949,8.949
	v18.494h-0.407c-4.943,0-8.949,4.007-8.949,8.949s4.005,8.949,8.949,8.949h18.711c4.943,0,8.949-4.007,8.949-8.949
	S287.524,225.097,282.582,225.097z"/>
<g>
	<path style="fill:#666666;" d="M305.884,168.071c0,0,0.024-0.237,0.104-0.645c0.092-0.395,0.185-1.019,0.385-1.725
		c0.09-0.365,0.205-0.746,0.338-1.165c0.173-0.425,0.406-0.852,0.653-1.336c0.245-0.487,0.554-0.968,0.878-1.508
		c0.327-0.549,0.717-0.965,1.117-1.495c0.406-0.509,0.863-1.002,1.34-1.532c0.505-0.478,1.052-0.95,1.635-1.423
		c1.139-1.003,2.532-1.729,3.983-2.535c1.501-0.635,3.094-1.323,4.8-1.642c1.689-0.439,3.461-0.543,5.228-0.625
		c1.767,0.081,3.54,0.175,5.231,0.612c1.707,0.315,3.301,1.007,4.804,1.637c1.452,0.805,2.846,1.53,3.986,2.534
		c0.581,0.475,1.13,0.947,1.636,1.423c0.477,0.531,0.932,1.029,1.34,1.534c0.394,0.527,0.803,0.96,1.102,1.488
		c0.301,0.525,0.592,0.995,0.828,1.471c0.235,0.477,0.463,0.897,0.635,1.321c0.156,0.441,0.295,0.841,0.397,1.219
		c0.227,0.731,0.321,1.36,0.408,1.754c0.076,0.407,0.093,0.638,0.093,0.638s-0.247-0.006-0.665-0.047
		c-0.406-0.053-1.036-0.079-1.731-0.18c-0.36-0.037-0.728-0.104-1.132-0.158c-0.431-0.02-0.855-0.08-1.317-0.116
		c-0.906-0.095-1.851-0.237-2.89-0.278c-0.511-0.033-1.006-0.107-1.524-0.15c-0.536-0.007-1.064-0.035-1.589-0.074
		c-1.029-0.134-2.146-0.055-3.185-0.185c-1.092,0.039-2.137-0.094-3.219-0.061c-1.064-0.08-2.141,0.005-3.208-0.07
		c-1.068,0.073-2.144-0.02-3.211,0.057c-1.083-0.038-2.129,0.1-3.223,0.056c-1.039,0.129-2.16,0.049-3.188,0.184
		c-0.525,0.039-1.054,0.068-1.59,0.074c-0.518,0.043-1.011,0.122-1.524,0.153c-1.06,0.057-1.94,0.158-2.824,0.234
		c-0.464,0.036-0.898,0.069-1.301,0.099c-0.428,0.078-0.82,0.163-1.192,0.212c-0.722,0.128-1.353,0.158-1.754,0.209
		C306.123,168.071,305.884,168.071,305.884,168.071z"/>
	<path style="fill:#666666;" d="M199.653,168.071c0,0,0.024-0.237,0.104-0.645c0.092-0.395,0.185-1.019,0.385-1.725
		c0.089-0.365,0.205-0.746,0.338-1.165c0.173-0.425,0.406-0.852,0.653-1.336c0.245-0.487,0.554-0.968,0.878-1.508
		c0.327-0.549,0.717-0.965,1.117-1.495c0.406-0.509,0.863-1.002,1.34-1.532c0.505-0.478,1.052-0.95,1.635-1.423
		c1.139-1.003,2.532-1.729,3.983-2.535c1.501-0.635,3.094-1.323,4.8-1.642c1.689-0.439,3.461-0.543,5.228-0.625
		c1.767,0.081,3.54,0.175,5.231,0.612c1.707,0.315,3.301,1.007,4.804,1.637c1.452,0.805,2.846,1.53,3.986,2.534
		c0.581,0.475,1.13,0.947,1.636,1.423c0.477,0.531,0.932,1.029,1.34,1.534c0.394,0.527,0.803,0.96,1.102,1.488
		c0.301,0.525,0.592,0.995,0.828,1.471c0.235,0.477,0.463,0.897,0.635,1.321c0.156,0.441,0.295,0.841,0.397,1.219
		c0.227,0.731,0.321,1.36,0.408,1.754c0.076,0.407,0.093,0.638,0.093,0.638s-0.247-0.006-0.665-0.047
		c-0.406-0.053-1.036-0.079-1.731-0.18c-0.36-0.037-0.728-0.104-1.132-0.158c-0.431-0.02-0.855-0.08-1.317-0.116
		c-0.906-0.095-1.851-0.237-2.89-0.278c-0.511-0.033-1.006-0.107-1.524-0.15c-0.536-0.007-1.064-0.035-1.589-0.074
		c-1.028-0.134-2.146-0.055-3.185-0.185c-1.092,0.039-2.137-0.094-3.219-0.061c-1.064-0.08-2.141,0.005-3.208-0.07
		c-1.068,0.073-2.144-0.02-3.211,0.057c-1.083-0.038-2.129,0.1-3.223,0.056c-1.039,0.129-2.16,0.049-3.188,0.184
		c-0.525,0.039-1.054,0.068-1.59,0.074c-0.518,0.043-1.011,0.122-1.524,0.153c-1.06,0.057-1.94,0.158-2.824,0.234
		c-0.464,0.036-0.898,0.069-1.301,0.099c-0.428,0.078-0.82,0.163-1.192,0.212c-0.722,0.128-1.353,0.158-1.754,0.209
		C199.892,168.071,199.653,168.071,199.653,168.071z"/>
</g>
<path style="fill:#CCCCCC;" d="M428.012,341.11c-10.784-20.387-36.053-28.171-56.441-17.388
	c-20.387,10.784-28.171,36.053-17.388,56.441c6.414,12.126,17.955,19.793,30.542,21.746l-0.01,0.005l34.598,65.406
	c6.441,12.177,21.534,16.827,33.711,10.385l0,0c12.177-6.441,16.827-21.534,10.385-33.711l-34.603-65.416
	C434.27,367.077,434.423,353.232,428.012,341.11z"/>
<path style="fill:#B3B3B3;" d="M453.025,477.709c-12.171,6.438-27.265,1.789-33.709-10.394l-34.595-65.4
	c-12.588-1.953-24.121-9.62-30.536-21.749c-10.784-20.387-3-45.656,17.388-56.441c-8.037,4.251-5.813,24.226,4.972,44.613
	c6.416,12.128,14.406,21.67,21.53,26.514l34.595,65.4C439.113,472.434,448.226,480.247,453.025,477.709z"/>
<path style="fill:#5D9EBA;" d="M431.932,351.862c1.97,9.109,0.777,18.513-3.119,26.716l34.601,65.412
	c3.225,6.096,3.669,12.907,1.797,19.013c-1.889,6.102-6.099,11.488-12.184,14.706c-12.171,6.438-27.265,1.789-33.709-10.394
	l-34.595-65.4c-8.982-1.39-17.428-5.696-23.855-12.46L431.932,351.862z"/>
<path style="fill:#508DA3;" d="M453.027,477.708c-12.171,6.438-27.265,1.789-33.709-10.394l-34.595-65.4
	c-8.982-1.39-17.428-5.696-23.855-12.46l21.526-11.386c5.077,7.479,10.601,13.33,15.682,16.784l34.595,65.4
	C439.114,472.433,448.228,480.247,453.027,477.708z"/>
<g>
	<path style="fill:#4D4D4D;" d="M348.647,200.722c0,0-29.085-8.647-39.304,9.433c0,0,16.901,4.324,28.299,15.722l-7.861-18.08
		L348.647,200.722z"/>
	<path style="fill:#4D4D4D;" d="M197.81,200.722c0,0,29.085-8.647,39.304,9.433c0,0-16.901,4.324-28.299,15.722l7.86-18.08
		L197.81,200.722z"/>
</g>
<g>
</g>
<g>
</g>
<g>
</g>
<g>
</g>
<g>
</g>
<g>
</g>
<g>
</g>
<g>
</g>
<g>
</g>
<g>
</g>
<g>
</g>
<g>
</g>
<g>
</g>
<g>
</g>
<g>
</g>
</svg>
