<?xml version="1.0" encoding="iso-8859-1"?>
<!-- Generator: Adobe Illustrator 19.0.0, SVG Export Plug-In . SVG Version: 6.00 Build 0)  -->
<svg version="1.1" id="Layer_1" xmlns="http://www.w3.org/2000/svg" xmlns:xlink="http://www.w3.org/1999/xlink" x="0px" y="0px"
	 viewBox="0 0 511.998 511.998" style="enable-background:new 0 0 511.998 511.998;" xml:space="preserve">
<rect x="422.528" y="386.286" transform="matrix(-0.9173 -0.3982 0.3982 -0.9173 653.8751 996.651)" style="fill:#F9C573;" width="15.811" height="88.277"/>
<path style="fill:#999999;" d="M54.984,369.853c-2.55,0-4.618-2.068-4.618-4.618c0-16.139,6.666-24.526,12.546-31.927
	c5.657-7.118,10.542-13.265,10.542-26.181s-4.884-19.063-10.541-26.181c-5.882-7.401-12.547-15.789-12.547-31.927
	c0-16.137,6.666-24.524,12.547-31.923c5.657-7.117,10.541-13.263,10.541-26.176c0-2.55,2.068-4.618,4.618-4.618
	c2.55,0,4.618,2.068,4.618,4.618c0,16.136-6.666,24.523-12.547,31.923c-5.657,7.117-10.541,13.263-10.541,26.177
	c0,12.915,4.885,19.063,10.542,26.181c5.881,7.401,12.546,15.789,12.546,31.926c0,16.139-6.666,24.526-12.546,31.927
	c-5.657,7.118-10.542,13.265-10.542,26.181C59.602,367.786,57.534,369.853,54.984,369.853z"/>
<path style="fill:#F76B4F;" d="M387.754,407.201v104.796H136.095V407.201c0-13.968,4.006-27.001,10.944-38.003
	c12.641-20.063,34.99-33.397,60.456-33.397h108.871c25.466,0,47.804,13.333,60.433,33.397
	C383.748,380.2,387.754,393.233,387.754,407.201z"/>
<rect x="253.27" y="400.61" style="fill:#E5624C;" width="17.316" height="111.388"/>
<path style="fill:#F9C573;" d="M376.798,369.199c-29.864,28.514-70.314,46.014-114.874,46.014c-29.276,0-56.796-7.561-80.681-20.837
	c-12.479-6.915-23.965-15.4-34.205-25.177c8.219-13.045,20.548-23.25,35.163-28.779c7.861-2.99,16.381-4.618,25.293-4.618h108.871
	c8.912,0,17.431,1.628,25.293,4.618C356.273,345.949,368.591,356.155,376.798,369.199z"/>
<ellipse style="fill:#71C5F4;" cx="77.244" cy="110.209" rx="67.532" ry="91.394"/>
<path style="fill:#64B4D8;" d="M44.788,110.203c0-50.478,14.53-91.398,32.456-91.398c-37.297,0-67.532,40.92-67.532,91.398
	s30.235,91.398,67.532,91.398C59.318,201.603,44.788,160.682,44.788,110.203z"/>
<circle style="fill:#F76B4F;" cx="454.551" cy="374.832" r="54.684"/>
<path style="fill:#E5624C;" d="M251.483,335.804h-43.99c-39.43,0-71.395,31.964-71.395,71.395v104.797h43.99V407.199
	C180.089,367.768,212.053,335.804,251.483,335.804z"/>
<g>
	<path style="fill:#E2AF66;" d="M251.488,335.802c-35.059,0-64.208,25.258-70.245,58.574c-12.479-6.915-23.965-15.4-34.205-25.177
		c12.641-20.063,34.99-33.397,60.456-33.397H251.488z"/>
	<path style="fill:#E2AF66;" d="M341.659,340.419l-40.773,29.61c-23.227,16.877-54.684,16.877-77.922,0l-40.762-29.61
		c7.861-2.99,16.381-4.618,25.293-4.618h108.871C325.278,335.802,333.797,337.43,341.659,340.419z"/>
</g>
<path style="fill:#E6E6E6;" d="M222.963,354.637l-47.387-34.429c-25.041-18.193-38.588-48.279-35.611-79.089l8.219-85.054
	c5.661-58.58,54.888-103.279,113.741-103.279l0,0c58.852,0,108.079,44.699,113.741,103.279l8.219,85.054
	c2.977,30.81-10.569,60.895-35.611,79.089l-47.387,34.429C277.655,371.517,246.196,371.517,222.963,354.637z"/>
<path style="fill:#E0E0E0;" d="M169.455,257.882c-0.797,13.472,3.59,26.724,12.271,37.056l49.527,60.86
	c2.586,3.082,5.518,5.668,8.693,7.734c-5.957-2.078-11.683-5.056-16.981-8.9l-47.388-34.424
	c-25.039-18.193-38.58-48.277-35.602-79.088l8.208-85.056c5.61-58.009,53.934-102.407,112.034-103.249
	c-35.786,0.866-76.309,34.597-78.422,70.522L169.455,257.882z"/>
<path style="fill:#FFFFFF;" d="M261.925,332.105c-22.87,0-45.74-8.705-63.15-26.115c-9.919-9.917-9.919-25.998,0-35.917
	c4.959-4.959,11.459-7.439,17.959-7.439c6.5,0,12.999,2.48,17.958,7.438c7.508,7.508,17.371,11.262,27.233,11.262
	c9.862,0,19.725-3.754,27.233-11.262c4.958-4.958,11.46-7.438,17.958-7.438c6.5,0,12.999,2.479,17.959,7.439
	c9.917,9.919,9.917,25.998,0,35.917C307.665,323.4,284.795,332.105,261.925,332.105z"/>
<path style="fill:#F76B4F;" d="M261.925,313.643c-18.141,0-36.278-6.903-50.089-20.715c-2.705-2.705-2.705-7.09,0-9.795
	c2.705-2.705,7.091-2.705,9.795,0c22.218,22.218,58.369,22.219,80.587,0c2.705-2.705,7.09-2.706,9.795,0
	c2.705,2.705,2.705,7.09,0,9.795C298.206,306.736,280.063,313.643,261.925,313.643z"/>
<g>
	<path style="fill:#808080;" d="M346.835,194.201c-2.215,0-4.432-0.845-6.122-2.536c-3.653-3.653-8.508-5.663-13.673-5.663
		c-5.165,0-10.021,2.011-13.673,5.663c-3.381,3.381-8.863,3.381-12.244,0c-3.381-3.381-3.381-8.863,0-12.244
		c14.29-14.291,37.543-14.291,51.834,0c3.381,3.381,3.381,8.863,0,12.244C351.267,193.355,349.05,194.201,346.835,194.201z"/>
	<path style="fill:#808080;" d="M216.606,194.201c-2.215,0-4.432-0.845-6.122-2.536c-3.653-3.653-8.508-5.663-13.673-5.663
		c-5.165,0-10.021,2.011-13.673,5.663c-3.381,3.381-8.863,3.381-12.244,0c-3.381-3.381-3.381-8.863,0-12.244
		c14.29-14.291,37.543-14.291,51.834,0c3.381,3.381,3.381,8.863,0,12.244C221.038,193.355,218.821,194.201,216.606,194.201z"/>
</g>
<path style="fill:#F9C573;" d="M90.233,440.896H75.355v-14.878c0-3.507-2.842-6.349-6.349-6.349s-6.349,2.842-6.349,6.349v14.879
	H47.778c-3.507,0-6.349,2.842-6.349,6.349s2.842,6.349,6.349,6.349h14.879v14.879c0,3.507,2.842,6.349,6.349,6.349
	s6.349-2.842,6.349-6.349v-14.879h14.879c3.507,0,6.349-2.842,6.349-6.349S93.74,440.896,90.233,440.896z"/>
<g>
	<path style="fill:#F76B4F;" d="M340.764,221.777h-6.798v-6.798c0-3.825-3.102-6.926-6.926-6.926c-3.824,0-6.926,3.102-6.926,6.926
		v6.798h-6.798c-3.825,0-6.926,3.102-6.926,6.926s3.102,6.926,6.926,6.926h6.798v6.798c0,3.825,3.102,6.926,6.926,6.926
		c3.825,0,6.926-3.102,6.926-6.926v-6.798h6.798c3.824,0,6.926-3.102,6.926-6.926S344.59,221.777,340.764,221.777z"/>
	<path style="fill:#F76B4F;" d="M210.535,221.777h-6.798v-6.798c0-3.825-3.102-6.926-6.926-6.926s-6.926,3.102-6.926,6.926v6.798
		h-6.798c-3.825,0-6.926,3.102-6.926,6.926s3.102,6.926,6.926,6.926h6.798v6.798c0,3.825,3.102,6.926,6.926,6.926
		s6.926-3.102,6.926-6.926v-6.798h6.798c3.825,0,6.926-3.102,6.926-6.926S214.361,221.777,210.535,221.777z"/>
	<circle style="fill:#F76B4F;" cx="261.928" cy="248.033" r="33.307"/>
</g>
<path style="fill:#E5624C;" d="M261.923,281.337c-18.39,0-33.304-14.915-33.304-33.304c0-18.401,14.915-33.316,33.304-33.316
	c-9.339,0-16.912,14.915-16.912,33.316C245.011,266.422,252.584,281.337,261.923,281.337z"/>
<path style="fill:#90BC42;" d="M422.859,182.856c6.141,6.511,9.916,15.284,9.916,24.935c0,20.087-16.277,36.364-36.364,36.364
	c-4.375,0-8.566-0.773-12.456-2.193c-0.012-0.277-0.046-0.566-0.069-0.843l-8.219-85.056c-1.131-11.706-4.006-22.869-8.346-33.224
	c-2.817,0.889-5.83,1.374-8.947,1.374c-7.4,0-14.164-2.724-19.348-7.203c1.743,3.394,2.747,7.238,2.747,11.325
	c0,13.76-11.163,24.912-24.912,24.912c-5.76,0-11.036-1.962-15.261-5.241c-7.55,8.6-17.847,14.742-29.518,17.016
	c-3.29,0.646-6.684,0.981-10.159,0.981c-15.827,0-30.003-6.973-39.677-17.997c-4.225,3.278-9.501,5.241-15.261,5.241
	c-13.749,0-24.912-11.152-24.912-24.912c0-4.087,1.004-7.931,2.747-11.325c-5.183,4.479-11.948,7.203-19.348,7.203
	c-3.117,0-6.13-0.485-8.947-1.374c-4.341,10.355-7.215,21.518-8.346,33.224l-8.219,85.056c-0.023,0.277-0.058,0.566-0.069,0.843
	c-3.879,1.42-8.081,2.193-12.456,2.193c-20.087,0-36.364-16.277-36.364-36.364c0-9.651,3.775-18.424,9.916-24.935
	c-11.648-2.089-20.502-12.248-20.502-24.496c0-13.356,10.505-24.219,23.7-24.854c-2.482-4.918-3.879-10.459-3.879-16.335
	c0-20.087,16.277-36.364,36.364-36.364c0.254,0,0.496,0.012,0.75,0.024c-1.004-2.967-1.547-6.141-1.547-9.443
	c0-16.346,13.253-29.599,29.599-29.599c7.4,0,14.164,2.724,19.348,7.203c-1.743-3.394-2.747-7.238-2.747-11.325
	c0-13.76,11.163-24.912,24.912-24.912c5.76,0,11.048,1.974,15.261,5.241c5.31-6.049,11.971-10.874,19.521-14.003
	C247.979,1.42,254.79,0,261.924,0c15.827,0,30.003,6.973,39.677,17.997c4.225-3.267,9.501-5.241,15.261-5.241
	c13.749,0,24.912,11.151,24.912,24.912c0,4.087-1.004,7.931-2.747,11.325c5.183-4.479,11.948-7.203,19.348-7.203
	c16.346,0,29.599,13.252,29.599,29.599c0,3.302-0.543,6.476-1.547,9.443c0.254-0.012,0.496-0.024,0.75-0.024
	c20.087,0,36.364,16.277,36.364,36.364c0,5.876-1.397,11.417-3.879,16.335c13.195,0.635,23.7,11.498,23.7,24.854
	C443.361,170.607,434.507,180.766,422.859,182.856z"/>
<path style="fill:#87AA3C;" d="M272.083,165.02c-3.29,0.646-6.684,0.981-10.159,0.981c-15.827,0-30.003-6.973-39.677-17.997
	c-4.225,3.278-9.501,5.241-15.261,5.241c-13.749,0-24.912-11.151-24.912-24.912c0-4.087,1.004-7.931,2.747-11.325
	c-5.183,4.479-11.948,7.203-19.348,7.203c-3.117,0-6.13-0.485-8.947-1.374c-4.341,10.355-7.215,21.518-8.346,33.224l-8.219,85.056
	c-0.023,0.277-0.058,0.566-0.069,0.843c-3.879,1.42-8.081,2.193-12.456,2.193c-20.087,0-36.364-16.277-36.364-36.364
	c0-9.651,3.775-18.424,9.916-24.935c-11.648-2.089-20.502-12.248-20.502-24.496c0-13.356,10.505-24.219,23.7-24.854
	c-2.482-4.918-3.879-10.459-3.879-16.335c0-20.087,16.277-36.364,36.364-36.364c0.254,0,0.496,0.012,0.75,0.024
	c-1.004-2.967-1.547-6.141-1.547-9.443c0-16.346,13.252-29.599,29.599-29.599c7.4,0,14.164,2.724,19.348,7.203
	c-1.743-3.394-2.747-7.238-2.747-11.325c0-13.76,11.163-24.912,24.912-24.912c5.76,0,11.048,1.974,15.261,5.241
	c5.31-6.049,11.971-10.874,19.521-14.003c-5.403,6.418-8.646,14.695-8.646,23.746c0,6.349,1.605,12.329,4.433,17.558
	c-5.299,4.779-8.623,11.694-8.623,19.382c0,5.033,1.431,9.732,3.902,13.726c-3.81,3.544-6.211,8.577-6.211,14.188
	c0,9.235,6.453,16.947,15.1,18.909c-2.54,5.01-3.983,10.667-3.983,16.67C237.74,147.693,252.897,163.693,272.083,165.02z"/>
<g>
	<circle style="fill:#F9C573;" cx="304.248" cy="459.738" r="19.336"/>
	<circle style="fill:#F9C573;" cx="219.596" cy="459.738" r="19.336"/>
	<circle style="fill:#F9C573;" cx="454.551" cy="374.832" r="24.14"/>
</g>
<path style="fill:#FFFFFF;" d="M442.583,402.416c-15.208-6.602-22.21-24.347-15.607-39.555c6.602-15.208,24.347-22.21,39.555-15.607
	c15.208,6.602,22.209,24.347,15.607,39.555C475.536,402.017,457.791,409.02,442.583,402.416z M461.808,358.131
	c-9.211-3.999-19.957,0.241-23.956,9.452c-3.999,9.211,0.241,19.957,9.452,23.956c9.211,3.999,19.957-0.241,23.956-9.452
	C475.259,372.877,471.019,362.13,461.808,358.131z"/>
<path style="fill:#71C5F4;" d="M455.864,69.757c-2.215,0-4.432-0.845-6.122-2.536l-12.698-12.698c-3.381-3.381-3.381-8.863,0-12.244
	c3.381-3.381,8.863-3.381,12.244,0l12.698,12.698c3.381,3.381,3.381,8.863,0,12.244C460.296,68.912,458.08,69.757,455.864,69.757z"
	/>
<g>
	<path style="fill:#F76B4F;" d="M24.119,244.071c-2.215,0-4.432-0.845-6.122-2.536L5.299,228.836c-3.381-3.381-3.381-8.863,0-12.244
		c3.381-3.381,8.863-3.381,12.244,0l12.698,12.698c3.381,3.381,3.381,8.863,0,12.244C28.551,243.226,26.335,244.071,24.119,244.071z
		"/>
	<path style="fill:#F76B4F;" d="M464.017,249.677c-2.78,0-5.509-1.336-7.182-3.812c-2.677-3.962-1.636-9.344,2.327-12.021
		l14.88-10.054c3.964-2.676,9.345-1.635,12.021,2.327c2.677,3.962,1.636,9.344-2.327,12.021l-14.88,10.054
		C467.37,249.195,465.684,249.677,464.017,249.677z"/>
</g>
<path style="fill:#71C5F4;" d="M107.617,340.301c-1.199,0-2.417-0.251-3.58-0.779c-4.352-1.98-6.276-7.113-4.297-11.467
	l7.435-16.346c1.98-4.353,7.112-6.278,11.467-4.297c4.352,1.98,6.276,7.113,4.297,11.467l-7.435,16.346
	C114.053,338.415,110.907,340.301,107.617,340.301z"/>
<g>
	<circle style="fill:#666666;" cx="196.808" cy="228.708" r="7.291"/>
	<circle style="fill:#666666;" cx="327.036" cy="228.708" r="7.291"/>
</g>
<g>
</g>
<g>
</g>
<g>
</g>
<g>
</g>
<g>
</g>
<g>
</g>
<g>
</g>
<g>
</g>
<g>
</g>
<g>
</g>
<g>
</g>
<g>
</g>
<g>
</g>
<g>
</g>
<g>
</g>
</svg>
