<?xml version="1.0" encoding="iso-8859-1"?>
<!-- Generator: Adobe Illustrator 19.0.0, SVG Export Plug-In . SVG Version: 6.00 Build 0)  -->
<svg version="1.1" id="Layer_1" xmlns="http://www.w3.org/2000/svg" xmlns:xlink="http://www.w3.org/1999/xlink" x="0px" y="0px"
	 viewBox="0 0 512 512" style="enable-background:new 0 0 512 512;" xml:space="preserve">
<g>
	<path style="fill:#EA8249;" d="M388.83,380.117c-4.725,0-8.554-3.83-8.554-8.554v-48.28c0-4.724,3.829-8.554,8.554-8.554h49.041
		c4.725,0,8.554,3.83,8.554,8.554v37.463c0,4.724-3.829,8.554-8.554,8.554s-8.554-3.83-8.554-8.554v-28.909h-31.934v39.727
		C397.384,376.287,393.555,380.117,388.83,380.117z"/>
	<path style="fill:#EA8249;" d="M512,377.017v111.654H344.964l-6.25-102.668l-2.304-37.807h146.77
		C499.101,348.197,512,361.108,512,377.017z"/>
</g>
<path style="fill:#D36F3D;" d="M512,377.017v8.987H330.331v-37.807H483.18C499.101,348.197,512,361.108,512,377.017z"/>
<g>
	<path style="fill:#E2AF66;" d="M102.567,134.531H71.773c-4.094,0-7.413-3.319-7.413-7.413c0-4.094,3.319-7.413,7.413-7.413h30.793
		c4.094,0,7.413,3.319,7.413,7.413C109.98,131.212,106.661,134.531,102.567,134.531z"/>
	<path style="fill:#E2AF66;" d="M102.567,236.605H71.773c-4.094,0-7.413-3.319-7.413-7.413c0-4.094,3.319-7.413,7.413-7.413h30.793
		c4.094,0,7.413,3.319,7.413,7.413C109.98,233.287,106.661,236.605,102.567,236.605z"/>
</g>
<g>
	<rect x="64.358" y="103.739" style="fill:#F9C573;" width="14.826" height="143.257"/>
	<rect x="58.008" y="221.78" style="fill:#F9C573;" width="27.531" height="93.155"/>
</g>
<polyline style="fill:#E2AF66;" points="67.253,314.931 67.253,221.779 58.007,221.779 58.007,314.931 "/>
<circle style="fill:#CCCCCC;" cx="27.903" cy="305.047" r="22.201"/>
<path style="fill:#F9C573;" d="M50.104,305.05h43.339v172.972c0,5.88-4.767,10.648-10.648,10.648H60.752
	c-5.88,0-10.648-4.767-10.648-10.648V305.05z"/>
<path style="fill:#E2AF66;" d="M50.104,305.05h12.691v183.619h-2.045c-5.88,0-10.648-4.767-10.648-10.648V305.05H50.104z"/>
<g>
	<path style="fill:#E0B394;" d="M145.429,218.194c-14.142-0.627-25.399-12.294-25.399-26.585c0-14.69,11.907-26.608,26.608-26.608
		c1.323,0,2.623,0.091,3.9,0.285L145.429,218.194z"/>
	<path style="fill:#E0B394;" d="M384.157,218.194c14.142-0.627,25.41-12.294,25.41-26.585c0-14.69-11.918-26.608-26.619-26.608
		c-1.323,0-2.635,0.103-3.901,0.285L384.157,218.194z"/>
</g>
<path style="fill:#E6E6E6;" d="M388.827,385.139v103.534H140.2V385.139c0-16.104,5.395-30.953,14.484-42.825
	c12.888-16.845,33.2-27.714,56.055-27.714h107.56C357.247,314.598,388.827,346.178,388.827,385.139z"/>
<rect x="209.349" y="300.793" style="fill:#90BC42;" width="110.343" height="103.465"/>
<path style="fill:#CCCCCC;" d="M209.348,314.622v16.058c-15.682,12.945-25.684,32.538-25.684,54.459v103.534H140.2V385.138
	C140.2,346.647,171.027,315.352,209.348,314.622z"/>
<path style="fill:#E0B394;" d="M314.143,252.953v63.361c0,27.407-22.223,49.63-49.63,49.63c-27.416,0-49.63-22.222-49.63-49.63
	v-63.361H314.143z"/>
<path style="fill:#87AA3C;" d="M264.513,371.646c-30.51,0-55.332-24.822-55.332-55.332v-63.361c0-3.149,2.554-5.702,5.702-5.702
	h99.26c3.15,0,5.702,2.554,5.702,5.702v63.361C319.846,346.824,295.024,371.646,264.513,371.646z M220.586,258.656v57.659
	c0,24.222,19.705,43.927,43.927,43.927s43.928-19.705,43.928-43.927v-57.659H220.586z"/>
<path style="fill:#F7CBA4;" d="M349.822,299.191l-46.817,34.021c-22.947,16.674-54.037,16.674-76.983,0l-46.817-34.021
	c-24.737-17.974-38.127-47.695-35.184-78.135l4.653-48.197l3.467-35.834c0.547-5.645,1.505-11.165,2.84-16.526
	c12.34-49.543,57.07-85.503,109.533-85.503c29.071,0,55.77,11.04,75.888,29.311c16.195,14.712,28.147,34.101,33.645,56.192
	c1.334,5.36,2.292,10.88,2.84,16.526l3.467,35.834l4.653,48.197C387.949,251.494,374.559,281.216,349.822,299.191z"/>
<path style="fill:#E8BA97;" d="M173.156,237.617c-0.787,13.31,3.547,26.402,12.123,36.61l48.931,60.127
	c2.555,3.045,5.452,5.6,8.588,7.641c-5.885-2.053-11.542-4.995-16.777-8.793l-46.817-34.009
	c-24.737-17.974-38.115-47.695-35.173-78.135l8.109-84.031c5.543-57.31,53.284-101.173,110.685-102.006
	c-35.355,0.855-75.39,34.181-77.477,69.673L173.156,237.617z"/>
<path style="fill:#90BC42;" d="M370.009,101.008c-51.277,17.575-78.272,49.566-131.202,40.773
	c-17.643-2.931-62.693-34.922-79.789-40.773l3.182-16.035l12.215-61.644h180.198l12.215,61.644L370.009,101.008z"/>
<path style="fill:#E8BA97;" d="M380.353,172.859c-61.758,19.594-127.256,23.141-190.36,10.618
	c-13.914-2.76-27.714-6.296-41.32-10.618l3.467-35.834c0.547-5.645,1.505-11.165,2.84-16.526c1.357-1.677,2.703-3.353,4.037-5.041
	c17.096,5.851,34.557,10.253,52.2,13.184c52.93,8.793,107.514,4.391,158.791-13.184c1.334,1.688,2.68,3.364,4.037,5.041
	c1.334,5.36,2.292,10.88,2.84,16.526L380.353,172.859z"/>
<path style="fill:#87AA3C;" d="M370.009,101.008c-51.277,17.575-78.272,49.566-131.202,40.773
	c-17.643-2.931-62.693-34.922-79.789-40.773l3.182-16.035c16.07,5.315,32.47,9.363,49.018,12.112
	c51.835,8.611,105.256,4.562,155.609-12.112L370.009,101.008z"/>
<path style="fill:#90BC42;" d="M411.135,147.175c-70.46,29.185-147.431,36.473-221.141,21.852
	c-24.521-4.858-48.676-12.146-72.102-21.852c14.769-14.724,28.489-30.143,41.126-46.167c17.096,5.851,34.557,10.253,52.2,13.184
	c52.93,8.793,107.514,4.391,158.791-13.184C382.645,117.032,396.366,132.451,411.135,147.175z"/>
<g>
	<path style="fill:#87AA3C;" d="M213.237,23.328l-2.019,90.863l-21.225,54.835c-24.521-4.858-48.676-12.146-72.102-21.852
		c14.769-14.724,28.489-30.143,41.126-46.167l15.397-77.679L213.237,23.328L213.237,23.328z"/>
	<path style="fill:#87AA3C;" d="M188.488,400.775v87.898H140.2V385.139c0-16.104,5.395-30.953,14.484-42.825
		C175.794,355.531,188.488,377.372,188.488,400.775z"/>
</g>
<path style="fill:#90BC42;" d="M340.538,400.775v87.898h48.288V385.139c0-16.104-5.395-30.953-14.484-42.825
	C353.232,355.531,340.538,377.372,340.538,400.775z"/>
<g>
	<rect x="220.035" y="453.859" style="fill:#CCCCCC;" width="88.958" height="34.808"/>
	<rect x="444.712" y="386.011" style="fill:#CCCCCC;" width="28.125" height="44.867"/>
</g>
<path style="fill:#808080;" d="M27.903,332.953C12.517,332.953,0,320.436,0,305.05s12.517-27.903,27.903-27.903
	s27.903,12.517,27.903,27.903C55.807,320.436,43.29,332.953,27.903,332.953z M27.903,288.551c-9.098,0-16.498,7.401-16.498,16.498
	c0,9.098,7.401,16.498,16.498,16.498s16.498-7.401,16.498-16.498C44.402,295.952,37,288.551,27.903,288.551z"/>
<path style="fill:#E2AF66;" d="M93.443,411.671H50.104c-4.724,0-8.554-3.83-8.554-8.554c0-4.724,3.83-8.554,8.554-8.554h43.339
	c4.724,0,8.554,3.83,8.554,8.554C101.996,407.841,98.167,411.671,93.443,411.671z"/>
<g>
	<path style="fill:#C0E7F9;" d="M418.483,269.68c0,0,3.421-52.463,46.76-61.587c18.585-3.913,25.006,3.291,26.277,12.796
		c1.99,14.882-10.149,27.786-25.164,27.687C449.824,248.466,427.379,251.888,418.483,269.68z"/>
	<path style="fill:#C0E7F9;" d="M439.11,288.701c0,0,33.818-21.31,58.776,1.292c10.704,9.693,9.135,16.86,3.853,21.885
		c-8.272,7.867-21.632,6.155-28.273-3.131C466.155,298.523,454.031,286.235,439.11,288.701z"/>
</g>
<path style="fill:#F2F2F2;" d="M309.16,259.663c0,0-0.65,1.597-2.019,4.117c-0.331,0.65-0.719,1.334-1.152,2.076
	c-0.513,0.73-1.106,1.471-1.745,2.304c-0.639,0.833-1.369,1.677-2.144,2.612c-0.274,0.354-0.57,0.65-0.89,0.958
	c-0.114,0.114-0.24,0.228-0.365,0.342c-0.445,0.411-0.901,0.844-1.369,1.277c-0.935,0.878-1.95,1.745-3.011,2.657
	c-1.118,0.821-2.315,1.597-3.547,2.441c-0.616,0.422-1.255,0.833-1.905,1.243c-0.65,0.388-1.346,0.707-2.053,1.061
	c-1.391,0.707-2.84,1.391-4.334,2.076c-3.079,1.049-6.284,2.281-9.706,2.794c-3.376,0.787-6.9,0.912-10.413,1.083
	c-3.513-0.171-7.037-0.285-10.413-1.072c-3.421-0.513-6.626-1.745-9.706-2.794c-1.494-0.673-2.942-1.357-4.345-2.064
	c-0.696-0.354-1.391-0.673-2.053-1.061c-0.639-0.422-1.277-0.821-1.893-1.243c-1.232-0.844-2.441-1.631-3.558-2.441
	c-1.061-0.912-2.064-1.791-3.011-2.657c-0.468-0.445-0.912-0.867-1.357-1.289c-0.16-0.148-0.319-0.297-0.479-0.445
	c-0.274-0.274-0.536-0.536-0.764-0.844c-0.741-0.901-1.46-1.734-2.087-2.555c-0.616-0.833-1.22-1.562-1.722-2.292
	c-0.456-0.776-0.878-1.483-1.232-2.133c-1.426-2.6-2.019-4.151-2.019-4.151s1.688,0.513,4.288,1.562
	c0.661,0.251,1.346,0.559,2.11,0.867c0.81,0.24,1.642,0.547,2.532,0.844c0.901,0.297,1.802,0.661,2.76,1.004
	c0.947,0.365,2.019,0.604,3.079,0.924c1.061,0.308,2.121,0.684,3.228,1.015c1.152,0.251,2.304,0.547,3.49,0.833
	c0.593,0.137,1.175,0.308,1.768,0.468c0.604,0.137,1.232,0.217,1.848,0.342c1.243,0.217,2.486,0.468,3.729,0.753
	c2.589,0.24,5.144,0.81,7.812,0.912c2.635,0.342,5.326,0.251,7.995,0.411c2.68-0.16,5.372-0.057,8.006-0.399
	c2.669-0.091,5.223-0.673,7.812-0.912c1.243-0.274,2.486-0.525,3.729-0.741c0.616-0.125,1.243-0.205,1.848-0.342
	c0.593-0.171,1.186-0.331,1.768-0.468c1.186-0.285,2.338-0.593,3.49-0.833c1.118-0.331,2.178-0.707,3.239-1.015
	c1.049-0.319,2.144-0.57,3.057-0.924c0.935-0.319,1.813-0.673,2.703-0.947c0.878-0.297,1.699-0.593,2.509-0.833
	c0.798-0.342,1.505-0.673,2.178-0.935C307.506,260.142,309.16,259.663,309.16,259.663z"/>
<g>
	<path style="fill:#4D4D4D;" d="M301.211,271.729c-0.114,0.114-0.24,0.228-0.365,0.342c-0.445,0.411-0.901,0.844-1.369,1.277
		c-0.935,0.878-1.95,1.745-3.011,2.657c-1.118,0.821-2.315,1.597-3.547,2.441c-0.616,0.422-1.255,0.833-1.905,1.243
		c-0.65,0.388-1.346,0.707-2.053,1.061c-1.391,0.707-2.84,1.391-4.334,2.076c-3.079,1.049-6.284,2.281-9.706,2.794
		c-3.376,0.787-6.9,0.912-10.413,1.083c-3.513-0.171-7.037-0.285-10.413-1.072c-3.421-0.513-6.626-1.745-9.706-2.794
		c-1.494-0.673-2.942-1.357-4.345-2.064c-0.696-0.354-1.391-0.673-2.053-1.061c-0.639-0.422-1.277-0.821-1.893-1.243
		c-1.232-0.844-2.441-1.631-3.558-2.441c-1.061-0.912-2.064-1.791-3.011-2.657c-0.468-0.445-0.912-0.867-1.357-1.289
		c-0.16-0.148-0.319-0.297-0.479-0.445c0.365,0.125,0.73,0.251,1.106,0.376c0.901,0.297,1.802,0.65,2.76,0.992
		c0.947,0.376,2.019,0.616,3.079,0.935c1.061,0.308,2.121,0.673,3.228,1.015c1.152,0.24,2.304,0.547,3.49,0.833
		c0.593,0.137,1.175,0.297,1.768,0.456c0.604,0.137,1.232,0.217,1.848,0.342c1.243,0.217,2.486,0.479,3.729,0.753
		c2.589,0.251,5.144,0.821,7.812,0.912c2.635,0.354,5.326,0.251,7.995,0.422c2.68-0.16,5.372-0.057,8.006-0.411
		c2.669-0.091,5.223-0.661,7.812-0.901c1.243-0.274,2.486-0.536,3.729-0.753c0.616-0.125,1.243-0.205,1.848-0.342
		c0.593-0.16,1.186-0.319,1.768-0.456c1.186-0.285,2.338-0.593,3.49-0.833c1.118-0.342,2.178-0.719,3.239-1.015
		c1.049-0.319,2.144-0.582,3.057-0.924c0.935-0.331,1.813-0.673,2.703-0.958C300.515,271.969,300.869,271.843,301.211,271.729z"/>
	<path style="fill:#4D4D4D;" d="M213.742,221.458c-4.724,0-8.554-3.83-8.554-8.554v-13.681c0-4.724,3.83-8.554,8.554-8.554
		s8.554,3.83,8.554,8.554v13.681C222.296,217.629,218.466,221.458,213.742,221.458z"/>
	<path style="fill:#4D4D4D;" d="M315.285,221.458c-4.724,0-8.554-3.83-8.554-8.554v-13.681c0-4.724,3.83-8.554,8.554-8.554
		c4.724,0,8.554,3.83,8.554,8.554v13.681C323.838,217.629,320.008,221.458,315.285,221.458z"/>
</g>
<path style="fill:#E8BA97;" d="M277.629,186.678v40.487c0,7.243-5.872,13.116-13.116,13.116l0,0
	c-7.243,0-13.116-5.872-13.116-13.116v-40.487"/>
<g>
</g>
<g>
</g>
<g>
</g>
<g>
</g>
<g>
</g>
<g>
</g>
<g>
</g>
<g>
</g>
<g>
</g>
<g>
</g>
<g>
</g>
<g>
</g>
<g>
</g>
<g>
</g>
<g>
</g>
</svg>
