<?xml version="1.0" encoding="iso-8859-1"?>
<!-- Generator: Adobe Illustrator 19.0.0, SVG Export Plug-In . SVG Version: 6.00 Build 0)  -->
<svg version="1.1" id="Layer_1" xmlns="http://www.w3.org/2000/svg" xmlns:xlink="http://www.w3.org/1999/xlink" x="0px" y="0px"
	 viewBox="0 0 512.001 512.001" style="enable-background:new 0 0 512.001 512.001;" xml:space="preserve">
<path style="fill:#F9C573;" d="M485.289,262.13h-1.278h-32.076l5.873-48.864c0.191-1.547,0.269-3.071,0.258-4.584
	c-0.123-18.806-14.951-34.597-34.048-35.595c-0.303-0.011-0.605-0.022-0.908-0.034l-0.986-0.011c-0.325,0-0.661,0-0.986,0.011
	c-0.303,0.011-0.605,0.022-0.908,0.034c-19.097,0.997-33.925,16.789-34.048,35.595c-0.011,1.513,0.067,3.037,0.258,4.584
	l5.873,48.864h-32.076h-1.278c-8.753,0-15.847,7.094-15.847,15.847v19.445v170.756c0,8.753,7.094,15.847,15.847,15.847h126.33
	c8.753,0,15.847-7.094,15.847-15.847V297.422v-19.445C501.136,269.224,494.042,262.13,485.289,262.13z M422.124,220.812
	c-7.221,0-13.076-5.854-13.076-13.076c0-7.221,5.854-13.076,13.076-13.076s13.076,5.854,13.076,13.076
	C435.2,214.958,429.345,220.812,422.124,220.812z"/>
<g>
	<path style="fill:#E2AF66;" d="M373.226,386.308c0,0,0.827-1.792,2.512-4.679c1.677-2.894,4.203-6.89,7.484-11.42
		s7.304-9.609,11.873-14.777c4.559-5.178,9.679-10.43,14.997-15.47c5.331-5.026,10.868-9.837,16.298-14.091
		c2.713-2.129,5.385-4.137,7.984-5.969c2.593-1.839,5.099-3.521,7.453-5.03c2.364-1.5,4.57-2.831,6.569-3.966
		c2.001-1.133,3.778-2.086,5.275-2.834c2.982-1.511,4.823-2.229,4.823-2.229s-0.824,1.795-2.505,4.686
		c-0.834,1.452-1.888,3.171-3.135,5.103c-1.25,1.929-2.707,4.055-4.34,6.328c-1.643,2.263-3.468,4.667-5.454,7.15
		c-1.981,2.488-4.139,5.04-6.422,7.624c-4.563,5.174-9.684,10.423-15.011,15.455c-5.34,5.018-10.879,9.824-16.312,14.077
		c-5.423,4.262-10.727,7.984-15.439,10.998c-4.713,3.014-8.848,5.304-11.834,6.811C375.063,385.586,373.226,386.308,373.226,386.308
		z"/>
	<path style="fill:#E2AF66;" d="M373.226,445.889c0,0,0.827-1.792,2.512-4.679c1.677-2.894,4.203-6.89,7.484-11.42
		c3.282-4.53,7.304-9.609,11.873-14.777c4.559-5.178,9.679-10.43,14.997-15.47c5.331-5.026,10.868-9.837,16.298-14.091
		c2.713-2.129,5.385-4.137,7.984-5.97c2.593-1.839,5.099-3.521,7.453-5.03c2.364-1.5,4.57-2.831,6.569-3.966
		c2.001-1.133,3.778-2.086,5.275-2.834c2.982-1.511,4.823-2.229,4.823-2.229s-0.824,1.795-2.505,4.686
		c-0.834,1.452-1.888,3.171-3.135,5.103c-1.25,1.929-2.707,4.055-4.34,6.328c-1.643,2.263-3.468,4.667-5.454,7.149
		c-1.981,2.488-4.139,5.04-6.422,7.624c-4.563,5.174-9.684,10.423-15.011,15.455c-5.34,5.018-10.879,9.824-16.312,14.076
		c-5.423,4.262-10.727,7.984-15.439,10.998c-4.713,3.014-8.848,5.304-11.834,6.811C375.063,445.167,373.226,445.889,373.226,445.889
		z"/>
</g>
<path style="fill:#F9C573;" d="M89.197,149.136V74.983c0-8.179,6.631-14.811,14.811-14.811l0,0c8.179,0,14.811,6.631,14.811,14.811
	v74.153"/>
<path style="fill:#E2AF66;" d="M111.292,62.097c-2.152-1.219-4.634-1.924-7.285-1.924l0,0c-8.179,0-14.811,6.631-14.811,14.811
	v74.153h14.57V74.983C103.767,69.453,106.803,64.641,111.292,62.097z"/>
<path style="fill:#F9C573;" d="M89.197,317.943v74.153c0,8.179,6.631,14.811,14.811,14.811l0,0c8.179,0,14.811-6.631,14.811-14.811
	v-74.153"/>
<path style="fill:#E2AF66;" d="M111.292,404.982c-2.152,1.219-4.634,1.924-7.285,1.924l0,0c-8.179,0-14.811-6.631-14.811-14.811
	v-74.153h14.57v74.153C103.767,397.625,106.803,402.438,111.292,404.982z"/>
<rect x="69.823" y="131.44" style="fill:#F9C573;" width="68.365" height="212.941"/>
<rect x="69.823" y="131.44" style="fill:#E2AF66;" width="28.543" height="212.941"/>
<path style="fill:#999999;" d="M313.886,340.946H208.19c-38.28,0-69.313,31.032-69.313,69.313v101.742h244.321V410.259
	C383.2,371.978,352.167,340.946,313.886,340.946z"/>
<path style="fill:#8E8E8E;" d="M250.897,340.946H208.19c-38.28,0-69.313,31.032-69.313,69.313v101.742h42.707V410.259
	C181.585,371.978,212.617,340.946,250.897,340.946z"/>
<path style="fill:#E6E6E6;" d="M261.044,378.457c-0.303,26.49-21.866,47.871-48.428,47.871h-14.699V411.63
	c0-18.997,10.945-35.438,26.865-43.368l37.537-19.927h-1.275l36.248,19.927c15.921,7.93,26.865,24.372,26.865,43.368v14.698h-14.698
	C282.898,426.328,261.347,404.947,261.044,378.457"/>
<g>
	<path style="fill:#E0B394;" d="M144.006,246.218c-13.897-0.616-24.959-12.082-24.959-26.124c0-14.435,11.701-26.147,26.147-26.147
		c1.3,0,2.578,0.09,3.833,0.28"/>
	<path style="fill:#E0B394;" d="M378.039,246.218c13.897-0.616,24.97-12.082,24.97-26.124c0-14.435-11.712-26.147-26.158-26.147
		c-1.3,0-2.589,0.101-3.833,0.28"/>
</g>
<path style="fill:#F7CBA4;" d="M223.207,359.226l-46.005-33.425c-24.311-17.663-37.463-46.872-34.573-76.783l7.98-82.574
	c5.496-56.872,53.288-100.268,110.424-100.268l0,0c57.136,0,104.928,43.396,110.424,100.268l7.98,82.574
	c2.89,29.911-10.262,59.119-34.573,76.783l-46.005,33.425C276.304,375.613,245.762,375.613,223.207,359.226z"/>
<path style="fill:#E8BA97;" d="M171.259,265.292c-0.773,13.079,3.486,25.945,11.913,35.976l48.083,59.085
	c2.51,2.992,5.357,5.503,8.439,7.509c-5.783-2.017-11.342-4.909-16.486-8.641L177.202,325.8
	c-24.309-17.663-37.455-46.869-34.564-76.782l7.968-82.576c5.447-56.317,52.361-99.421,108.768-100.239
	c-34.743,0.841-74.084,33.589-76.135,68.466L171.259,265.292z"/>
<path style="fill:#E6E6E6;" d="M369.707,101.786v53.022H152.351v-52.899c-9.134-7.98-14.906-19.714-14.906-32.793
	c0-24.04,19.49-43.518,43.518-43.518c10.513,0,20.14,3.721,27.66,9.919C216.905,14.715,237.202,0,260.962,0
	c23.748,0,44.056,14.715,52.327,35.516c7.52-6.198,17.159-9.919,27.671-9.919c24.029,0,43.507,19.478,43.507,43.518
	C384.467,82.128,378.763,93.806,369.707,101.786z"/>
<path style="fill:#CCCCCC;" d="M180.963,25.598c5.155,0,10.098,0.897,14.682,2.544c-11.6,6.018-19.893,22.09-19.893,40.974
	c0,13.079,3.979,24.813,10.288,32.793v52.899h-33.689v-52.899c-9.134-7.98-14.906-19.714-14.906-32.793
	C137.445,45.076,156.934,25.598,180.963,25.598z"/>
<path style="fill:#AF7C38;" d="M301.411,270.392c-14.213-5.853-24.72-3.921-32.013,0.043c-3.493,1.899-6.318,4.626-8.336,7.834
	c-1.875-2.999-4.463-5.572-7.664-7.424c-7.316-4.233-18.048-6.503-32.744-0.452c-32.061,13.201-40.547,45.262-66.951,45.262
	c27.627,20.93,88.696,38.131,107.329-10.406c18.632,48.537,79.7,31.336,107.329,10.406
	C341.96,315.654,333.472,283.594,301.411,270.392z"/>
<g>
	<path style="fill:#E6E6E6;" d="M234.701,492.622c-4.643,0-8.406-3.763-8.406-8.406v-12.328c0-4.642,3.762-8.406,8.406-8.406
		s8.406,3.763,8.406,8.406v12.328C243.107,488.859,239.345,492.622,234.701,492.622z"/>
	<path style="fill:#E6E6E6;" d="M287.376,492.622c-4.643,0-8.406-3.763-8.406-8.406v-12.328c0-4.642,3.762-8.406,8.406-8.406
		c4.643,0,8.406,3.763,8.406,8.406v12.328C295.782,488.859,292.019,492.622,287.376,492.622z"/>
</g>
<path style="fill:#F76B4F;" d="M52.47,379.184H10.865v83.21c0,11.489,9.313,20.802,20.802,20.802l0,0
	c11.489,0,20.802-9.313,20.802-20.802v-83.21H52.47z"/>
<path style="fill:#E6E6E6;" d="M83.179,287.201v93.66h-72.31V177.794l6.209,3.071C57.558,200.837,83.179,242.069,83.179,287.201z"/>
<path style="fill:#CCCCCC;" d="M51.596,287.201v93.66H10.868V197.755C36.376,219.956,51.596,252.413,51.596,287.201z"/>
<path style="fill:#4D4D4D;" d="M211.144,249.417c-4.642,0-8.406-3.763-8.406-8.406v-13.444c0-4.642,3.763-8.406,8.406-8.406
	s8.406,3.763,8.406,8.406v13.444C219.549,245.654,215.786,249.417,211.144,249.417z"/>
<g>
	<path style="fill:#666666;" d="M291.709,195.066c0,0,0.022-0.223,0.098-0.606c0.086-0.371,0.174-0.957,0.362-1.621
		c0.084-0.343,0.193-0.7,0.317-1.094c0.163-0.399,0.381-0.8,0.613-1.255c0.23-0.457,0.52-0.909,0.825-1.417
		c0.307-0.516,0.674-0.907,1.049-1.404c0.381-0.479,0.81-0.941,1.259-1.439c0.474-0.449,0.988-0.892,1.535-1.337
		c1.07-0.943,2.378-1.624,3.741-2.382c1.41-0.596,2.906-1.243,4.509-1.542c1.587-0.412,3.251-0.51,4.911-0.587
		c1.66,0.076,3.325,0.165,4.913,0.575c1.604,0.296,3.101,0.946,4.512,1.538c1.364,0.757,2.673,1.437,3.744,2.38
		c0.546,0.446,1.061,0.89,1.537,1.337c0.448,0.499,0.875,0.966,1.259,1.441c0.37,0.495,0.754,0.902,1.036,1.398
		c0.282,0.493,0.556,0.935,0.778,1.382c0.221,0.448,0.435,0.843,0.596,1.241c0.147,0.415,0.277,0.79,0.373,1.145
		c0.213,0.687,0.301,1.278,0.383,1.647c0.072,0.382,0.087,0.6,0.087,0.6s-0.232-0.006-0.624-0.044
		c-0.381-0.049-0.973-0.074-1.626-0.169c-0.338-0.035-0.684-0.098-1.064-0.148c-0.405-0.019-0.804-0.075-1.237-0.109
		c-0.851-0.09-1.738-0.223-2.714-0.261c-0.48-0.031-0.945-0.101-1.431-0.141c-0.503-0.007-1-0.033-1.493-0.069
		c-0.966-0.126-2.016-0.052-2.991-0.174c-1.025,0.037-2.007-0.089-3.024-0.057c-1-0.075-2.011,0.004-3.014-0.066
		c-1.003,0.068-2.014-0.019-3.016,0.054c-1.018-0.036-1.999,0.094-3.027,0.053c-0.976,0.121-2.029,0.046-2.995,0.173
		c-0.493,0.037-0.99,0.064-1.494,0.069c-0.486,0.04-0.949,0.114-1.431,0.143c-0.995,0.054-1.822,0.148-2.653,0.22
		c-0.436,0.034-0.844,0.065-1.222,0.093c-0.402,0.073-0.77,0.154-1.12,0.199c-0.678,0.12-1.271,0.148-1.647,0.196
		C291.934,195.066,291.709,195.066,291.709,195.066z"/>
	<path style="fill:#666666;" d="M191.925,195.066c0,0,0.022-0.223,0.098-0.606c0.086-0.371,0.174-0.957,0.362-1.621
		c0.084-0.343,0.193-0.7,0.317-1.094c0.163-0.399,0.381-0.8,0.613-1.255c0.23-0.457,0.52-0.909,0.825-1.417
		c0.307-0.516,0.674-0.907,1.049-1.404c0.381-0.479,0.81-0.941,1.259-1.439c0.474-0.449,0.988-0.892,1.535-1.337
		c1.07-0.943,2.378-1.624,3.741-2.382c1.41-0.596,2.906-1.243,4.509-1.542c1.587-0.412,3.251-0.51,4.911-0.587
		c1.66,0.076,3.325,0.165,4.913,0.575c1.604,0.296,3.101,0.946,4.512,1.538c1.364,0.757,2.673,1.437,3.744,2.38
		c0.546,0.446,1.061,0.89,1.537,1.337c0.448,0.499,0.875,0.966,1.259,1.441c0.37,0.495,0.754,0.902,1.036,1.398
		c0.282,0.493,0.556,0.935,0.778,1.382c0.221,0.448,0.435,0.843,0.596,1.241c0.147,0.415,0.277,0.79,0.373,1.145
		c0.213,0.687,0.301,1.278,0.383,1.647c0.072,0.382,0.087,0.6,0.087,0.6s-0.232-0.006-0.624-0.044
		c-0.381-0.049-0.973-0.074-1.626-0.169c-0.338-0.035-0.684-0.098-1.064-0.148c-0.405-0.019-0.804-0.075-1.237-0.109
		c-0.851-0.09-1.738-0.223-2.714-0.261c-0.48-0.031-0.945-0.101-1.431-0.141c-0.503-0.007-1-0.033-1.493-0.069
		c-0.966-0.126-2.016-0.052-2.991-0.174c-1.025,0.037-2.007-0.089-3.024-0.057c-1-0.075-2.011,0.004-3.014-0.066
		c-1.003,0.068-2.014-0.019-3.016,0.054c-1.018-0.036-1.999,0.094-3.027,0.053c-0.976,0.121-2.029,0.046-2.995,0.173
		c-0.493,0.037-0.99,0.064-1.494,0.069c-0.486,0.04-0.949,0.114-1.431,0.143c-0.995,0.054-1.822,0.148-2.653,0.22
		c-0.436,0.034-0.844,0.065-1.222,0.093c-0.402,0.073-0.77,0.154-1.12,0.199c-0.678,0.12-1.271,0.148-1.647,0.196
		C192.15,195.066,191.925,195.066,191.925,195.066z"/>
</g>
<path style="fill:#4D4D4D;" d="M310.927,249.417c-4.642,0-8.406-3.763-8.406-8.406v-13.444c0-4.642,3.763-8.406,8.406-8.406
	c4.642,0,8.406,3.763,8.406,8.406v13.444C319.333,245.654,315.57,249.417,310.927,249.417z"/>
<path style="fill:#E8BA97;" d="M273.924,215.239v39.786c0,7.118-5.771,12.889-12.889,12.889l0,0
	c-7.118,0-12.889-5.771-12.889-12.889v-39.786"/>
<g>
</g>
<g>
</g>
<g>
</g>
<g>
</g>
<g>
</g>
<g>
</g>
<g>
</g>
<g>
</g>
<g>
</g>
<g>
</g>
<g>
</g>
<g>
</g>
<g>
</g>
<g>
</g>
<g>
</g>
</svg>
