<?xml version="1.0" encoding="iso-8859-1"?>
<!-- Generator: Adobe Illustrator 19.0.0, SVG Export Plug-In . SVG Version: 6.00 Build 0)  -->
<svg version="1.1" id="Layer_1" xmlns="http://www.w3.org/2000/svg" xmlns:xlink="http://www.w3.org/1999/xlink" x="0px" y="0px"
	 viewBox="0 0 512.001 512.001" style="enable-background:new 0 0 512.001 512.001;" xml:space="preserve">
<g>
	<path style="fill:#C0E7F9;" d="M56.59,385.707c-0.274,0.597-0.535,1.202-0.785,1.812c-1.481-0.207-2.993-0.322-4.531-0.322
		c-17.902,0-32.416,14.513-32.416,32.416c0,4.066,0.756,7.953,2.121,11.538h154.004v-47.384l-63.336-21.227
		C90.08,355.314,66.067,365.03,56.59,385.707z"/>
	<path style="fill:#C0E7F9;" d="M149.573,77.935c-1.788,0-3.542,0.134-5.263,0.375c-6.242-15.3-19.246-27.117-35.298-31.744
		l0.001-0.01c-0.079-0.023-0.16-0.037-0.238-0.059c-1.027-0.291-2.067-0.551-3.117-0.783c-0.194-0.042-0.389-0.084-0.584-0.125
		c-1.066-0.221-2.14-0.414-3.227-0.574c-0.174-0.026-0.349-0.046-0.523-0.071c-1.121-0.153-2.251-0.277-3.392-0.36
		c-0.121-0.009-0.242-0.013-0.363-0.021c-1.206-0.08-2.42-0.129-3.645-0.129c-22.782,0-42.282,14.008-50.387,33.874
		c-1.721-0.241-3.476-0.375-5.263-0.375c-20.798,0-37.658,16.86-37.658,37.658c0,4.722,0.878,9.239,2.465,13.404h80.03h10.813
		h90.843c1.587-4.165,2.465-8.682,2.465-13.404C187.232,94.794,170.372,77.935,149.573,77.935z"/>
</g>
<g>
	<path style="fill:#E0B394;" d="M109.856,206.754c-15.96-0.708-28.664-13.875-28.664-30.003c0-16.578,13.437-30.028,30.028-30.028
		c1.493,0,2.96,0.103,4.402,0.322L109.856,206.754z"/>
	<path style="fill:#E0B394;" d="M378.63,206.754c15.96-0.708,28.677-13.875,28.677-30.003c0-16.578-13.45-30.028-30.041-30.028
		c-1.493,0-2.973,0.116-4.402,0.322L378.63,206.754z"/>
</g>
<path style="fill:#4A6F93;" d="M304.947,315.553H183.561c-43.963,0-79.603,35.639-79.603,79.603v116.845h280.59V395.156
	C384.548,351.192,348.909,315.553,304.947,315.553z"/>
<path style="fill:#3D5F7A;" d="M232.607,315.553h-49.047c-43.963,0-79.603,35.639-79.603,79.603v116.845h49.047V395.156
	C153.005,351.192,188.644,315.553,232.607,315.553z"/>
<path style="fill:#F7CBA4;" d="M200.808,336.553l-52.835-38.387c-27.92-20.285-43.024-53.83-39.705-88.181l9.164-94.832
	C123.744,49.838,178.631,0,244.249,0l0,0c65.618,0,120.505,49.838,126.816,115.153l9.164,94.832
	c3.319,34.352-11.783,67.895-39.705,88.181l-52.835,38.387C261.788,355.371,226.711,355.371,200.808,336.553z"/>
<path style="fill:#E8BA97;" d="M141.148,228.673c-0.888,15.021,4.003,29.797,13.682,41.316l55.221,67.857
	c2.883,3.437,6.152,6.32,9.692,8.624c-6.642-2.317-13.026-5.638-18.933-9.924l-52.836-38.382
	c-27.917-20.285-43.015-53.827-39.695-88.18l9.151-94.834C123.686,50.473,177.564,0.97,242.344,0.031
	c-39.9,0.965-85.082,38.575-87.437,78.63L141.148,228.673z"/>
<path style="fill:#4D4D4D;" d="M186.951,210.438c-5.333,0-9.653-4.322-9.653-9.653v-15.44c0-5.331,4.321-9.653,9.653-9.653
	c5.333,0,9.653,4.322,9.653,9.653v15.44C196.604,206.115,192.283,210.438,186.951,210.438z"/>
<g>
	<path style="fill:#F2F2F2;" d="M323.618,157.671c-2.471,0-4.941-0.942-6.827-2.828c-4.071-4.072-9.485-6.315-15.245-6.315
		c-5.759,0-11.172,2.242-15.243,6.315c-3.771,3.77-9.884,3.771-13.651,0c-3.771-3.77-3.771-9.881-0.001-13.651
		c7.719-7.719,17.981-11.969,28.896-11.969c10.916,0,21.178,4.251,28.897,11.969c3.77,3.77,3.77,9.882-0.001,13.651
		C328.559,156.729,326.088,157.671,323.618,157.671z"/>
	<path style="fill:#F2F2F2;" d="M209.022,157.671c-2.47,0-4.941-0.942-6.826-2.828c-4.072-4.072-9.487-6.315-15.246-6.315
		c-5.76,0-11.173,2.242-15.245,6.315c-3.771,3.77-9.884,3.771-13.651,0c-3.771-3.77-3.771-9.881-0.001-13.651
		c7.719-7.719,17.981-11.969,28.897-11.969c10.915,0,21.178,4.25,28.896,11.969c3.771,3.77,3.771,9.881,0.001,13.651
		C213.964,156.729,211.492,157.671,209.022,157.671z"/>
</g>
<path style="fill:#4D4D4D;" d="M301.548,210.438c-5.333,0-9.653-4.322-9.653-9.653v-15.44c0-5.331,4.321-9.653,9.653-9.653
	c5.332,0,9.653,4.322,9.653,9.653v15.44C311.201,206.115,306.879,210.438,301.548,210.438z"/>
<path style="fill:#E0B394;" d="M259.051,171.186v45.692c0,8.174-6.627,14.802-14.802,14.802l0,0
	c-8.174,0-14.802-6.627-14.802-14.802v-45.692"/>
<rect x="234.601" y="379.054" style="fill:#3D5F7A;" width="19.307" height="132.946"/>
<path style="fill:#F9C573;" d="M466.47,66.845h-13.515V53.33c0-3.554-2.881-6.436-6.436-6.436s-6.436,2.882-6.436,6.436v13.515
	H426.57c-3.555,0-6.436,2.882-6.436,6.436c0,3.554,2.881,6.436,6.436,6.436h13.515v13.515c0,3.554,2.881,6.436,6.436,6.436
	s6.436-2.882,6.436-6.436V79.716h13.515c3.555,0,6.436-2.882,6.436-6.436C472.906,69.727,470.025,66.845,466.47,66.845z"/>
<path style="fill:#F2F2F2;" d="M344.827,307.276c0,0-0.18,56.208-52.952,74.228l-6.436-20.594l-41.188,48.91l-41.188-48.91
	l-6.436,20.594c-52.772-18.02-52.965-74.228-52.965-74.228c34.906,15.677,83.418-0.21,100.588-44.924
	C261.409,307.065,309.92,322.953,344.827,307.276z"/>
<g>
	<path style="fill:#E6E6E6;" d="M368.698,98.662c-0.42,0-0.846-0.037-1.273-0.116L310.47,88.195
		c-3.846-0.699-6.398-4.384-5.699-8.231c0.698-3.847,4.39-6.402,8.231-5.699l56.955,10.351c3.846,0.699,6.398,4.384,5.699,8.231
		C375.034,96.266,372.054,98.662,368.698,98.662z"/>
	<path style="fill:#E6E6E6;" d="M376.315,127.078c-0.42,0-0.846-0.037-1.273-0.116l-56.955-10.351
		c-3.846-0.699-6.398-4.384-5.699-8.231c0.699-3.847,4.381-6.398,8.231-5.699l56.955,10.351c3.846,0.699,6.398,4.384,5.699,8.231
		C382.651,124.682,379.671,127.078,376.315,127.078z"/>
	<path style="fill:#E6E6E6;" d="M119.799,98.662c-3.355,0-6.336-2.395-6.957-5.815c-0.699-3.847,1.852-7.532,5.699-8.231
		l56.955-10.351c3.845-0.704,7.532,1.852,8.231,5.699s-1.852,7.532-5.699,8.231l-56.955,10.351
		C120.644,98.625,120.218,98.662,119.799,98.662z"/>
	<path style="fill:#E6E6E6;" d="M112.181,127.078c-3.356,0-6.336-2.395-6.957-5.815c-0.699-3.847,1.852-7.532,5.699-8.231
		l56.955-10.351c3.842-0.7,7.532,1.852,8.231,5.699c0.699,3.847-1.852,7.532-5.699,8.231l-56.955,10.351
		C113.027,127.04,112.601,127.078,112.181,127.078z"/>
</g>
<path style="fill:#F9C573;" d="M424.005,512V233.912c0-24.091,19.599-43.69,43.69-43.69s43.69,19.599,43.69,43.69v27.046
	c0,7.66-6.21,13.87-13.87,13.87s-13.87-6.209-13.87-13.87v-27.046c0-8.795-7.155-15.95-15.95-15.95s-15.95,7.155-15.95,15.95V512
	H424.005z"/>
<path style="fill:#E6E6E6;" d="M367.506,294.057c-6.281,4.749-14.068,9.344-22.679,13.219
	c-34.906,15.677-83.418,19.538-100.575-25.176c-17.17,44.714-65.681,40.853-100.588,25.176c-8.611-3.874-16.398-8.469-22.679-13.219
	c30.324,0,40.068-36.824,76.892-51.986c16.874-6.95,29.205-4.338,37.609,0.528c3.668,2.124,6.641,5.071,8.791,8.521
	c2.317-3.681,5.56-6.822,9.576-8.997c8.379-4.556,20.439-6.77,36.773-0.051C327.438,257.233,337.194,294.057,367.506,294.057z"/>
<g>
	<circle style="fill:#4D4D4D;" cx="279.817" cy="416.805" r="9.438"/>
	<circle style="fill:#4D4D4D;" cx="279.817" cy="471.726" r="9.438"/>
</g>
<g>
</g>
<g>
</g>
<g>
</g>
<g>
</g>
<g>
</g>
<g>
</g>
<g>
</g>
<g>
</g>
<g>
</g>
<g>
</g>
<g>
</g>
<g>
</g>
<g>
</g>
<g>
</g>
<g>
</g>
</svg>
