<?xml version="1.0" encoding="iso-8859-1"?>
<!-- Generator: Adobe Illustrator 19.0.0, SVG Export Plug-In . SVG Version: 6.00 Build 0)  -->
<svg version="1.1" id="Layer_1" xmlns="http://www.w3.org/2000/svg" xmlns:xlink="http://www.w3.org/1999/xlink" x="0px" y="0px"
	 viewBox="0 0 512 512" style="enable-background:new 0 0 512 512;" xml:space="preserve">
<path style="fill:#F9C573;" d="M329.318,378.403l52.594,13.3l42.369-42.369l13.972,40.987l14.111-14.111v-54.96l34.795-34.795
	c4.688-4.688,0.474-12.612-6.034-11.347l0,0c-12.425,2.416-23.846,8.488-32.797,17.439l-19.005,19.005h-64.345l-14.111,14.111
	l49.67,16.934l-21.449,21.449l-26.38-2.76L329.318,378.403z"/>
<g>
	<path style="fill:#C0E7F9;" d="M56.297,447.446c-0.243,0.529-0.475,1.066-0.696,1.607c-1.313-0.184-2.653-0.285-4.017-0.285
		c-15.871,0-28.738,12.867-28.738,28.738c0,3.605,0.67,7.051,1.88,10.229h136.531v-42.008l-56.151-18.819
		C85.988,420.5,64.699,429.113,56.297,447.446z"/>
	<path style="fill:#C0E7F9;" d="M111.373,120.52c-41.079,10.84-42.071,43.88-42.071,54.518c0,1.629,0.083,3.24,0.241,4.827
		c-3.748-2.49-8.241-3.947-13.078-3.947c-13.077,0-23.677,10.601-23.677,23.677c0,0.735,0.045,1.458,0.11,2.175h113.279
		l10.27-94.944L111.373,120.52z"/>
	<path style="fill:#C0E7F9;" d="M431.031,194.025c-1.585,0-3.14,0.119-4.666,0.332c-5.534-13.564-17.063-24.04-31.293-28.142
		l0.001-0.009c-0.07-0.021-0.141-0.033-0.211-0.053c-0.911-0.258-1.833-0.488-2.764-0.694c-0.172-0.038-0.345-0.074-0.518-0.111
		c-0.945-0.196-1.898-0.367-2.861-0.509c-0.154-0.023-0.309-0.041-0.463-0.063c-0.994-0.136-1.996-0.245-3.007-0.32
		c-0.107-0.008-0.215-0.011-0.322-0.018c-1.069-0.071-2.145-0.114-3.232-0.114c-20.197,0-37.484,12.418-44.67,30.031
		c-1.526-0.213-3.082-0.332-4.666-0.332c-18.439,0-33.386,14.947-33.386,33.386c0,4.187,0.778,8.191,2.185,11.883h70.95h9.586
		h80.536c1.407-3.693,2.185-7.697,2.185-11.883C464.417,208.973,449.47,194.025,431.031,194.025z"/>
</g>
<path style="fill:#5D9EBA;" d="M366.529,408.413V512H117.774V408.413c0-1.677,0.057-3.343,0.183-4.987
	c2.545-36.651,33.091-65.589,70.393-65.589h107.615c37.29,0,67.837,28.938,70.381,65.589
	C366.472,405.07,366.529,406.736,366.529,408.413z"/>
<polygon style="fill:#666666;" points="173.388,310.363 231.376,488.326 253.437,488.326 315.816,295.866 "/>
<polygon style="fill:#5D9EBA;" points="262.726,480.735 242.152,302.754 221.577,480.735 "/>
<path style="fill:#508DA3;" d="M231.828,337.841h-43.482c-38.975,0-70.571,31.595-70.571,70.571V512h43.482V408.412
	C161.259,369.436,192.854,337.841,231.828,337.841z"/>
<polygon style="fill:#F9C573;" points="302.777,331.95 301.145,331.277 242.357,474.744 183.58,331.368 182.154,331.95 
	186.376,449.891 210.532,447.689 200.651,477.323 242.357,511.338 242.562,511.338 284.28,477.323 274.398,447.7 298.543,449.891 
	"/>
<path style="fill:#F7CBA4;" d="M203.638,356.457l-46.84-34.031c-24.752-17.983-38.143-47.722-35.2-78.176l8.124-84.072
	C135.318,102.273,183.977,58.09,242.15,58.09l0,0c58.173,0,106.832,44.184,112.428,102.087l8.124,84.072
	c2.943,30.454-10.447,60.192-35.2,78.176l-46.84,34.031C257.699,373.142,226.602,373.142,203.638,356.457z"/>
<path style="fill:#E8BA97;" d="M150.747,260.819c-0.787,13.316,3.549,26.416,12.13,36.628l48.956,60.157
	c2.556,3.047,5.454,5.603,8.592,7.645c-5.888-2.054-11.548-4.998-16.785-8.798l-46.841-34.027
	c-24.75-17.983-38.135-47.72-35.191-78.175l8.113-84.074c5.546-57.339,53.311-101.225,110.741-102.058
	c-35.373,0.856-75.428,34.198-77.517,69.708L150.747,260.819z"/>
<g>
	<path style="fill:#E0B394;" d="M123.005,241.386c-14.149-0.628-25.412-12.301-25.412-26.598c0-14.697,11.913-26.621,26.621-26.621
		c1.324,0,2.624,0.091,3.902,0.285"/>
	<path style="fill:#E0B394;" d="M361.284,241.386c14.149-0.628,25.423-12.301,25.423-26.598c0-14.697-11.924-26.621-26.633-26.621
		c-1.324,0-2.636,0.103-3.902,0.285"/>
</g>
<path style="fill:#5D9EBA;" d="M352.151,145.327c-1.107-4.735-2.499-9.357-4.176-13.83h0.81c0,0-111.72-32.555-111.789-23.46
	l-101.467,23.46h0.799c-1.677,4.473-3.069,9.094-4.176,13.83C94.953,135.582,71.31,118.409,71.31,90.59
	C71.31,40.565,147.796,0,242.152,0s170.842,40.565,170.842,90.59C412.993,118.409,389.35,135.582,352.151,145.327z"/>
<path style="fill:#666666;" d="M314.226,131.931c-19.058,17.116-44.341,27.757-72.07,27.757s-53.012-10.641-72.07-27.757
	l73.937-23.107L314.226,131.931z"/>
<path style="fill:#F9C573;" d="M348.785,93.739v37.758H135.53l0.308-37.975c0.068-9.094,6.538-16.899,15.462-18.634
	c13.248-2.567,26.633-4.553,40.075-5.979c47.275-5.009,95.382-3.001,141.961,6.048C342.315,76.703,348.785,84.588,348.785,93.739z"
	/>
<path style="fill:#E2AF66;" d="M191.374,68.909v62.588H135.53l0.308-37.975c0.068-9.094,6.538-16.899,15.462-18.634
	C164.547,72.321,177.932,70.336,191.374,68.909z"/>
<path style="fill:#508DA3;" d="M109.462,94.249c0-38.711,38.041-72.715,95.381-92.077C128.434,11.2,71.31,47.36,71.31,90.59
	c0,27.819,23.643,44.993,60.842,54.737c0.503-2.154,1.074-4.281,1.696-6.385C118.296,127.57,109.462,112.899,109.462,94.249z"/>
<g>
	<path style="fill:#F9C573;" d="M366.529,408.413v12.13h-22.616c-4.724,0-8.558-3.834-8.558-8.558s3.834-8.558,8.558-8.558h22.434
		C366.472,405.07,366.529,406.736,366.529,408.413z"/>
	<path style="fill:#F9C573;" d="M366.529,427.389v17.116h-22.616c-4.724,0-8.558-3.834-8.558-8.558s3.834-8.558,8.558-8.558H366.529
		z"/>
	<path style="fill:#F9C573;" d="M148.949,411.985c0,4.724-3.823,8.558-8.558,8.558h-22.616v-12.13c0-1.677,0.057-3.343,0.183-4.986
		h22.434C145.126,403.427,148.949,407.261,148.949,411.985z"/>
	<path style="fill:#F9C573;" d="M148.949,435.947c0,4.724-3.823,8.558-8.558,8.558h-22.616v-17.116h22.616
		C145.126,427.389,148.949,431.223,148.949,435.947z"/>
	<path style="fill:#F9C573;" d="M216.477,47.74h-25.104c-4.726,0-8.558-3.832-8.558-8.558s3.832-8.558,8.558-8.558h25.104
		c4.726,0,8.558,3.832,8.558,8.558S221.204,47.74,216.477,47.74z"/>
	<path style="fill:#F9C573;" d="M292.929,47.74h-25.104c-4.726,0-8.558-3.832-8.558-8.558s3.832-8.558,8.558-8.558h25.104
		c4.726,0,8.558,3.832,8.558,8.558S297.656,47.74,292.929,47.74z"/>
	<circle style="fill:#F9C573;" cx="242.148" cy="39.184" r="8.558"/>
	<path style="fill:#F9C573;" d="M471.141,119.303H459.73v-11.411c0-3.467-2.809-6.276-6.276-6.276s-6.276,2.809-6.276,6.276v11.411
		h-11.411c-3.467,0-6.276,2.809-6.276,6.276c0,3.467,2.809,6.276,6.276,6.276h11.411v11.411c0,3.467,2.809,6.276,6.276,6.276
		s6.276-2.809,6.276-6.276v-11.411h11.411c3.467,0,6.276-2.809,6.276-6.276S474.608,119.303,471.141,119.303z"/>
	<path style="fill:#F9C573;" d="M66.369,266.881H54.958v-11.411c0-3.467-2.809-6.276-6.276-6.276s-6.276,2.809-6.276,6.276v11.411
		H30.996c-3.467,0-6.276,2.809-6.276,6.276c0,3.467,2.809,6.276,6.276,6.276h11.411v11.411c0,3.467,2.809,6.276,6.276,6.276
		s6.276-2.809,6.276-6.276v-11.411h11.411c3.467,0,6.276-2.809,6.276-6.276S69.836,266.881,66.369,266.881z"/>
</g>
<rect x="303.024" y="467.715" style="fill:#508DA3;" width="50.584" height="17.116"/>
<path style="fill:#F2F2F2;" d="M286.82,282.876c0,0-0.65,1.598-2.02,4.119c-0.331,0.65-0.719,1.335-1.152,2.077
	c-0.513,0.73-1.107,1.472-1.746,2.305c-0.639,0.833-1.369,1.677-2.145,2.613c-0.274,0.354-0.571,0.65-0.89,0.958
	c-0.114,0.114-0.24,0.228-0.365,0.342c-0.445,0.411-0.901,0.844-1.369,1.278c-0.936,0.879-1.951,1.746-3.012,2.659
	c-1.118,0.822-2.316,1.598-3.549,2.442c-0.616,0.422-1.255,0.833-1.906,1.244c-0.65,0.388-1.346,0.707-2.054,1.061
	c-1.392,0.707-2.841,1.392-4.336,2.077c-3.081,1.05-6.287,2.282-9.711,2.796c-3.378,0.787-6.904,0.913-10.418,1.084
	c-3.515-0.171-7.04-0.285-10.418-1.073c-3.423-0.513-6.63-1.746-9.711-2.796c-1.495-0.673-2.944-1.358-4.347-2.065
	c-0.696-0.354-1.392-0.673-2.054-1.061c-0.639-0.422-1.278-0.822-1.894-1.244c-1.232-0.844-2.442-1.632-3.56-2.442
	c-1.061-0.913-2.065-1.792-3.012-2.659c-0.468-0.445-0.913-0.867-1.358-1.289c-0.16-0.148-0.32-0.297-0.479-0.445
	c-0.274-0.274-0.536-0.536-0.765-0.844c-0.742-0.901-1.461-1.734-2.088-2.556c-0.616-0.833-1.221-1.563-1.723-2.294
	c-0.456-0.776-0.879-1.483-1.232-2.134c-1.426-2.602-2.02-4.154-2.02-4.154s1.689,0.513,4.29,1.563
	c0.662,0.251,1.346,0.559,2.111,0.867c0.81,0.24,1.643,0.548,2.533,0.844c0.901,0.297,1.803,0.662,2.761,1.004
	c0.947,0.365,2.02,0.605,3.081,0.924c1.061,0.308,2.122,0.685,3.229,1.016c1.152,0.251,2.305,0.548,3.492,0.833
	c0.593,0.137,1.175,0.308,1.769,0.468c0.605,0.137,1.232,0.217,1.849,0.342c1.244,0.217,2.488,0.468,3.731,0.753
	c2.59,0.24,5.146,0.81,7.816,0.913c2.636,0.342,5.329,0.251,7.999,0.411c2.682-0.16,5.374-0.057,8.01-0.399
	c2.67-0.091,5.226-0.673,7.816-0.913c1.244-0.274,2.488-0.525,3.731-0.742c0.616-0.126,1.244-0.205,1.849-0.342
	c0.593-0.171,1.187-0.331,1.769-0.468c1.187-0.285,2.339-0.593,3.492-0.833c1.118-0.331,2.179-0.707,3.241-1.016
	c1.05-0.32,2.145-0.571,3.058-0.924c0.936-0.319,1.814-0.673,2.704-0.947c0.879-0.297,1.7-0.593,2.51-0.833
	c0.799-0.342,1.506-0.673,2.179-0.936C285.165,283.355,286.82,282.876,286.82,282.876z"/>
<g>
	<path style="fill:#4D4D4D;" d="M278.867,294.948c-0.114,0.114-0.24,0.228-0.365,0.342c-0.445,0.411-0.901,0.844-1.369,1.278
		c-0.936,0.879-1.951,1.746-3.012,2.659c-1.118,0.822-2.316,1.598-3.549,2.442c-0.616,0.422-1.255,0.833-1.906,1.244
		c-0.65,0.388-1.346,0.707-2.054,1.061c-1.392,0.707-2.841,1.392-4.336,2.077c-3.081,1.05-6.287,2.282-9.711,2.796
		c-3.378,0.787-6.904,0.913-10.418,1.084c-3.515-0.171-7.04-0.285-10.418-1.073c-3.423-0.513-6.63-1.746-9.711-2.796
		c-1.495-0.673-2.944-1.358-4.347-2.065c-0.696-0.354-1.392-0.673-2.054-1.061c-0.639-0.422-1.278-0.822-1.894-1.244
		c-1.232-0.844-2.442-1.632-3.56-2.442c-1.061-0.913-2.065-1.792-3.012-2.659c-0.468-0.445-0.913-0.867-1.358-1.289
		c-0.16-0.148-0.32-0.297-0.479-0.445c0.365,0.126,0.73,0.251,1.107,0.377c0.901,0.297,1.803,0.65,2.761,0.993
		c0.947,0.377,2.02,0.616,3.081,0.936c1.061,0.308,2.122,0.673,3.229,1.016c1.152,0.24,2.305,0.548,3.492,0.833
		c0.593,0.137,1.175,0.297,1.769,0.456c0.605,0.137,1.232,0.217,1.849,0.342c1.244,0.217,2.488,0.479,3.731,0.753
		c2.59,0.251,5.146,0.822,7.816,0.913c2.636,0.354,5.329,0.251,7.999,0.422c2.682-0.16,5.374-0.057,8.01-0.411
		c2.67-0.091,5.226-0.662,7.816-0.901c1.244-0.274,2.488-0.536,3.731-0.753c0.616-0.125,1.244-0.205,1.849-0.342
		c0.593-0.16,1.187-0.32,1.769-0.456c1.187-0.285,2.339-0.593,3.492-0.833c1.118-0.342,2.179-0.719,3.241-1.016
		c1.05-0.32,2.145-0.582,3.058-0.924c0.936-0.331,1.814-0.673,2.704-0.958C278.171,295.188,278.524,295.062,278.867,294.948z"/>
	<path style="fill:#4D4D4D;" d="M191.353,244.651c-4.726,0-8.558-3.832-8.558-8.558v-13.688c0-4.726,3.832-8.558,8.558-8.558
		c4.726,0,8.558,3.832,8.558,8.558v13.688C199.911,240.819,196.08,244.651,191.353,244.651z"/>
</g>
<g>
	<path style="fill:#666666;" d="M273.38,189.314c0,0,0.023-0.227,0.099-0.617c0.088-0.378,0.177-0.974,0.369-1.65
		c0.086-0.349,0.196-0.713,0.323-1.114c0.165-0.406,0.388-0.815,0.624-1.278c0.234-0.466,0.529-0.925,0.84-1.442
		c0.313-0.525,0.686-0.923,1.068-1.43c0.388-0.487,0.825-0.958,1.281-1.465c0.483-0.458,1.006-0.908,1.563-1.361
		c1.09-0.96,2.421-1.653,3.809-2.425c1.435-0.607,2.959-1.265,4.591-1.57c1.616-0.42,3.31-0.519,5-0.598
		c1.69,0.078,3.386,0.168,5.002,0.585c1.633,0.301,3.157,0.963,4.594,1.566c1.389,0.77,2.721,1.463,3.812,2.424
		c0.556,0.454,1.081,0.906,1.564,1.361c0.456,0.508,0.891,0.984,1.281,1.467c0.377,0.504,0.768,0.919,1.054,1.423
		c0.288,0.502,0.566,0.952,0.792,1.407c0.225,0.456,0.443,0.858,0.607,1.263c0.15,0.422,0.282,0.804,0.38,1.166
		c0.217,0.699,0.307,1.301,0.39,1.677c0.073,0.389,0.089,0.61,0.089,0.61s-0.236-0.006-0.636-0.045
		c-0.388-0.05-0.99-0.075-1.656-0.172c-0.345-0.035-0.696-0.099-1.083-0.151c-0.412-0.019-0.818-0.076-1.26-0.111
		c-0.866-0.091-1.77-0.227-2.764-0.266c-0.488-0.032-0.962-0.103-1.457-0.144c-0.512-0.007-1.018-0.033-1.52-0.071
		c-0.984-0.128-2.053-0.053-3.046-0.177c-1.044,0.038-2.044-0.09-3.079-0.058c-1.018-0.076-2.047,0.005-3.068-0.067
		c-1.021,0.07-2.051-0.019-3.071,0.055c-1.036-0.036-2.036,0.096-3.082,0.054c-0.994,0.123-2.065,0.047-3.049,0.176
		c-0.502,0.038-1.008,0.065-1.521,0.071c-0.495,0.041-0.966,0.116-1.457,0.146c-1.013,0.055-1.855,0.151-2.701,0.224
		c-0.444,0.034-0.859,0.066-1.244,0.095c-0.41,0.074-0.784,0.156-1.14,0.203c-0.69,0.122-1.294,0.151-1.677,0.2
		C273.61,189.313,273.38,189.314,273.38,189.314z"/>
	<path style="fill:#666666;" d="M171.787,189.314c0,0,0.023-0.227,0.099-0.617c0.088-0.378,0.177-0.974,0.369-1.65
		c0.086-0.349,0.196-0.713,0.323-1.114c0.165-0.406,0.388-0.815,0.624-1.278c0.234-0.466,0.529-0.925,0.84-1.442
		c0.313-0.525,0.686-0.923,1.068-1.43c0.388-0.487,0.825-0.958,1.281-1.465c0.483-0.458,1.006-0.908,1.563-1.361
		c1.09-0.96,2.421-1.653,3.809-2.425c1.435-0.607,2.959-1.265,4.591-1.57c1.616-0.42,3.31-0.519,5-0.598
		c1.69,0.078,3.386,0.168,5.002,0.585c1.633,0.301,3.157,0.963,4.594,1.566c1.389,0.77,2.721,1.463,3.812,2.424
		c0.556,0.454,1.081,0.906,1.564,1.361c0.456,0.508,0.891,0.984,1.281,1.467c0.377,0.504,0.768,0.919,1.054,1.423
		c0.288,0.502,0.566,0.952,0.792,1.407c0.225,0.456,0.443,0.858,0.607,1.263c0.149,0.422,0.282,0.804,0.38,1.166
		c0.217,0.699,0.307,1.301,0.39,1.677c0.073,0.389,0.089,0.61,0.089,0.61s-0.236-0.006-0.636-0.045
		c-0.388-0.05-0.99-0.075-1.656-0.172c-0.345-0.035-0.696-0.099-1.083-0.151c-0.412-0.019-0.818-0.076-1.26-0.111
		c-0.866-0.091-1.77-0.227-2.764-0.266c-0.488-0.032-0.962-0.103-1.457-0.144c-0.512-0.007-1.018-0.033-1.52-0.071
		c-0.984-0.128-2.053-0.053-3.046-0.177c-1.044,0.038-2.044-0.09-3.079-0.058c-1.018-0.076-2.047,0.005-3.068-0.067
		c-1.021,0.07-2.051-0.019-3.071,0.055c-1.036-0.036-2.036,0.096-3.082,0.054c-0.994,0.123-2.065,0.047-3.049,0.176
		c-0.502,0.038-1.008,0.065-1.521,0.071c-0.495,0.041-0.966,0.116-1.457,0.146c-1.013,0.055-1.855,0.151-2.701,0.224
		c-0.444,0.034-0.859,0.066-1.244,0.095c-0.41,0.074-0.784,0.156-1.14,0.203c-0.69,0.122-1.294,0.151-1.677,0.2
		C172.015,189.313,171.787,189.314,171.787,189.314z"/>
</g>
<path style="fill:#4D4D4D;" d="M292.948,244.651c-4.726,0-8.558-3.832-8.558-8.558v-13.688c0-4.726,3.832-8.558,8.558-8.558
	c4.726,0,8.558,3.832,8.558,8.558v13.688C301.506,240.819,297.674,244.651,292.948,244.651z"/>
<path style="fill:#E0B394;" d="M255.273,209.854v40.508c0,7.247-5.875,13.122-13.122,13.122l0,0
	c-7.247,0-13.122-5.875-13.122-13.122v-40.508"/>
<g>
</g>
<g>
</g>
<g>
</g>
<g>
</g>
<g>
</g>
<g>
</g>
<g>
</g>
<g>
</g>
<g>
</g>
<g>
</g>
<g>
</g>
<g>
</g>
<g>
</g>
<g>
</g>
<g>
</g>
</svg>
