<?xml version="1.0" encoding="iso-8859-1"?>
<!-- Generator: Adobe Illustrator 19.0.0, SVG Export Plug-In . SVG Version: 6.00 Build 0)  -->
<svg version="1.1" id="Layer_1" xmlns="http://www.w3.org/2000/svg" xmlns:xlink="http://www.w3.org/1999/xlink" x="0px" y="0px"
	 viewBox="0 0 512.001 512.001" style="enable-background:new 0 0 512.001 512.001;" xml:space="preserve">
<polyline style="fill:#666666;" points="424.717,287.354 504.669,310.049 474.487,416.372 392.788,393.774 424.721,287.355 "/>
<polygon style="fill:#C0E7F9;" points="504.669,310.054 494.653,345.349 494.642,345.349 414.694,322.66 424.721,287.355 "/>
<path style="fill:#4D4D4D;" d="M478.581,423.701l-91.376-25.935l33.429-117.745l91.367,25.941L478.581,423.701z M401.868,389.587
	l68.533,19.451l26.936-94.895l-68.527-19.456L401.868,389.587z"/>
<polyline style="fill:#F2F2F2;" points="204.506,359.985 141.714,273.631 29.683,355.094 122.996,483.42 181.006,441.237 "/>
<rect x="83.654" y="328.276" transform="matrix(-0.8088 0.5881 -0.5881 -0.8088 445.196 594.6579)" style="fill:#90BC42;" width="84.547" height="82.852"/>
<circle style="fill:#FCEA81;" cx="138.363" cy="151.315" r="64.254"/>
<g>
	<path style="fill:#E0B394;" d="M176.68,242.506c-13.384-0.594-24.037-11.635-24.037-25.16c0-13.902,11.268-25.181,25.181-25.181
		c1.252,0,2.483,0.086,3.691,0.27"/>
	<path style="fill:#E0B394;" d="M402.071,242.506c13.384-0.594,24.048-11.635,24.048-25.16c0-13.902-11.279-25.181-25.192-25.181
		c-1.252,0-2.493,0.097-3.691,0.27"/>
</g>
<path style="fill:#F76B4F;" d="M340.281,333.744H238.488c-36.866,0-66.754,29.886-66.754,66.754v97.985h235.3v-97.985
	C407.034,363.631,377.147,333.744,340.281,333.744z"/>
<path style="fill:#E5624C;" d="M279.618,333.744h-41.13c-36.866,0-66.754,29.886-66.754,66.754v97.985h41.13v-97.985
	C212.864,363.631,242.75,333.744,279.618,333.744z"/>
<path style="fill:#F7CBA4;" d="M252.951,351.354l-44.306-32.191c-23.413-17.011-36.08-45.141-33.296-73.948l7.685-79.525
	c5.293-54.772,51.32-96.566,106.347-96.566l0,0c55.027,0,101.054,41.794,106.347,96.566l7.685,79.525
	c2.784,28.807-9.882,56.936-33.296,73.948l-44.306,32.191C304.088,367.135,274.673,367.135,252.951,351.354z"/>
<path style="fill:#E8BA97;" d="M202.921,260.888c-0.745,12.596,3.357,24.987,11.474,34.647l46.308,56.904
	c2.418,2.882,5.159,5.3,8.128,7.232c-5.569-1.943-10.923-4.728-15.877-8.322l-44.308-32.186
	c-23.411-17.011-36.072-45.139-33.287-73.947l7.674-79.527c5.246-54.238,50.428-95.75,104.751-96.538
	c-33.46,0.81-71.349,32.348-73.324,65.938L202.921,260.888z"/>
<line style="fill:none;stroke:#000000;stroke-width:15;stroke-linejoin:round;stroke-miterlimit:10;" x1="273.876" y1="70.255" x2="273.865" y2="70.255"/>
<g>
	<rect x="217.609" y="388.233" style="fill:#4D4D4D;" width="16.19" height="27.265"/>
	<rect x="343.354" y="388.233" style="fill:#4D4D4D;" width="16.19" height="27.265"/>
</g>
<line style="fill:none;stroke:#000000;stroke-width:15;stroke-linecap:round;stroke-linejoin:round;stroke-miterlimit:10;" x1="239.736" y1="468.505" x2="239.736" y2="468.505"/>
<polygon style="fill:#666666;" points="337.952,400.926 328.148,385.963 250.621,385.963 240.816,400.926 211.138,400.926 
	211.138,498.482 367.631,498.482 367.631,400.926 "/>
<circle style="fill:#C0E7F9;" cx="289.386" cy="447.004" r="30.222"/>
<path style="fill:#4D4D4D;" d="M289.384,484.243c-20.533,0-37.238-16.705-37.238-37.238s16.705-37.238,37.238-37.238
	c20.533,0,37.238,16.705,37.238,37.238S309.918,484.243,289.384,484.243z M289.384,423.799c-12.796,0-23.206,10.41-23.206,23.206
	s10.41,23.206,23.206,23.206s23.206-10.41,23.206-23.206S302.181,423.799,289.384,423.799z"/>
<rect x="330.941" y="413.598" style="fill:#C0E7F9;" width="22.666" height="11.873"/>
<path style="fill:#E2AF66;" d="M334.441,353.173c-4.472,0-8.095-3.624-8.095-8.095v-38.36c0-9.51-7.738-17.248-17.248-17.248
	h-39.428c-9.517,0-17.259,7.738-17.259,17.248v38.36c0,4.471-3.623,8.095-8.095,8.095c-4.472,0-8.095-3.624-8.095-8.095v-38.36
	c0-18.439,15.005-33.438,33.449-33.438h39.428c18.439,0,33.438,15,33.438,33.438v38.36
	C342.536,349.548,338.911,353.173,334.441,353.173z"/>
<path style="fill:#C49270;" d="M306.107,312.136h-33.46c-2.981,0-5.397-2.417-5.397-5.397c0-2.98,2.416-5.397,5.397-5.397h33.46
	c2.981,0,5.397,2.417,5.397,5.397C311.504,309.719,309.088,312.136,306.107,312.136z"/>
<g>
	<path style="fill:#E2AF66;" d="M289.377,371.244c-4.472,0-8.095-3.624-8.095-8.095v-31.584c0-4.471,3.623-8.095,8.095-8.095
		s8.095,3.624,8.095,8.095v31.584C297.473,367.62,293.848,371.244,289.377,371.244z"/>
	<path style="fill:#E2AF66;" d="M372.707,109.088c12.65,15.726,20.95,35.176,23.023,56.601c-32.899,0-49.208-39.289-49.208-39.289
		C341.654,109.229,362.701,103.292,372.707,109.088z"/>
</g>
<path style="fill:#F9C573;" d="M404.883,102.742c-12.553,0-23.066,2.429-32.176,6.347c-10.135,4.361-18.565,10.567-26.185,17.313
	c-16.147,14.291-28.689,31.031-46.337,37.864c-33.46,12.952-66.92-29.143-66.92-29.143c-55.047,0-53.299,62.365-53.299,62.365
	c-12.92-17.993-20.724-58.76-12.132-86.532c8.926-28.83,29.261-42.915,50.417-49.434c31.614-9.757,65.064-2.644,65.064-2.644
	c0.475-0.497,0.961-0.982,1.457-1.468c2.806-2.774,5.915-5.472,9.347-7.987c10.999-8.063,25.279-14.14,43.304-14.14
	C390.851,35.282,404.883,102.742,404.883,102.742z"/>
<g>
	<path style="fill:#E2AF66;" d="M337.423,35.282c0,0-57.292,8.646-65.927,82.582c0,0-19.785-19.04,11.819-58.987
		c0.475-0.497,0.961-0.982,1.457-1.468c2.806-2.774,5.915-5.472,9.347-7.987C305.118,41.359,319.398,35.282,337.423,35.282z"/>
	<path style="fill:#E2AF66;" d="M179.966,197.488c-12.92-17.993-20.724-58.76-12.132-86.532
		c8.926-28.83,29.261-42.915,50.417-49.434c-18.889,14.485-18.63,39.958,15.014,73.601
		C178.218,135.122,179.966,197.488,179.966,197.488z"/>
</g>
<g>
	<path style="fill:#E8BA97;" d="M354.642,268.422h-15.111c-4.472,0-8.095-3.624-8.095-8.095c0-4.471,3.623-8.095,8.095-8.095h15.111
		c4.472,0,8.095,3.624,8.095,8.095C362.737,264.797,359.114,268.422,354.642,268.422z"/>
	<path style="fill:#E8BA97;" d="M239.234,268.422h-15.111c-4.472,0-8.095-3.624-8.095-8.095c0-4.471,3.623-8.095,8.095-8.095h15.111
		c4.472,0,8.095,3.624,8.095,8.095C247.329,264.797,243.705,268.422,239.234,268.422z"/>
</g>
<g>
	<path style="fill:#FCEA81;" d="M137.793,65.327c-4.472,0-8.095-3.624-8.095-8.095V21.613c0-4.471,3.623-8.095,8.095-8.095
		c4.472,0,8.095,3.624,8.095,8.095v35.619C145.888,61.702,142.264,65.327,137.793,65.327z"/>
	<path style="fill:#FCEA81;" d="M71.269,92.883c-2.071,0-4.144-0.79-5.725-2.371L40.358,65.326c-3.161-3.161-3.161-8.287,0-11.449
		c3.163-3.161,8.287-3.161,11.449,0l25.187,25.186c3.161,3.161,3.161,8.287,0,11.449C75.412,92.092,73.34,92.883,71.269,92.883z"/>
	<path style="fill:#FCEA81;" d="M43.714,159.407H8.095c-4.472,0-8.095-3.624-8.095-8.095s3.623-8.095,8.095-8.095h35.619
		c4.472,0,8.095,3.624,8.095,8.095S48.186,159.407,43.714,159.407z"/>
	<path style="fill:#FCEA81;" d="M46.082,251.118c-2.072,0-4.144-0.79-5.725-2.371c-3.161-3.161-3.161-8.287,0-11.448l25.187-25.187
		c3.163-3.161,8.287-3.16,11.449,0c3.161,3.161,3.161,8.287,0,11.448l-25.187,25.187C50.226,250.327,48.153,251.118,46.082,251.118z
		"/>
</g>
<path style="fill:#4D4D4D;" d="M241.331,245.596c-4.471,0-8.095-3.624-8.095-8.095v-12.948c0-4.471,3.624-8.095,8.095-8.095
	s8.095,3.624,8.095,8.095V237.5C249.426,241.971,245.802,245.596,241.331,245.596z"/>
<g>
	<path style="fill:#666666;" d="M318.923,193.251c0,0,0.022-0.215,0.094-0.584c0.083-0.357,0.167-0.922,0.349-1.561
		c0.081-0.33,0.186-0.675,0.305-1.053c0.156-0.384,0.367-0.771,0.59-1.209c0.221-0.44,0.501-0.875,0.794-1.364
		c0.296-0.497,0.649-0.873,1.01-1.352c0.367-0.461,0.78-0.907,1.212-1.386c0.457-0.433,0.952-0.859,1.479-1.288
		c1.031-0.908,2.29-1.564,3.603-2.294c1.358-0.574,2.799-1.197,4.342-1.485c1.528-0.397,3.131-0.491,4.73-0.566
		c1.599,0.073,3.202,0.159,4.732,0.554c1.545,0.285,2.987,0.911,4.345,1.481c1.314,0.729,2.574,1.384,3.606,2.293
		c0.526,0.43,1.022,0.857,1.48,1.288c0.432,0.48,0.843,0.93,1.212,1.388c0.356,0.477,0.726,0.869,0.997,1.346
		c0.272,0.475,0.535,0.9,0.749,1.331c0.213,0.432,0.419,0.812,0.574,1.195c0.141,0.399,0.267,0.761,0.359,1.103
		c0.205,0.662,0.29,1.23,0.369,1.587c0.069,0.368,0.084,0.577,0.084,0.577s-0.223-0.005-0.601-0.042
		c-0.367-0.048-0.937-0.071-1.566-0.163c-0.326-0.033-0.658-0.094-1.024-0.142c-0.39-0.018-0.774-0.072-1.192-0.105
		c-0.819-0.086-1.674-0.215-2.614-0.251c-0.462-0.03-0.91-0.097-1.378-0.136c-0.485-0.006-0.963-0.031-1.438-0.067
		c-0.93-0.121-1.942-0.05-2.881-0.167c-0.988,0.036-1.933-0.085-2.912-0.055c-0.963-0.072-1.936,0.004-2.902-0.064
		c-0.966,0.066-1.94-0.018-2.905,0.052c-0.98-0.035-1.926,0.091-2.915,0.051c-0.94,0.117-1.954,0.044-2.884,0.166
		c-0.475,0.036-0.953,0.062-1.439,0.067c-0.468,0.039-0.914,0.11-1.378,0.138c-0.958,0.052-1.755,0.142-2.555,0.212
		c-0.42,0.032-0.813,0.063-1.177,0.09c-0.387,0.07-0.742,0.148-1.078,0.192c-0.653,0.115-1.224,0.142-1.587,0.189
		C319.139,193.251,318.923,193.251,318.923,193.251z"/>
	<path style="fill:#666666;" d="M222.823,193.251c0,0,0.022-0.215,0.094-0.584c0.083-0.357,0.167-0.922,0.349-1.561
		c0.081-0.33,0.186-0.675,0.305-1.053c0.157-0.384,0.367-0.771,0.59-1.209c0.221-0.44,0.501-0.875,0.794-1.364
		c0.296-0.497,0.649-0.873,1.01-1.352c0.367-0.461,0.78-0.907,1.212-1.386c0.457-0.433,0.952-0.859,1.479-1.288
		c1.031-0.908,2.29-1.564,3.603-2.294c1.358-0.574,2.799-1.197,4.342-1.485c1.528-0.397,3.131-0.491,4.73-0.566
		c1.599,0.073,3.202,0.159,4.732,0.554c1.545,0.285,2.987,0.911,4.345,1.481c1.314,0.729,2.574,1.384,3.606,2.293
		c0.526,0.43,1.022,0.857,1.48,1.288c0.432,0.48,0.843,0.93,1.212,1.388c0.356,0.477,0.726,0.869,0.997,1.346
		c0.272,0.475,0.535,0.9,0.749,1.331c0.213,0.432,0.419,0.812,0.574,1.195c0.141,0.399,0.267,0.761,0.359,1.103
		c0.205,0.662,0.29,1.23,0.369,1.587c0.069,0.368,0.084,0.577,0.084,0.577s-0.223-0.005-0.601-0.042
		c-0.367-0.048-0.937-0.071-1.566-0.163c-0.326-0.033-0.658-0.094-1.024-0.142c-0.39-0.018-0.774-0.072-1.192-0.105
		c-0.819-0.086-1.674-0.215-2.614-0.251c-0.462-0.03-0.91-0.097-1.378-0.136c-0.485-0.006-0.963-0.031-1.438-0.067
		c-0.93-0.121-1.942-0.05-2.881-0.167c-0.988,0.036-1.933-0.085-2.912-0.055c-0.963-0.072-1.936,0.004-2.902-0.064
		c-0.966,0.066-1.94-0.018-2.905,0.052c-0.98-0.035-1.926,0.091-2.915,0.051c-0.94,0.117-1.954,0.044-2.884,0.166
		c-0.475,0.036-0.953,0.062-1.439,0.067c-0.468,0.039-0.914,0.11-1.378,0.138c-0.958,0.052-1.755,0.142-2.555,0.212
		c-0.42,0.032-0.813,0.063-1.176,0.09c-0.387,0.07-0.742,0.148-1.078,0.192c-0.653,0.115-1.224,0.142-1.587,0.189
		C223.039,193.251,222.823,193.251,222.823,193.251z"/>
</g>
<path style="fill:#4D4D4D;" d="M337.43,245.596c-4.471,0-8.095-3.624-8.095-8.095v-12.948c0-4.471,3.624-8.095,8.095-8.095
	s8.095,3.624,8.095,8.095V237.5C345.526,241.971,341.901,245.596,337.43,245.596z"/>
<path style="fill:#E0B394;" d="M301.793,212.68v38.317c0,6.855-5.558,12.413-12.413,12.413l0,0c-6.855,0-12.413-5.558-12.413-12.413
	V212.68"/>
<g>
</g>
<g>
</g>
<g>
</g>
<g>
</g>
<g>
</g>
<g>
</g>
<g>
</g>
<g>
</g>
<g>
</g>
<g>
</g>
<g>
</g>
<g>
</g>
<g>
</g>
<g>
</g>
<g>
</g>
</svg>
